<svg width="54" height="54" viewBox="0 0 54 54" fill="none" xmlns="http://www.w3.org/2000/svg">
<path d="M39.8273 14.8645C39.7039 14.728 39.5284 14.65 39.3464 14.65H37.3967C37.3967 14.2925 37.1042 14 36.7468 14C36.3893 14 36.0969 14.2925 36.0969 14.65V15.95C36.0969 16.3075 36.3893 16.6 36.7468 16.6C37.1042 16.6 37.3967 16.3075 37.3967 15.95H38.6185L37.7346 23.945C37.7346 23.945 37.7281 23.958 37.7281 23.971C37.2537 26.831 35.096 27.0325 32.1129 27.0065H31.5475H30.9821C27.9925 27.039 25.8413 26.831 25.3669 23.971C25.3669 23.9645 25.3604 23.958 25.3604 23.945L24.4765 15.95H25.6983C25.6983 16.3075 25.9908 16.6 26.3483 16.6C26.7057 16.6 26.9982 16.3075 26.9982 15.95V14.65C26.9982 14.2925 26.7057 14 26.3483 14C25.9908 14 25.6983 14.2925 25.6983 14.65H23.7486C23.5666 14.65 23.3847 14.728 23.2677 14.8645C23.1442 15.001 23.0857 15.183 23.1052 15.3715L24.1906 25.206C24.8795 30.614 28.1225 30.887 30.9041 30.9V37.1205C30.9041 37.751 30.6311 38.258 30.1502 38.5245C29.6303 38.8105 28.9739 38.752 28.389 38.388L19.5502 31.8425C19.7387 31.459 19.8492 31.03 19.8492 30.575C19.8492 28.963 18.5364 27.65 16.9246 27.65C15.3128 27.65 14 28.963 14 30.575C14 32.187 15.3128 33.5 16.9246 33.5C17.6135 33.5 18.2309 33.253 18.7313 32.8565L27.6546 39.4605C28.2265 39.818 28.8439 40 29.4418 40C29.9097 40 30.3647 39.8895 30.7741 39.662C31.6645 39.168 32.1974 38.219 32.1974 37.1205V30.9C34.9725 30.887 38.2221 30.614 38.911 25.1995L39.9963 15.378C40.0158 15.196 39.9573 15.014 39.8338 14.871L39.8273 14.8645ZM16.9246 32.2C16.0277 32.2 15.2998 31.472 15.2998 30.575C15.2998 29.678 16.0277 28.95 16.9246 28.95C17.8215 28.95 18.5494 29.678 18.5494 30.575C18.5494 31.472 17.8215 32.2 16.9246 32.2ZM31.762 29.6C31.684 29.6 31.6125 29.6195 31.5475 29.6455C31.476 29.6195 31.4045 29.6 31.333 29.6C29.1299 29.6 27.1606 29.587 26.1273 27.442C27.5896 28.3195 29.5133 28.313 30.9951 28.3H31.5475H32.0999C32.2819 28.3 32.4704 28.3 32.6654 28.3C34.0432 28.3 35.6809 28.2155 36.9612 27.455C35.9214 29.587 33.9587 29.5935 31.762 29.5935V29.6Z" fill="#FFCC01"/>
<path d="M0 0V-1H-1V0H0ZM54 0H55V-1H54V0ZM54 54V55H55V54H54ZM0 54H-1V55H0V54ZM0 1H54V-1H0V1ZM53 0V54H55V0H53ZM54 53H0V55H54V53ZM1 54V0H-1V54H1Z" fill="#D6C59F" mask="url(#path-1-inside-1_459_49180)"/>
</svg>
