<svg width="45" height="45" viewBox="0 0 45 45" fill="none" xmlns="http://www.w3.org/2000/svg">
<g clip-path="url(#clip0_459_49439)">
<path d="M28.6484 42.75H2.39844V2.25H28.6484V22.245L18.7484 29.7375L14.4059 38.235L23.7659 36.36L44.8484 20.4L39.8309 13.77L30.8984 20.535V0H0.148438V45H30.8984V33.8625L28.6484 35.565V42.75ZM41.6984 19.965L22.8209 34.2525L18.5309 35.1075L20.5184 31.2075L39.3959 16.92L41.6984 19.9575V19.965Z" fill="#F1E4C7"/>
<path d="M11.3828 6.75H6.88281V11.25H11.3828V6.75Z" fill="#F1E4C7"/>
<path d="M11.3828 19.875H6.88281V24.375H11.3828V19.875Z" fill="#F1E4C7"/>
<path d="M11.3828 33.75H6.88281V38.25H11.3828V33.75Z" fill="#F1E4C7"/>
</g>
<defs>
<clipPath id="clip0_459_49439">
<rect width="44.7" height="45" fill="white" transform="translate(0.148438)"/>
</clipPath>
</defs>
</svg>
