<svg width="54" height="54" viewBox="0 0 54 54" fill="none" xmlns="http://www.w3.org/2000/svg">
<g clip-path="url(#clip0_459_49418)">
<path d="M34.3445 51.3H2.84453V2.7H34.3445V26.694L22.4645 35.685L17.2535 45.882L28.4855 43.632L53.7845 24.48L47.7635 16.524L37.0445 24.642V0H0.144531V54H37.0445V40.635L34.3445 42.678V51.3ZM50.0045 23.958L27.3515 41.103L22.2035 42.129L24.5885 37.449L47.2415 20.304L50.0045 23.949V23.958Z" fill="#FFCC01"/>
<path d="M13.6266 8.1001H8.22656V13.5001H13.6266V8.1001Z" fill="#FFCC01"/>
<path d="M13.6266 23.8501H8.22656V29.2501H13.6266V23.8501Z" fill="#FFCC01"/>
<path d="M13.6266 40.5H8.22656V45.9H13.6266V40.5Z" fill="#FFCC01"/>
</g>
<defs>
<clipPath id="clip0_459_49418">
<rect width="53.64" height="54" fill="white" transform="translate(0.179688)"/>
</clipPath>
</defs>
</svg>
