<svg width="45" height="45" viewBox="0 0 45 45" fill="none" xmlns="http://www.w3.org/2000/svg">
<path d="M31.875 39.3116V35.5757C31.875 31.4476 28.5188 28.104 24.375 28.104H9.375C5.23125 28.104 1.875 31.4476 1.875 35.5757V39.3116" stroke="#221F20" stroke-width="2.5" stroke-linecap="round" stroke-linejoin="round"/>
<path d="M16.875 20.6324C21.0171 20.6324 24.375 17.2872 24.375 13.1607C24.375 9.03416 21.0171 5.68896 16.875 5.68896C12.7329 5.68896 9.375 9.03416 9.375 13.1607C9.375 17.2872 12.7329 20.6324 16.875 20.6324Z" stroke="#221F20" stroke-width="2.5" stroke-linecap="round" stroke-linejoin="round"/>
<path d="M43.125 39.3114V35.5755C43.125 32.1759 40.8 29.2059 37.5 28.3467" stroke="#221F20" stroke-width="2.5" stroke-linecap="round" stroke-linejoin="round"/>
<path d="M30 5.93164C34.0125 6.959 36.4312 11.0311 35.4 15.0284C34.725 17.6809 32.6437 19.7356 30 20.4081" stroke="#221F20" stroke-width="2.5" stroke-linecap="round" stroke-linejoin="round"/>
</svg>
