<svg width="23" height="45" viewBox="0 0 23 45" fill="none" xmlns="http://www.w3.org/2000/svg">
<path d="M11.26 37.2961C16.5061 37.2961 20.9225 34.9018 22.2568 32.9877V29.1357C17.5582 36.2806 4.95939 36.2734 0.265625 29.1357V32.9877C1.59987 34.8994 6.01627 37.2961 11.2624 37.2961H11.26Z" fill="#F1E4C7"/>
<path d="M0.257812 34.3667V37.5353C1.63749 38.8495 6.00845 41.2176 11.2546 41.2176C16.5007 41.2176 20.8693 38.8495 22.2513 37.2963V34.3667C17.9927 39.7743 4.86789 39.7552 0.257812 34.3667Z" fill="#F1E4C7"/>
<path d="M11.2546 6.21528C12.7538 8.70282 15.6781 13.6755 22.2513 17.5705V14.1391C17.2874 10.7005 13.4759 5.60354 11.2546 0C9.03561 5.60593 5.22178 10.7029 0.257812 14.1391V17.5705C6.82861 13.6755 9.75295 8.70043 11.2546 6.21528Z" fill="#F1E4C7"/>
<path d="M11.2546 33.3725C16.5007 33.3725 20.929 30.6699 22.2513 27.0043V23.3124C17.9856 21.3052 14.1478 18.2776 11.2546 14.4185C8.32067 18.3302 4.4614 21.3339 0.257812 23.3124V27.0043C1.5801 30.6699 6.00845 33.3725 11.2546 33.3725ZM11.2546 18.8177C13.7246 21.4295 16.6418 23.604 19.8028 25.2552C19.4107 28.2445 15.7284 30.5959 11.2546 30.5959C6.78079 30.5959 3.09846 28.2445 2.70632 25.2552C5.86738 23.604 8.78454 21.4318 11.2546 18.8177Z" fill="#F1E4C7"/>
<path d="M11.2546 13.0015C14.1741 16.8177 17.9354 19.9313 22.2513 22.0508V18.8512C17.6628 16.2991 13.8465 12.4782 11.2546 7.84961C8.66499 12.4782 4.84637 16.2991 0.257812 18.8512V22.0508C4.57378 19.9289 8.33501 16.8177 11.2546 13.0015Z" fill="#F1E4C7"/>
<path d="M10.2537 23.9116L11.2556 25.2736V20.915L12.255 23.9092L11.2556 25.2736L15.5165 23.9092L12.8791 25.828L11.2556 25.2736L13.9073 28.9392L11.2556 27.0084V25.2736L8.60619 28.9392L9.63437 25.828L11.2556 25.2736L6.99219 23.9187L10.2537 23.9116Z" fill="#F1E4C7"/>
</svg>
