<svg width="23" height="45" viewBox="0 0 23 45" fill="none" xmlns="http://www.w3.org/2000/svg">
<path d="M11.2561 37.3005C16.5022 37.3005 20.9186 34.9062 22.2529 32.9921V29.1401C17.5543 36.285 4.95549 36.2778 0.261719 29.1401V32.9921C1.59596 34.9038 6.00997 37.3005 11.2585 37.3005H11.2561Z" fill="#F1E4C7"/>
<path d="M11.2507 33.3725C16.4968 33.3725 20.9251 30.6699 22.2474 27.0043V23.3124C17.9817 21.3052 14.1439 18.2776 11.2507 14.4185C8.32394 18.3206 4.46945 21.3291 0.253906 23.3124V27.0043C1.5762 30.6699 6.00216 33.3725 11.2507 33.3725ZM11.2507 18.8177C13.7207 21.4295 16.6379 23.604 19.7989 25.2552C19.4068 28.2445 15.7245 30.5959 11.2507 30.5959C6.77688 30.5959 3.09456 28.2445 2.70241 25.2552C5.86347 23.604 8.78064 21.4319 11.2507 18.8177Z" fill="#F1E4C7"/>
<path d="M11.2507 6.21528C12.7499 8.70282 15.6742 13.6755 22.2474 17.5705V14.1391C17.2835 10.7005 13.472 5.60355 11.2507 0C9.03171 5.60594 5.21787 10.7029 0.253906 14.1391V17.5705C6.83666 13.6683 9.76339 8.67892 11.2507 6.21528Z" fill="#F1E4C7"/>
<path d="M0.253906 34.3691V37.2988C1.63358 38.852 6.00216 41.22 11.2507 41.22C16.4992 41.22 20.8654 38.852 22.2474 37.2988V34.3691C17.9769 39.7911 4.53162 39.8006 0.253906 34.3691Z" fill="#F1E4C7"/>
<path d="M11.2507 13.0015C14.1702 16.8177 17.9315 19.9313 22.2474 22.0508V18.8512C17.6589 16.2991 13.8426 12.4782 11.2507 7.84961C8.66108 12.4782 4.84247 16.2991 0.253906 18.8512V22.0508C4.56988 19.9289 8.33111 16.8177 11.2507 13.0015Z" fill="#F1E4C7"/>
</svg>
