<svg width="23" height="45" viewBox="0 0 23 45" fill="none" xmlns="http://www.w3.org/2000/svg">
<path d="M11.2539 6.45119C14.0332 11.0537 17.774 14.9087 22.2539 17.5622V14.1324C17.2885 10.6955 13.4759 5.6009 11.2539 0C9.03429 5.60329 5.21933 10.6978 0.253906 14.1324V17.5622C4.7314 14.9087 8.47221 11.0561 11.2539 6.45119Z" fill="#221F20"/>
<path d="M11.2539 12.9962C14.1743 16.8105 17.9367 19.9227 22.2539 22.0412V18.8431C17.664 16.2922 13.8466 12.4731 11.2539 7.84668C8.66356 12.4731 4.84382 16.2922 0.253906 18.8431V22.0412C4.57115 19.9203 8.33349 16.8105 11.2539 12.9962Z" fill="#221F20"/>
<path d="M11.2539 33.3577C18.0515 33.3577 22.2539 28.9271 22.2539 26.3978V23.2999C18.0228 21.3128 14.1719 18.3009 11.2539 14.4102C8.33827 18.2962 4.48744 21.3104 0.253906 23.2999V26.3978C0.253906 28.9271 4.45156 33.3577 11.2539 33.3577ZM11.2539 18.8097C13.7247 21.4202 16.6427 23.5937 19.8047 25.2441C19.4124 28.2321 15.729 30.5823 11.2539 30.5823C6.7788 30.5823 3.09539 28.2321 2.70313 25.2441C5.86513 23.5937 8.78315 21.4226 11.2539 18.8097Z" fill="#221F20"/>
</svg>
