<svg width="23" height="45" viewBox="0 0 23 45" fill="none" xmlns="http://www.w3.org/2000/svg">
<path d="M11.2554 37.3093C16.5031 37.3093 20.9208 34.9142 22.2554 32.9996V29.1465C17.5555 36.2934 4.95296 36.2862 0.257812 29.1465V32.9996C1.59245 34.9118 6.00776 37.3093 11.2578 37.3093H11.2554Z" fill="#F1E4C7"/>
<path d="M16.2655 27.3576L17.2797 26.6334L18.2938 27.3576L17.9087 26.1721L18.9085 25.4311L17.6623 25.4335L17.2797 24.2861L16.8946 25.4335L15.6484 25.4311L16.6506 26.1721L16.2655 27.3576Z" fill="#F1E4C7"/>
<path d="M11.2578 33.3825C16.5055 33.3825 20.9351 30.6791 22.2578 27.0124V23.3195C17.9908 21.3116 14.1519 18.2831 11.2578 14.4229C8.32065 18.3381 4.46264 21.3403 0.257812 23.3195V27.0124C1.58049 30.6791 6.01015 33.3825 11.2578 33.3825ZM11.2578 18.8233C13.7286 21.4359 16.6466 23.6111 19.8086 25.2628C19.4163 28.253 15.7329 30.605 11.2578 30.605C6.78271 30.605 3.0993 28.253 2.70704 25.2628C5.86903 23.6111 8.78706 21.4383 11.2578 18.8233Z" fill="#F1E4C7"/>
<path d="M5.17809 26.6334L6.19223 27.3576L5.80474 26.1721L6.80692 25.4311L5.56079 25.4335L5.17809 24.2861L4.79301 25.4335L3.54688 25.4311L4.54904 26.1721L4.16156 27.3576L5.17809 26.6334Z" fill="#F1E4C7"/>
<path d="M11.2578 13.0055C14.1782 16.8228 17.9406 19.9373 22.2578 22.0575V18.8569C17.6679 16.3041 13.8506 12.482 11.2578 7.85205C8.66747 12.482 4.84772 16.3041 0.257812 18.8569V22.0575C4.57506 19.9349 8.33739 16.8228 11.2578 13.0055Z" fill="#F1E4C7"/>
<path d="M11.2578 6.21711C12.7575 8.70538 15.6827 13.6795 22.2578 17.5757V14.1433C17.2924 10.7037 13.4798 5.6052 11.2578 0C9.0382 5.60759 5.22324 10.706 0.257812 14.1433V17.5757C6.83772 13.6748 9.76531 8.69104 11.2578 6.21711Z" fill="#F1E4C7"/>
<path d="M0.257812 34.3799V37.3104C1.6379 38.864 6.00776 41.2328 11.2578 41.2328C16.5079 41.2328 20.8753 38.864 22.2578 37.3104V34.3799C17.9836 39.8058 4.53679 39.813 0.257812 34.3799Z" fill="#F1E4C7"/>
<path d="M15.6364 26.8164C15.7153 26.6562 15.7488 26.5701 15.7488 26.5701C15.7488 26.5701 15.6579 26.5917 15.4594 26.6729L15.4809 26.618L15.457 26.6299L15.6292 26.0132C15.6292 26.0132 15.5407 26.0515 15.3781 26.159C15.3996 26.0276 15.4092 25.9319 15.4092 25.9319C15.4092 25.9319 14.9069 26.3407 14.5361 26.6586C14.5313 26.6108 14.5146 26.5032 14.5146 26.5032C14.5146 26.5032 14.1702 26.9765 14.1582 26.9956C14.1439 26.998 14.2491 26.9884 14.2969 26.9813L14.0841 27.7414L13.9717 27.9469C13.9382 27.9254 13.8999 27.9159 13.8592 27.9183C13.8114 27.9207 13.6225 27.9828 13.577 28.0951C13.5627 28.1071 13.5507 28.1238 13.5364 28.1406C13.4789 28.1453 13.2804 28.1621 13.2254 28.1501C13.1967 28.1429 13.1656 28.131 13.1345 28.1143C13.1369 28.1047 13.1369 28.0928 13.1345 28.0832C13.113 28.0043 13.0699 27.9183 13.0197 27.8466C12.9169 27.6386 12.6585 27.445 12.4218 27.39V27.1749C12.4385 27.194 12.5485 27.2968 12.5724 27.304C12.6251 27.2418 12.692 27.151 12.704 27.0697C12.8356 27.1725 13.0078 27.1916 13.0388 27.194C13.101 27.0936 13.1369 27.0195 13.1226 26.9167C13.2661 26.9884 13.3833 26.9908 13.3881 26.9908C13.4239 26.9908 13.4359 26.9621 13.4479 26.9406C13.4789 26.8809 13.4789 26.8044 13.467 26.7422C13.5674 26.7518 13.6846 26.6873 13.7707 26.6299C13.7684 26.6012 13.7707 26.5439 13.7588 26.5128C13.8664 26.5319 14.0554 26.5367 14.0721 26.4291C14.0817 26.3622 14.0004 26.2188 13.9645 26.159C14.0721 26.1495 14.2132 26.0873 14.2467 26.0156C14.2706 25.9678 14.2395 25.8626 14.2061 25.7933C14.4548 25.6953 14.4668 25.5543 14.3161 25.4204C14.3974 25.387 14.5218 25.32 14.505 25.234C14.505 25.1862 14.4859 25.1432 14.4524 25.1073C14.5122 25.0786 14.5648 25.0356 14.572 24.9758C14.5768 24.9448 14.5696 24.9161 14.5529 24.8898C14.5337 24.8563 14.5098 24.8276 14.4859 24.8061C14.5266 24.7679 14.5696 24.7177 14.5792 24.6675C14.5887 24.6173 14.5696 24.5934 14.5361 24.5599C14.6222 24.5026 14.7155 24.4237 14.7012 24.352C14.6988 24.3185 14.6629 24.2874 14.6366 24.2707C14.7538 24.2014 14.8399 24.1249 14.8949 24.046C14.9547 23.9552 14.9738 23.8906 14.8806 23.8237C15.0934 23.6779 15.4259 23.4317 15.0456 23.3481C15.2728 23.1521 15.3757 22.882 15.3709 22.7935C14.9571 22.8748 14.6988 22.8724 13.943 23.3457C13.9477 23.2859 13.986 23.121 14.0315 23.0254C14.0458 23.0015 14.0434 22.9752 14.0291 22.9561C14.1367 22.9561 14.2204 22.9608 14.2754 22.9274C14.3878 22.8557 14.3926 22.7099 14.3209 22.6429C14.2802 22.6071 14.2276 22.478 14.2395 22.4421C14.2802 22.2987 14.2802 22.1912 14.2395 22.1218C14.163 21.9952 13.919 22.0023 13.8736 22.1123C13.8736 22.1123 13.8688 22.1242 13.864 22.1481C13.8569 22.1816 13.8401 22.2342 13.8545 22.3083C13.8664 22.3633 13.9166 22.4302 13.9238 22.5043C13.8832 22.5186 13.3952 22.5497 13.357 22.6979C13.3402 22.7385 13.333 22.8222 13.3881 22.913C13.412 22.9537 13.4287 22.9871 13.4407 23.0134C13.3522 23.0301 13.2685 23.054 13.1895 23.0875C12.881 23.2166 11.874 23.9815 11.886 24.144C11.8979 24.2826 11.9769 24.2659 12.0128 24.2922C12.051 24.3161 12.0965 24.3974 12.1108 24.4524C12.1419 24.5599 12.2448 24.536 12.3237 24.5241C12.362 24.5193 12.4481 24.5265 12.5246 24.5528C12.5509 24.5814 12.5461 24.5934 12.5174 24.6125C12.5031 24.6101 12.4863 24.6077 12.472 24.6077C12.3787 24.6077 12.2017 24.6508 12.1252 25.0667C12.1252 25.0714 12.1108 25.1288 12.1108 25.136C12.0725 25.0284 11.9673 24.9448 11.8956 24.9089C11.9243 24.8587 11.9577 24.7798 11.9482 24.6938C11.9745 24.7057 12.0582 24.701 12.0797 24.689C12.0702 24.6699 12.0175 24.5073 12.0008 24.4787C11.776 24.1058 11.4076 24.1273 11.1995 24.1249C11.0799 24.1249 11.0297 24.1297 10.9843 24.1942C10.958 24.1942 10.9293 24.1942 10.9006 24.1894C10.8336 24.1751 10.7857 24.1894 10.7618 24.2133C10.5561 24.1894 10.6064 24.254 10.6159 24.1464C10.6279 23.9863 9.62093 23.219 9.31238 23.0899C9.23345 23.0564 9.15213 23.0325 9.06124 23.0158C9.0732 22.9895 9.08995 22.9561 9.11387 22.9154C9.16888 22.8246 9.16171 22.7385 9.14496 22.7003C9.1067 22.5545 8.62594 22.5234 8.5781 22.5067C8.59006 22.3752 8.68095 22.3609 8.6379 22.1553C8.60441 21.9928 8.33653 22.0023 8.25999 22.1266C8.21693 22.1959 8.21693 22.3035 8.25999 22.4469C8.26955 22.4828 8.21932 22.6119 8.17866 22.6477C8.1069 22.7146 8.11169 22.8581 8.2241 22.9322C8.27672 22.9656 8.36044 22.9632 8.47047 22.9608C8.45612 22.98 8.45372 23.0086 8.46807 23.0301C8.51352 23.1234 8.55418 23.2763 8.55896 23.3457C7.79836 22.8748 7.55679 22.8796 7.13822 22.7983C7.13583 22.8867 7.23628 23.1568 7.46351 23.3528C7.0832 23.4365 7.41567 23.6827 7.62854 23.8285C7.53526 23.8954 7.5544 23.9624 7.61419 24.0508C7.6692 24.1321 7.75531 24.2086 7.87251 24.2755C7.8462 24.2946 7.81032 24.3233 7.80793 24.3567C7.79358 24.4285 7.88686 24.5073 7.97296 24.5647C7.93948 24.5982 7.92035 24.6221 7.92991 24.6723C7.93948 24.7225 7.98015 24.7727 8.0232 24.8109C7.99928 24.8348 7.97775 24.8611 7.95622 24.8946C7.93948 24.9209 7.9323 24.9519 7.93708 24.9806C7.94426 25.0428 7.99927 25.0834 8.05667 25.1121C8.02319 25.1479 8.00406 25.191 8.00406 25.2388C7.98732 25.3248 8.11408 25.3894 8.19301 25.4252C8.04232 25.5591 8.05429 25.7025 8.30304 25.7981C8.26716 25.8674 8.23846 25.9726 8.26238 26.0204C8.29587 26.0921 8.43698 26.1518 8.54461 26.1638C8.51113 26.2236 8.42741 26.367 8.43698 26.4339C8.45372 26.5415 8.64268 26.5367 8.75031 26.5176C8.73835 26.5486 8.74074 26.606 8.73835 26.6347C8.82446 26.6921 8.94165 26.7542 9.0421 26.747C9.03014 26.8116 9.03015 26.8857 9.06124 26.9454C9.0732 26.9669 9.08516 26.9956 9.12104 26.9956C9.12821 26.9956 9.24302 26.9956 9.38653 26.9215C9.37218 27.0219 9.40806 27.096 9.47025 27.1988C9.50134 27.1988 9.67355 27.1797 9.8051 27.0745C9.81945 27.1558 9.88643 27.2442 9.93666 27.3087C9.95818 27.2992 10.0706 27.1964 10.0873 27.1797V27.3924C9.84099 27.4474 9.57788 27.6529 9.47981 27.8657C9.43676 27.9302 9.36022 28.0784 9.37457 28.1214C9.30042 28.1621 9.26216 28.1764 8.97514 28.1501C8.96318 28.1334 8.94883 28.1166 8.93448 28.1047C8.90578 28.0354 8.82923 27.99 8.75987 27.9613C8.97035 27.7509 9.04689 27.4139 9.03254 27.3398C8.85794 27.3661 8.56854 27.3948 8.41307 27.6004C8.46808 27.2179 8.14995 26.8904 8.08537 26.8833C8.10212 26.9598 8.06385 27.1151 8.05667 27.1916C8.03515 27.1127 7.98731 26.9884 7.93708 26.9239C7.90838 26.9311 7.86533 26.9741 7.83423 27.0315C7.83423 26.9956 7.82229 26.9598 7.80076 26.9311C7.85816 26.8594 7.93709 26.7733 7.95861 26.6825C7.98971 26.5462 7.95383 26.3096 7.91556 26.202C7.89165 26.2379 7.85577 26.2498 7.81511 26.3024C7.82468 26.1662 7.77444 25.8316 7.85098 25.7216C7.81032 25.6953 7.59028 25.7264 7.45634 25.9439C7.40611 25.6188 7.21953 25.4682 7.15974 25.4515C6.98274 25.6523 6.91338 25.9845 6.94926 26.257C6.83206 26.1853 6.63115 26.1734 6.48047 26.1734C6.51395 26.4435 6.55462 26.7566 6.82489 26.8952C6.86316 26.9143 6.92773 26.9359 6.9947 26.9669C7.02101 26.9956 7.0569 27.0171 7.09517 27.0243C7.11191 27.0363 7.13344 27.0554 7.14301 27.0745C6.93253 27.0315 6.66942 27.1175 6.50678 27.1247C6.51634 27.1534 6.557 27.3518 6.69812 27.4546C6.67898 27.4641 6.63832 27.4952 6.63832 27.531C6.69333 27.7581 6.93013 27.9135 7.24346 27.9159C7.09517 27.9995 7.00427 28.1669 6.89425 28.339C7.14061 28.4632 7.37741 28.4178 7.49939 28.3939C7.44198 28.5278 7.45632 28.6951 7.45872 28.8385C7.55439 28.817 7.69073 28.805 7.78162 28.7453C7.77684 28.8289 7.81511 28.9437 7.82946 29.0106C8.01602 28.9891 8.18584 28.7811 8.24085 28.6855C8.26955 28.7118 8.31022 28.7286 8.33892 28.7309C8.29348 28.9652 8.53982 29.0178 8.64028 28.9246C8.67376 28.9939 8.7527 29.001 8.82924 28.9843C8.88665 28.9724 8.95122 28.9102 9.00384 28.8266C9.03972 28.9317 9.05407 29.0728 9.06603 29.2496C9.08756 29.5198 9.44155 29.7086 9.54918 29.7086C9.58984 29.7086 9.60897 29.6871 9.61615 29.6727C9.66638 29.5843 9.50612 29.3931 9.46067 28.958C9.44393 28.8051 9.39371 28.6784 9.30521 28.5684C9.36262 28.5684 9.44393 28.5015 9.50612 28.4776C9.62093 28.5971 9.82423 28.6234 9.98448 28.578C10.1495 28.5899 10.3457 28.5326 10.4844 28.4107C10.5418 28.382 10.5298 28.3891 10.6207 28.3867C10.6159 28.4154 10.6207 28.4369 10.6183 28.4656C10.5226 28.5708 10.3624 28.7142 10.2595 28.8003C10.073 28.9556 9.90316 29.2568 9.95818 29.4863C9.98927 29.4863 10.0802 29.4863 10.1711 29.46C10.1663 29.6201 10.2452 29.742 10.2476 29.7468C10.2787 29.7468 10.3504 29.742 10.3959 29.7277C10.4222 29.8616 10.5155 29.9572 10.5179 29.9596C10.5681 29.95 10.6757 29.9141 10.7427 29.84C10.8025 29.9858 10.8766 30.0504 10.879 30.0552C10.8934 30.0671 10.9149 30.0719 10.9317 30.0647C10.9699 30.0504 11.0321 30.0193 11.0847 29.9572C11.1206 30.0145 11.166 30.0647 11.2258 30.1054C11.2426 30.1173 11.2689 30.1197 11.2856 30.1054C11.3454 30.0623 11.3933 30.0145 11.4268 29.9572C11.4794 30.0217 11.5416 30.0528 11.5798 30.0647C11.599 30.0719 11.6181 30.0671 11.6325 30.0552C11.6348 30.0528 11.709 29.9858 11.7688 29.8424C11.8477 29.9309 11.9434 29.9524 11.9888 29.9572C12.008 29.9572 12.0271 29.95 12.0391 29.9357C12.0391 29.9333 12.0893 29.8615 12.118 29.7301C12.1754 29.7516 12.2256 29.7516 12.2591 29.7492C12.2782 29.7492 12.295 29.7373 12.3022 29.7181C12.3022 29.7134 12.3452 29.6225 12.3428 29.4624C12.4696 29.503 12.539 29.4934 12.5485 29.4911C12.5677 29.4863 12.582 29.4719 12.5868 29.4528C12.6418 29.2234 12.4194 28.9676 12.2328 28.8098C12.13 28.7238 12.0415 28.6258 11.9482 28.5206C11.9482 28.4919 11.9243 28.4178 11.9195 28.3891C12.0247 28.3891 11.9936 28.3844 12.0391 28.4083C12.1802 28.5302 12.3739 28.5875 12.539 28.5732C12.6992 28.6162 12.9025 28.5899 13.0149 28.4728C13.0771 28.4967 13.1608 28.5636 13.2182 28.5636C13.2948 28.5636 13.2948 28.4943 13.4502 28.5373C13.4383 28.5708 13.4359 28.6114 13.4431 28.6497L13.3546 28.6975L13.1943 28.6497C13.168 28.6425 12.6992 28.9293 12.6992 28.9293L12.9073 29.0034L12.7997 29.1445L12.9121 29.1708L12.9073 29.2568L13.0197 29.264L12.991 29.3142L13.0365 29.307C13.0436 29.4074 13.0484 29.3739 13.0197 29.4552C13.0197 29.4552 13.1106 29.4456 13.1393 29.4361L13.1154 29.4839C13.1154 29.4839 13.2015 29.4743 13.302 29.448C13.3378 29.5747 13.3809 29.6536 13.3809 29.6536C13.4263 29.5723 13.4024 29.613 13.4239 29.5891C13.4287 29.6082 13.4646 29.6679 13.4694 29.6895C13.4622 29.7014 13.6799 29.546 13.6799 29.546L13.8234 29.742C13.8234 29.742 13.9717 29.2592 13.9573 29.2329L13.8855 29.1062L13.931 28.9437C14.0243 28.9795 14.2204 28.9317 14.1798 28.7166C14.2754 28.707 14.4022 28.5971 14.2802 28.3915L14.9834 28.0163C14.9834 28.076 15.0049 28.174 15.0049 28.174L15.4402 27.6768L15.2561 27.6864L15.4833 27.2801L15.5144 27.3518L15.8205 26.7638C15.8205 26.7638 15.7177 26.7877 15.6483 26.814L15.6364 26.8164ZM10.1687 24.5121C10.2356 24.5217 10.348 24.5528 10.3815 24.4404C10.3911 24.4093 10.4078 24.3711 10.4294 24.3376C10.4007 24.3974 10.3815 24.4715 10.3887 24.5528C10.372 24.5982 10.3672 24.6388 10.3672 24.6531C10.3552 24.7009 10.3241 24.7488 10.2811 24.7894C10.2141 24.6675 10.1089 24.5695 9.97253 24.6006C9.95578 24.591 9.94861 24.5814 9.94861 24.5766C9.94861 24.5671 9.95579 24.5528 9.96536 24.5432C10.0419 24.5169 10.128 24.5073 10.1663 24.5145L10.1687 24.5121ZM10.5896 25.6069C10.5753 25.6212 10.5585 25.6356 10.5442 25.6499H10.073V25.712C9.67356 25.6379 9.39371 25.1766 9.43437 25.0284C9.45589 24.9519 9.53004 24.9161 9.6018 24.8826C9.68551 24.842 9.81227 24.7822 9.7453 24.6316C9.53243 24.1679 9.1928 23.7855 8.76945 23.4819C9.26216 23.458 9.719 23.8046 10.0419 24.1775C9.90078 24.2492 9.73813 24.3998 9.76683 24.6221C9.76922 24.6436 9.77401 24.6627 9.78358 24.6771C9.80989 24.7153 9.86251 24.7344 9.93426 24.7201C10.0036 24.7392 10.0515 24.7942 10.0515 24.8802C10.0515 25.1192 10.3481 25.1694 10.5035 24.9902C10.6255 24.8515 10.6446 24.7727 10.6901 24.634C10.6925 24.634 10.6973 24.634 10.6997 24.634C10.7188 24.6914 10.7092 24.7249 10.6877 24.7846C10.6327 24.94 10.5298 25.1957 10.7236 25.3798C10.659 25.4491 10.6135 25.5232 10.5896 25.6021V25.6069ZM11.0297 25.1408C10.9699 25.1193 10.9293 25.0906 10.9221 25.0643C10.9149 25.0428 10.934 25.0165 10.9484 24.9973C10.9962 24.9424 11.0273 24.885 11.0417 24.8276C11.0704 24.8492 11.1063 24.8659 11.1421 24.8778C11.1517 25.0404 11.0871 25.093 11.0297 25.136V25.1408ZM12.1252 25.5806C12.118 25.5519 12.106 25.528 12.0893 25.5041C12.1443 25.4993 12.2065 25.4754 12.2735 25.43C12.5055 25.2722 12.4433 25.0786 12.4433 24.8922C12.4433 24.7679 12.5246 24.7344 12.5509 24.7249C12.637 24.744 12.7112 24.7105 12.716 24.6245C12.7566 24.4285 12.6203 24.2731 12.4409 24.1799C12.6538 23.9361 13.1178 23.4771 13.6559 23.4819C13.6823 23.4819 13.7062 23.4819 13.7277 23.4819C13.3091 23.7879 12.9623 24.1679 12.7471 24.6364C12.6777 24.7846 12.8044 24.8468 12.8906 24.8874C12.9623 24.9209 13.0365 24.9567 13.058 25.0332C13.0986 25.179 12.8188 25.6427 12.4194 25.7168V25.6547H12.1921C12.1658 25.6212 12.1419 25.5973 12.1252 25.5854V25.5806ZM14.5529 26.8833L14.5409 26.7494C14.5553 26.7566 14.5672 26.7542 14.6222 26.7566L14.5529 26.8833ZM14.9427 26.5558L14.9619 26.3694L15.0504 26.3741L14.9427 26.5582V26.5558ZM15.1987 26.7494L15.3661 26.5199C15.39 26.5677 15.445 26.6371 15.445 26.6371L15.1987 26.7494ZM15.3206 27.2968L15.445 27.2083L15.457 27.2562L15.3206 27.2968Z" fill="#F1E4C7"/>
<path d="M15.4159 26.8792L15.4255 26.9151L15.5594 26.8601L15.6694 26.6426L15.2461 26.8171L15.4159 26.8792Z" fill="#F1E4C7"/>
<path d="M14.375 28.1576C14.662 28.0046 14.5592 28.0739 14.8558 27.8253C14.851 27.8229 14.8462 27.8181 14.7984 27.7847C14.6285 27.9281 14.717 27.8516 14.375 28.1576Z" fill="#F1E4C7"/>
<path d="M15.1008 27.6137L15.0936 27.5778L15.0577 27.5635L14.8281 27.7571C14.876 27.7499 14.8449 27.7571 14.9525 27.7404L15.1008 27.6161V27.6137Z" fill="#F1E4C7"/>
<path d="M15.4336 27.0984L15.4025 27.0864L14.1133 28.2457C14.1922 28.2935 14.0511 28.3915 15.4455 27.139L15.4336 27.0984Z" fill="#F1E4C7"/>
<path d="M15.1624 27.0273L15.148 26.9915L15.1145 26.9819L14.5859 27.5795L15.1624 27.0273Z" fill="#F1E4C7"/>
<path d="M14.1713 27.9978C14.1402 28.1102 14.1211 28.1915 14.1211 28.1915C14.1211 28.1915 14.255 27.9787 14.6329 27.3334L14.5995 27.2808L14.1713 28.0002V27.9978Z" fill="#F1E4C7"/>
<path d="M14.6633 27.3916L14.649 27.3677C14.4672 27.6689 14.46 27.6665 14.6633 27.3916Z" fill="#F1E4C7"/>
<path d="M14.2578 28.0388L15.2911 27.0492C15.2743 27.0421 15.2815 27.0469 15.2217 27.0229C14.3391 27.8691 14.4181 27.7687 14.2602 28.0388H14.2578Z" fill="#F1E4C7"/>
<path d="M15.3835 26.9084L15.3524 26.8965L15.2734 26.9706C15.2926 26.9634 15.2663 26.973 15.3882 26.9252L15.3835 26.906V26.9084Z" fill="#F1E4C7"/>
<path d="M15.3568 26.3812L15.4381 26.5414L15.5625 26.1016L15.352 26.2402L15.3281 26.3764L15.3568 26.3812Z" fill="#F1E4C7"/>
<path d="M15.1259 26.3608L14.913 26.7242C14.9035 26.7911 14.8963 26.8341 14.8867 26.9034L15.1833 26.3991L15.1618 26.3632H15.1283L15.1259 26.3608Z" fill="#F1E4C7"/>
<path d="M15.0586 26.9286L15.1806 26.9596L15.1949 27.0003L15.3145 26.8855C15.2308 26.8545 15.2499 26.8616 15.1638 26.8306C15.0969 26.8664 15.1184 26.8449 15.0586 26.9286Z" fill="#F1E4C7"/>
<path d="M15.2727 26.5573C15.2727 26.5573 15.2368 26.4999 15.2344 26.4951L14.8613 27.0066C14.6939 27.2935 14.7226 27.2289 14.7058 27.3269C14.7034 27.3461 14.6412 27.4249 15.2751 26.5549L15.2727 26.5573Z" fill="#F1E4C7"/>
<path d="M14.7383 27.1414L14.8555 26.9406L14.8148 26.8784C14.7646 26.9645 14.7813 26.9119 14.7407 27.1414H14.7383Z" fill="#F1E4C7"/>
<path d="M15.3316 26.4146C15.3173 26.4958 15.3197 26.4815 15.3125 26.5197L15.3603 26.4528L15.3412 26.4146H15.3292H15.3316Z" fill="#F1E4C7"/>
<path d="M15.2696 26.4791L15.3486 26.0273L14.9922 26.3166L15.174 26.3261L15.2696 26.4791Z" fill="#F1E4C7"/>
<path d="M8.41511 22.2669C8.52035 22.2956 8.57535 22.2334 8.56578 22.1641C8.56578 22.1593 8.55861 22.1354 8.55622 22.1306C8.53469 22.0828 8.32422 22.0542 8.32422 22.2047C8.32422 22.2191 8.32421 22.298 8.37204 22.3745C8.384 22.3171 8.40315 22.286 8.41511 22.2645V22.2669Z" fill="#F1E4C7"/>
<path d="M7.58117 27.5483C7.32046 27.3571 6.94494 27.3906 6.69141 27.5173C6.88275 27.5818 7.08846 27.5842 7.28698 27.6057C7.70794 27.6535 7.56204 27.7443 7.58117 27.5483Z" fill="#F1E4C7"/>
<path d="M7.40203 27.2706C7.15807 27.0173 6.81125 27.1368 6.5625 27.1463C6.81364 27.285 7.14132 27.2467 7.41399 27.3734C7.39964 27.3423 7.39486 27.3065 7.40203 27.2706Z" fill="#F1E4C7"/>
<path d="M7.70353 27.8947C7.26583 27.811 7.07925 28.1003 6.94531 28.3058C7.21559 28.2891 7.46673 28.1265 7.73461 28.0644C7.69634 28.019 7.68201 27.9544 7.70353 27.8947Z" fill="#F1E4C7"/>
<path d="M7.93765 28.0927H7.93286C7.91373 28.1071 7.8898 28.1166 7.86589 28.119C7.77739 28.1812 7.69607 28.2505 7.598 28.2935C7.50711 28.4202 7.46646 28.5947 7.46885 28.7787C7.69368 28.6688 7.78696 28.3724 7.94721 28.2098C7.92808 28.174 7.92568 28.131 7.94003 28.0903L7.93765 28.0927Z" fill="#F1E4C7"/>
<path d="M7.22746 26.843C7.22746 26.7737 7.17245 26.7188 7.10787 26.7188C7.04329 26.7188 6.98828 26.7737 6.98828 26.843C6.98828 26.9124 7.04329 26.9673 7.10787 26.9673C7.17245 26.9673 7.22746 26.9124 7.22746 26.843Z" fill="#F1E4C7"/>
<path d="M8.58118 28.3705C8.58118 28.3586 8.5764 28.3466 8.57162 28.3347C8.53574 28.3825 8.49747 28.4279 8.47833 28.4303C8.36592 28.4446 8.3707 28.3442 8.49029 28.2725H8.48551C8.44007 28.2414 8.342 28.3203 8.2822 28.4135C8.24632 28.4709 8.27264 28.4566 8.23438 28.557C8.23438 28.643 8.32047 28.6765 8.36113 28.6693C8.36113 28.6693 8.43528 28.4637 8.58118 28.3705Z" fill="#F1E4C7"/>
<path d="M8.25097 28.189C8.22466 28.275 8.12899 28.3204 8.04288 28.287C7.98309 28.385 7.94481 28.5093 7.85632 28.6073C7.83001 28.7363 7.83 28.8654 7.85153 28.9562C8.06679 28.7387 8.10985 28.4352 8.27488 28.2176C8.26771 28.2105 8.25815 28.2009 8.25337 28.1913L8.25097 28.189Z" fill="#F1E4C7"/>
<path d="M7.09923 26.6801C7.20686 26.6801 7.21883 26.7781 7.1973 26.6657C7.18774 26.6394 7.18774 26.6323 7.1686 26.5916C7.13033 26.5677 7.01313 26.4984 6.95812 26.3478C6.82418 26.2259 6.6974 26.1948 6.51562 26.1948C6.67349 26.3502 6.85288 26.5223 6.99161 26.7231C7.02031 26.6968 7.05618 26.6801 7.09923 26.6801Z" fill="#F1E4C7"/>
<path d="M7.65734 27.1532C7.72431 27.1532 7.77693 27.0983 7.77693 27.0289C7.77693 26.9286 7.66929 26.8688 7.58796 26.9262C7.4899 26.9955 7.53774 27.1532 7.65494 27.1532H7.65734Z" fill="#F1E4C7"/>
<path d="M7.36905 26.8615C7.36426 26.8926 7.34991 27.0886 7.36905 27.1962C7.41927 27.2392 7.39535 27.2368 7.42405 27.2009C7.4384 27.1412 7.45993 27.0886 7.48385 27.0336C7.48385 26.9739 7.51016 26.9165 7.55799 26.8902C7.81631 26.754 7.86655 26.2998 7.86655 26.2998C7.86655 26.2998 7.75891 26.4265 7.72782 26.4791C7.59627 26.644 7.40731 26.6273 7.36665 26.8639L7.36905 26.8615Z" fill="#F1E4C7"/>
<path d="M7.27511 26.8546C7.27032 26.8833 7.26075 26.9574 7.25597 26.9526L7.24879 26.9718C7.26553 27.0005 7.3349 27.0626 7.29663 27.1247C7.28706 27.1104 7.2775 27.0961 7.27271 27.0793C7.25597 27.0363 7.23205 27.022 7.20813 26.9766C7.14355 27.022 7.1579 26.9622 7.19139 27.0745C7.19856 27.0961 7.19617 27.0865 7.21052 27.1056C7.3947 27.1702 7.30381 27.2323 7.32295 26.9694C7.32295 26.967 7.32294 26.9622 7.32533 26.9598C7.32533 26.9359 7.33012 26.912 7.3349 26.8881C7.3349 26.8857 7.3349 26.8809 7.3349 26.8785C7.33969 26.8116 7.28706 26.6897 7.31098 26.5678C7.50711 26.2141 7.40426 25.6404 7.16508 25.4922C7.05745 26.0778 7.25358 26.6563 7.25358 26.6563C7.26553 26.7136 7.27989 26.7973 7.2775 26.8546H7.27511Z" fill="#F1E4C7"/>
<path d="M7.34375 26.6515C7.57815 26.3646 7.55901 25.9822 7.77428 25.7432C7.63077 25.7718 7.51118 25.9105 7.45139 26.0539C7.46334 26.2475 7.42747 26.4363 7.34854 26.5798C7.34375 26.6037 7.34375 26.6276 7.34375 26.6491V26.6515Z" fill="#F1E4C7"/>
<path d="M9.93017 28.3828C9.88234 28.3875 9.86081 28.3852 9.83928 28.3852C9.82015 28.4091 9.80341 28.433 9.78906 28.4569C9.82972 28.4616 9.91104 28.4688 10.033 28.4449C9.9804 28.4282 9.94213 28.4019 9.92778 28.3804L9.93017 28.3828Z" fill="#F1E4C7"/>
<path d="M12.362 25.7075H10.1328V26.5824H12.362V25.7075Z" fill="#F1E4C7"/>
<path d="M11.8286 28.6276C11.8286 28.6276 11.6971 28.3838 11.6923 28.3838C11.6994 28.434 11.6971 28.4842 11.6875 28.532C11.7186 28.575 11.7712 28.618 11.8286 28.6276Z" fill="#F1E4C7"/>
<path d="M10.1376 28.0447C10.1543 28.1594 10.2141 28.2694 10.305 28.31V26.6416H10.1328C10.1328 28.0877 10.1328 27.9969 10.1376 28.0471V28.0447Z" fill="#F1E4C7"/>
<path d="M11.6598 28.5155L11.5665 28.4199C11.5545 28.4462 11.5402 28.4725 11.5234 28.494C11.5641 28.5203 11.6143 28.5299 11.6598 28.5155Z" fill="#F1E4C7"/>
<path d="M9.96385 28.3492C10.0069 28.3421 10.1169 28.2967 10.1743 28.2704C10.1528 28.2441 10.1337 28.2106 10.1169 28.1724C10.0763 28.201 9.95189 28.3014 9.96146 28.3516L9.96385 28.3492Z" fill="#F1E4C7"/>
<path d="M11.6157 28.817C11.5942 28.7477 11.5272 28.6066 11.4985 28.5469C11.5104 28.6066 11.5272 28.6855 11.4961 28.7309C11.5511 28.8098 11.5918 28.8289 11.6157 28.817Z" fill="#F1E4C7"/>
<path d="M8.94693 28.642C8.82494 28.7256 8.82973 28.5822 8.90388 28.4675C8.87278 28.4627 8.84886 28.4723 8.82733 28.4962C8.82016 28.5536 8.78667 28.6205 8.75079 28.6874C8.7197 28.7424 8.70058 28.8021 8.67188 28.8499C8.67427 28.9312 8.73405 28.9456 8.81298 28.9288C8.87039 28.9169 8.97085 28.8093 9.0163 28.6587C9.03543 28.599 9.02108 28.5512 8.99477 28.5201C8.99477 28.5727 8.9828 28.6205 8.94693 28.6444V28.642Z" fill="#F1E4C7"/>
<path d="M8.7634 28.4122C8.75144 28.4744 8.72991 28.5341 8.68446 28.5508C8.54574 28.6082 8.57445 28.4791 8.65338 28.3811C8.55293 28.3692 8.27308 28.7588 8.42137 28.8735C8.45725 28.8998 8.52182 28.9142 8.56487 28.895C8.63184 28.8687 8.65577 28.7803 8.7036 28.6871C8.73948 28.6178 8.83276 28.4624 8.7634 28.4122Z" fill="#F1E4C7"/>
<path d="M8.94141 28.3618C8.95337 28.3881 8.96293 28.4239 8.97011 28.4574C9.07056 28.5267 9.05622 28.6319 9.00599 28.7394C9.09927 28.9307 9.07297 29.2151 9.11841 29.3251C9.20691 29.5378 9.52263 29.6812 9.54894 29.6382C9.57764 29.588 9.42935 29.3561 9.3863 28.9546C9.3552 28.6558 9.18537 28.4956 8.94141 28.3594V28.3618ZM9.41977 29.5928C9.45086 29.588 9.40542 29.5139 9.32888 29.4422C9.24517 29.3633 9.16625 29.3251 9.17342 29.3657C9.05383 29.2031 9.1782 29.2175 9.36237 29.392C9.53219 29.5521 9.57046 29.6836 9.41977 29.5928Z" fill="#F1E4C7"/>
<path d="M9.39378 28.2883C9.4488 28.2022 9.46075 28.1807 9.49184 28.1377C9.47032 28.1377 9.45359 28.1377 9.42967 28.1377C9.31725 28.2094 9.26702 28.2261 8.93695 28.1927C8.95848 28.2261 8.97761 28.2644 8.99675 28.3002C8.95848 28.2859 8.92977 28.2739 8.90107 28.262C8.89629 28.2692 8.8915 28.2739 8.88672 28.2811C9.00153 28.3385 9.10676 28.36 9.19286 28.4341C9.25027 28.446 9.2718 28.4771 9.30768 28.4699C9.34595 28.4628 9.43205 28.4006 9.49424 28.3791C9.51337 28.3576 9.52772 28.3457 9.53968 28.3361C9.49185 28.3361 9.43923 28.3074 9.39618 28.2883H9.39378Z" fill="#F1E4C7"/>
<path d="M9.74588 28.3738C9.70761 28.3738 9.66694 28.3738 9.6215 28.3643C9.58562 28.3786 9.55214 28.4001 9.52344 28.4336C9.53061 28.4407 9.65737 28.4742 9.72674 28.4718C9.74826 28.436 9.75784 28.4168 9.78415 28.381C9.7698 28.381 9.75783 28.3762 9.74348 28.3738H9.74588Z" fill="#F1E4C7"/>
<path d="M7.44173 27.3391C7.46565 27.418 7.55175 27.4515 7.61633 27.4037C7.6833 27.3559 7.67373 27.2579 7.64263 27.2268C7.5637 27.1192 7.40107 27.2077 7.43934 27.3391H7.44173Z" fill="#F1E4C7"/>
<path d="M9.75265 27.7301C9.76939 27.7038 9.78614 27.6823 9.7981 27.6656C9.81484 27.6154 9.84354 27.5676 9.88659 27.5269C9.91769 27.4983 9.94399 27.4839 9.92725 27.4911C9.7383 27.5819 9.5637 27.7468 9.50391 27.9094C9.50391 27.9094 9.69764 27.8114 9.75026 27.7301H9.75265Z" fill="#F1E4C7"/>
<path d="M10.0768 27.834C9.99548 27.8961 9.91415 27.987 9.87109 28.0826C9.87827 28.0874 10.0672 27.9941 10.0768 27.9918C10.0768 27.9511 10.0768 27.9009 10.0768 27.8364V27.834Z" fill="#F1E4C7"/>
<path d="M9.84736 28.1118C9.77799 28.1572 9.70863 28.2146 9.66797 28.2839C9.72059 28.2743 10.0291 28.1883 10.0387 28.1811C9.96934 28.1716 9.90715 28.1525 9.84975 28.1118H9.84736Z" fill="#F1E4C7"/>
<path d="M9.8786 26.4478C9.85947 26.5363 9.8786 26.6295 9.91686 26.6893C9.92404 26.5411 10.0102 26.4024 10.0795 26.2638V26.2231C10.0269 26.3164 9.95992 26.4 9.8786 26.4478Z" fill="#F1E4C7"/>
<path d="M9.36166 25.0926C9.32578 24.801 9.77306 24.8631 9.67738 24.6576C9.05551 23.3023 7.40755 22.884 7.1875 22.8481C8.67522 23.5389 9.07943 24.1724 9.28035 24.4711C9.48365 24.7675 9.12009 24.8488 9.06987 25.2169C9.02442 25.5563 9.68696 25.977 10.0577 26.1133V25.7738C9.68217 25.7117 9.38797 25.3197 9.35927 25.095L9.36166 25.0926Z" fill="#F1E4C7"/>
<path d="M9.44922 28.2732C9.46118 28.2804 9.576 28.2661 9.65493 28.2254C9.67406 28.1991 9.70037 28.1704 9.74342 28.137C9.66688 28.137 9.61905 28.1107 9.57839 28.1035C9.52098 28.1681 9.47792 28.2302 9.44922 28.2732Z" fill="#F1E4C7"/>
<path d="M9.81897 27.8896C9.77831 27.9064 9.73287 27.9207 9.68743 27.9327C9.64916 27.9781 9.61806 28.0259 9.61328 28.0761C9.67786 28.0307 9.93378 27.9064 9.93378 27.9064C9.89551 27.9064 9.85724 27.9064 9.81897 27.8896Z" fill="#F1E4C7"/>
<path d="M8.89314 25.9678C8.78551 26.0204 8.68744 26.0658 8.64439 26.0873C8.58937 26.1709 8.5224 26.2905 8.49609 26.3646C8.72332 26.2809 8.94576 26.1614 9.13233 26.0036C9.07253 26.0275 8.93141 26.0299 8.89314 25.9678Z" fill="#F1E4C7"/>
<path d="M9.35793 26.1553C9.30531 26.1768 9.16658 26.2485 9.11635 26.2509C9.03742 26.3202 8.91065 26.3871 8.84128 26.4206C8.80062 26.4827 8.77671 26.5497 8.76953 26.6094C8.9848 26.5281 9.17614 26.4039 9.35074 26.2652C9.35074 26.2294 9.35314 26.1935 9.35793 26.1553Z" fill="#F1E4C7"/>
<path d="M9.90618 26.7679C9.87987 26.8181 9.86312 26.9161 9.83203 26.952C9.83203 27.0572 9.85355 27.1599 9.91813 27.2388C9.99946 27.0237 10.0664 26.8062 10.0664 26.5791C10.0401 26.6078 9.93727 26.7464 9.90618 26.7679Z" fill="#F1E4C7"/>
<path d="M9.54192 26.3555C9.50126 26.377 9.42712 26.4272 9.38407 26.432C9.17119 26.6351 9.14726 26.6543 9.10182 26.6758C9.07312 26.7666 9.06834 26.855 9.09944 26.9124C9.28122 26.7666 9.44146 26.616 9.58018 26.4511C9.56105 26.4224 9.5491 26.3913 9.54431 26.3555H9.54192Z" fill="#F1E4C7"/>
<path d="M9.44755 26.8005C9.41646 26.8985 9.41406 26.9607 9.41406 26.9607C9.41406 26.9607 9.41406 26.9607 9.41406 26.9583C9.41406 27.0085 9.41406 27.0348 9.46907 27.1232C9.56953 26.8986 9.71543 26.6954 9.81349 26.4707C9.78001 26.4827 9.71304 26.5185 9.67238 26.5161C9.59824 26.6643 9.53843 26.7336 9.44993 26.8005H9.44755Z" fill="#F1E4C7"/>
<path d="M8.52583 28.0439C8.54018 28.0774 8.54258 28.118 8.52823 28.1563C8.54736 28.1802 8.57367 28.2041 8.59998 28.2256C8.61911 28.2184 8.64304 28.2136 8.66456 28.2112C8.65739 28.216 8.64782 28.2304 8.63347 28.2495C8.66695 28.2734 8.70044 28.2925 8.7411 28.2973L8.78415 28.2591C8.78415 28.2591 8.78176 28.2829 8.77936 28.2973C8.81285 28.2925 8.83917 28.2782 8.86069 28.2495C8.8296 28.2399 8.79612 28.2328 8.75785 28.2256C8.70762 28.185 8.72913 28.1037 8.80567 28.1013C8.83437 28.1013 8.86068 28.1109 8.88221 28.1276C8.85351 28.0392 8.69087 27.9818 8.64542 27.9746C8.60715 28.0057 8.56649 28.0296 8.52344 28.0463L8.52583 28.0439Z" fill="#F1E4C7"/>
<path d="M8.15228 27.9717C8.15228 27.9717 8.15707 27.955 8.15947 27.9478C8.11163 27.8714 8.13316 27.7734 8.20491 27.7208C8.24796 27.4578 8.25035 27.171 8.12358 26.9702C8.21208 27.3574 7.86287 27.7303 8.15228 27.9693V27.9717Z" fill="#F1E4C7"/>
<path d="M8.16016 27.8605C8.16016 27.925 8.2056 27.9776 8.2654 27.9872C8.29649 27.9609 8.33715 27.9489 8.3802 27.9513C8.46152 27.87 8.40412 27.729 8.28931 27.729C8.21755 27.729 8.16016 27.7864 8.16016 27.8581V27.8605Z" fill="#F1E4C7"/>
<path d="M8.91576 25.7684C8.86314 25.7636 8.80813 25.7469 8.75312 25.7158C8.68615 25.7565 8.62157 25.7851 8.58091 25.7875C8.5259 25.7923 8.45175 25.7827 8.37999 25.7612C8.32498 25.8353 8.29867 25.9453 8.30585 25.9811C8.52111 25.9405 8.71964 25.8688 8.90859 25.7804C8.91098 25.7756 8.91337 25.7708 8.91815 25.7684H8.91576Z" fill="#F1E4C7"/>
<path d="M8.36959 27.9902C8.30501 27.9902 8.25 28.0404 8.25 28.105C8.25 28.1695 8.30262 28.2197 8.36959 28.2197C8.43656 28.2197 8.48918 28.1695 8.48918 28.105C8.48918 28.0404 8.43656 27.9902 8.36959 27.9902Z" fill="#F1E4C7"/>
<path d="M7.72656 27.9517C7.72656 28.0258 7.78396 28.0856 7.85332 28.0856C7.92268 28.0856 7.9801 28.0258 7.9801 27.9517C7.9801 27.8776 7.92268 27.8179 7.85332 27.8179C7.78396 27.8179 7.72656 27.8776 7.72656 27.9517Z" fill="#F1E4C7"/>
<path d="M8.09225 28.2597C8.15683 28.2597 8.21184 28.2096 8.21184 28.145C8.21184 28.0805 8.15922 28.0303 8.09225 28.0303C8.02528 28.0303 7.97266 28.0805 7.97266 28.145C7.97266 28.2096 8.02528 28.2597 8.09225 28.2597Z" fill="#F1E4C7"/>
<path d="M11.6731 26.6387H11.5009C11.5009 28.1613 11.5033 28.3143 11.4961 28.3262C11.5152 28.3262 11.5918 28.3262 11.6731 28.3238V26.6387Z" fill="#F1E4C7"/>
<path d="M9.47863 27.9438C9.44993 27.9964 9.42841 28.049 9.41406 28.0992C9.41406 28.0992 9.56234 28.0108 9.62692 27.9486C9.54799 27.9606 9.50494 27.9486 9.47863 27.9462V27.9438Z" fill="#F1E4C7"/>
<path d="M8.7743 28.3383C8.7743 28.3383 8.77192 28.3622 8.76953 28.3742C8.79345 28.3861 8.89868 28.4267 8.92499 28.4339C8.93695 28.4148 8.93935 28.3813 8.93696 28.355C8.90826 28.3407 8.88194 28.3264 8.85085 28.312C8.82693 28.3287 8.80063 28.3383 8.77193 28.3407L8.7743 28.3383Z" fill="#F1E4C7"/>
<path d="M8.47258 27.9008C8.6735 27.755 8.83375 27.5686 8.98444 27.3726C8.7907 27.4012 8.64241 27.4419 8.49172 27.5853C8.45824 27.6164 8.42953 27.6642 8.39844 27.7168C8.45823 27.755 8.49172 27.8267 8.47258 27.9008Z" fill="#F1E4C7"/>
<path d="M7.6624 27.4129C7.6026 27.5587 7.60021 27.7045 7.76285 27.8049C7.77242 27.7978 7.78438 27.793 7.79634 27.7882C7.84418 27.5348 7.85853 27.248 7.90397 26.9946C7.86092 27.0831 7.77242 27.2026 7.70545 27.3293C7.70067 27.3627 7.68632 27.3914 7.66479 27.4153L7.6624 27.4129Z" fill="#F1E4C7"/>
<path d="M9.80215 27.7827C9.80215 27.7827 9.79497 27.8281 9.79736 27.8305C9.8452 27.7755 10.0174 27.6584 10.0748 27.6202V27.4624C9.83803 27.5532 9.82129 27.7062 9.80215 27.7851V27.7827Z" fill="#F1E4C7"/>
<path d="M13.5701 28.8774C13.5701 28.8774 13.5558 28.8606 13.5486 28.8511L13.24 29.1284L13.2305 29.3148L13.5629 29.016L13.5701 28.8774Z" fill="#F1E4C7"/>
<path d="M13.17 29.1239L13.1628 29.1167C13.1628 29.1167 13.036 29.2649 13.0312 29.2697L13.0934 29.2506C13.1126 29.2195 13.1508 29.155 13.17 29.1239Z" fill="#F1E4C7"/>
<path d="M12.9409 29.0264L12.8477 29.1148H12.917C12.917 29.1148 12.9242 29.0909 12.9433 29.0311V29.0264H12.9409Z" fill="#F1E4C7"/>
<path d="M13.1936 29.2314C13.1936 29.2314 13.1768 29.2362 13.1673 29.2386L13.0859 29.3868L13.1888 29.3581C13.1888 29.3127 13.1936 29.2769 13.196 29.2314H13.1936Z" fill="#F1E4C7"/>
<path d="M13.1758 29.4186L13.2714 29.3923L13.2451 29.3779C13.1806 29.3971 13.1925 29.3899 13.1758 29.4162V29.4186Z" fill="#F1E4C7"/>
<path d="M13.3514 28.7469L13.172 28.6943L12.7773 28.9071L12.9567 28.9597L13.3514 28.7469Z" fill="#F1E4C7"/>
<path d="M13.3887 28.8047L12.9964 29.0174L12.9414 29.1967L13.3361 28.984L13.3887 28.8047Z" fill="#F1E4C7"/>
<path d="M13.8307 28.8431C13.802 28.7953 13.7829 28.7356 13.7518 28.6806C13.7183 28.6184 13.6848 28.5491 13.6753 28.4894C13.6538 28.4655 13.6298 28.4559 13.5987 28.4607C13.6753 28.5754 13.6801 28.7212 13.5557 28.6352C13.5198 28.6113 13.5079 28.5635 13.5079 28.5109C13.4791 28.5443 13.472 28.585 13.4792 28.628C13.4959 28.726 13.6011 28.9005 13.6872 28.9196C13.7662 28.9363 13.826 28.922 13.8283 28.8407L13.8307 28.8431Z" fill="#F1E4C7"/>
<path d="M13.5202 28.454C13.5298 28.3991 13.5489 28.3489 13.5681 28.3226C13.5681 28.3465 13.5633 28.3991 13.58 28.4253C13.6159 28.4158 13.6518 28.4182 13.6829 28.4373C13.69 28.4038 13.7068 28.3799 13.7355 28.3656C13.7355 28.3536 13.7331 28.3417 13.7307 28.3297C13.6781 28.3249 13.6327 28.2987 13.6063 28.2556C13.5776 28.2652 13.5489 28.2772 13.5107 28.2939C13.5298 28.258 13.5489 28.2198 13.5705 28.1863C13.4915 28.1935 13.3935 28.2007 13.3145 28.2007C13.2452 28.2007 13.1902 28.2007 13.0777 28.1313C13.0538 28.1313 13.0371 28.1313 13.0156 28.1313C13.0466 28.1768 13.0586 28.1959 13.1136 28.2819C13.0682 28.3034 13.0275 28.3249 12.9414 28.3441C12.9797 28.368 13.0969 28.4325 13.1447 28.4564C13.238 28.5042 13.2212 28.4731 13.2954 28.4516C13.3624 28.4301 13.4317 28.4516 13.4844 28.466C13.4939 28.454 13.5083 28.4612 13.5202 28.4516V28.454Z" fill="#F1E4C7"/>
<path d="M13.428 28.7798L13.483 28.7511C13.4735 28.732 13.4639 28.7105 13.4567 28.689L13.3945 28.7224L13.4376 28.7368L13.428 28.7798Z" fill="#F1E4C7"/>
<path d="M13.6013 29.0311C13.5821 29.0502 13.63 29.0048 13.4219 29.1912L13.4649 29.3633L13.6922 28.9785L13.6874 28.9546C13.6658 28.9498 13.6419 28.9403 13.6061 28.9092C13.6061 28.9331 13.6013 29.0048 13.5989 29.0287L13.6013 29.0311Z" fill="#F1E4C7"/>
<path d="M13.3945 28.8903L13.5046 28.7923C13.5046 28.7923 13.5022 28.7875 13.4998 28.7852L13.4113 28.833L13.3945 28.8903Z" fill="#F1E4C7"/>
<path d="M12.8658 28.3583C12.8251 28.3655 12.7845 28.3679 12.7414 28.3679C12.7294 28.3703 12.7151 28.3727 12.7031 28.3751C12.7294 28.4109 12.739 28.4301 12.7605 28.4659C12.7605 28.4659 12.7558 28.4659 12.7558 28.4683C12.8251 28.4755 12.9208 28.442 12.9638 28.4253C12.9351 28.3918 12.904 28.3703 12.8682 28.356L12.8658 28.3583Z" fill="#F1E4C7"/>
<path d="M15.0742 27.5283L15.1292 27.5498L15.1651 27.7099C15.1819 27.7099 15.1555 27.7458 15.3899 27.3203L15.244 27.3753L15.0766 27.5259L15.0742 27.5283Z" fill="#F1E4C7"/>
<path d="M15.0257 27.8905L15.0281 28.0698L15.3295 27.7256L14.875 27.7877L15.0257 27.8905Z" fill="#F1E4C7"/>
<path d="M14.9538 27.8896L14.1836 28.3008C14.2003 28.3175 14.2147 28.3342 14.229 28.3534L14.9849 27.9494V27.9112L14.9538 27.8896Z" fill="#F1E4C7"/>
<path d="M14.0606 28.2623C14.0343 28.2552 14.0271 28.2599 14.0128 28.2671C14.1324 28.3388 14.1371 28.4392 14.0247 28.4249C14.0056 28.4225 13.9673 28.3771 13.9314 28.3293C13.9267 28.3388 13.9243 28.3508 13.9219 28.3651C14.0056 28.4177 14.0989 28.5468 14.1419 28.6639C14.1802 28.6711 14.228 28.6424 14.2472 28.6185C14.3285 28.5133 14.1635 28.2934 14.063 28.2647L14.0606 28.2623Z" fill="#F1E4C7"/>
<path d="M15.4628 27.0688L15.5082 27.2433L15.7187 26.8369L15.293 27.0042L15.4628 27.0688Z" fill="#F1E4C7"/>
<path d="M13.3203 29.3684L13.3729 29.5477L13.4375 29.4305C13.4184 29.3588 13.4279 29.3971 13.3897 29.2417L13.3203 29.366V29.3684Z" fill="#F1E4C7"/>
<path d="M13.6217 29.1756C13.6122 29.1899 13.6265 29.1517 13.5117 29.5604L13.6552 29.4791L13.7629 29.0967L13.6217 29.1756Z" fill="#F1E4C7"/>
<path d="M13.4414 29.5026L13.4605 29.5791C13.4773 29.5217 13.4653 29.5647 13.5251 29.3496L13.4414 29.5026Z" fill="#F1E4C7"/>
<path d="M13.7109 29.4928L13.7923 29.6386L13.8975 29.2562L13.8162 29.1104L13.7109 29.4928Z" fill="#F1E4C7"/>
<path d="M13.8013 28.9556L13.7773 29.044L13.8132 29.0297L13.8347 29.0608L13.8778 28.903C13.8778 28.903 13.8682 28.8935 13.8634 28.8887C13.8539 28.9221 13.83 28.946 13.8013 28.958V28.9556Z" fill="#F1E4C7"/>
<path d="M13.8444 28.3791C13.9234 28.4771 13.9521 28.6062 13.8133 28.5488C13.7679 28.5297 13.7464 28.4723 13.7344 28.4102C13.6626 28.4675 13.7751 28.6372 13.8109 28.7185C13.854 28.8117 13.8827 28.893 13.9616 28.9026C13.9975 28.9073 14.0549 28.8954 14.086 28.8619C14.208 28.7352 13.9377 28.3695 13.842 28.3791H13.8444Z" fill="#F1E4C7"/>
<path d="M12.3795 28.1586C12.3627 28.2017 12.3412 28.2423 12.3125 28.2758C12.3699 28.2949 12.4943 28.3331 12.5421 28.3355C12.523 28.2662 12.4201 28.1849 12.3795 28.1562V28.1586Z" fill="#F1E4C7"/>
<path d="M10.6681 28.6252C10.6752 28.5846 10.7039 28.4435 10.7614 28.3838C10.7326 28.3838 10.7016 28.3838 10.6729 28.3838C10.6489 28.4698 10.6441 28.5583 10.6681 28.6252Z" fill="#F1E4C7"/>
<path d="M10.794 28.6226C10.196 29.2536 10.2152 29.3779 10.2152 29.3779C10.2152 29.3779 10.208 29.5309 10.2606 29.6432C10.385 29.1938 10.7079 28.8401 10.7988 28.7468C10.7868 28.7038 10.7916 28.6728 10.794 28.6226Z" fill="#F1E4C7"/>
<path d="M10.641 26.6387H10.4688V28.3238H10.6457C10.6457 28.3238 10.641 26.6458 10.641 26.6387Z" fill="#F1E4C7"/>
<path d="M10.6321 28.6773C10.6178 28.6439 10.5986 28.6009 10.5986 28.522C10.5077 28.6224 10.3929 28.7514 10.2877 28.8375C10.1035 28.9905 9.92892 29.2367 9.97675 29.4351C10.1777 29.1936 10.3834 28.8925 10.6297 28.675L10.6321 28.6773Z" fill="#F1E4C7"/>
<path d="M10.9757 28.8428C10.7198 29.5575 10.7461 29.7392 10.7556 29.7177C10.7652 29.7822 10.8418 29.9472 10.9111 30.0093C10.9183 29.5958 10.99 29.2301 11.0666 28.8811C11.0044 28.7568 11.057 28.7783 10.9757 28.8428Z" fill="#F1E4C7"/>
<path d="M10.8233 28.8276C10.6679 29.0714 10.4047 29.4611 10.4143 29.5997C10.4287 29.8005 10.5076 29.8985 10.5076 29.8985C10.6439 29.5543 10.7587 29.2149 10.8951 28.8707C10.8544 28.8707 10.8401 28.8635 10.8233 28.8276Z" fill="#F1E4C7"/>
<path d="M10.9847 26.6391H10.8125C10.8125 28.537 10.8125 28.3051 10.8125 28.3243C10.9249 28.3243 10.968 28.3243 10.9847 28.3243V26.6367V26.6391Z" fill="#F1E4C7"/>
<path d="M11.0989 28.4222C11.0989 28.4222 11.0989 28.4174 11.0989 28.415C11.0631 28.4413 11.0224 28.4605 10.9889 28.4772C10.9842 28.5656 11.0057 28.6445 11.0535 28.7258C11.0631 28.6469 11.0918 28.4724 11.0989 28.4222Z" fill="#F1E4C7"/>
<path d="M10.8744 28.3838C10.8505 28.3838 10.8337 28.3838 10.8122 28.3838C10.8026 28.434 10.8002 28.4866 10.817 28.5248C10.8289 28.4866 10.86 28.4172 10.8744 28.3862V28.3838Z" fill="#F1E4C7"/>
<path d="M10.9358 28.4946C10.9095 28.5209 10.876 28.54 10.8425 28.5544C10.8234 28.6452 10.8257 28.8125 10.8903 28.8125C10.8736 28.5998 10.919 28.5161 10.9358 28.4946Z" fill="#F1E4C7"/>
<path d="M10.9763 28.3838C10.9595 28.3838 10.9404 28.3838 10.9141 28.3838C10.9236 28.4101 10.9332 28.434 10.9476 28.4507C10.9523 28.4388 10.9667 28.4101 10.9763 28.3862V28.3838Z" fill="#F1E4C7"/>
<path d="M11.6899 28.5957C11.6899 28.5957 11.6899 28.6148 11.6899 28.6244C11.8788 28.8252 12.252 29.2315 12.2687 29.3797C12.4457 29.4514 12.5199 29.4347 12.5199 29.4347C12.5199 29.4347 12.3381 29.0116 11.8501 28.6722C11.8047 28.6626 11.721 28.6268 11.6875 28.5957H11.6899Z" fill="#F1E4C7"/>
<path d="M11.0586 28.7848C11.1112 28.9138 11.1806 28.9855 11.2499 28.9831C11.2499 28.9831 11.2428 28.6772 11.2428 28.6748C11.2069 28.7346 11.128 28.768 11.0586 28.7824V28.7848Z" fill="#F1E4C7"/>
<path d="M12.012 26.6387H11.8398V28.3238H12.012V26.6387Z" fill="#F1E4C7"/>
<path d="M11.4722 28.4863L11.4507 28.3955C11.4243 28.4003 11.398 28.4074 11.3789 28.4146C11.4028 28.4433 11.4339 28.4696 11.4722 28.4863Z" fill="#F1E4C7"/>
<path d="M12.3627 26.6391H12.1953V28.3051C12.279 28.2645 12.3627 28.1474 12.3627 27.9753V26.6367V26.6391Z" fill="#F1E4C7"/>
<path d="M11.6703 28.8002C11.8258 29.044 12.0913 29.5149 12.0817 29.6536C12.1368 29.687 12.1966 29.6894 12.254 29.687C12.1272 29.338 11.9287 29.0369 11.6823 28.7285C11.6799 28.7381 11.6728 28.7907 11.668 28.8002H11.6703Z" fill="#F1E4C7"/>
<path d="M12.5694 28.374C12.5527 28.4003 12.512 28.4242 12.457 28.441C12.591 28.4673 12.6747 28.4577 12.7082 28.4505C12.6938 28.4266 12.6771 28.4027 12.6579 28.3788C12.6388 28.3788 12.6173 28.3788 12.567 28.3764L12.5694 28.374Z" fill="#F1E4C7"/>
<path d="M11.3371 26.6387H11.1649C11.1649 28.1613 11.1697 28.3525 11.1602 28.3669C11.2008 28.386 11.2247 28.4099 11.2367 28.429C11.2558 28.4601 11.2439 28.4696 11.2534 28.4433C11.2678 28.4051 11.3061 28.3812 11.3443 28.3645C11.3348 28.3477 11.3395 28.1517 11.3395 26.6387H11.3371Z" fill="#F1E4C7"/>
<path d="M11.5234 28.8438C11.7937 29.5991 11.7435 29.721 11.7435 29.721C11.7961 29.8285 11.887 29.8883 11.9851 29.9002C11.466 28.588 11.6598 28.9513 11.5234 28.8438Z" fill="#F1E4C7"/>
<path d="M11.2452 28.5347C11.2452 28.5347 11.1783 28.439 11.1328 28.4199C11.1472 28.4773 11.1854 28.5729 11.2452 28.604C11.2452 28.604 11.2452 28.5323 11.2452 28.5347Z" fill="#F1E4C7"/>
<path d="M11.443 28.7315C11.4574 28.7268 11.3569 28.5451 11.3497 28.5308C11.3354 28.5666 11.3162 28.6001 11.2852 28.6288C11.3186 28.6813 11.3904 28.7507 11.4454 28.7315H11.443Z" fill="#F1E4C7"/>
<path d="M11.3867 28.9589C11.4417 29.652 11.4585 29.7381 11.4154 29.8433C11.4513 29.9269 11.5159 29.9843 11.59 30.013C11.6068 29.6497 11.5852 29.26 11.4346 28.8848C11.4202 28.9111 11.4059 28.9374 11.3867 28.9613V28.9589Z" fill="#F1E4C7"/>
<path d="M11.1051 28.9575C11.0477 29.6961 11.0333 29.7248 11.074 29.8443C11.1051 29.9351 11.1649 30.0045 11.2414 30.0571V29.0388C11.2151 29.0388 11.1553 29.0197 11.1051 28.9575Z" fill="#F1E4C7"/>
<path d="M12.4141 26.2231V26.2638C12.4834 26.4024 12.5695 26.5434 12.5767 26.6893C12.615 26.6295 12.6365 26.5363 12.615 26.4478C12.5313 26.4 12.4643 26.3164 12.4141 26.2231Z" fill="#F1E4C7"/>
<path d="M13.9091 25.7875C13.866 25.7851 13.8038 25.7541 13.7369 25.7158C13.6818 25.7469 13.6268 25.7636 13.5742 25.7684C13.5766 25.7732 13.579 25.7756 13.5838 25.7804C13.7751 25.8688 13.9737 25.9405 14.1865 25.9811C14.1937 25.9453 14.1674 25.8329 14.1124 25.7612C14.0406 25.7827 13.9665 25.7923 13.9115 25.7875H13.9091Z" fill="#F1E4C7"/>
<path d="M13.9631 22.9861C13.8483 22.9478 13.5636 22.9861 13.4297 22.8379C13.444 22.869 13.4895 22.9335 13.5182 23.0243C13.7502 22.9956 13.908 23.0267 13.9631 22.9885V22.9861Z" fill="#F1E4C7"/>
<path d="M13.3744 26.2509C13.3242 26.2461 13.1854 26.1768 13.1328 26.1553C13.1376 26.1911 13.14 26.2294 13.14 26.2652C13.3146 26.4039 13.5036 26.5281 13.7212 26.6094C13.714 26.5497 13.6901 26.4827 13.6494 26.4206C13.5801 26.3895 13.4533 26.3202 13.3744 26.2509Z" fill="#F1E4C7"/>
<path d="M13.6064 25.9678C13.5681 26.0299 13.4294 26.0251 13.3672 26.0036C13.5514 26.159 13.7762 26.2809 14.0034 26.3646C13.9771 26.2905 13.9101 26.1709 13.8551 26.0873C13.8097 26.0658 13.714 26.0204 13.6064 25.9678Z" fill="#F1E4C7"/>
<path d="M12.8091 26.5161C12.7708 26.5161 12.7038 26.4827 12.668 26.4707C12.766 26.6978 12.9095 26.8986 13.0124 27.1232C13.0674 27.0348 13.0674 27.0061 13.0674 26.9583V26.9607C13.0674 26.9607 13.065 26.8985 13.0339 26.8005C12.9454 26.7336 12.8856 26.6643 12.8115 26.5161H12.8091Z" fill="#F1E4C7"/>
<path d="M13.332 25.5662C13.4492 25.6284 13.5784 25.669 13.7339 25.6738C13.7075 25.5997 13.6645 25.5399 13.6119 25.4849C13.5449 25.4921 13.4731 25.4849 13.4014 25.4658C13.3823 25.4993 13.3583 25.5327 13.332 25.5662Z" fill="#F1E4C7"/>
<path d="M13.8486 25.3665C13.8008 25.3092 13.741 25.2589 13.6764 25.2207C13.6238 25.2374 13.5832 25.247 13.4636 25.2327C13.4636 25.2709 13.4636 25.3092 13.4492 25.3498C13.5903 25.3809 13.7219 25.3856 13.8463 25.3689L13.8486 25.3665Z" fill="#F1E4C7"/>
<path d="M12.8655 25.9555C12.8655 25.9555 12.844 25.9699 12.832 25.9746C12.9134 26.1061 13.0066 26.2304 13.0999 26.3547C13.1071 26.2854 13.1047 26.2089 13.0927 26.1348C13.0042 26.0894 12.9205 26.0248 12.8679 25.9531L12.8655 25.9555Z" fill="#F1E4C7"/>
<path d="M13.0985 25.7919C13.0603 25.823 13.0172 25.8517 12.9766 25.8804C13.089 25.9927 13.2205 26.0883 13.3353 26.1959C13.2803 25.8326 13.3736 26.0812 13.0985 25.7896V25.7919Z" fill="#F1E4C7"/>
<path d="M12.6764 26.0537C12.6382 26.0728 12.6023 26.092 12.5664 26.1087C12.6501 26.2378 12.7625 26.3501 12.8295 26.4816C12.875 26.4361 12.9013 26.3931 12.9037 26.3358C12.8032 26.2712 12.7219 26.166 12.6764 26.0561V26.0537Z" fill="#F1E4C7"/>
<path d="M13.1953 25.71C13.3125 25.8176 13.4369 25.9108 13.6019 25.9275C13.5924 25.8845 13.566 25.8128 13.5349 25.7722C13.4321 25.7722 13.3316 25.7267 13.2408 25.667C13.2264 25.6813 13.2097 25.6957 13.1953 25.71Z" fill="#F1E4C7"/>
<path d="M14.0601 22.2687L14.0745 22.2639C14.084 22.283 14.1032 22.3165 14.1175 22.3739C14.163 22.295 14.1653 22.2185 14.1653 22.2041C14.1653 22.1683 14.1486 22.1348 14.1199 22.1133C14.0792 22.087 14.017 22.0894 13.9788 22.1014C13.9333 22.1157 13.9333 22.1301 13.9238 22.1635C13.9094 22.2304 13.9788 22.295 14.0601 22.2711V22.2687Z" fill="#F1E4C7"/>
<path d="M12.7967 24.658C12.7035 24.8636 13.1483 24.8014 13.1125 25.0931C13.0862 25.3177 12.7896 25.7097 12.4141 25.7719V26.1113C12.7848 25.9775 13.4497 25.5544 13.4019 25.215C13.3517 24.8469 12.9881 24.768 13.1914 24.4692C13.3947 24.1728 13.7989 23.537 15.2843 22.8462C15.0642 22.882 13.4162 23.3003 12.7944 24.6556L12.7967 24.658Z" fill="#F1E4C7"/>
<path d="M13.7769 22.9227C13.8893 22.8366 14.1644 22.9059 14.2385 22.8581C14.3103 22.8127 14.3127 22.7219 14.2744 22.6884C14.2194 22.6335 14.15 22.4877 14.1715 22.4136C14.1835 22.3681 14.1931 22.3323 14.1955 22.2988C14.1524 22.4566 14.0256 22.5498 13.9108 22.5713C13.6812 22.5952 13.4301 22.6526 13.4229 22.7052C13.4181 22.741 13.4301 22.7745 13.454 22.8032C13.5377 22.906 13.7147 22.9155 13.7769 22.9203V22.9227Z" fill="#F1E4C7"/>
<path d="M14.1968 25.4019C13.9744 25.476 13.8811 25.4019 13.8117 25.409C13.7639 25.4425 13.7113 25.464 13.6562 25.476C13.7184 25.5429 13.6849 25.5285 13.7352 25.5453C13.9313 25.6098 14.1322 25.6289 14.3499 25.6003C14.3642 25.5285 14.259 25.4425 14.1968 25.4019Z" fill="#F1E4C7"/>
<path d="M14.5427 23.5962C14.4781 23.6177 14.38 23.6847 14.2557 23.7683C14.2341 23.8305 14.1672 23.9046 14.1289 23.9548C14.4996 23.8663 14.8441 23.7181 15.1359 23.4767C15.1359 23.4672 15.1359 23.46 15.1359 23.4528C15.1215 23.4194 15.0139 23.3978 14.9708 23.3931C14.9708 23.3931 14.8273 23.503 14.5427 23.5962Z" fill="#F1E4C7"/>
<path d="M14.0887 22.4195C14.0839 22.3812 14.0719 22.343 14.0576 22.3119C14.005 22.3215 13.9499 22.3047 13.9141 22.2617C13.9212 22.331 13.9834 22.398 13.9882 22.4984C14.0313 22.4768 14.0624 22.4482 14.0863 22.4195H14.0887Z" fill="#F1E4C7"/>
<path d="M14.3342 25.0898C14.1548 25.1472 14.0735 25.1472 13.8391 25.1353C13.8128 25.1544 13.7865 25.1711 13.7578 25.1855C13.9707 25.2165 14.2027 25.2428 14.4323 25.2189C14.4323 25.1496 14.3988 25.1209 14.3342 25.0898Z" fill="#F1E4C7"/>
<path d="M14.3951 24.8037C14.3951 24.8037 14.1774 24.9758 13.9023 24.9926C13.9119 25.0021 13.9024 24.9925 13.9406 25.0308C14.1368 25.0308 14.3305 25.0069 14.5123 24.9639C14.5194 24.9089 14.4453 24.83 14.3975 24.8037H14.3951Z" fill="#F1E4C7"/>
<path d="M14.4375 24.5493C14.2892 24.633 14.0955 24.7262 13.8874 24.7334C13.8874 24.7334 13.8778 24.7788 13.7773 24.8362C14.0357 24.8242 14.2892 24.762 14.5212 24.6521C14.5212 24.6401 14.5212 24.6258 14.514 24.6163C14.4901 24.5876 14.4614 24.5661 14.4351 24.5517L14.4375 24.5493Z" fill="#F1E4C7"/>
<path d="M13.8945 24.1875C13.9543 24.2042 14.0022 24.2281 14.038 24.252C14.3418 24.1923 14.6216 24.0775 14.8465 23.8648C14.8273 23.8505 14.801 23.8337 14.7723 23.8218C14.5236 23.9795 14.1863 24.1373 13.8945 24.1875Z" fill="#F1E4C7"/>
<path d="M14.5898 24.3068C14.5659 24.2901 14.5372 24.2781 14.5085 24.2686C14.3984 24.3235 14.2836 24.3881 14.1712 24.4215C14.121 24.4741 13.9248 24.5626 13.7383 24.6223C13.7383 24.6223 13.7383 24.6223 13.7407 24.6223C14.0588 24.5912 14.3578 24.5004 14.6352 24.3546C14.6352 24.3474 14.64 24.3498 14.6209 24.3307C14.6209 24.3307 14.6065 24.3164 14.5898 24.3044V24.3068Z" fill="#F1E4C7"/>
<path d="M13.1078 26.432C13.0647 26.4272 12.9906 26.377 12.9499 26.3555C12.9451 26.3889 12.9332 26.42 12.9141 26.4511C13.0528 26.616 13.2154 26.7642 13.3948 26.9124C13.4259 26.855 13.4187 26.7666 13.3924 26.6758C13.347 26.6543 13.3231 26.6351 13.1102 26.432H13.1078Z" fill="#F1E4C7"/>
<path d="M13.9492 28.2363C13.9779 28.2458 13.9683 28.2458 13.9851 28.2387L14.5806 27.2419L14.5591 27.2061H14.5256L14.0329 28.0283C14.0592 28.0881 14.0616 28.143 13.9492 28.2363Z" fill="#F1E4C7"/>
<path d="M14.3483 27.1934L14.2885 27.1886C14.2885 27.1886 14.3651 27.1264 14.3675 27.124L14.4105 26.9687L14.3818 26.9424L14.3531 26.9496L14.1211 27.7862L14.2383 27.5902L14.3483 27.191V27.1934Z" fill="#F1E4C7"/>
<path d="M13.7431 28.2219C13.7048 28.2291 13.6713 28.2362 13.6402 28.2458C13.6594 28.2697 13.6881 28.2888 13.7216 28.2936C13.7216 28.2793 13.7192 28.2673 13.7168 28.2554L13.7598 28.2936C13.8077 28.2888 13.8459 28.2625 13.8675 28.2458C13.8531 28.2267 13.8435 28.2123 13.8364 28.2076C13.8579 28.2076 13.8818 28.2147 13.9009 28.2219C13.9536 28.1813 14.0038 28.1287 14.0038 28.0952C14.0038 28.0235 13.9392 27.9637 13.8627 27.9685C13.822 27.9685 13.6498 28.0331 13.6211 28.1215C13.6426 28.1048 13.6665 28.0952 13.6976 28.0952C13.7742 28.0952 13.7957 28.1789 13.7455 28.2195L13.7431 28.2219Z" fill="#F1E4C7"/>
<path d="M14.5227 27.0133C14.5227 27.0133 14.4892 26.6118 14.4892 26.6094L14.25 26.9369L14.4055 26.9034L14.5227 27.011V27.0133Z" fill="#F1E4C7"/>
<path d="M13.8849 25.0341C13.8274 24.9768 13.7844 24.9122 13.7198 24.8716C13.6218 24.9313 13.4998 24.9839 13.3945 24.9959C13.4041 25.015 13.4137 25.0341 13.4208 25.0532C13.5811 25.0532 13.7318 25.0365 13.8849 25.0341Z" fill="#F1E4C7"/>
<path d="M14.8541 26.858L14.921 26.4038L14.5742 26.7026L14.7536 26.7074C14.7536 26.7074 14.8038 26.7815 14.8541 26.858Z" fill="#F1E4C7"/>
<path d="M14.6986 26.7446L14.5742 26.9669L14.7129 26.857L14.756 26.7805L14.7321 26.7446H14.6986Z" fill="#F1E4C7"/>
<path d="M14.5739 27.1699L14.6696 27.3229L14.7509 26.8711L14.3945 27.1579L14.5739 27.1699Z" fill="#F1E4C7"/>
<path d="M14.4727 27.2002H14.4393C14.3173 27.4177 14.3412 27.3627 14.3125 27.4655L14.4704 27.2002H14.4727Z" fill="#F1E4C7"/>
<path d="M13.8477 28.338C13.862 28.338 13.8764 28.338 13.8883 28.3428C13.9003 28.2782 13.9194 28.3093 13.8955 28.2734C13.8716 28.2902 13.8811 28.2758 13.8477 28.3356V28.338Z" fill="#F1E4C7"/>
<path d="M14.0887 28.1245L14.0312 28.2201C14.0312 28.2201 14.0456 28.2201 14.06 28.2249L14.0887 28.1245Z" fill="#F1E4C7"/>
<path d="M12.4141 26.5811C12.4141 26.8081 12.481 27.0256 12.5624 27.2408C12.6269 27.1619 12.6485 27.0591 12.6485 26.9539C12.6174 26.9181 12.6006 26.8201 12.5743 26.7699C12.5432 26.7484 12.4404 26.6121 12.4141 26.5811Z" fill="#F1E4C7"/>
<path d="M13.1953 24.5905C13.5015 24.526 13.8315 24.4041 14.1114 24.3587C14.0707 24.3037 14.0109 24.2392 13.8292 24.2129C13.6833 24.2966 13.4967 24.3754 13.2647 24.4639C13.236 24.5045 13.2073 24.5427 13.1953 24.5905Z" fill="#F1E4C7"/>
<path d="M12.4141 27.6104C12.4475 27.6319 12.6389 27.7586 12.6987 27.8231C12.6891 27.6415 12.5958 27.5196 12.4141 27.4526V27.6104Z" fill="#F1E4C7"/>
<path d="M13.8322 24.7419C13.7915 24.6989 13.7389 24.6631 13.6839 24.6392C13.5595 24.6726 13.404 24.7013 13.2031 24.7085C13.2199 24.7443 13.2486 24.7826 13.282 24.828C13.4566 24.828 13.6456 24.7993 13.8322 24.7396V24.7419Z" fill="#F1E4C7"/>
<path d="M12.8867 27.9486C12.9393 27.9988 13.047 28.0634 13.0924 28.092C13.0781 28.0466 13.0589 27.994 13.0302 27.9438C13.0015 27.9486 12.9585 27.9606 12.8867 27.9486Z" fill="#F1E4C7"/>
<path d="M14.0256 23.6657C13.9873 23.6752 13.7003 23.9167 13.4922 24.1629C13.7505 24.0099 13.9873 23.8139 14.2528 23.6633C14.1834 23.6394 14.0973 23.6489 14.0256 23.6657Z" fill="#F1E4C7"/>
<path d="M12.8791 28.0803C12.8791 28.0301 12.8504 27.9799 12.8097 27.9345C12.7595 27.9202 12.7093 27.9035 12.6662 27.8867C12.6304 27.9011 12.5945 27.9035 12.5586 27.9011C12.5586 27.9011 12.561 27.9058 12.5634 27.9082C12.5634 27.9082 12.8217 28.0373 12.8767 28.0803H12.8791Z" fill="#F1E4C7"/>
<path d="M12.6198 28.078C12.6198 28.078 12.6221 28.078 12.6245 28.0756C12.5815 27.98 12.5002 27.8868 12.4141 27.8223C12.4141 27.8916 12.4141 27.9418 12.4141 27.9824C12.4404 27.9944 12.56 28.0541 12.6198 28.078Z" fill="#F1E4C7"/>
<path d="M13.0298 28.275C13.0298 28.275 13.0394 28.2702 13.0442 28.2678C13.0155 28.2248 12.9724 28.1627 12.915 28.0981C12.8744 28.1053 12.8265 28.1316 12.75 28.1316C12.7931 28.1675 12.8194 28.1961 12.8385 28.2224C12.9031 28.2583 12.982 28.2702 13.0275 28.275H13.0298Z" fill="#F1E4C7"/>
<path d="M12.8395 28.2824C12.7988 28.2107 12.7271 28.1533 12.6577 28.1079C12.6003 28.1485 12.5381 28.1677 12.4688 28.1772C12.4879 28.194 12.8371 28.2872 12.8395 28.2848V28.2824Z" fill="#F1E4C7"/>
<path d="M12.6102 27.5225C12.7322 27.6348 12.6533 27.7281 12.9905 27.9049C12.9307 27.7472 12.7705 27.6038 12.6246 27.5201C12.56 27.4842 12.5911 27.501 12.6126 27.5201L12.6102 27.5225Z" fill="#F1E4C7"/>
<path d="M8.74903 24.6223C8.56247 24.5626 8.36634 24.4741 8.31611 24.4215C8.20369 24.3905 8.09128 24.3259 7.97887 24.2686C7.95256 24.2781 7.92146 24.2901 7.89754 24.3068C7.8808 24.3188 7.86644 24.3307 7.86644 24.3331C7.84731 24.3522 7.85209 24.3498 7.85209 24.357C8.12955 24.5028 8.42852 24.5936 8.74663 24.6247C8.74663 24.6247 8.74664 24.6247 8.74903 24.6247V24.6223Z" fill="#F1E4C7"/>
<path d="M8.80503 25.2163C8.74045 25.2569 8.68304 25.3047 8.63281 25.3621C8.75719 25.3788 8.88875 25.374 9.02986 25.3429C9.0179 25.3023 9.01312 25.2641 9.01551 25.2258C8.89592 25.2402 8.85765 25.2306 8.80264 25.2139L8.80503 25.2163Z" fill="#F1E4C7"/>
<path d="M8.77051 24.8711C8.70593 24.9117 8.66287 24.9787 8.60547 25.0336C8.75855 25.0336 8.90923 25.0551 9.06948 25.0528C9.07666 25.0312 9.08622 25.0121 9.09579 24.9954C8.98816 24.9834 8.86618 24.9309 8.77051 24.8711Z" fill="#F1E4C7"/>
<path d="M9.22561 24.4639C8.9936 24.3754 8.80704 24.2966 8.66114 24.2129C8.47936 24.2392 8.42196 24.3061 8.37891 24.3587C8.65875 24.4041 8.99122 24.526 9.29498 24.5905C9.28302 24.5427 9.25192 24.5045 9.22561 24.4639Z" fill="#F1E4C7"/>
<path d="M8.88369 25.483C8.83107 25.538 8.78803 25.5977 8.76172 25.6718C8.91719 25.667 9.04874 25.6264 9.16354 25.5643C9.13484 25.5308 9.11331 25.4973 9.09417 25.4639C9.02242 25.4854 8.95066 25.4902 8.88369 25.483Z" fill="#F1E4C7"/>
<path d="M9.26966 24.7085C9.07114 24.6989 8.91329 24.6726 8.78892 24.6392C8.7339 24.6655 8.68129 24.6989 8.64062 24.7419C8.82719 24.8017 9.01614 24.8304 9.19074 24.8304C9.22423 24.785 9.25292 24.7467 9.26966 24.7109V24.7085Z" fill="#F1E4C7"/>
<path d="M9.41135 26.1373C9.397 26.2114 9.39461 26.2879 9.40418 26.3572C9.49746 26.2329 9.59074 26.1062 9.67206 25.9771C9.6601 25.97 9.65053 25.9628 9.63857 25.958C9.58356 26.0297 9.50224 26.0966 9.41374 26.1397L9.41135 26.1373Z" fill="#F1E4C7"/>
<path d="M8.4616 23.6657C8.38985 23.6489 8.30374 23.6394 8.23438 23.6633C8.49987 23.8115 8.73667 24.0075 8.99499 24.1629C8.7869 23.919 8.49987 23.6752 8.4616 23.6657Z" fill="#F1E4C7"/>
<path d="M9.05681 22.8393C8.92287 22.9899 8.64542 22.9469 8.52344 22.9875C8.57845 23.0257 8.73391 22.9947 8.96831 23.0233C8.99702 22.9325 9.04485 22.868 9.05681 22.8369V22.8393Z" fill="#F1E4C7"/>
<path d="M9.16016 26.1994C9.27496 26.0918 9.40651 25.9962 9.51893 25.8838C9.47588 25.8552 9.43523 25.8241 9.39696 25.7954C9.12429 26.087 9.21756 25.8384 9.16016 26.2018V26.1994Z" fill="#F1E4C7"/>
<path d="M9.91538 26.1087C9.8795 26.092 9.84123 26.0752 9.80535 26.0537C9.75991 26.1637 9.67858 26.2688 9.57812 26.3334C9.58052 26.3907 9.60684 26.4338 9.65229 26.4792C9.71926 26.3501 9.83167 26.2354 9.91538 26.1063V26.1087Z" fill="#F1E4C7"/>
<path d="M8.9654 25.7722C8.93431 25.8128 8.9104 25.8821 8.89844 25.9275C9.06347 25.9108 9.18784 25.8176 9.30504 25.71C9.28829 25.6957 9.27394 25.6813 9.25959 25.667C9.1687 25.7267 9.06825 25.7698 8.9654 25.7722Z" fill="#F1E4C7"/>
<path d="M9.0442 22.8041C9.06812 22.7731 9.08008 22.7396 9.0753 22.7062C9.06812 22.6536 8.81697 22.5962 8.58736 22.5723H8.58496C8.39601 22.5221 8.32665 22.3906 8.30273 22.2998C8.30751 22.3309 8.3147 22.3691 8.32666 22.4145C8.3434 22.4695 8.30513 22.5938 8.22381 22.6894C8.18554 22.7229 8.18792 22.8137 8.25968 22.8591C8.33143 22.9069 8.60649 22.8376 8.7213 22.9237C8.82415 22.9141 8.96767 22.8998 9.0442 22.8065V22.8041Z" fill="#F1E4C7"/>
<path d="M7.62744 23.9697C7.62744 23.9697 7.62744 23.9673 7.625 23.9648C7.625 23.9648 7.625 23.9697 7.62744 23.9697Z" fill="#F1E4C7"/>
<path d="M13.7285 23.4095C13.7883 23.4143 13.8768 23.3976 13.8768 23.3402C13.8768 23.2876 13.9079 23.1466 13.9533 23.0366C13.8409 23.0653 13.5371 23.0079 13.219 23.1418C12.8531 23.2948 11.9609 24.0406 11.9609 24.1266C11.9681 24.2174 11.9968 24.1816 12.0542 24.2198C12.114 24.2604 12.1666 24.3632 12.1834 24.4206C12.1882 24.4349 12.1929 24.4445 12.2025 24.4469C12.1953 24.4349 12.1905 24.4182 12.2025 24.3919C12.2503 24.2891 12.9296 23.3617 13.7285 23.4095Z" fill="#F1E4C7"/>
<path d="M8.72918 25.1855C8.70048 25.1711 8.67418 25.1544 8.64787 25.1353C8.41347 25.1472 8.33215 25.1472 8.15276 25.0898C8.09057 25.1185 8.05469 25.1472 8.05469 25.2189C8.2843 25.2428 8.51631 25.2189 8.72918 25.1855Z" fill="#F1E4C7"/>
<path d="M8.58067 24.9926C8.30561 24.9758 8.08796 24.8037 8.08796 24.8037C8.04012 24.83 7.96597 24.9089 7.97314 24.9639C8.15492 25.0045 8.34866 25.0284 8.54479 25.0308C8.58067 24.9949 8.57111 25.0045 8.58307 24.9926H8.58067Z" fill="#F1E4C7"/>
<path d="M7.63526 23.9824C7.63526 23.9824 7.63525 23.9775 7.63281 23.9775C7.63525 23.9824 7.63281 23.9775 7.63526 23.9824Z" fill="#F1E4C7"/>
<path d="M8.59647 24.1875C8.30467 24.1373 7.96743 23.9819 7.71868 23.8218C7.68998 23.8337 7.66367 23.8505 7.64453 23.8648C7.87175 24.0775 8.14921 24.1923 8.45297 24.252C8.48885 24.2257 8.53668 24.2018 8.59647 24.1875Z" fill="#F1E4C7"/>
<path d="M8.5985 24.7334C8.39041 24.7262 8.19666 24.633 8.04837 24.5493C8.02206 24.566 7.99337 24.5852 7.96945 24.6139C7.95988 24.6234 7.95987 24.6378 7.96226 24.6497C8.19427 24.7597 8.4478 24.8218 8.70612 24.8338C8.60566 24.7764 8.5961 24.731 8.5961 24.731L8.5985 24.7334Z" fill="#F1E4C7"/>
<path d="M8.74882 25.5453C8.79665 25.5285 8.76555 25.5453 8.82774 25.476C8.77033 25.464 8.71772 25.4401 8.67228 25.409C8.60531 25.4019 8.50964 25.476 8.2872 25.4019C8.2274 25.4425 8.11976 25.5285 8.13412 25.6003C8.35177 25.6289 8.55269 25.6098 8.74882 25.5453Z" fill="#F1E4C7"/>
<path d="M8.23115 23.7713C8.10678 23.6876 8.00871 23.6207 7.94413 23.5992C7.6595 23.506 7.516 23.396 7.516 23.396C7.47773 23.4008 7.36532 23.4223 7.35336 23.4558C7.35096 23.4629 7.35096 23.4701 7.35336 23.4797C7.64516 23.7211 7.98957 23.8693 8.36031 23.9577C8.32443 23.9075 8.25507 23.8334 8.23355 23.7713H8.23115Z" fill="#F1E4C7"/>
<path d="M10.7899 25.3416C10.8521 25.2842 10.9214 25.2364 10.9788 25.1958C10.8545 25.1408 10.8114 25.0547 10.8975 24.9519C10.9453 24.897 10.986 24.8061 10.9812 24.7296C10.9812 24.7081 10.974 24.689 10.9645 24.6675C10.9501 24.6603 10.9429 24.6532 10.931 24.6412C10.9166 24.6269 10.8951 24.6077 10.8329 24.5671C10.8018 24.5456 10.7683 24.5336 10.7277 24.5312C10.8138 24.6603 10.7803 24.7392 10.7588 24.8014C10.699 24.9735 10.6224 25.1934 10.7851 25.3416H10.7899Z" fill="#F1E4C7"/>
<path d="M10.2052 24.4449C10.2219 24.4449 10.253 24.4401 10.2602 24.4281C10.2745 24.4066 10.1382 24.2393 10.1238 24.2178C10.0712 24.2393 9.84638 24.3469 9.83203 24.5357C9.90379 24.4664 10.0975 24.4233 10.2052 24.4449Z" fill="#F1E4C7"/>
<path d="M10.682 24.5312C10.6533 24.5312 10.627 24.5384 10.6055 24.5456C10.639 24.5647 10.6796 24.5791 10.7179 24.5862C10.7227 24.5862 10.6868 24.5336 10.682 24.5312Z" fill="#F1E4C7"/>
<path d="M12.3815 24.229C12.3647 24.2481 12.2092 24.4035 12.2236 24.4274C12.2308 24.4393 12.2619 24.4441 12.2786 24.4441C12.3862 24.4226 12.58 24.4632 12.6517 24.535C12.6398 24.3461 12.4341 24.2505 12.3815 24.229Z" fill="#F1E4C7"/>
<path d="M10.4503 24.9455C10.5651 24.814 10.577 24.7495 10.6273 24.6013C10.5986 24.5893 10.5747 24.575 10.5579 24.5654C10.5484 24.5702 10.5436 24.575 10.5412 24.5798C10.5173 24.6252 10.5268 24.6993 10.4742 24.6993C10.4622 24.6993 10.4479 24.6945 10.4383 24.6778C10.4144 24.7686 10.3379 24.8618 10.2398 24.9144C10.1968 24.9383 10.1561 24.9311 10.125 24.9001C10.1394 25.0602 10.3427 25.0746 10.4503 24.9503V24.9455Z" fill="#F1E4C7"/>
<path d="M11.3535 24.48C11.3798 24.4633 11.3822 24.4298 11.3607 24.4107C11.3224 24.3748 11.2602 24.4155 11.2818 24.4609C11.2937 24.4872 11.3272 24.4968 11.3535 24.48Z" fill="#F1E4C7"/>
<path d="M12.5664 24.6501C12.6549 24.6692 12.6501 24.6286 12.6501 24.5999C12.6453 24.576 12.6238 24.5569 12.6047 24.5449C12.619 24.5879 12.6047 24.6238 12.5664 24.6501Z" fill="#F1E4C7"/>
<path d="M8.43734 22.3119C8.42299 22.3454 8.41103 22.3812 8.40625 22.4195C8.43017 22.4482 8.46366 22.4768 8.50432 22.4984C8.50911 22.3956 8.57129 22.3286 8.57847 22.2617C8.54738 22.3 8.49235 22.3215 8.43495 22.3119H8.43734Z" fill="#F1E4C7"/>
<path d="M10.509 24.3203C10.454 24.3968 10.4324 24.5115 10.4635 24.6167C10.4922 24.7099 10.4827 24.6167 10.5138 24.5593C10.5353 24.5163 10.7027 24.4494 10.8367 24.5211C10.8965 24.5522 10.9539 24.6071 10.973 24.6239C10.9945 24.643 11.0447 24.6597 11.0711 24.6669C11.1165 24.6788 11.1452 24.6812 11.1715 24.7028C11.1548 24.6597 11.1332 24.6263 11.1069 24.5976C11.1596 24.6358 11.2122 24.6812 11.26 24.741C11.2433 24.7745 11.1954 24.7816 11.1643 24.7482C11.1428 24.7267 11.1285 24.7219 11.0926 24.7123C11.0041 24.6908 11.0376 24.6812 11.04 24.7506C11.0758 24.796 11.1476 24.8366 11.2241 24.8462C11.4179 24.8725 11.4992 24.6526 11.2504 24.6048C11.193 24.5928 11.1572 24.5569 11.1332 24.5044C11.0543 24.3346 11.1452 24.2343 10.9802 24.2343C10.8725 24.2343 10.8486 24.2104 10.808 24.2343C10.784 24.2462 10.7625 24.2773 10.7769 24.3036C10.8199 24.3849 10.8821 24.4398 10.9515 24.49C10.8701 24.447 10.7888 24.404 10.7338 24.3036C10.7242 24.2869 10.7266 24.2653 10.7386 24.251C10.5855 24.2343 10.5473 24.2653 10.509 24.3203ZM10.9515 24.3155C10.9228 24.294 10.9108 24.3155 10.9156 24.3347C10.8988 24.3108 10.8893 24.263 10.9228 24.2606C10.9586 24.2582 10.9969 24.3394 10.9873 24.3681C10.9873 24.3681 10.9634 24.3227 10.9515 24.3155Z" fill="#F1E4C7"/>
<path d="M11.9218 25.307C11.9433 25.3452 11.972 25.3787 12.0031 25.4098C12.051 25.4193 12.0725 25.3381 12.0892 25.2903C12.0653 25.2831 12.0486 25.2663 12.0486 25.1923C12.0486 25.0727 11.9409 24.9963 11.8668 24.958C11.8381 25.1277 11.9003 25.2616 11.9242 25.3046L11.9218 25.307Z" fill="#F1E4C7"/>
<path d="M8.61951 23.3406C8.61951 23.355 8.62429 23.3669 8.63625 23.3789C8.6817 23.4219 8.77258 23.4076 8.8276 23.4076C9.60016 23.4076 10.2483 24.2919 10.2938 24.3899C10.3057 24.4162 10.301 24.4354 10.2938 24.4449C10.3034 24.4401 10.3081 24.433 10.3129 24.4186C10.3297 24.3613 10.3823 24.2585 10.4421 24.2178C10.5019 24.1796 10.5282 24.2155 10.5353 24.1246C10.5353 24.0386 9.64321 23.2952 9.27726 23.1398C8.95915 23.006 8.65538 23.0634 8.54297 23.0347C8.58602 23.1446 8.61951 23.2856 8.61951 23.3382V23.3406Z" fill="#F1E4C7"/>
<path d="M12.0664 25.4311C12.1166 25.4335 12.174 25.4144 12.241 25.3666C12.3989 25.2614 12.3917 25.1443 12.3845 24.9961C12.3773 24.8837 12.3654 24.7427 12.5017 24.6686C12.4539 24.659 12.2841 24.6543 12.1812 25.0749C12.1788 25.1108 12.1573 25.3594 12.0688 25.4311H12.0664Z" fill="#F1E4C7"/>
<path d="M10.1109 24.8077C10.1229 24.8292 10.1516 24.9129 10.2185 24.877C10.2257 24.8722 10.2329 24.8698 10.2401 24.8651C10.1492 24.6715 10.0463 24.6619 9.99609 24.6691C10.0583 24.7001 10.0989 24.7527 10.1133 24.8077H10.1109Z" fill="#F1E4C7"/>
<path d="M11.1362 24.3388C11.2199 24.3627 11.2893 24.3914 11.4639 24.346C11.6026 24.3101 11.6528 24.3507 11.7102 24.4272C11.7652 24.5013 11.5691 24.3555 11.4639 24.4822C11.3299 24.6424 11.2677 24.4607 11.1553 24.432C11.1721 24.5013 11.2032 24.5539 11.2653 24.5659C11.5093 24.6137 11.4782 24.8025 11.3682 24.8622C11.3443 24.8742 11.3275 24.8814 11.2988 24.8862C11.3299 24.9053 11.361 24.922 11.3921 24.9387C11.2869 24.9196 11.2558 24.8909 11.2103 24.8838C11.2151 24.9626 11.2032 25.0511 11.1529 25.1132C11.0668 25.2232 10.7774 25.3331 10.6698 25.5841C10.6698 25.5865 10.6483 25.6367 10.653 25.6367C10.7726 25.6415 10.9018 25.5817 10.9616 25.467C10.9544 25.4861 10.9161 25.5985 10.952 25.6534C10.952 25.6534 11.0788 25.6487 11.1481 25.4837C11.1481 25.4837 11.1386 25.5961 11.2271 25.6534C11.2271 25.6534 11.2845 25.6176 11.3275 25.5626C11.416 25.4526 11.3539 25.3905 11.4089 25.5268C11.4256 25.5698 11.4543 25.6224 11.4878 25.6534H11.5715C11.6385 25.5745 11.6217 25.4766 11.6193 25.4646C11.6241 25.4742 11.6624 25.5459 11.7054 25.5913C11.7413 25.6271 11.7844 25.651 11.8322 25.651C11.8418 25.6391 11.8513 25.608 11.8537 25.5698C11.8537 25.5076 11.8322 25.4455 11.8059 25.3905C11.8609 25.4694 11.9829 25.6032 12.0905 25.6176C12.0714 25.5076 11.9518 25.4407 11.892 25.3331C11.8131 25.1897 11.8011 25.0224 11.8537 24.8407C11.8633 24.8073 11.9255 24.7284 11.8896 24.5945C11.9111 24.6304 11.9829 24.64 12.0236 24.64C12.0236 24.64 11.9757 24.5252 11.959 24.4965C11.7509 24.1523 11.4136 24.1691 11.1912 24.1691C11.0979 24.1691 11.0668 24.1738 11.0405 24.2025C11.1266 24.2193 11.129 24.2958 11.1362 24.3436V24.3388Z" fill="#F1E4C7"/>
<path d="M9.83984 24.6142C9.83984 24.6405 9.8518 24.6644 9.92355 24.6501C9.88767 24.6214 9.87333 24.5856 9.88529 24.5449C9.83984 24.5736 9.83984 24.5951 9.83984 24.6166V24.6142Z" fill="#F1E4C7"/>
</svg>
