<svg width="23" height="45" viewBox="0 0 23 45" fill="none" xmlns="http://www.w3.org/2000/svg">
<path d="M0.253906 29.1455V32.9986C1.58854 34.9108 6.00385 37.3083 11.2539 37.3083C16.504 37.3083 20.9193 34.9132 22.2539 32.9986V29.1455C17.554 36.2924 4.95145 36.2853 0.2563 29.1455H0.253906Z" fill="#221F20"/>
<path d="M11.2539 33.383C16.5016 33.383 20.9312 30.6796 22.2539 27.0129V23.3199C18.0228 21.3288 14.1719 18.3147 11.2539 14.4233C8.33827 18.3099 4.48743 21.3288 0.253906 23.3199V27.0129C1.57658 30.6796 6.00385 33.383 11.2539 33.383ZM11.2539 18.8238C13.7247 21.4364 16.6427 23.6116 19.8047 25.2632C19.4124 28.2535 15.729 30.6055 11.2539 30.6055C6.7788 30.6055 3.09539 28.2535 2.70313 25.2632C5.86512 23.6116 8.78315 21.4388 11.2539 18.8238Z" fill="#221F20"/>
<path d="M11.2539 13.0055C14.1743 16.8227 17.9367 19.9373 22.2539 22.0574V18.8569C17.664 16.3041 13.8466 12.482 11.2539 7.85205C8.66355 12.482 4.84382 16.3041 0.253906 18.8569V22.0574C4.57115 19.9349 8.33348 16.8227 11.2539 13.0055Z" fill="#221F20"/>
<path d="M11.2539 6.2171C12.7536 8.70538 15.6788 13.6795 22.2539 17.5757V14.1432C17.2885 10.7036 13.4759 5.60519 11.2539 0C9.03429 5.60758 5.21933 10.706 0.253906 14.1432V17.5757C6.82664 13.6795 9.75183 8.70299 11.2539 6.2171Z" fill="#221F20"/>
</svg>
