<svg width="23" height="45" viewBox="0 0 23 45" fill="none" xmlns="http://www.w3.org/2000/svg">
<path d="M12.4109 29.6077C12.0905 29.5217 11.0743 29.3902 10.8854 29.3305C10.6965 29.2708 10.1393 29.3711 10.1393 29.3711L10.125 29.4882C10.125 29.4882 10.3522 29.6794 10.8113 29.7678C11.2704 29.8538 11.5979 29.8968 11.5979 29.8968L12.5425 29.8467C12.5425 29.8467 12.7314 29.6961 12.4109 29.6101V29.6077Z" fill="#221F20"/>
<path d="M11.5859 29.8928C12.0211 29.9597 12.4037 30.029 12.5807 30.2273C12.6906 30.3516 12.98 30.0672 13.0876 29.9406C12.9585 29.7757 12.705 29.6777 12.4013 29.6084C12.1646 29.7494 11.88 29.8354 11.5859 29.8952V29.8928Z" fill="#221F20"/>
<path d="M11.2547 13.0016C14.1743 16.8178 17.9356 19.9314 22.2516 22.051V18.8513C17.663 16.2992 13.8467 12.4783 11.2547 7.84961C8.6651 12.4783 4.84643 16.2992 0.257812 18.8513V22.051C4.57384 19.929 8.33512 16.8178 11.2547 13.0016Z" fill="#221F20"/>
<path d="M11.2547 6.21536C12.754 8.70293 15.6783 13.6757 22.2516 17.5707V14.1393C17.2876 10.7006 13.4761 5.60362 11.2547 0C9.03573 5.606 5.22184 10.703 0.257812 14.1393V17.5707C6.83587 13.6709 9.76264 8.68859 11.2547 6.21536Z" fill="#221F20"/>
<path d="M13.6466 24.3951C13.5103 24.5145 13.3525 25.554 13.3358 25.7404C13.1182 25.4895 12.7571 26.5099 12.7069 27.1049C12.585 26.9591 12.3937 26.7297 12.3052 26.8994C12.0111 27.4514 11.9561 28.357 12.3172 28.7513C12.2335 28.8469 12.1498 28.9496 12.0661 29.0787C11.7768 29.5853 9.84471 29.3726 9.40234 29.9413C9.50995 30.068 9.79927 30.3523 9.90927 30.2281C10.3325 29.7502 11.9537 30.0154 12.616 29.2818C13.0919 29.4323 14.0866 29.884 15 28.4932C15.0789 28.4383 15.0598 28.3451 14.9952 28.3068C14.9905 28.3044 14.945 28.2805 14.8733 28.2471C15.1244 27.9699 15.3276 27.5374 15.342 26.8444C15.3348 26.7942 15.3013 26.7632 15.2607 26.7536C15.2272 26.7464 15.1794 26.7584 15.1435 26.7655C15.3515 26.4095 15.5261 25.8193 15.4089 24.8825C15.4089 24.8825 15.4017 24.8586 15.3993 24.8539C15.3778 24.8037 15.3228 24.775 15.2726 24.787C15.1698 24.8109 15.2128 24.8061 15.232 24.6938C15.3252 24.1465 15.1626 23.5802 14.749 23.0091C14.7203 22.9709 14.6605 22.9493 14.6079 22.9756C14.407 22.1918 13.8547 21.6924 12.9389 21.604C12.5443 21.604 13.2067 22.7821 13.4601 23.1453C13.2234 23.2672 13.5462 24.1418 13.649 24.3927L13.6466 24.3951Z" fill="#221F20"/>
<path d="M12.3984 29.1095C13.0345 28.7487 13.5558 29.0306 14.7992 28.5742C13.8188 29.8622 13.001 29.2194 12.3984 29.1095Z" fill="#221F20"/>
<path d="M12.9478 21.7188C13.3662 22.0676 13.8397 22.5026 14.1625 23.045C14.7005 23.2505 14.5068 23.5109 14.667 23.076C14.8775 23.7642 14.8368 24.3832 14.6622 24.971C14.7866 24.928 14.9229 24.8945 15.0735 24.8778C14.5953 25.026 13.9927 25.7213 13.768 26.1037C13.8564 26.345 13.9306 26.8325 13.8899 27.2268C14.0932 26.9998 14.2701 26.8683 14.3323 26.8253C14.777 26.2757 15.1787 25.6903 15.3079 24.8969C15.4346 25.8982 15.2146 26.4836 14.9922 26.8062C14.416 26.9687 14.0477 27.1862 13.6699 27.8648C13.8947 27.8409 14.1003 27.8529 14.2749 27.8791C14.6599 27.6067 15.0257 27.2985 15.2433 26.8612C15.2266 27.5279 15.0233 27.9437 14.7746 28.2017C14.7675 28.1994 14.2031 28.001 13.5551 28.0942C13.2347 28.1396 12.6991 28.3356 12.4026 28.6677C12.1013 28.326 12.1276 27.4849 12.4122 26.9496C12.393 27.4514 12.46 27.903 12.57 28.2806C12.7517 28.154 12.9334 28.0608 13.1128 27.9962C13.0817 27.7573 13.0004 27.4968 12.8163 27.2363C12.8569 26.3474 13.2586 25.8121 13.2586 25.8121C13.108 26.5434 13.1893 27.2292 13.2778 27.9413C13.5791 27.8576 13.3065 28.0034 13.6986 27.4634C13.7871 26.9209 13.7703 26.3307 13.4428 25.8838C13.4954 25.1669 13.6675 24.6436 13.7273 24.4811C13.8588 24.7774 13.9306 25.1048 13.9592 25.4418C14.0525 25.339 14.1673 25.2267 14.306 25.1383C14.294 25.0905 14.1984 24.5624 13.7871 24.3903C13.5504 23.8551 13.4978 23.5492 13.493 23.3939C13.8253 23.6663 14.1314 23.8861 14.1864 24.4931C14.3849 24.732 14.1816 24.6986 14.4996 23.5922C14.1577 23.1645 13.5767 23.1191 13.5767 23.1191C13.0076 22.3186 12.9263 21.8 12.943 21.7211L12.9478 21.7188Z" fill="#221F20"/>
<path d="M9.35317 23.5161L10.4316 24.2952L10.0107 25.5664C9.98205 25.6524 10.0825 25.7265 10.1566 25.6716L11.2398 24.883L12.323 25.6716C12.3971 25.7241 12.4975 25.6524 12.4688 25.5664L12.048 24.2952L13.124 23.5114C13.1981 23.4588 13.1599 23.3393 13.069 23.3393H11.7371L11.3307 22.1182C11.302 22.0322 11.18 22.0322 11.1513 22.1182L10.7424 23.3417H9.41056C9.3197 23.3465 9.28144 23.4636 9.35556 23.5161H9.35317Z" fill="#221F20"/>
<path d="M10.8114 23.4369L11.2418 24.0224V22.1489L11.6722 23.4345L11.2418 24.0224L13.0734 23.4345L11.94 24.2589L11.2418 24.0224L12.3824 25.5947L11.2418 24.7679V24.0224L10.1036 25.5947L10.546 24.2589L11.2418 24.0224L9.41016 23.4393L10.8114 23.4369Z" fill="#221F20"/>
<path d="M11.2547 33.3733C16.5009 33.3733 20.9293 30.6706 22.2516 27.005V23.313C17.9882 21.3082 14.148 18.2805 11.2547 14.4189C8.32077 18.3307 4.46385 21.3345 0.257812 23.313V27.005C1.58012 30.6706 6.00614 33.3733 11.2547 33.3733ZM11.2547 18.8182C13.7248 21.43 16.642 23.6046 19.8031 25.2558C19.4109 28.2452 15.7286 30.5965 11.2547 30.5965C6.78087 30.5965 3.0985 28.2452 2.70635 25.2558C5.86745 23.6046 8.78466 21.4324 11.2547 18.8182Z" fill="#221F20"/>
<path d="M0.257812 34.3696V37.2993C1.63751 38.8525 6.00614 41.2206 11.2547 41.2206C16.5033 41.2206 20.8695 38.8525 22.2516 37.2993V34.3696C17.9786 39.794 4.53558 39.8012 0.257812 34.3696Z" fill="#221F20"/>
<path d="M11.2601 37.2992C16.5063 37.2992 20.9228 34.9048 22.257 32.9907V29.1387C17.5584 36.2836 4.95945 36.2764 0.265625 29.1387V32.9907C1.59989 34.9024 6.01395 37.2992 11.2625 37.2992H11.2601Z" fill="#221F20"/>
<path d="M7.13709 26.8645C7.15383 27.5384 7.35708 27.9709 7.61054 28.2481C7.52207 28.2864 7.42642 28.3174 7.43121 28.4106C7.43121 28.4441 7.45512 28.4727 7.47664 28.4966C7.49816 28.5182 7.59859 28.652 7.65836 28.7308C7.98117 29.1586 8.46657 29.4668 8.98306 29.4835C9.25565 29.4883 9.42782 29.419 9.863 29.2804C9.93474 29.3593 10.0136 29.4286 10.1045 29.4859C10.3269 29.4381 10.5684 29.4023 10.8075 29.3688C11.1112 29.3258 10.5732 29.3593 10.4082 29.0677C10.0615 28.5468 10.1428 28.9244 10.3125 28.5062C10.5875 27.8299 10.248 26.8383 10.0758 26.8383C9.99691 26.8383 9.82475 27.0438 9.77214 27.1035C9.71954 26.4989 9.35847 25.4953 9.14327 25.739C9.12653 25.555 8.96393 24.5036 8.82525 24.3913C8.93285 24.1356 9.25804 23.2706 9.02132 23.1487C9.55694 22.3817 9.65737 21.8655 9.65258 21.7102C9.64541 21.6457 9.5952 21.6074 9.54259 21.6074C8.63395 21.6958 8.07682 22.1881 7.87357 22.9791C7.82096 22.9528 7.76597 22.9695 7.73727 23.0029C7.34034 23.5478 7.11796 24.1476 7.27817 24.8071C7.20883 24.7856 7.15383 24.7665 7.10362 24.8214C6.97928 24.9505 6.96015 26.119 7.33795 26.7666C7.22078 26.7403 7.15383 26.7379 7.1347 26.8645H7.13709Z" fill="#221F20"/>
<path d="M7.6875 28.5742C8.92851 29.0306 9.44978 28.7487 10.0882 29.1095C9.51195 29.2146 8.67026 29.867 7.6875 28.5742Z" fill="#221F20"/>
<path d="M7.18535 24.8969C7.31448 25.6927 7.71619 26.2757 8.16094 26.8253C8.22311 26.8683 8.40006 26.9998 8.60331 27.2268C8.56027 26.8325 8.63678 26.345 8.72525 26.1037C8.50049 25.7213 7.89792 25.026 7.41969 24.8778C7.57033 24.8921 7.70662 24.9256 7.83096 24.971C7.65402 24.3832 7.61576 23.7642 7.82618 23.076C7.98639 23.5109 7.7951 23.2505 8.33071 23.045C8.65352 22.5026 9.12936 22.0676 9.54542 21.7188C9.56216 21.8 9.48086 22.3185 8.91176 23.1167C8.91176 23.1167 8.33071 23.1621 7.98878 23.5898C8.3068 24.6962 8.10355 24.7297 8.30202 24.4907C8.35702 23.8813 8.66308 23.6639 8.99545 23.3915C8.99067 23.5468 8.94046 23.8527 8.70134 24.3879C8.29246 24.56 8.19442 25.0905 8.18246 25.1359C8.32115 25.2267 8.43592 25.339 8.52918 25.4394C8.55787 25.1024 8.62961 24.7751 8.76112 24.4788C8.8209 24.6436 8.99306 25.1646 9.04567 25.8814C8.71808 26.3283 8.70134 26.9161 8.78982 27.461C9.18196 28.001 8.90937 27.8553 9.21066 27.9389C9.29674 27.2268 9.37804 26.541 9.22979 25.8097C9.22979 25.8097 9.6315 26.345 9.67215 27.234C9.49042 27.4944 9.40673 27.7573 9.37565 27.9938C9.55498 28.0584 9.73671 28.1516 9.91844 28.2782C10.0284 27.9007 10.0954 27.449 10.0763 26.9472C10.3608 27.4825 10.3871 28.3236 10.0858 28.6653C9.78932 28.3356 9.2537 28.1372 8.93328 28.0918C8.28528 27.9986 7.72097 28.197 7.7138 28.1993C7.46751 27.9389 7.26187 27.5255 7.24513 26.8588C7.46034 27.2961 7.82857 27.602 8.21355 27.8768C8.3881 27.8529 8.59374 27.8409 8.81851 27.8624C8.44071 27.1862 8.07247 26.9663 7.4962 26.8038C7.27622 26.4812 7.05623 25.8958 7.18057 24.8945L7.18535 24.8969Z" fill="#221F20"/>
</svg>
