<svg width="23" height="45" viewBox="0 0 23 45" fill="none" xmlns="http://www.w3.org/2000/svg">
<path d="M11.2539 13.0055C14.1743 16.8228 17.9367 19.9373 22.2539 22.0575V18.8569C17.664 16.3041 13.8466 12.482 11.2539 7.85205C8.66356 12.482 4.84382 16.3041 0.253906 18.8569V22.0575C4.57115 19.9349 8.33349 16.8228 11.2539 13.0055Z" fill="#F1E4C7"/>
<path d="M0.253906 29.1455V32.9986C1.58854 34.9109 6.00385 37.3083 11.2539 37.3083C16.504 37.3083 20.9193 34.9133 22.2539 32.9986V29.1455C17.554 36.2924 4.95145 36.2853 0.256298 29.1455H0.253906Z" fill="#F1E4C7"/>
<path d="M14.3654 25.3183L11.2608 21.2764L8.15625 25.3183L11.2608 29.3603L14.3654 25.3183ZM11.2608 23.9678L12.2989 25.3183L11.2608 26.6688L10.2228 25.3183L11.2608 23.9678Z" fill="#F1E4C7"/>
<path d="M11.2539 6.21711C12.7536 8.70538 15.6788 13.6795 22.2539 17.5757V14.1433C17.2885 10.7037 13.4759 5.60519 11.2539 0C9.03429 5.60519 5.21933 10.706 0.253906 14.1433V17.5757C6.82664 13.6795 9.75184 8.70299 11.2539 6.21711Z" fill="#F1E4C7"/>
<path d="M11.2539 33.3825C16.5016 33.3825 20.9312 30.6791 22.2539 27.0124V23.3194C17.9869 21.3116 14.148 18.2831 11.2539 14.4229C8.31914 18.3357 4.45873 21.3403 0.253906 23.3194V27.0124C1.57659 30.6791 6.00385 33.3825 11.2539 33.3825ZM11.2539 18.8233C13.7247 21.4359 16.6427 23.6111 19.8047 25.2627C19.4124 28.253 15.729 30.605 11.2539 30.605C6.7788 30.605 3.09539 28.253 2.70313 25.2627C5.86513 23.6111 8.78315 21.4383 11.2539 18.8233Z" fill="#F1E4C7"/>
<path d="M0.253906 34.377V37.3074C1.63399 38.8611 6.00385 41.2299 11.2539 41.2299C16.504 41.2299 20.8714 38.8611 22.2539 37.3074V34.377C17.9797 39.8029 4.53288 39.8077 0.256298 34.377H0.253906Z" fill="#F1E4C7"/>
</svg>
