<svg width="23" height="45" viewBox="0 0 23 45" fill="none" xmlns="http://www.w3.org/2000/svg">
<path d="M11.0637 12.7999C14.001 16.5564 17.7851 19.6213 22.1273 21.7077V18.5581C17.5109 16.0459 13.6714 12.2847 11.0637 7.72852C8.45833 12.2847 4.61648 16.0459 0 18.5581V21.7077C4.34223 19.6189 8.12635 16.5564 11.0637 12.7999Z" fill="#221F20"/>
<path d="M11.0637 6.11809C12.572 8.56674 15.5142 13.4617 22.1273 17.2958V13.918C17.1332 10.5332 13.2985 5.51593 11.0637 0C8.83121 5.51593 4.99417 10.5355 0 13.918V17.2958C6.61078 13.4617 9.55291 8.56439 11.0637 6.11809Z" fill="#221F20"/>
<path d="M22.1273 26.0001V22.9493C17.8693 20.9899 13.9986 18.0237 11.0637 14.1943C8.13116 18.019 4.25803 20.9899 0 22.9493V26.0001C4.12813 24.2971 7.94592 21.7496 11.0637 18.5271C14.179 21.752 17.9992 24.2971 22.1273 26.0001Z" fill="#221F20"/>
</svg>
