<svg width="23" height="45" viewBox="0 0 23 45" fill="none" xmlns="http://www.w3.org/2000/svg">
<path d="M11.2561 37.2961C16.5022 37.2961 20.9186 34.9018 22.2528 32.9877V29.1357C17.5543 36.2806 4.95549 36.2734 0.261719 29.1357V32.9877C1.59596 34.8994 6.01236 37.2961 11.2585 37.2961H11.2561Z" fill="#221F20"/>
<path d="M0.253906 34.3667V37.5353C1.63358 38.8495 6.00455 41.2176 11.2507 41.2176C16.4968 41.2176 20.8654 38.8495 22.2474 37.2963V34.3667C17.9888 39.7743 4.86399 39.7552 0.253906 34.3667Z" fill="#221F20"/>
<path d="M11.2507 6.21528C12.7499 8.70282 15.6742 13.6755 22.2474 17.5705V14.1391C17.2835 10.7005 13.472 5.60354 11.2507 0C9.03171 5.60593 5.21787 10.7029 0.253906 14.1391V17.5705C6.8247 13.6755 9.74904 8.70043 11.2507 6.21528Z" fill="#221F20"/>
<path d="M11.2507 33.3725C16.4968 33.3725 20.9251 30.6699 22.2474 27.0043V23.3124C17.9817 21.3052 14.1439 18.2776 11.2507 14.4185C8.31676 18.3302 4.4575 21.3339 0.253906 23.3124V27.0043C1.5762 30.6699 6.00455 33.3725 11.2507 33.3725ZM11.2507 18.8177C13.7207 21.4295 16.6379 23.604 19.7989 25.2552C19.4068 28.2445 15.7245 30.5959 11.2507 30.5959C6.77688 30.5959 3.09455 28.2445 2.70241 25.2552C5.86347 23.604 8.78064 21.4318 11.2507 18.8177Z" fill="#221F20"/>
<path d="M11.2507 13.0015C14.1702 16.8177 17.9315 19.9313 22.2474 22.0508V18.8512C17.6589 16.2991 13.8426 12.4782 11.2507 7.84961C8.66108 12.4782 4.84247 16.2991 0.253906 18.8512V22.0508C4.56988 19.9289 8.33111 16.8177 11.2507 13.0015Z" fill="#221F20"/>
<path d="M10.2498 23.9116L11.2517 25.2736V20.915L12.2511 23.9092L11.2517 25.2736L15.5126 23.9092L12.8752 25.828L11.2517 25.2736L13.9034 28.9392L11.2517 27.0084V25.2736L8.60229 28.9392L9.63047 25.828L11.2517 25.2736L6.98828 23.9187L10.2498 23.9116Z" fill="#221F20"/>
</svg>
