<svg width="23" height="45" viewBox="0 0 23 45" fill="none" xmlns="http://www.w3.org/2000/svg">
<path d="M11.1926 12.7999C14.1299 16.5564 17.914 19.6213 22.2562 21.7077V18.5581C17.6398 16.0459 13.8003 12.2847 11.1926 7.72852C8.58724 12.2847 4.74538 16.0459 0.128906 18.5581V21.7077C4.47114 19.6189 8.25526 16.5564 11.1926 12.7999Z" fill="#F1E4C7"/>
<path d="M11.1926 6.11809C12.7009 8.56674 15.6431 13.4617 22.2562 17.2958V13.918C17.2621 10.5332 13.4274 5.51593 11.1926 0C8.96012 5.51593 5.12307 10.5355 0.128906 13.918V17.2958C6.73968 13.4617 9.68182 8.56439 11.1926 6.11809Z" fill="#F1E4C7"/>
<path d="M22.2562 26.0001V22.9493C17.9982 20.9899 14.1275 18.0237 11.1926 14.1943C8.26007 18.019 4.38694 20.9899 0.128906 22.9493V26.0001C4.25703 24.2971 8.07483 21.7496 11.1926 18.5271C14.3079 21.752 18.1281 24.2971 22.2562 26.0001Z" fill="#F1E4C7"/>
</svg>
