<svg width="54" height="54" viewBox="0 0 54 54" fill="none" xmlns="http://www.w3.org/2000/svg">
<mask id="path-1-inside-1_459_49220" fill="white">
<path d="M0 0H54V54H0V0Z"/>
</mask>
<path d="M0 0H54V54H0V0Z" fill="#F1E4C7"/>
<path d="M29.3487 25.405L28.611 25.3172L26.6788 23.0512M28.9037 27.3489C29.1614 25.8617 30.4554 24.7258 32.0187 24.7258C33.7577 24.7258 35.1747 26.1427 35.1747 27.8817C35.1747 29.6208 33.7577 31.0377 32.0187 31.0377C31.2868 31.0377 30.6076 30.7859 30.0689 30.3644M20.4254 33.6082L21.9711 36.9749L21.4617 44.2179H24.1317L24.6528 34.9842M26.2513 24.351L26.3918 21.2185C26.4797 20.5744 26.2747 19.9011 25.818 19.3155C25.3555 18.7183 24.7055 18.326 24.0849 18.2557C23.1188 18.1503 21.2627 18.2557 21.2627 18.2557L19.8281 32.6948L26.1225 35.4467L27.0008 44.253L29.4717 44.2413L28.9857 33.8482L25.818 30.6571L25.7536 29.5563M22.8494 25.3464C22.8494 25.3464 25.6599 29.3104 25.6307 29.2929L25.6599 29.3104C25.6734 29.3178 25.6951 29.328 25.6951 29.328C26.1225 29.5212 30.2212 30.5225 30.2212 30.5225L30.8828 28.2096L27.1238 27.021L24.4538 21.2946L23.5286 21.2185M27.4018 12.828C27.5499 14.6718 26.1726 16.2867 24.3256 16.4349C22.4786 16.5832 20.8613 15.2087 20.7133 13.365C20.5652 11.5212 21.9425 9.90631 23.7895 9.75802C25.6365 9.60974 27.2538 10.9842 27.4018 12.828Z" stroke="#221F20" stroke-width="1.17105" stroke-linecap="square" stroke-linejoin="bevel"/>
<path d="M0 0V-1H-1V0H0ZM54 0H55V-1H54V0ZM54 54V55H55V54H54ZM0 54H-1V55H0V54ZM0 1H54V-1H0V1ZM53 0V54H55V0H53ZM54 53H0V55H54V53ZM1 54V0H-1V54H1Z" fill="#221F20" mask="url(#path-1-inside-1_459_49220)"/>
</svg>
