<svg width="54" height="54" viewBox="0 0 54 54" fill="none" xmlns="http://www.w3.org/2000/svg">
<mask id="path-1-inside-1_459_49222" fill="white">
<path d="M0 0H54V54H0V0Z"/>
</mask>
<path d="M0 0H54V54H0V0Z" fill="#F1E4C7"/>
<path d="M18.5263 40.2697C18.3777 40.3555 20.4759 37.7084 20.4759 37.7084L21.7509 32.1968M18.7836 30.0585L18.0232 36.3991C18.0232 36.3991 15.7191 39.1606 15.4675 39.8124M24.4209 25.6675L26.5364 27.6457L30.8359 28.5376L30.8473 26.931L27.4169 25.8848L25.0384 21.5967M26.7937 34.1178C26.7651 33.3059 26.645 31.6708 26.645 31.6708C26.645 31.6708 23.6891 28.4004 23.6662 28.3604C23.6548 28.3432 24.7068 21.3566 24.7068 21.3566C24.8326 20.7448 24.6839 20.0816 24.2837 19.487C23.8778 18.8809 23.2775 18.4579 22.6829 18.3492C21.7566 18.1834 20.7161 18.1663 20.1901 18.1606L18.3891 29.3781L23.8835 33.1173C23.8835 33.1173 23.7806 36.016 23.792 36.6564M44.0606 39.7421L41.5045 36.5477C41.4359 36.4162 41.373 36.3476 41.3044 36.2161L39.3033 32.0538C38.9717 31.1219 37.9197 30.7388 36.7705 31.8938L33.6774 34.0492L26.7822 34.1178C26.2505 34.1178 25.7188 34.3808 25.3186 34.8497L21.3335 40.0296C20.9333 40.5613 20.3387 40.8243 19.6698 40.7614L13.9124 39.7666C13.1805 39.698 12.4487 40.0296 12.1171 40.6986L10.9336 43.5858M29.3779 21.5796L29.7839 33.8891M23.1166 10.4141C24.907 10.4197 26.3538 11.8731 26.3482 13.6603C26.3426 15.4475 24.8867 16.8918 23.0963 16.8861C21.3059 16.8805 19.8591 15.4271 19.8647 13.6399C19.8703 11.8527 21.3263 10.4085 23.1166 10.4141ZM14.9243 26.5709L16.2451 26.7538C16.9197 26.8453 17.5143 26.3936 17.6115 25.7132L18.572 19.0124C18.6635 18.3378 18.2118 17.7432 17.5315 17.646L16.2108 17.463C15.5361 17.3716 14.9415 17.8232 14.8443 18.5036L13.8838 25.2044C13.7923 25.8447 14.244 26.4737 14.9243 26.5709Z" stroke="#221F20" stroke-width="1.15742" stroke-linecap="square" stroke-linejoin="bevel"/>
<path d="M0 0V-1H-1V0H0ZM54 0H55V-1H54V0ZM54 54V55H55V54H54ZM0 54H-1V55H0V54ZM0 1H54V-1H0V1ZM53 0V54H55V0H53ZM54 53H0V55H54V53ZM1 54V0H-1V54H1Z" fill="#221F20" mask="url(#path-1-inside-1_459_49222)"/>
</svg>
