<svg width="54" height="54" viewBox="0 0 54 54" fill="none" xmlns="http://www.w3.org/2000/svg">
<path d="M38.25 47.6999V43.0999C38.25 38.0169 34.2225 33.8999 29.25 33.8999H11.25C6.2775 33.8999 2.25 38.0169 2.25 43.0999V47.6999" stroke="#221F20" stroke-width="2.5" stroke-linecap="round" stroke-linejoin="round"/>
<path d="M20.25 24.7C25.2206 24.7 29.25 20.5811 29.25 15.5C29.25 10.419 25.2206 6.30005 20.25 6.30005C15.2794 6.30005 11.25 10.419 11.25 15.5C11.25 20.5811 15.2794 24.7 20.25 24.7Z" stroke="#221F20" stroke-width="2.5" stroke-linecap="round" stroke-linejoin="round"/>
<path d="M51.75 47.7V43.1C51.75 38.914 48.96 35.257 45 34.199" stroke="#221F20" stroke-width="2.5" stroke-linecap="round" stroke-linejoin="round"/>
<path d="M36 6.59912C40.815 7.86412 43.7175 12.8781 42.48 17.8001C41.67 21.0661 39.1725 23.5961 36 24.4241" stroke="#221F20" stroke-width="2.5" stroke-linecap="round" stroke-linejoin="round"/>
</svg>
