<svg width="54" height="54" viewBox="0 0 54 54" fill="none" xmlns="http://www.w3.org/2000/svg">
<path d="M38.0404 46.8001V42.4001C38.0404 37.5381 34.0875 33.6001 29.207 33.6001H11.5404C6.65995 33.6001 2.70703 37.5381 2.70703 42.4001V46.8001" stroke="#FFCC01" stroke-width="2.5" stroke-linecap="round" stroke-linejoin="round"/>
<path d="M20.3763 24.8002C25.2548 24.8002 29.2096 20.8603 29.2096 16.0002C29.2096 11.1401 25.2548 7.2002 20.3763 7.2002C15.4978 7.2002 11.543 11.1401 11.543 16.0002C11.543 20.8603 15.4978 24.8002 20.3763 24.8002Z" stroke="#FFCC01" stroke-width="2.5" stroke-linecap="round" stroke-linejoin="round"/>
<path d="M51.293 46.7997V42.3997C51.293 38.3957 48.5546 34.8977 44.668 33.8857" stroke="#FFCC01" stroke-width="2.5" stroke-linecap="round" stroke-linejoin="round"/>
<path d="M35.832 7.48584C40.5579 8.69584 43.4066 13.4918 42.192 18.1998C41.397 21.3238 38.9458 23.7438 35.832 24.5358" stroke="#FFCC01" stroke-width="2.5" stroke-linecap="round" stroke-linejoin="round"/>
</svg>
