<svg width="54" height="56" viewBox="0 0 54 56" fill="none" xmlns="http://www.w3.org/2000/svg">
<mask id="path-1-outside-1_459_49358" maskUnits="userSpaceOnUse" x="6" y="0" width="42" height="56" fill="black">
<rect fill="white" x="6" width="42" height="56"/>
<path fill-rule="evenodd" clip-rule="evenodd" d="M21.5163 6.83834C21.5163 3.6168 24.0892 1 27.2568 1C30.4243 1 32.9972 3.6168 32.9972 6.83834C32.9972 10.0599 30.4243 12.6767 27.2568 12.6767C24.0892 12.6767 21.5163 10.0599 21.5163 6.83834ZM27.2568 2.39896C24.8489 2.39896 22.8918 4.38942 22.8918 6.83834C22.8918 9.28726 24.8489 11.2777 27.2568 11.2777C29.6646 11.2777 31.6217 9.28726 31.6217 6.83834C31.6217 4.38942 29.6646 2.39896 27.2568 2.39896ZM20.4539 18.1253C20.4526 18.1302 20.4272 18.1769 20.3809 18.298C20.3234 18.4486 20.254 18.6581 20.1739 18.925C20.0143 19.4571 19.824 20.1779 19.6142 21.029C19.195 22.729 18.7059 24.9156 18.2392 27.0796C17.8773 28.7576 17.5297 30.4188 17.2397 31.8238H19.1343L19.5861 30.0959L19.5935 30.0699C19.9996 28.7275 20.4397 27.3776 20.7777 26.3617C20.9468 25.8534 21.0905 25.428 21.1917 25.1286L21.2039 25.0928C21.2488 24.9597 21.2843 24.8549 21.3091 24.7808C21.3227 24.7402 21.3322 24.7113 21.3382 24.693C21.3405 24.6858 21.3419 24.6813 21.3419 24.6813L21.3406 24.6857L21.3373 24.6978C21.3361 24.7022 21.333 24.7142 21.3297 24.73C21.328 24.7379 21.3251 24.7521 21.3224 24.7701C21.3205 24.7827 21.3145 24.8232 21.3145 24.8756L21.3498 24.6545C21.4745 24.2741 21.8219 24.0922 22.1123 24.0922L22.2615 24.1089C22.6255 24.1912 22.9193 24.5051 22.9193 24.9223L22.9176 24.9721C22.9177 24.9695 22.9165 24.9936 22.9132 25.0627L22.9011 25.3273C22.8909 25.5546 22.8764 25.8805 22.8582 26.2911C22.8218 27.1121 22.7709 28.2707 22.7103 29.6539C22.6807 30.3283 22.6489 31.0559 22.6153 31.8238H31.8804L31.8149 30.229C31.7601 28.8362 31.6893 27.5285 31.6322 26.565C31.6036 26.0835 31.5785 25.6882 31.5605 25.4116C31.5521 25.2834 31.5453 25.1807 31.5404 25.1065L31.5393 25.0894C31.5362 25.0424 31.53 24.9571 31.53 24.9223C31.53 24.6105 31.7327 24.1897 32.1964 24.1111L32.3095 24.1016H32.3187C32.4143 24.1016 32.5677 24.1164 32.726 24.2059C32.903 24.3059 33.0289 24.4672 33.0903 24.6545C33.089 24.6505 33.0997 24.681 33.1298 24.7679C33.1569 24.8464 33.1961 24.9598 33.2453 25.1034C33.3437 25.3904 33.4822 25.7978 33.6452 26.2867C33.9708 27.264 34.3951 28.5701 34.7922 29.8944L34.8018 29.9297L35.2648 31.8238H37.1783L37.1414 31.5786L37.141 31.5764C36.4781 27.3081 35.8515 24.1183 35.2992 21.8884C35.0227 20.7725 34.7674 19.9074 34.539 19.2726C34.3026 18.6155 34.1189 18.2754 34.0116 18.1446C33.2041 17.1734 31.8947 16.6046 30.5547 16.2876C29.2309 15.9746 27.982 15.9316 27.4127 15.9316H27.0367C26.4674 15.9316 25.2185 15.9746 23.8947 16.2876C22.5635 16.6025 21.2626 17.1658 20.4539 18.1253ZM20.5576 31.8238L20.912 30.4685C21.0593 29.9819 21.2112 29.4939 21.3611 29.0213C21.324 29.8671 21.2827 30.8113 21.2384 31.8238H20.5576ZM18.7685 33.2228H16.9525C16.8273 33.8359 16.7215 34.3582 16.641 34.7573L18.3795 34.7105L18.7685 33.2228ZM15.7941 35.4798L15.12 35.3411L15.8123 36.179L18.9302 36.0951L19.5766 35.5756L20.1918 33.2228H21.1773C21.089 35.245 20.9922 37.4646 20.8957 39.6784C20.7363 43.3343 20.5776 46.9822 20.4587 49.716L20.2607 54.2693C20.2607 54.2693 20.2606 54.2696 20.9477 54.3005L20.2607 54.2693L20.9477 55H25.0651L25.7491 54.3732L27.2205 40.0544C27.3735 41.539 27.5745 43.4892 27.7786 45.4724C28.2006 49.5721 28.6359 53.8078 28.6907 54.3695L29.3751 55H33.4924L34.1796 54.2713L33.3146 33.2228H34.1895L34.7232 35.4061L35.3991 35.9367L38.3885 35.8994L39.0679 35.2V35.1813L39.0599 35.0754L38.7807 33.2228H42.3416V38.4269H43.7171V33.2228H45.0651V37.401H46.4406V33.2228H47V31.8238H46.4406V27.6456H45.0651V31.8238H43.7171V26.3585H42.3416V31.8238H38.5699L38.5006 31.3635L38.5001 31.3603C37.8335 27.0681 37.1993 23.8326 36.633 21.5466C36.35 20.4043 36.0815 19.4886 35.8308 18.7918C35.5886 18.1188 35.3382 17.5764 35.0649 17.2449L35.0632 17.2429C33.9724 15.9298 32.3157 15.2678 30.8662 14.925C29.4001 14.5783 28.0354 14.5326 27.4127 14.5326H27.0367C26.4139 14.5326 25.0493 14.5783 23.5831 14.925C22.1338 15.2678 20.4772 15.9297 19.3864 17.2425M37.3892 33.2228H35.6069L35.9267 34.5311L37.5832 34.5104L37.3892 33.2228ZM33.8475 31.8238L33.4713 30.285C33.3651 29.9312 33.2571 29.579 33.1496 29.2343C33.1634 29.5406 33.1767 29.8544 33.1893 30.1727L33.2571 31.8238H33.8475ZM31.7902 25.1108C31.7885 25.1061 31.7869 25.1015 31.7854 25.0968C31.7854 25.0968 31.7876 25.1032 31.7902 25.1108ZM31.9379 33.2228H22.5542C22.4652 35.2597 22.3674 37.5015 22.2698 39.7403C22.1105 43.3962 21.9518 47.044 21.8328 49.7778L21.6666 53.601H24.4455L26.1234 37.2724L26.8074 36.6456H27.6327L28.3167 37.2721L27.6327 37.3451C28.3167 37.2721 28.3167 37.2721 28.3167 37.2721L28.5735 39.7627C28.7283 41.2642 28.9357 43.2778 29.1467 45.3268C29.4932 48.6936 29.8495 52.1592 29.996 53.601H32.7753L31.9379 33.2228ZM15.7941 35.4798C15.12 35.3411 15.12 35.3411 15.12 35.3411L15.1581 35.1506C15.1829 35.0266 15.2194 34.8446 15.2661 34.6127C15.3377 34.2571 15.4333 33.7842 15.5477 33.2228H11.8877V38.4269H10.5122V33.2228H9.15497V37.401H7.77946V33.2228H7V31.8238H7.77946V27.6456H9.15497V31.8238H10.5122V26.3585H11.8877V31.8238H15.8343C16.1362 30.3579 16.5077 28.579 16.8956 26.7799C17.3631 24.6119 17.8558 22.4092 18.28 20.6887C18.4918 19.8296 18.6886 19.0824 18.8582 18.5168C18.9428 18.235 19.0235 17.9883 19.0988 17.7913C19.1615 17.6272 19.2546 17.4011 19.3864 17.2425"/>
</mask>
<path fill-rule="evenodd" clip-rule="evenodd" d="M21.5163 6.83834C21.5163 3.6168 24.0892 1 27.2568 1C30.4243 1 32.9972 3.6168 32.9972 6.83834C32.9972 10.0599 30.4243 12.6767 27.2568 12.6767C24.0892 12.6767 21.5163 10.0599 21.5163 6.83834ZM27.2568 2.39896C24.8489 2.39896 22.8918 4.38942 22.8918 6.83834C22.8918 9.28726 24.8489 11.2777 27.2568 11.2777C29.6646 11.2777 31.6217 9.28726 31.6217 6.83834C31.6217 4.38942 29.6646 2.39896 27.2568 2.39896ZM20.4539 18.1253C20.4526 18.1302 20.4272 18.1769 20.3809 18.298C20.3234 18.4486 20.254 18.6581 20.1739 18.925C20.0143 19.4571 19.824 20.1779 19.6142 21.029C19.195 22.729 18.7059 24.9156 18.2392 27.0796C17.8773 28.7576 17.5297 30.4188 17.2397 31.8238H19.1343L19.5861 30.0959L19.5935 30.0699C19.9996 28.7275 20.4397 27.3776 20.7777 26.3617C20.9468 25.8534 21.0905 25.428 21.1917 25.1286L21.2039 25.0928C21.2488 24.9597 21.2843 24.8549 21.3091 24.7808C21.3227 24.7402 21.3322 24.7113 21.3382 24.693C21.3405 24.6858 21.3419 24.6813 21.3419 24.6813L21.3406 24.6857L21.3373 24.6978C21.3361 24.7022 21.333 24.7142 21.3297 24.73C21.328 24.7379 21.3251 24.7521 21.3224 24.7701C21.3205 24.7827 21.3145 24.8232 21.3145 24.8756L21.3498 24.6545C21.4745 24.2741 21.8219 24.0922 22.1123 24.0922L22.2615 24.1089C22.6255 24.1912 22.9193 24.5051 22.9193 24.9223L22.9176 24.9721C22.9177 24.9695 22.9165 24.9936 22.9132 25.0627L22.9011 25.3273C22.8909 25.5546 22.8764 25.8805 22.8582 26.2911C22.8218 27.1121 22.7709 28.2707 22.7103 29.6539C22.6807 30.3283 22.6489 31.0559 22.6153 31.8238H31.8804L31.8149 30.229C31.7601 28.8362 31.6893 27.5285 31.6322 26.565C31.6036 26.0835 31.5785 25.6882 31.5605 25.4116C31.5521 25.2834 31.5453 25.1807 31.5404 25.1065L31.5393 25.0894C31.5362 25.0424 31.53 24.9571 31.53 24.9223C31.53 24.6105 31.7327 24.1897 32.1964 24.1111L32.3095 24.1016H32.3187C32.4143 24.1016 32.5677 24.1164 32.726 24.2059C32.903 24.3059 33.0289 24.4672 33.0903 24.6545C33.089 24.6505 33.0997 24.681 33.1298 24.7679C33.1569 24.8464 33.1961 24.9598 33.2453 25.1034C33.3437 25.3904 33.4822 25.7978 33.6452 26.2867C33.9708 27.264 34.3951 28.5701 34.7922 29.8944L34.8018 29.9297L35.2648 31.8238H37.1783L37.1414 31.5786L37.141 31.5764C36.4781 27.3081 35.8515 24.1183 35.2992 21.8884C35.0227 20.7725 34.7674 19.9074 34.539 19.2726C34.3026 18.6155 34.1189 18.2754 34.0116 18.1446C33.2041 17.1734 31.8947 16.6046 30.5547 16.2876C29.2309 15.9746 27.982 15.9316 27.4127 15.9316H27.0367C26.4674 15.9316 25.2185 15.9746 23.8947 16.2876C22.5635 16.6025 21.2626 17.1658 20.4539 18.1253ZM20.5576 31.8238L20.912 30.4685C21.0593 29.9819 21.2112 29.4939 21.3611 29.0213C21.324 29.8671 21.2827 30.8113 21.2384 31.8238H20.5576ZM18.7685 33.2228H16.9525C16.8273 33.8359 16.7215 34.3582 16.641 34.7573L18.3795 34.7105L18.7685 33.2228ZM15.7941 35.4798L15.12 35.3411L15.8123 36.179L18.9302 36.0951L19.5766 35.5756L20.1918 33.2228H21.1773C21.089 35.245 20.9922 37.4646 20.8957 39.6784C20.7363 43.3343 20.5776 46.9822 20.4587 49.716L20.2607 54.2693C20.2607 54.2693 20.2606 54.2696 20.9477 54.3005L20.2607 54.2693L20.9477 55H25.0651L25.7491 54.3732L27.2205 40.0544C27.3735 41.539 27.5745 43.4892 27.7786 45.4724C28.2006 49.5721 28.6359 53.8078 28.6907 54.3695L29.3751 55H33.4924L34.1796 54.2713L33.3146 33.2228H34.1895L34.7232 35.4061L35.3991 35.9367L38.3885 35.8994L39.0679 35.2V35.1813L39.0599 35.0754L38.7807 33.2228H42.3416V38.4269H43.7171V33.2228H45.0651V37.401H46.4406V33.2228H47V31.8238H46.4406V27.6456H45.0651V31.8238H43.7171V26.3585H42.3416V31.8238H38.5699L38.5006 31.3635L38.5001 31.3603C37.8335 27.0681 37.1993 23.8326 36.633 21.5466C36.35 20.4043 36.0815 19.4886 35.8308 18.7918C35.5886 18.1188 35.3382 17.5764 35.0649 17.2449L35.0632 17.2429C33.9724 15.9298 32.3157 15.2678 30.8662 14.925C29.4001 14.5783 28.0354 14.5326 27.4127 14.5326H27.0367C26.4139 14.5326 25.0493 14.5783 23.5831 14.925C22.1338 15.2678 20.4772 15.9297 19.3864 17.2425M37.3892 33.2228H35.6069L35.9267 34.5311L37.5832 34.5104L37.3892 33.2228ZM33.8475 31.8238L33.4713 30.285C33.3651 29.9312 33.2571 29.579 33.1496 29.2343C33.1634 29.5406 33.1767 29.8544 33.1893 30.1727L33.2571 31.8238H33.8475ZM31.7902 25.1108C31.7885 25.1061 31.7869 25.1015 31.7854 25.0968C31.7854 25.0968 31.7876 25.1032 31.7902 25.1108ZM31.9379 33.2228H22.5542C22.4652 35.2597 22.3674 37.5015 22.2698 39.7403C22.1105 43.3962 21.9518 47.044 21.8328 49.7778L21.6666 53.601H24.4455L26.1234 37.2724L26.8074 36.6456H27.6327L28.3167 37.2721L27.6327 37.3451C28.3167 37.2721 28.3167 37.2721 28.3167 37.2721L28.5735 39.7627C28.7283 41.2642 28.9357 43.2778 29.1467 45.3268C29.4932 48.6936 29.8495 52.1592 29.996 53.601H32.7753L31.9379 33.2228ZM15.7941 35.4798C15.12 35.3411 15.12 35.3411 15.12 35.3411L15.1581 35.1506C15.1829 35.0266 15.2194 34.8446 15.2661 34.6127C15.3377 34.2571 15.4333 33.7842 15.5477 33.2228H11.8877V38.4269H10.5122V33.2228H9.15497V37.401H7.77946V33.2228H7V31.8238H7.77946V27.6456H9.15497V31.8238H10.5122V26.3585H11.8877V31.8238H15.8343C16.1362 30.3579 16.5077 28.579 16.8956 26.7799C17.3631 24.6119 17.8558 22.4092 18.28 20.6887C18.4918 19.8296 18.6886 19.0824 18.8582 18.5168C18.9428 18.235 19.0235 17.9883 19.0988 17.7913C19.1615 17.6272 19.2546 17.4011 19.3864 17.2425" fill="#FFCC01"/>
<path d="M15.647 35.4508L15.618 35.598L15.9123 35.656L15.9413 35.5088L15.647 35.4508ZM19.3864 17.2425L19.4843 17.1288L19.2393 17.2136L19.3864 17.2425ZM19.8137 17.808L19.9274 17.9058L20.123 17.6784L20.0093 17.5806L19.8137 17.808ZM20.0093 17.5806L19.4843 17.1288L19.2886 17.3563L19.8137 17.808L20.0093 17.5806ZM19.2393 17.2136L15.647 35.4508L15.9413 35.5088L19.5336 17.2715L19.2393 17.2136ZM20.3809 18.298L20.6611 18.4051L20.3809 18.298ZM20.4539 18.1253L20.2245 17.932L20.1636 18.0497L20.4539 18.1253ZM20.1739 18.925L20.4612 19.0112L20.1739 18.925ZM19.6142 21.029L19.3229 20.9572L19.6142 21.029ZM18.2392 27.0796L17.9459 27.0164L18.2392 27.0796ZM17.2397 31.8238L16.9459 31.7632L17.2397 32.1238V31.8238ZM19.1343 31.8238V32.1238L19.4246 31.8997L19.1343 31.8238ZM19.5861 30.0959L19.2973 30.0145L19.2959 30.02L19.5861 30.0959ZM19.5935 30.0699L19.3063 29.9831L19.3047 29.9885L19.5935 30.0699ZM20.7777 26.3617L21.0623 26.4564L20.7777 26.3617ZM21.1917 25.1286L20.9075 25.0325L20.9075 25.0325L21.1917 25.1286ZM21.2039 25.0928L21.488 25.1889L21.488 25.1889L21.2039 25.0928ZM21.3091 24.7808L21.5936 24.8761L21.3091 24.7808ZM21.3382 24.693L21.0527 24.6007L21.0527 24.6007L21.3382 24.693ZM21.3419 24.6813L21.6298 24.7656L21.0556 24.5917L21.3419 24.6813ZM21.3406 24.6857L21.0527 24.6015L21.0514 24.6062L21.3406 24.6857ZM21.3373 24.6978L21.048 24.6182L21.0472 24.6213L21.3373 24.6978ZM21.3297 24.73L21.6232 24.792V24.792L21.3297 24.73ZM21.3224 24.7701L21.0258 24.7254L21.0258 24.7254L21.3224 24.7701ZM21.3145 24.8756H21.0145L21.6108 24.9229L21.3145 24.8756ZM21.3498 24.6545L21.0647 24.561L21.0536 24.6072L21.3498 24.6545ZM22.1123 24.0922L22.1456 23.7941L22.1123 23.7922V24.0922ZM22.2615 24.1089L22.3277 23.8163L22.2948 23.8107L22.2615 24.1089ZM22.9193 24.9223L23.2193 24.9328V24.9223H22.9193ZM22.9176 24.9721L22.6177 24.9616L23.2168 24.9931L22.9176 24.9721ZM22.9132 25.0627L22.6136 25.0487L22.6135 25.049L22.9132 25.0627ZM22.9011 25.3273L22.6015 25.3136L22.6014 25.3138L22.9011 25.3273ZM22.8582 26.2911L23.1579 26.3043L22.8582 26.2911ZM22.7103 29.6539L22.4106 29.6408L22.7103 29.6539ZM22.6153 31.8238L22.3156 31.8107L22.6153 32.1238V31.8238ZM31.8804 31.8238V32.1238L32.1801 31.8115L31.8804 31.8238ZM31.8149 30.229L31.5151 30.2408L31.5151 30.2413L31.8149 30.229ZM31.6322 26.565L31.9316 26.5473L31.6322 26.565ZM31.5605 25.4116L31.8598 25.3921V25.3921L31.5605 25.4116ZM31.5404 25.1065L31.8398 25.0866V25.0866L31.5404 25.1065ZM31.5393 25.0894L31.2399 25.1092L31.2399 25.1092L31.5393 25.0894ZM32.1964 24.1111L32.1713 23.8121L32.1463 23.8153L32.1964 24.1111ZM32.3095 24.1016V23.8016L32.2843 23.8026L32.3095 24.1016ZM32.726 24.2059L32.8736 23.9447L32.8736 23.9447L32.726 24.2059ZM33.0903 24.6545L32.8053 24.7479L33.3754 24.5611L33.0903 24.6545ZM33.1298 24.7679L32.8463 24.866L32.8463 24.866L33.1298 24.7679ZM33.2453 25.1034L32.9615 25.2007L33.2453 25.1034ZM33.6452 26.2867L33.3606 26.3816L33.6452 26.2867ZM34.7922 29.8944L35.0818 29.8157L35.0795 29.8082L34.7922 29.8944ZM34.8018 29.9297L35.0933 29.8584L35.0913 29.8509L34.8018 29.9297ZM35.2648 31.8238L34.9734 31.8951L35.2648 32.1238V31.8238ZM37.1783 31.8238V32.1238L37.475 31.7791L37.1783 31.8238ZM37.1414 31.5786L37.438 31.5339L37.4378 31.5323L37.1414 31.5786ZM37.141 31.5764L36.8446 31.6224L36.8446 31.6226L37.141 31.5764ZM35.2992 21.8884L35.008 21.9605L35.2992 21.8884ZM34.539 19.2726L34.2567 19.3742L34.539 19.2726ZM34.0116 18.1446L34.2434 17.9543L34.2422 17.9528L34.0116 18.1446ZM30.5547 16.2876L30.6237 15.9957L30.5547 16.2876ZM23.8947 16.2876L23.8256 15.9957L23.8947 16.2876ZM20.5576 31.8238L20.2674 31.7479L20.5576 32.1238V31.8238ZM20.912 30.4685L20.6247 30.3815L20.6218 30.3926L20.912 30.4685ZM21.3611 29.0213L21.6609 29.0344L21.0752 28.9306L21.3611 29.0213ZM21.2384 31.8238V32.1238L21.5381 31.8369L21.2384 31.8238ZM16.9525 33.2228V32.9228L16.6585 33.1628L16.9525 33.2228ZM18.7685 33.2228L19.0588 33.2987L18.7685 32.9228V33.2228ZM16.641 34.7573L16.347 34.698L16.6491 35.0572L16.641 34.7573ZM18.3795 34.7105L18.3876 35.0104L18.6698 34.7864L18.3795 34.7105ZM15.12 35.3411L14.8258 35.2823L14.8888 35.5322L15.12 35.3411ZM15.8123 36.179L15.5811 36.3701L15.8204 36.4789L15.8123 36.179ZM18.9302 36.0951L18.9382 36.395L19.1181 36.3289L18.9302 36.0951ZM19.5766 35.5756L19.7645 35.8095L19.8669 35.6515L19.5766 35.5756ZM20.1918 33.2228V32.9228L19.9016 33.1469L20.1918 33.2228ZM21.1773 33.2228L21.477 33.2359L21.1773 32.9228V33.2228ZM20.8957 39.6784L20.596 39.6653L20.8957 39.6784ZM20.4587 49.716L20.1589 49.7029L20.1589 49.7029L20.4587 49.716ZM20.9477 54.3005L20.9343 54.6002L20.9613 54.0008L20.9477 54.3005ZM20.9477 55L20.7292 55.2055L20.9477 55.3V55ZM25.0651 55V55.3L25.2678 55.2212L25.0651 55ZM25.7491 54.3732L25.9518 54.5944L26.0476 54.4039L25.7491 54.3732ZM27.2205 40.0544L27.5189 40.0237L26.9221 40.0238L27.2205 40.0544ZM27.7786 45.4724L28.077 45.4417L27.7786 45.4724ZM28.6907 54.3695L28.3921 54.3987L28.4874 54.5902L28.6907 54.3695ZM29.3751 55L29.1718 55.2206L29.3751 55.3V55ZM33.4924 55V55.3L33.7107 55.2058L33.4924 55ZM34.1796 54.2713L34.3979 54.4771L34.4793 54.259L34.1796 54.2713ZM33.3146 33.2228V32.9228L33.0149 33.2351L33.3146 33.2228ZM34.1895 33.2228L34.4809 33.1516L34.1895 32.9228V33.2228ZM34.7232 35.4061L34.4318 35.4773L34.5379 35.642L34.7232 35.4061ZM35.3991 35.9367L35.2138 36.1727L35.4028 36.2367L35.3991 35.9367ZM38.3885 35.8994L38.3923 36.1994L38.6037 36.1084L38.3885 35.8994ZM39.0679 35.2L39.2831 35.409L39.3679 35.2H39.0679ZM39.0679 35.1813H39.3679L39.367 35.1589L39.0679 35.1813ZM39.0599 35.0754L39.3591 35.053L39.3566 35.0307L39.0599 35.0754ZM38.7807 33.2228V32.9228L38.4841 33.2675L38.7807 33.2228ZM42.3416 33.2228H42.6416L42.3416 32.9228V33.2228ZM42.3416 38.4269H42.0416L42.3416 38.7269V38.4269ZM43.7171 38.4269V38.7269L44.0171 38.4269H43.7171ZM43.7171 33.2228V32.9228L43.4171 33.2228H43.7171ZM45.0651 33.2228H45.3651L45.0651 32.9228V33.2228ZM45.0651 37.401H44.7651L45.0651 37.701V37.401ZM46.4406 37.401V37.701L46.7406 37.401H46.4406ZM46.4406 33.2228V32.9228L46.1406 33.2228H46.4406ZM47 33.2228V33.5228L47.3 33.2228H47ZM47 31.8238H47.3L47 31.5238V31.8238ZM46.4406 31.8238H46.1406L46.4406 32.1238V31.8238ZM46.4406 27.6456H46.7406L46.4406 27.3456V27.6456ZM45.0651 27.6456V27.3456L44.7651 27.6456H45.0651ZM45.0651 31.8238V32.1238L45.3651 31.8238H45.0651ZM43.7171 31.8238H43.4171L43.7171 32.1238V31.8238ZM43.7171 26.3585H44.0171L43.7171 26.0585V26.3585ZM42.3416 26.3585V26.0585L42.0416 26.3585H42.3416ZM42.3416 31.8238V32.1238L42.6416 31.8238H42.3416ZM38.5699 31.8238L38.2733 31.8685L38.5699 32.1238V31.8238ZM38.5006 31.3635L38.7972 31.3188L38.797 31.3172L38.5006 31.3635ZM38.5001 31.3603L38.2036 31.4063L38.2036 31.4066L38.5001 31.3603ZM36.633 21.5466L36.3418 21.6187V21.6187L36.633 21.5466ZM35.8308 18.7918L36.113 18.6903L35.8308 18.7918ZM35.0649 17.2449L35.2964 17.0541L35.2957 17.0532L35.0649 17.2449ZM35.0632 17.2429L35.294 17.0512L35.2939 17.0512L35.0632 17.2429ZM30.8662 14.925L30.9353 14.6331L30.8662 14.925ZM23.5831 14.925L23.5141 14.6331L23.5831 14.925ZM19.3864 17.2425L19.6171 17.4343L19.6172 17.4343L19.3864 17.2425ZM35.6069 33.2228V32.9228L35.3154 33.294L35.6069 33.2228ZM37.3892 33.2228L37.6858 33.1781L37.3892 32.9228V33.2228ZM35.9267 34.5311L35.6353 34.6023L35.9304 34.8311L35.9267 34.5311ZM37.5832 34.5104L37.5869 34.8104L37.8799 34.4657L37.5832 34.5104ZM33.4713 30.285L33.7627 30.2138L33.7586 30.1988L33.4713 30.285ZM33.8475 31.8238V32.1238L34.1389 31.7526L33.8475 31.8238ZM33.1496 29.2343L33.436 29.145L32.8499 29.2478L33.1496 29.2343ZM33.1893 30.1727L32.8895 30.1845L32.8895 30.185L33.1893 30.1727ZM33.2571 31.8238L32.9574 31.8362L33.2571 32.1238V31.8238ZM31.7902 25.1108L31.5076 25.2115L32.0738 25.0129L31.7902 25.1108ZM31.7854 25.0968L32.0696 25.0006L31.5003 25.1903L31.7854 25.0968ZM22.5542 33.2228V32.9228L22.2545 33.2097L22.5542 33.2228ZM31.9379 33.2228L32.2376 33.2105L31.9379 32.9228V33.2228ZM22.2698 39.7403L21.9701 39.7272L22.2698 39.7403ZM21.8328 49.7778L21.5331 49.7648V49.7648L21.8328 49.7778ZM21.6666 53.601L21.3668 53.588L21.6666 53.901V53.601ZM24.4455 53.601V53.901L24.7439 53.6317L24.4455 53.601ZM26.1234 37.2724L25.9207 37.0512L25.825 37.2417L26.1234 37.2724ZM26.8074 36.6456V36.3456L26.6048 36.4244L26.8074 36.6456ZM27.6327 36.6456L27.8354 36.4244L27.6327 36.3456V36.6456ZM28.3167 37.2721L28.6152 37.2413L28.5194 37.0509L28.3167 37.2721ZM28.5735 39.7627L28.8719 39.732V39.732L28.5735 39.7627ZM29.1467 45.3268L28.8482 45.3575L29.1467 45.3268ZM29.996 53.601L29.6975 53.6314L29.996 53.901V53.601ZM32.7753 53.601V53.901L33.0751 53.5887L32.7753 53.601ZM15.1581 35.1506L14.8639 35.0918L14.8639 35.0919L15.1581 35.1506ZM15.2661 34.6127L15.5602 34.6719L15.2661 34.6127ZM15.5477 33.2228L15.8416 33.2827L15.5477 32.9228V33.2228ZM11.8877 33.2228V32.9228L11.5877 33.2228H11.8877ZM11.8877 38.4269V38.7269L12.1877 38.4269H11.8877ZM10.5122 38.4269H10.2122L10.5122 38.7269V38.4269ZM10.5122 33.2228H10.8122L10.5122 32.9228V33.2228ZM9.15497 33.2228V32.9228L8.85497 33.2228H9.15497ZM9.15497 37.401V37.701L9.45497 37.401H9.15497ZM7.77946 37.401H7.47946L7.77946 37.701V37.401ZM7.77946 33.2228H8.07946L7.77946 32.9228V33.2228ZM7 33.2228H6.7L7 33.5228V33.2228ZM7 31.8238V31.5238L6.7 31.8238H7ZM7.77946 31.8238V32.1238L8.07946 31.8238H7.77946ZM7.77946 27.6456V27.3456L7.47946 27.6456H7.77946ZM9.15497 27.6456H9.45497L9.15497 27.3456V27.6456ZM9.15497 31.8238H8.85497L9.15497 32.1238V31.8238ZM10.5122 31.8238V32.1238L10.8122 31.8238H10.5122ZM10.5122 26.3585V26.0585L10.2122 26.3585H10.5122ZM11.8877 26.3585H12.1877L11.8877 26.0585V26.3585ZM11.8877 31.8238H11.5877L11.8877 32.1238V31.8238ZM15.8343 31.8238V32.1238L16.1281 31.8843L15.8343 31.8238ZM16.8956 26.7799L17.1889 26.8432L16.8956 26.7799ZM18.28 20.6887L18.5712 20.7606L18.28 20.6887ZM18.8582 18.5168L19.1456 18.603V18.603L18.8582 18.5168ZM19.0988 17.7913L18.8185 17.6843L19.0988 17.7913ZM27.2568 0.7C23.9188 0.7 21.2163 3.45591 21.2163 6.83834H21.8163C21.8163 3.77768 24.2597 1.3 27.2568 1.3V0.7ZM33.2972 6.83834C33.2972 3.45591 30.5948 0.7 27.2568 0.7V1.3C30.2539 1.3 32.6972 3.77768 32.6972 6.83834H33.2972ZM27.2568 12.9767C30.5948 12.9767 33.2972 10.2208 33.2972 6.83834H32.6972C32.6972 9.899 30.2539 12.3767 27.2568 12.3767V12.9767ZM21.2163 6.83834C21.2163 10.2208 23.9188 12.9767 27.2568 12.9767V12.3767C24.2597 12.3767 21.8163 9.899 21.8163 6.83834H21.2163ZM23.1918 6.83834C23.1918 4.55031 25.0193 2.69896 27.2568 2.69896V2.09896C24.6784 2.09896 22.5918 4.22854 22.5918 6.83834H23.1918ZM27.2568 10.9777C25.0193 10.9777 23.1918 9.12638 23.1918 6.83834H22.5918C22.5918 9.44815 24.6784 11.5777 27.2568 11.5777V10.9777ZM31.3217 6.83834C31.3217 9.12638 29.4942 10.9777 27.2568 10.9777V11.5777C29.8351 11.5777 31.9217 9.44815 31.9217 6.83834H31.3217ZM27.2568 2.69896C29.4942 2.69896 31.3217 4.55031 31.3217 6.83834H31.9217C31.9217 4.22854 29.8351 2.09896 27.2568 2.09896V2.69896ZM20.6611 18.4051C20.6823 18.3498 20.698 18.3131 20.708 18.291C20.7129 18.2799 20.7167 18.2719 20.7197 18.2657C20.7208 18.2633 20.7231 18.2584 20.725 18.2543C20.7259 18.2523 20.7279 18.2479 20.7301 18.2426C20.7306 18.2415 20.7383 18.2238 20.7442 18.201L20.1636 18.0497C20.1671 18.0362 20.1708 18.026 20.1723 18.0219C20.1742 18.0169 20.1758 18.013 20.1767 18.0109C20.1784 18.0069 20.1796 18.0041 20.1797 18.0041C20.1797 18.004 20.1795 18.0044 20.1773 18.009C20.1737 18.0167 20.168 18.0288 20.1606 18.0452C20.1459 18.0779 20.1258 18.1251 20.1007 18.1909L20.6611 18.4051ZM20.4612 19.0112C20.5404 18.7474 20.6074 18.5458 20.6611 18.4051L20.1007 18.1909C20.0394 18.3514 19.9676 18.5688 19.8865 18.8388L20.4612 19.0112ZM19.9055 21.1008C20.1149 20.2514 20.3038 19.5362 20.4612 19.0112L19.8865 18.8388C19.7248 19.378 19.5332 20.1044 19.3229 20.9572L19.9055 21.1008ZM18.5324 27.1429C18.9989 24.9796 19.4874 22.7965 19.9055 21.1008L19.3229 20.9572C18.9027 22.6615 18.4128 24.8515 17.9459 27.0164L18.5324 27.1429ZM17.5335 31.8845C17.8234 30.48 18.1708 28.8197 18.5324 27.1429L17.9459 27.0164C17.5838 28.6955 17.236 30.3575 16.9459 31.7632L17.5335 31.8845ZM19.1343 31.5238H17.2397V32.1238H19.1343V31.5238ZM19.2959 30.02L18.8441 31.7479L19.4246 31.8997L19.8764 30.1718L19.2959 30.02ZM19.3047 29.9885L19.2974 30.0145L19.8749 30.1773L19.8822 30.1513L19.3047 29.9885ZM20.493 26.267C20.1547 27.2841 19.7136 28.6369 19.3063 29.9831L19.8806 30.1568C20.2856 28.8181 20.7248 27.4711 21.0623 26.4564L20.493 26.267ZM20.9075 25.0325C20.8063 25.332 20.6623 25.758 20.493 26.267L21.0623 26.4564C21.2312 25.9489 21.3747 25.524 21.4759 25.2247L20.9075 25.0325ZM20.9197 24.9967L20.9075 25.0325L21.4759 25.2247L21.488 25.1889L20.9197 24.9967ZM21.0246 24.6856C21 24.7591 20.9647 24.8634 20.9197 24.9967L21.488 25.1889C21.533 25.056 21.5686 24.9506 21.5936 24.8761L21.0246 24.6856ZM21.0527 24.6007C21.0473 24.6175 21.0382 24.6451 21.0246 24.6856L21.5936 24.8761C21.6072 24.8353 21.6172 24.8052 21.6236 24.7853L21.0527 24.6007ZM21.3419 24.6813C21.0556 24.5917 21.0556 24.5917 21.0556 24.5917C21.0556 24.5917 21.0556 24.5917 21.0556 24.5917C21.0556 24.5917 21.0556 24.5917 21.0556 24.5917C21.0556 24.5917 21.0556 24.5917 21.0556 24.5917C21.0556 24.5917 21.0556 24.5917 21.0556 24.5917C21.0556 24.5916 21.0556 24.5916 21.0556 24.5916C21.0556 24.5916 21.0556 24.5916 21.0556 24.5916C21.0556 24.5917 21.0556 24.5918 21.0555 24.5919C21.0554 24.5923 21.0552 24.5928 21.055 24.5936C21.0545 24.5952 21.0537 24.5976 21.0527 24.6007L21.6236 24.7854C21.6249 24.7812 21.626 24.7778 21.6268 24.7753C21.6272 24.7741 21.6275 24.7731 21.6278 24.7724C21.6279 24.772 21.628 24.7717 21.628 24.7715C21.6281 24.7714 21.6281 24.7713 21.6281 24.7712C21.6281 24.7711 21.6282 24.7711 21.6282 24.7711C21.6282 24.7711 21.6282 24.771 21.6282 24.771C21.6282 24.771 21.6282 24.771 21.6282 24.771C21.6282 24.771 21.6282 24.771 21.6282 24.771C21.6282 24.771 21.6282 24.771 21.6282 24.771C21.6282 24.771 21.6282 24.771 21.3419 24.6813ZM21.6286 24.77L21.6298 24.7656L21.054 24.5971L21.0527 24.6015L21.6286 24.77ZM21.6266 24.7773L21.6299 24.7653L21.0514 24.6062L21.048 24.6182L21.6266 24.7773ZM21.6232 24.792C21.6251 24.783 21.6268 24.7764 21.6274 24.7743L21.0472 24.6213C21.0454 24.6281 21.0409 24.6454 21.0361 24.6681L21.6232 24.792ZM21.6191 24.8148C21.6206 24.8045 21.6223 24.7964 21.6232 24.792L21.0361 24.6681C21.0337 24.6795 21.0296 24.6998 21.0258 24.7254L21.6191 24.8148ZM21.6145 24.8756C21.6145 24.8452 21.6181 24.8216 21.6191 24.8148L21.0258 24.7254C21.023 24.7437 21.0145 24.8013 21.0145 24.8756H21.6145ZM21.0536 24.6072L21.0183 24.8284L21.6108 24.9229L21.6461 24.7017L21.0536 24.6072ZM22.1123 23.7922C21.7107 23.7922 21.2353 24.0407 21.0647 24.561L21.6349 24.7479C21.7137 24.5074 21.9331 24.3922 22.1123 24.3922V23.7922ZM22.2948 23.8107L22.1456 23.7941L22.079 24.3904L22.2282 24.407L22.2948 23.8107ZM23.2193 24.9223C23.2193 24.3514 22.8148 23.9264 22.3277 23.8163L22.1954 24.4015C22.4362 24.4559 22.6193 24.6588 22.6193 24.9223H23.2193ZM23.2174 24.9826L23.2191 24.9328L22.6195 24.9118L22.6177 24.9616L23.2174 24.9826ZM23.2129 25.0767C23.2145 25.0424 23.2156 25.0193 23.2163 25.0051C23.2167 24.9983 23.2169 24.9929 23.2171 24.99C23.2171 24.9887 23.2172 24.9869 23.2173 24.9854C23.2173 24.985 23.2173 24.9842 23.2174 24.9831C23.2174 24.9826 23.2174 24.9816 23.2175 24.9804C23.2175 24.98 23.2176 24.9763 23.2176 24.9717C23.2176 24.9712 23.2176 24.9622 23.2168 24.951C23.2166 24.9475 23.2158 24.939 23.2152 24.9339C23.214 24.9259 23.2097 24.9036 23.206 24.8895C23.195 24.8579 23.1152 24.7462 23.0258 24.6921C22.8666 24.6763 22.6818 24.7864 22.6506 24.8352C22.6415 24.8546 22.6305 24.8848 22.6276 24.8951C22.626 24.9013 22.6237 24.9115 22.6229 24.9157C22.6214 24.9235 22.6206 24.9296 22.6203 24.9319C22.6195 24.9372 22.6191 24.9414 22.619 24.9426C22.6187 24.9457 22.6185 24.9482 22.6185 24.9488C22.6184 24.9498 22.6183 24.9506 22.6183 24.9511L23.2168 24.9931C23.2168 24.9935 23.2167 24.9942 23.2167 24.9952C23.2166 24.9957 23.2164 24.9982 23.2161 25.0013C23.216 25.0025 23.2156 25.0066 23.2149 25.0119C23.2146 25.0142 23.2137 25.0204 23.2122 25.0282C23.2114 25.0323 23.2091 25.0426 23.2076 25.0487C23.2047 25.059 23.1937 25.0892 23.1846 25.1087C23.1533 25.1574 22.9685 25.2676 22.8093 25.2517C22.7199 25.1976 22.6401 25.086 22.6291 25.0544C22.6254 25.0402 22.6211 25.0179 22.62 25.0099C22.6194 25.0049 22.6186 24.9963 22.6183 24.9929C22.6175 24.9816 22.6176 24.9726 22.6176 24.9721C22.6176 24.9676 22.6177 24.964 22.6177 24.9636C22.6177 24.9624 22.6178 24.9615 22.6178 24.9611C22.6178 24.9602 22.6178 24.9595 22.6178 24.9594C22.6179 24.959 22.6178 24.9592 22.6178 24.9609C22.6176 24.9639 22.6174 24.9684 22.617 24.9759C22.6163 24.9904 22.6152 25.0139 22.6136 25.0487L23.2129 25.0767ZM23.2008 25.341L23.2129 25.0764L22.6135 25.049L22.6015 25.3136L23.2008 25.341ZM23.1579 26.3043C23.1761 25.8938 23.1906 25.568 23.2008 25.3409L22.6014 25.3138C22.5912 25.5412 22.5766 25.8672 22.5585 26.2778L23.1579 26.3043ZM23.01 29.6671C23.0706 28.2839 23.1215 27.1253 23.1579 26.3043L22.5585 26.2778C22.5221 27.0989 22.4712 28.2576 22.4106 29.6408L23.01 29.6671ZM22.915 31.8369C22.9486 31.0691 22.9805 30.3414 23.01 29.6671L22.4106 29.6408C22.381 30.3151 22.3492 31.0428 22.3156 31.8107L22.915 31.8369ZM31.8804 31.5238H22.6153V32.1238H31.8804V31.5238ZM31.3327 26.5828C31.3897 27.545 31.4604 28.8506 31.5151 30.2408L32.1146 30.2172C32.0597 28.8218 31.9888 27.512 31.9316 26.5473L31.3327 26.5828ZM31.2611 25.4311C31.2791 25.7072 31.3042 26.1019 31.3327 26.5828L31.9316 26.5473C31.903 26.065 31.8779 25.6691 31.8598 25.3921L31.2611 25.4311ZM31.2411 25.1263C31.246 25.2005 31.2528 25.3031 31.2611 25.4311L31.8598 25.3921C31.8515 25.2638 31.8447 25.1609 31.8398 25.0866L31.2411 25.1263ZM31.2399 25.1092L31.2411 25.1263L31.8398 25.0866L31.8386 25.0695L31.2399 25.1092ZM31.23 24.9223C31.23 24.9702 31.2374 25.0714 31.2399 25.1092L31.8386 25.0696C31.837 25.0444 31.8348 25.0135 31.8329 24.983C31.832 24.968 31.8313 24.9542 31.8307 24.9427C31.8305 24.937 31.8303 24.9322 31.8302 24.9285C31.8301 24.9266 31.8301 24.9251 31.8301 24.924C31.83 24.9234 31.83 24.923 31.83 24.9227C31.83 24.9224 31.83 24.9223 31.83 24.9223H31.23ZM32.1463 23.8153C31.4957 23.9256 31.23 24.5121 31.23 24.9223H31.83C31.83 24.7089 31.9697 24.4538 32.2466 24.4069L32.1463 23.8153ZM32.2843 23.8026L32.1713 23.8121L32.2216 24.41L32.3347 24.4005L32.2843 23.8026ZM32.3187 23.8016H32.3095V24.4016H32.3187V23.8016ZM32.8736 23.9447C32.6546 23.821 32.4445 23.8016 32.3187 23.8016V24.4016C32.384 24.4016 32.4807 24.4119 32.5785 24.4671L32.8736 23.9447ZM33.3754 24.561C33.292 24.3065 33.1193 24.0835 32.8736 23.9447L32.5784 24.4671C32.6868 24.5283 32.7659 24.6278 32.8053 24.7479L33.3754 24.561ZM33.4132 24.6697C33.3982 24.6262 33.388 24.5968 33.3816 24.5786C33.3785 24.5695 33.3762 24.563 33.3748 24.5589C33.3742 24.5572 33.3734 24.5549 33.3726 24.5528C33.3724 24.5523 33.372 24.551 33.3714 24.5494C33.3711 24.5487 33.3704 24.5468 33.3695 24.5445C33.3691 24.5434 33.3682 24.5412 33.367 24.5384C33.3666 24.5374 33.3631 24.5289 33.3579 24.5186C33.3574 24.5176 33.3471 24.4965 33.3296 24.4733C33.3159 24.4564 33.2612 24.4076 33.2165 24.382C33.0915 24.3541 32.8735 24.4467 32.8119 24.5422C32.7986 24.5836 32.7904 24.6457 32.7904 24.6649C32.791 24.6754 32.7927 24.6923 32.7936 24.6987C32.7953 24.7104 32.7974 24.7194 32.7981 24.7223C32.7998 24.7295 32.8013 24.735 32.8017 24.7364C32.8024 24.7387 32.8029 24.7405 32.8032 24.7415C32.8043 24.7448 32.8051 24.7475 32.8052 24.7478L33.3754 24.5611C33.3754 24.5611 33.3763 24.5636 33.3773 24.5669C33.3776 24.5678 33.3781 24.5696 33.3787 24.5719C33.3791 24.5733 33.3807 24.5788 33.3824 24.5859C33.3831 24.5888 33.3851 24.5978 33.3869 24.6095C33.3878 24.616 33.3895 24.6329 33.39 24.6434C33.3901 24.6625 33.3818 24.7246 33.3686 24.7661C33.307 24.8616 33.089 24.9541 32.9639 24.9262C32.9192 24.9006 32.8646 24.8518 32.8508 24.8349C32.8333 24.8117 32.8231 24.7907 32.8226 24.7897C32.8174 24.7794 32.8139 24.7709 32.8135 24.7699C32.8123 24.7671 32.8114 24.7649 32.811 24.7638C32.8101 24.7616 32.8095 24.7598 32.8092 24.7592C32.8087 24.7577 32.8083 24.7566 32.8082 24.7564C32.808 24.7557 32.808 24.7557 32.8087 24.7577C32.8098 24.7609 32.8118 24.7667 32.8149 24.7757C32.8211 24.7935 32.8313 24.8227 32.8463 24.866L33.4132 24.6697ZM33.5291 25.0061C33.4798 24.8622 33.4405 24.7485 33.4132 24.6697L32.8463 24.866C32.8734 24.9443 32.9125 25.0575 32.9615 25.2007L33.5291 25.0061ZM33.9298 26.1919C33.7665 25.702 33.6278 25.2938 33.5291 25.0061L32.9615 25.2007C33.0597 25.487 33.1979 25.8936 33.3606 26.3816L33.9298 26.1919ZM35.0795 29.8082C34.6813 28.48 34.256 27.1708 33.9298 26.1919L33.3606 26.3816C33.6857 27.3572 34.1089 28.6602 34.5048 29.9806L35.0795 29.8082ZM35.0913 29.8509L35.0817 29.8157L34.5027 29.9731L34.5123 30.0084L35.0913 29.8509ZM35.5563 31.7526L35.0932 29.8584L34.5104 30.0009L34.9734 31.8951L35.5563 31.7526ZM37.1783 31.5238H35.2648V32.1238H37.1783V31.5238ZM36.8447 31.6232L36.8817 31.8685L37.475 31.7791L37.438 31.5339L36.8447 31.6232ZM36.8446 31.6226L36.845 31.6248L37.4378 31.5323L37.4375 31.5301L36.8446 31.6226ZM35.008 21.9605C35.5574 24.1786 36.1824 27.3589 36.8446 31.6224L37.4375 31.5303C36.7738 27.2572 36.1456 24.0579 35.5904 21.8162L35.008 21.9605ZM34.2567 19.3742C34.4804 19.9959 34.7329 20.8502 35.008 21.9605L35.5904 21.8162C35.3125 20.6948 35.0545 19.819 34.8213 19.171L34.2567 19.3742ZM33.7797 18.335C33.8517 18.4227 34.0213 18.7197 34.2567 19.3742L34.8213 19.171C34.5839 18.5113 34.3862 18.1282 34.2434 17.9543L33.7797 18.335ZM30.4856 16.5796C31.8011 16.8907 33.0347 17.439 33.7809 18.3364L34.2422 17.9528C33.3734 16.9078 31.9884 16.3184 30.6237 15.9957L30.4856 16.5796ZM27.4127 16.2316C27.9701 16.2316 29.1933 16.274 30.4856 16.5796L30.6237 15.9957C29.2684 15.6752 27.9938 15.6316 27.4127 15.6316V16.2316ZM23.9637 16.5796C25.256 16.274 26.4792 16.2316 27.0367 16.2316V15.6316C26.4555 15.6316 25.181 15.6752 23.8256 15.9957L23.9637 16.5796ZM20.6833 18.3187C21.4309 17.4317 22.6571 16.8886 23.9637 16.5796L23.8256 15.9957C22.4699 16.3163 21.0943 16.9 20.2245 17.932L20.6833 18.3187ZM20.8479 31.8997L21.2023 30.5444L20.6218 30.3926L20.2674 31.7479L20.8479 31.8997ZM21.1992 30.5554C21.346 30.0703 21.4975 29.5836 21.6471 29.112L21.0752 28.9306C20.925 29.4042 20.7726 29.8935 20.6249 30.3816L21.1992 30.5554ZM21.0614 29.0081C21.0243 29.854 20.983 30.7982 20.9387 31.8107L21.5381 31.8369C21.5824 30.8244 21.6238 29.8802 21.6609 29.0344L21.0614 29.0081ZM21.2384 31.5238H20.5576V32.1238H21.2384V31.5238ZM16.9525 33.5228H18.7685V32.9228H16.9525V33.5228ZM16.9351 34.8166C17.0155 34.4178 17.1213 33.8956 17.2464 33.2828L16.6585 33.1628C16.5333 33.7761 16.4275 34.2987 16.347 34.698L16.9351 34.8166ZM18.3714 34.4106L16.633 34.4574L16.6491 35.0572L18.3876 35.0104L18.3714 34.4106ZM18.4783 33.1469L18.0893 34.6346L18.6698 34.7864L19.0588 33.2987L18.4783 33.1469ZM15.8546 35.1859L15.1805 35.0472L15.0596 35.6349L15.7337 35.7736L15.8546 35.1859ZM14.8888 35.5322L15.5811 36.3701L16.0436 35.988L15.3513 35.15L14.8888 35.5322ZM15.8204 36.4789L18.9382 36.395L18.9221 35.7952L15.8043 35.8791L15.8204 36.4789ZM19.1181 36.3289L19.7645 35.8095L19.3887 35.3418L18.7423 35.8612L19.1181 36.3289ZM19.8669 35.6515L20.4821 33.2987L19.9016 33.1469L19.2864 35.4997L19.8669 35.6515ZM20.1918 33.5228H21.1773V32.9228H20.1918V33.5228ZM20.8776 33.2097C20.7892 35.232 20.6924 37.4515 20.596 39.6653L21.1954 39.6914C21.2919 37.4777 21.3887 35.2581 21.477 33.2359L20.8776 33.2097ZM20.596 39.6653C20.4366 43.3213 20.2779 46.9691 20.1589 49.7029L20.7584 49.729C20.8773 46.9952 21.0361 43.3474 21.1954 39.6914L20.596 39.6653ZM20.2607 54.2693C19.961 54.256 19.9988 54.4157 20.1151 54.5316C20.1291 54.5389 20.1592 54.5516 20.1754 54.5569C20.1932 54.5622 20.2076 54.5646 20.2105 54.5651C20.22 54.5667 20.2275 54.5675 20.2289 54.5676C20.2337 54.5681 20.2375 54.5684 20.2382 54.5685C20.2406 54.5686 20.2425 54.5687 20.243 54.5688C20.2444 54.5689 20.2456 54.5689 20.2465 54.569C20.2484 54.5691 20.2516 54.5692 20.257 54.5695C20.2681 54.57 20.2898 54.571 20.3328 54.573C20.4188 54.577 20.5907 54.5848 20.9343 54.6002L20.9612 54.0008C20.6177 53.9854 20.446 53.9776 20.3603 53.9736C20.3174 53.9717 20.2962 53.9707 20.2857 53.9702C20.2805 53.9699 20.2782 53.9698 20.2775 53.9698C20.277 53.9697 20.2776 53.9698 20.2787 53.9698C20.2789 53.9699 20.2808 53.97 20.2832 53.9701C20.2839 53.9702 20.2876 53.9705 20.2925 53.971C20.2939 53.9711 20.3013 53.9719 20.3108 53.9735C20.3137 53.974 20.3281 53.9764 20.3459 53.9817C20.3621 53.987 20.3922 53.9997 20.4062 54.007C20.5225 54.1228 20.5604 54.2826 20.2607 54.2693ZM20.9613 54.0008L20.2743 53.9696L20.247 54.569L20.9341 54.6002L20.9613 54.0008ZM20.0421 54.4748L20.7292 55.2055L21.1663 54.7945L20.4792 54.0638L20.0421 54.4748ZM20.9477 55.3H25.0651V54.7H20.9477V55.3ZM25.2678 55.2212L25.9518 54.5944L25.5465 54.152L24.8624 54.7788L25.2678 55.2212ZM26.0476 54.4039L27.5189 40.0851L26.9221 40.0238L25.4507 54.3426L26.0476 54.4039ZM26.9221 40.0852C27.0751 41.5698 27.276 43.52 27.4802 45.5032L28.077 45.4417C27.8729 43.4585 27.6719 41.5083 27.5189 40.0237L26.9221 40.0852ZM27.4802 45.5032C27.9023 49.6037 28.3374 53.838 28.3921 54.3987L28.9892 54.3404C28.9344 53.7776 28.499 49.5406 28.077 45.4417L27.4802 45.5032ZM28.4874 54.5902L29.1718 55.2206L29.5783 54.7794L28.8939 54.1489L28.4874 54.5902ZM29.3751 55.3H33.4924V54.7H29.3751V55.3ZM33.7107 55.2058L34.3979 54.4771L33.9613 54.0655L33.2742 54.7942L33.7107 55.2058ZM34.4793 54.259L33.6143 33.2105L33.0149 33.2351L33.8798 54.2836L34.4793 54.259ZM33.3146 33.5228H34.1895V32.9228H33.3146V33.5228ZM33.898 33.294L34.4318 35.4773L35.0146 35.3348L34.4809 33.1516L33.898 33.294ZM34.5379 35.642L35.2138 36.1727L35.5843 35.7008L34.9085 35.1701L34.5379 35.642ZM35.4028 36.2367L38.3923 36.1994L38.3848 35.5994L35.3953 35.6368L35.4028 36.2367ZM38.6037 36.1084L39.2831 35.409L38.8527 34.991L38.1733 35.6904L38.6037 36.1084ZM39.3679 35.2V35.1813H38.7679V35.2H39.3679ZM39.367 35.1589L39.3591 35.053L38.7608 35.0978L38.7687 35.2038L39.367 35.1589ZM39.3566 35.0307L39.0774 33.1781L38.4841 33.2675L38.7633 35.1201L39.3566 35.0307ZM38.7807 33.5228H42.3416V32.9228H38.7807V33.5228ZM42.3416 38.7269H43.7171V38.1269H42.3416V38.7269ZM43.7171 33.5228H45.0651V32.9228H43.7171V33.5228ZM45.0651 37.701H46.4406V37.101H45.0651V37.701ZM46.4406 33.5228H47V32.9228H46.4406V33.5228ZM47.3 33.2228V31.8238H46.7V33.2228H47.3ZM47 31.5238H46.4406V32.1238H47V31.5238ZM46.4406 27.3456H45.0651V27.9456H46.4406V27.3456ZM45.0651 31.5238H43.7171V32.1238H45.0651V31.5238ZM43.7171 26.0585H42.3416V26.6585H43.7171V26.0585ZM42.3416 31.5238H38.5699V32.1238H42.3416V31.5238ZM38.8666 31.7791L38.7972 31.3188L38.2039 31.4082L38.2733 31.8685L38.8666 31.7791ZM38.797 31.3172L38.7965 31.314L38.2036 31.4066L38.2041 31.4097L38.797 31.3172ZM38.7965 31.3143C38.1292 27.0172 37.4934 23.7723 36.9242 21.4745L36.3418 21.6187C36.9051 23.893 37.5378 27.1189 38.2036 31.4063L38.7965 31.3143ZM36.9242 21.4745C36.6399 20.3266 36.3685 19.4002 36.113 18.6903L35.5485 18.8934C35.7945 19.5771 36.0602 20.482 36.3418 21.6187L36.9242 21.4745ZM36.113 18.6903C35.8697 18.014 35.6052 17.4287 35.2964 17.0541L34.8334 17.4357C35.0711 17.7242 35.3075 18.2235 35.5485 18.8934L36.113 18.6903ZM35.2957 17.0532L35.294 17.0512L34.8324 17.4345L34.8341 17.4366L35.2957 17.0532ZM35.2939 17.0512C34.1418 15.6642 32.4093 14.9817 30.9353 14.6331L30.7972 15.217C32.2221 15.554 33.803 16.1954 34.8324 17.4346L35.2939 17.0512ZM30.9353 14.6331C29.4376 14.2789 28.0473 14.2326 27.4127 14.2326V14.8326C28.0236 14.8326 29.3625 14.8777 30.7972 15.217L30.9353 14.6331ZM27.0367 14.2326C26.402 14.2326 25.0117 14.2789 23.5141 14.6331L23.6522 15.217C25.0868 14.8777 26.4258 14.8326 27.0367 14.8326V14.2326ZM23.5141 14.6331C22.0402 14.9817 20.3079 15.6641 19.1557 17.0508L19.6172 17.4343C20.6466 16.1953 22.2274 15.5539 23.6522 15.217L23.5141 14.6331ZM35.6069 33.5228H37.3892V32.9228H35.6069V33.5228ZM36.2181 34.4598L35.8983 33.1516L35.3154 33.294L35.6353 34.6023L36.2181 34.4598ZM37.5795 34.2104L35.9229 34.2311L35.9304 34.8311L37.5869 34.8104L37.5795 34.2104ZM37.0925 33.2675L37.2866 34.5551L37.8799 34.4657L37.6858 33.1781L37.0925 33.2675ZM33.1798 30.3563L33.556 31.8951L34.1389 31.7526L33.7627 30.2138L33.1798 30.3563ZM32.8632 29.3236C32.9704 29.6674 33.0781 30.0186 33.1839 30.3713L33.7586 30.1988C33.6521 29.8438 33.5437 29.4906 33.436 29.145L32.8632 29.3236ZM33.489 30.1609C33.4765 29.842 33.4631 29.5276 33.4493 29.2208L32.8499 29.2478C32.8637 29.5536 32.877 29.8668 32.8895 30.1845L33.489 30.1609ZM33.5569 31.8115L33.489 30.1603L32.8895 30.185L32.9574 31.8362L33.5569 31.8115ZM33.8475 31.5238H33.2571V32.1238H33.8475V31.5238ZM32.0727 25.01C32.072 25.0079 32.0712 25.0057 32.0705 25.0034L31.5003 25.1903C31.5026 25.1973 31.5051 25.2044 31.5076 25.2115L32.0727 25.01ZM31.7854 25.0968C31.5013 25.193 31.5013 25.193 31.5013 25.193C31.5013 25.193 31.5013 25.193 31.5013 25.1931C31.5013 25.1931 31.5013 25.1931 31.5013 25.1931C31.5013 25.1931 31.5013 25.1931 31.5013 25.1931C31.5013 25.1931 31.5013 25.1931 31.5013 25.1931C31.5013 25.1931 31.5013 25.1931 31.5013 25.1932C31.5013 25.1933 31.5014 25.1933 31.5014 25.1935C31.5015 25.1937 31.5016 25.194 31.5017 25.1944C31.502 25.1952 31.5024 25.1964 31.5029 25.1978C31.5038 25.2005 31.5051 25.2044 31.5066 25.2086L32.0738 25.0129C32.0726 25.0096 32.0715 25.0065 32.0708 25.0042C32.0704 25.003 32.0701 25.0021 32.0699 25.0015C32.0697 25.0012 32.0697 25.0009 32.0696 25.0008C32.0696 25.0007 32.0696 25.0007 32.0696 25.0007C32.0696 25.0006 32.0696 25.0006 32.0696 25.0006C32.0696 25.0006 32.0696 25.0006 32.0696 25.0006C32.0696 25.0006 32.0696 25.0006 32.0696 25.0006C32.0696 25.0006 32.0696 25.0006 32.0696 25.0006V25.0006C32.0696 25.0006 32.0696 25.0006 31.7854 25.0968ZM22.5542 33.5228H31.9379V32.9228H22.5542V33.5228ZM22.5696 39.7534C22.6671 37.5146 22.7649 35.2727 22.8539 33.2359L22.2545 33.2097C22.1655 35.2466 22.0677 37.4884 21.9701 39.7272L22.5696 39.7534ZM22.1325 49.7908C22.2515 47.0571 22.4102 43.4093 22.5696 39.7534L21.9701 39.7272C21.8108 43.3832 21.652 47.031 21.5331 49.7648L22.1325 49.7908ZM24.4455 53.301H21.6666V53.901H24.4455V53.301ZM25.825 37.2417L24.1471 53.5704L24.7439 53.6317L26.4218 37.303L25.825 37.2417ZM26.6048 36.4244L25.9207 37.0512L26.3261 37.4936L27.0101 36.8668L26.6048 36.4244ZM27.6327 36.3456H26.8074V36.9456H27.6327V36.3456ZM28.5194 37.0509L27.8354 36.4244L27.4301 36.8668L28.1141 37.4933L28.5194 37.0509ZM27.6646 37.6434L28.3486 37.5704L28.2849 36.9738L27.6009 37.0468L27.6646 37.6434ZM28.3167 37.2721L28.2849 36.9738C28.2849 36.9738 28.2849 36.9738 28.2849 36.9738C28.2849 36.9738 28.2849 36.9738 28.2849 36.9738C28.2849 36.9738 28.2849 36.9738 28.2848 36.9738C28.2835 36.974 28.2853 36.9738 28.2836 36.9739C28.2827 36.974 28.2821 36.9741 28.2804 36.9743C28.2785 36.9745 28.2773 36.9746 28.2742 36.9749C28.2606 36.9764 28.2792 36.9744 28.264 36.976C28.2603 36.9764 28.267 36.9757 28.2633 36.9761C28.2631 36.9761 28.263 36.9761 28.2628 36.9762C28.2627 36.9762 28.2626 36.9762 28.2624 36.9762C28.2613 36.9763 28.262 36.9762 28.2608 36.9764C28.2566 36.9768 28.2641 36.976 28.2599 36.9765C28.2597 36.9765 28.2596 36.9765 28.2594 36.9765C28.2593 36.9765 28.2591 36.9766 28.259 36.9766C28.2577 36.9767 28.2585 36.9766 28.2571 36.9768C28.2527 36.9772 28.2578 36.9767 28.2532 36.9772C28.2512 36.9774 28.2509 36.9774 28.2488 36.9776C28.2433 36.9782 28.2354 36.9791 28.2276 36.9799C28.2175 36.981 28.2315 36.9795 28.2213 36.9806C28.2134 36.9814 28.2225 36.9805 28.2145 36.9813C28.213 36.9815 28.2123 36.9815 28.2109 36.9817C28.2106 36.9817 28.2094 36.9819 28.2091 36.9819C28.2042 36.9824 28.2121 36.9816 28.2072 36.9821C28.2029 36.9825 28.2038 36.9824 28.1994 36.9829C28.1983 36.983 28.1965 36.9832 28.1953 36.9834C28.1938 36.9835 28.1948 36.9834 28.1933 36.9836C28.1929 36.9836 28.1926 36.9837 28.1922 36.9837C28.1919 36.9837 28.1915 36.9838 28.1912 36.9838C28.1887 36.9841 28.1893 36.984 28.1868 36.9843C28.1855 36.9844 28.1838 36.9846 28.1824 36.9847C28.1799 36.985 28.1663 36.9865 28.1632 36.9868C28.1325 36.9901 28.1518 36.988 28.1179 36.9916C28.1153 36.9919 28.0688 36.9969 28.0627 36.9975C28.0466 36.9992 28.0635 36.9974 28.0471 36.9992C28.0383 37.0001 28.04 36.9999 28.0309 37.0009C28.0138 37.0027 28.0397 37 28.0226 37.0018C28.0226 37.0018 28.0183 37.0022 28.0183 37.0022C28.0176 37.0023 28.0169 37.0024 28.0162 37.0025C28.0155 37.0025 28.0147 37.0026 28.014 37.0027C28.006 37.0036 28.0047 37.0037 27.9964 37.0046C27.9808 37.0062 27.9937 37.0049 27.9779 37.0065C27.9575 37.0087 27.9795 37.0064 27.9588 37.0086C27.9579 37.0087 27.9571 37.0088 27.9563 37.0089C27.9555 37.0089 27.9547 37.009 27.9538 37.0091C27.953 37.0092 27.9522 37.0093 27.9514 37.0094C27.9505 37.0095 27.9497 37.0096 27.9489 37.0097C27.9475 37.0098 27.9453 37.01 27.9439 37.0102C27.9411 37.0105 27.9416 37.0104 27.9388 37.0107C27.9231 37.0124 27.9494 37.0096 27.9337 37.0113C27.9296 37.0117 27.9326 37.0114 27.9285 37.0118C27.9119 37.0136 27.9347 37.0112 27.918 37.0129C27.9149 37.0133 27.8998 37.0149 27.8965 37.0152C27.8937 37.0155 27.8882 37.0161 27.8854 37.0164C27.8844 37.0165 27.8835 37.0166 27.8826 37.0167C27.8816 37.0168 27.8807 37.0169 27.8797 37.017C27.873 37.0177 27.8808 37.0169 27.8741 37.0176C27.8675 37.0183 27.8691 37.0182 27.8625 37.0189C27.849 37.0203 27.8644 37.0187 27.8508 37.0201C27.8421 37.021 27.8477 37.0204 27.8389 37.0214C27.8378 37.0215 27.8368 37.0216 27.8358 37.0217C27.8348 37.0218 27.8338 37.0219 27.8328 37.022C27.8318 37.0221 27.8308 37.0223 27.8298 37.0224C27.8287 37.0225 27.8277 37.0226 27.8267 37.0227C27.8239 37.023 27.8172 37.0237 27.8143 37.024C27.8076 37.0247 27.8085 37.0246 27.8017 37.0254C27.7879 37.0268 27.8027 37.0252 27.7889 37.0267C27.781 37.0276 27.7837 37.0273 27.7758 37.0281C27.7726 37.0285 27.7659 37.0292 27.7625 37.0295C27.7585 37.03 27.7599 37.0298 27.7558 37.0302C27.7455 37.0313 27.7593 37.0299 27.749 37.031C27.7346 37.0325 27.7498 37.0309 27.7353 37.0324C27.7341 37.0326 27.733 37.0327 27.7318 37.0328C27.7307 37.0329 27.7295 37.0331 27.7283 37.0332C27.7265 37.0334 27.7232 37.0337 27.7213 37.0339C27.6799 37.0383 27.7057 37.0356 27.6631 37.0401C27.6603 37.0404 27.6583 37.0406 27.6555 37.0409C27.6542 37.0411 27.653 37.0412 27.6517 37.0414C27.6504 37.0415 27.6492 37.0416 27.6479 37.0418C27.6341 37.0432 27.6464 37.0419 27.6325 37.0434C27.6267 37.044 27.6304 37.0436 27.6247 37.0442C27.6234 37.0444 27.6221 37.0445 27.6208 37.0447C27.6194 37.0448 27.6181 37.0449 27.6168 37.0451C27.6087 37.0459 27.6171 37.045 27.6089 37.0459C27.6035 37.0465 27.6063 37.0462 27.6009 37.0468L27.6646 37.6434C27.6714 37.6427 27.6737 37.6424 27.6805 37.6417C27.7003 37.6396 27.6764 37.6421 27.6961 37.64C27.7041 37.6392 27.6959 37.64 27.7039 37.6392C27.7047 37.6391 27.7108 37.6385 27.7115 37.6384C27.7119 37.6383 27.7264 37.6368 27.7267 37.6368C27.728 37.6366 27.7292 37.6365 27.7305 37.6364C27.7317 37.6362 27.733 37.6361 27.7342 37.636C27.7409 37.6352 27.735 37.6359 27.7416 37.6352C27.7422 37.6351 27.7558 37.6336 27.7563 37.6336C27.7675 37.6324 27.7741 37.6317 27.785 37.6305C27.7861 37.6304 27.7873 37.6303 27.7885 37.6302C27.7896 37.63 27.7908 37.6299 27.792 37.6298C27.7931 37.6297 27.7943 37.6295 27.7955 37.6294C27.7966 37.6293 27.7978 37.6292 27.7989 37.6291C27.7993 37.629 27.8124 37.6276 27.8127 37.6276C27.8266 37.6261 27.8258 37.6262 27.8395 37.6247C27.8724 37.6212 27.8586 37.6227 27.8903 37.6193C27.9215 37.616 27.9551 37.6124 27.9817 37.6096C28.0015 37.6074 28.0037 37.6072 28.0224 37.6052C28.0472 37.6026 28.017 37.6058 28.0416 37.6032C28.0538 37.6019 28.048 37.6025 28.06 37.6012C28.0633 37.6009 28.0747 37.5996 28.0777 37.5993C28.0827 37.5988 28.0812 37.5989 28.0862 37.5984C28.0892 37.5981 28.0875 37.5983 28.0904 37.598C28.0922 37.5978 28.0929 37.5977 28.0946 37.5975C28.1081 37.5961 28.0975 37.5972 28.1108 37.5958C28.1126 37.5956 28.1169 37.5951 28.1186 37.5949C28.1224 37.5945 28.1188 37.5949 28.1225 37.5945C28.1231 37.5945 28.1238 37.5944 28.1244 37.5943C28.125 37.5943 28.1257 37.5942 28.1263 37.5941C28.154 37.5912 28.1284 37.5939 28.1553 37.591C28.1561 37.5909 28.1578 37.5908 28.1587 37.5907C28.1593 37.5906 28.1598 37.5906 28.1604 37.5905C28.1609 37.5904 28.1615 37.5904 28.1621 37.5903C28.1698 37.5895 28.1577 37.5908 28.1654 37.59C28.167 37.5898 28.1672 37.5898 28.1687 37.5896C28.1745 37.589 28.1696 37.5895 28.1752 37.5889C28.1795 37.5885 28.1774 37.5887 28.1816 37.5882C28.1905 37.5873 28.2211 37.584 28.2268 37.5834C28.2484 37.5811 28.2252 37.5836 28.246 37.5814C28.2536 37.5805 28.2407 37.5819 28.2483 37.5811C28.2486 37.5811 28.249 37.581 28.2494 37.581C28.2497 37.581 28.2501 37.5809 28.2505 37.5809C28.2508 37.5808 28.2512 37.5808 28.2516 37.5808C28.2519 37.5807 28.2523 37.5807 28.2526 37.5806C28.253 37.5806 28.2534 37.5806 28.2537 37.5805C28.2541 37.5805 28.2544 37.5805 28.2548 37.5804C28.2565 37.5802 28.2573 37.5802 28.259 37.58C28.2611 37.5798 28.259 37.58 28.261 37.5798C28.2677 37.579 28.2564 37.5802 28.2631 37.5795C28.2742 37.5783 28.2826 37.5774 28.2913 37.5765C28.2941 37.5762 28.3005 37.5755 28.3027 37.5753C28.3144 37.5741 28.3013 37.5755 28.3125 37.5743C28.3217 37.5733 28.312 37.5743 28.3208 37.5734C28.3254 37.5729 28.3199 37.5735 28.3244 37.573C28.3279 37.5726 28.3243 37.573 28.3277 37.5726C28.3385 37.5715 28.3286 37.5725 28.3379 37.5716C28.3416 37.5712 28.3415 37.5712 28.3441 37.5709C28.3465 37.5706 28.3457 37.5707 28.3472 37.5706C28.3478 37.5705 28.3483 37.5704 28.3484 37.5704C28.3487 37.5704 28.3482 37.5705 28.3485 37.5704C28.3485 37.5704 28.3485 37.5704 28.3485 37.5704C28.3486 37.5704 28.3484 37.5704 28.3485 37.5704C28.3486 37.5704 28.3485 37.5704 28.3485 37.5704C28.3485 37.5704 28.3485 37.5704 28.3485 37.5704C28.3486 37.5704 28.3486 37.5704 28.3486 37.5704C28.3486 37.5704 28.3486 37.5704 28.3486 37.5704C28.3486 37.5704 28.3486 37.5704 28.3486 37.5704C28.3486 37.5704 28.3486 37.5704 28.3486 37.5704L28.3167 37.2721ZM29.4451 45.2961C29.2342 43.2471 29.0267 41.2334 28.8719 39.732L28.2751 39.7935C28.4298 41.2949 28.6373 43.3086 28.8482 45.3575L29.4451 45.2961ZM30.2945 53.5707C30.1479 52.1286 29.7916 48.6628 29.4451 45.2961L28.8482 45.3575C29.1948 48.7244 29.551 52.1897 29.6975 53.6314L30.2945 53.5707ZM32.7753 53.301H29.996V53.901H32.7753V53.301ZM31.6381 33.2351L32.4756 53.6134L33.0751 53.5887L32.2376 33.2105L31.6381 33.2351ZM15.12 35.3411L15.0596 35.6349C15.0596 35.6349 15.0596 35.6349 15.0596 35.6349C15.0596 35.6349 15.0596 35.6349 15.0596 35.6349C15.0596 35.6349 15.0596 35.6349 15.0596 35.6349C15.0596 35.6349 15.0596 35.6349 15.0596 35.6349C15.0596 35.6349 15.0596 35.6349 15.0596 35.6349C15.0596 35.6349 15.0596 35.6349 15.0596 35.6349C15.0597 35.635 15.0596 35.6349 15.0597 35.635C15.0601 35.635 15.0595 35.6349 15.0598 35.635C15.0598 35.635 15.0599 35.635 15.0599 35.635C15.0618 35.6354 15.0581 35.6346 15.06 35.635C15.06 35.635 15.0601 35.635 15.0601 35.635C15.0607 35.6352 15.0602 35.635 15.0609 35.6352C15.0632 35.6357 15.0609 35.6352 15.064 35.6358C15.0642 35.6359 15.0662 35.6363 15.0666 35.6364C15.0742 35.6379 15.0606 35.6351 15.0682 35.6367C15.0683 35.6367 15.0684 35.6367 15.0685 35.6368C15.0685 35.6368 15.0686 35.6368 15.0687 35.6368C15.0689 35.6368 15.0689 35.6369 15.0691 35.6369C15.0706 35.6372 15.0686 35.6368 15.0701 35.6371C15.0926 35.6417 15.0517 35.6333 15.0746 35.638C15.0751 35.6381 15.0753 35.6382 15.0758 35.6383C15.0766 35.6384 15.0757 35.6383 15.0765 35.6384C15.0769 35.6385 15.0768 35.6385 15.0772 35.6386C15.0819 35.6395 15.0753 35.6382 15.0801 35.6392C15.0808 35.6393 15.0826 35.6397 15.0834 35.6398C15.0887 35.6409 15.0815 35.6395 15.0869 35.6406C15.0913 35.6415 15.0902 35.6412 15.0951 35.6422C15.1001 35.6433 15.0992 35.6431 15.1048 35.6442C15.105 35.6443 15.1052 35.6443 15.1054 35.6444C15.1056 35.6444 15.1059 35.6445 15.1061 35.6445C15.1063 35.6446 15.1071 35.6447 15.1074 35.6448C15.1083 35.645 15.1093 35.6452 15.1102 35.6453C15.1301 35.6494 15.096 35.6424 15.116 35.6465C15.1332 35.6501 15.1049 35.6443 15.1223 35.6478C15.124 35.6482 15.1238 35.6481 15.1256 35.6485C15.1284 35.6491 15.1262 35.6486 15.129 35.6492C15.1491 35.6533 15.1231 35.648 15.1438 35.6523C15.1679 35.6572 15.1359 35.6506 15.1606 35.6557C15.1735 35.6584 15.166 35.6568 15.1795 35.6596C15.2036 35.6646 15.1655 35.6567 15.1898 35.6617C15.1936 35.6625 15.1887 35.6615 15.1925 35.6623C15.1929 35.6624 15.1934 35.6625 15.1938 35.6626C15.1943 35.6626 15.1947 35.6627 15.1952 35.6628C15.1956 35.6629 15.1961 35.663 15.1965 35.6631C15.197 35.6632 15.1974 35.6633 15.1979 35.6634C15.1984 35.6635 15.1988 35.6636 15.1993 35.6637C15.1997 35.6638 15.2002 35.6639 15.2007 35.664C15.2016 35.6642 15.2224 35.6684 15.2241 35.6688C15.2326 35.6705 15.2408 35.6722 15.2501 35.6741C15.2507 35.6742 15.2512 35.6744 15.2518 35.6745C15.2524 35.6746 15.2529 35.6747 15.2535 35.6748C15.2541 35.675 15.2547 35.6751 15.2552 35.6752C15.2558 35.6753 15.2564 35.6754 15.257 35.6755C15.2576 35.6757 15.2581 35.6758 15.2587 35.6759C15.2593 35.676 15.2599 35.6761 15.2605 35.6763C15.2611 35.6764 15.2617 35.6765 15.2622 35.6766C15.2628 35.6768 15.2634 35.6769 15.264 35.677C15.2717 35.6786 15.2707 35.6784 15.2786 35.68C15.2831 35.6809 15.3357 35.6917 15.344 35.6934C15.3448 35.6936 15.361 35.6969 15.3621 35.6972C15.3833 35.7015 15.3595 35.6966 15.381 35.7011C15.4094 35.7069 15.372 35.6992 15.4007 35.7051C15.4201 35.7091 15.4014 35.7053 15.4211 35.7093C15.4474 35.7147 15.4372 35.7126 15.4645 35.7182C15.4662 35.7186 15.474 35.7202 15.4758 35.7206C15.4764 35.7207 15.4867 35.7228 15.4874 35.723C15.495 35.7245 15.4856 35.7226 15.4933 35.7242C15.495 35.7245 15.4974 35.725 15.4992 35.7254C15.5041 35.7264 15.5002 35.7256 15.5051 35.7266C15.5061 35.7268 15.5071 35.727 15.5081 35.7272C15.5091 35.7274 15.5102 35.7276 15.5112 35.7279C15.5253 35.7308 15.546 35.735 15.5613 35.7382C15.5761 35.7412 15.5595 35.7378 15.5744 35.7409C15.5826 35.7426 15.5728 35.7405 15.581 35.7422C15.5878 35.7436 15.5809 35.7422 15.5877 35.7436C15.6044 35.747 15.5845 35.7429 15.6012 35.7464C15.6197 35.7502 15.5964 35.7454 15.615 35.7492C15.6215 35.7506 15.6647 35.7594 15.6724 35.761C15.6836 35.7633 15.6911 35.7649 15.7026 35.7672C15.7108 35.7689 15.7097 35.7687 15.718 35.7704C15.7222 35.7713 15.7294 35.7728 15.7337 35.7736L15.8546 35.1859C15.8343 35.1818 15.8435 35.1837 15.8235 35.1796C15.8187 35.1786 15.7979 35.1743 15.7934 35.1733C15.7672 35.168 15.7608 35.1667 15.7359 35.1615C15.7253 35.1594 15.6916 35.1524 15.6822 35.1505C15.674 35.1488 15.6391 35.1416 15.6321 35.1402C15.6171 35.1371 15.6231 35.1383 15.6083 35.1353C15.6052 35.1346 15.5883 35.1311 15.5854 35.1306C15.583 35.1301 15.5822 35.1299 15.5798 35.1294C15.5773 35.1289 15.5768 35.1288 15.5743 35.1283C15.5729 35.128 15.5701 35.1274 15.5688 35.1271C15.5684 35.1271 15.5637 35.1261 15.5633 35.126C15.5615 35.1256 15.5597 35.1253 15.5579 35.1249C15.557 35.1247 15.5562 35.1245 15.5553 35.1244C15.5544 35.1242 15.5535 35.124 15.5526 35.1238C15.5506 35.1234 15.544 35.122 15.5421 35.1216C15.5076 35.1145 15.5354 35.1203 15.5019 35.1134C15.4914 35.1112 15.5028 35.1136 15.4924 35.1114C15.4836 35.1096 15.4917 35.1113 15.483 35.1095C15.4722 35.1073 15.4754 35.1079 15.4649 35.1058C15.4564 35.104 15.4645 35.1057 15.4561 35.1039C15.4552 35.1038 15.4483 35.1023 15.4475 35.1022C15.4346 35.0995 15.4434 35.1013 15.4308 35.0987C15.4207 35.0967 15.4087 35.0942 15.3995 35.0923C15.3936 35.0911 15.3906 35.0905 15.3849 35.0893C15.3837 35.0891 15.3826 35.0888 15.3814 35.0886C15.376 35.0875 15.3833 35.089 15.3779 35.0879C15.3769 35.0877 15.3719 35.0866 15.371 35.0864C15.3485 35.0818 15.3667 35.0856 15.3451 35.0811C15.3299 35.078 15.3359 35.0792 15.3216 35.0763C15.3 35.0718 15.3213 35.0762 15.3005 35.0719C15.284 35.0685 15.307 35.0733 15.2907 35.0699C15.2893 35.0696 15.2829 35.0683 15.2816 35.068C15.2774 35.0672 15.2683 35.0653 15.2648 35.0646C15.2644 35.0645 15.2641 35.0644 15.2638 35.0644C15.2634 35.0643 15.2631 35.0642 15.2628 35.0642C15.2625 35.0641 15.2622 35.064 15.2618 35.064C15.2615 35.0639 15.2612 35.0638 15.2609 35.0638C15.2589 35.0634 15.259 35.0634 15.2571 35.063C15.2568 35.0629 15.2565 35.0629 15.2562 35.0628C15.2559 35.0628 15.2556 35.0627 15.2553 35.0626C15.2531 35.0622 15.2556 35.0627 15.2535 35.0623C15.2527 35.0621 15.2506 35.0617 15.2499 35.0615C15.232 35.0578 15.2543 35.0624 15.2369 35.0589C15.2269 35.0568 15.2455 35.0606 15.2354 35.0585C15.2352 35.0585 15.235 35.0584 15.2347 35.0584C15.2345 35.0583 15.2342 35.0583 15.234 35.0582C15.2309 35.0576 15.2341 35.0583 15.2311 35.0577C15.2207 35.0555 15.236 35.0587 15.2257 35.0565C15.2229 35.056 15.2234 35.0561 15.2207 35.0555C15.2202 35.0554 15.2164 35.0546 15.216 35.0546C15.1994 35.0511 15.2283 35.0571 15.2118 35.0537C15.2109 35.0535 15.2087 35.053 15.2079 35.0529C15.1871 35.0486 15.2214 35.0557 15.2011 35.0515C15.1972 35.0507 15.1989 35.051 15.1955 35.0503C15.1954 35.0503 15.1953 35.0503 15.1952 35.0503C15.1951 35.0502 15.195 35.0502 15.1949 35.0502C15.1948 35.0502 15.1943 35.0501 15.1943 35.0501C15.1939 35.05 15.1935 35.0499 15.1931 35.0498C15.1882 35.0488 15.1959 35.0504 15.191 35.0494C15.1873 35.0486 15.1875 35.0487 15.1849 35.0482C15.1841 35.048 15.1836 35.0479 15.1831 35.0478C15.1824 35.0476 15.1823 35.0476 15.1818 35.0475C15.1805 35.0472 15.1815 35.0474 15.1807 35.0473C15.1806 35.0473 15.1805 35.0472 15.1805 35.0472C15.1802 35.0472 15.1808 35.0473 15.1805 35.0472C15.1805 35.0472 15.1805 35.0472 15.1805 35.0472C15.1805 35.0472 15.1805 35.0472 15.1805 35.0472L15.12 35.3411ZM14.972 34.5535C14.9252 34.7855 14.8887 34.9676 14.8639 35.0918L15.4522 35.2095C15.477 35.0855 15.5135 34.9037 15.5602 34.6719L14.972 34.5535ZM15.2537 33.1629C15.1393 33.7245 15.0436 34.1977 14.972 34.5535L15.5602 34.6719C15.6317 34.3166 15.7273 33.8438 15.8416 33.2827L15.2537 33.1629ZM11.8877 33.5228H15.5477V32.9228H11.8877V33.5228ZM10.5122 38.7269H11.8877V38.1269H10.5122V38.7269ZM9.15497 33.5228H10.5122V32.9228H9.15497V33.5228ZM7.77946 37.701H9.15497V37.101H7.77946V37.701ZM7 33.5228H7.77946V32.9228H7V33.5228ZM6.7 31.8238V33.2228H7.3V31.8238H6.7ZM7.77946 31.5238H7V32.1238H7.77946V31.5238ZM9.15497 27.3456H7.77946V27.9456H9.15497V27.3456ZM10.5122 31.5238H9.15497V32.1238H10.5122V31.5238ZM11.8877 26.0585H10.5122V26.6585H11.8877V26.0585ZM15.8343 31.5238H11.8877V32.1238H15.8343V31.5238ZM16.6024 26.7167C16.2141 28.5169 15.8425 30.2968 15.5404 31.7633L16.1281 31.8843C16.4299 30.419 16.8012 28.641 17.1889 26.8432L16.6024 26.7167ZM17.9887 20.6169C17.5634 22.3417 17.0701 24.5478 16.6024 26.7167L17.1889 26.8432C17.6562 24.676 18.1481 22.4767 18.5712 20.7606L17.9887 20.6169ZM18.5709 18.4306C18.3991 19.0032 18.2009 19.7561 17.9887 20.6169L18.5712 20.7606C18.7827 19.9031 18.9781 19.1615 19.1456 18.603L18.5709 18.4306ZM18.8185 17.6843C18.7395 17.891 18.6564 18.1456 18.5709 18.4306L19.1456 18.603C19.2292 18.3243 19.3075 18.0855 19.379 17.8984L18.8185 17.6843ZM19.1557 17.0508C18.9882 17.2523 18.8802 17.5228 18.8185 17.6843L19.379 17.8984C19.4427 17.7317 19.521 17.5499 19.6171 17.4343L19.1557 17.0508ZM31.5151 30.2413L31.5806 31.8362L32.1801 31.8115L32.1146 30.2167L31.5151 30.2413ZM27.0367 16.2316H27.4127V15.6316H27.0367V16.2316ZM20.1589 49.7029L19.9609 54.2563L20.5604 54.2823L20.7584 49.729L20.1589 49.7029ZM42.0416 33.2228V38.4269H42.6416V33.2228H42.0416ZM44.0171 38.4269V33.2228H43.4171V38.4269H44.0171ZM44.7651 33.2228V37.401H45.3651V33.2228H44.7651ZM46.7406 37.401V33.2228H46.1406V37.401H46.7406ZM46.7406 31.8238V27.6456H46.1406V31.8238H46.7406ZM44.7651 27.6456V31.8238H45.3651V27.6456H44.7651ZM44.0171 31.8238V26.3585H43.4171V31.8238H44.0171ZM42.0416 26.3585V31.8238H42.6416V26.3585H42.0416ZM27.4127 14.2326H27.0367V14.8326H27.4127V14.2326ZM21.9663 53.6141L22.1325 49.7908L21.5331 49.7648L21.3668 53.588L21.9663 53.6141ZM28.8719 39.732L28.6152 37.2413L28.0183 37.3029L28.2751 39.7935L28.8719 39.732ZM14.8639 35.0919L14.8258 35.2823L15.4142 35.3998L15.4523 35.2094L14.8639 35.0919ZM12.1877 38.4269V33.2228H11.5877V38.4269H12.1877ZM10.2122 33.2228V38.4269H10.8122V33.2228H10.2122ZM9.45497 37.401V33.2228H8.85497V37.401H9.45497ZM7.47946 33.2228V37.401H8.07946V33.2228H7.47946ZM7.47946 27.6456V31.8238H8.07946V27.6456H7.47946ZM9.45497 31.8238V27.6456H8.85497V31.8238H9.45497ZM10.2122 26.3585V31.8238H10.8122V26.3585H10.2122ZM12.1877 31.8238V26.3585H11.5877V31.8238H12.1877Z" fill="#FFCC01" mask="url(#path-1-outside-1_459_49358)"/>
</svg>
