<svg width="45" height="47" viewBox="0 0 45 47" fill="none" xmlns="http://www.w3.org/2000/svg">
<mask id="path-1-outside-1_459_49360" maskUnits="userSpaceOnUse" x="4.83203" y="0" width="35" height="47" fill="black">
<rect fill="white" x="4.83203" width="35" height="47"/>
<path fill-rule="evenodd" clip-rule="evenodd" d="M17.9289 5.86528C17.9289 3.18066 20.073 1 22.7127 1C25.3523 1 27.4964 3.18066 27.4964 5.86528C27.4964 8.54991 25.3523 10.7306 22.7127 10.7306C20.073 10.7306 17.9289 8.54991 17.9289 5.86528ZM22.7127 2.1658C20.7061 2.1658 19.0752 3.82452 19.0752 5.86528C19.0752 7.90605 20.7061 9.56477 22.7127 9.56477C24.7192 9.56477 26.3501 7.90605 26.3501 5.86528C26.3501 3.82452 24.7192 2.1658 22.7127 2.1658ZM17.0436 15.2711C17.0426 15.2752 17.0214 15.3141 16.9828 15.415C16.9348 15.5405 16.877 15.7151 16.8103 15.9375C16.6773 16.3809 16.5187 16.9816 16.3438 17.6908C15.9945 19.1075 15.5869 20.9296 15.198 22.733C14.8965 24.1313 14.6068 25.5156 14.3651 26.6865H15.944L16.3205 25.2466L16.3266 25.2249C16.665 24.1062 17.0318 22.9814 17.3134 22.1348C17.4543 21.7112 17.5741 21.3567 17.6585 21.1072L17.6686 21.0773C17.7061 20.9664 17.7356 20.8791 17.7563 20.8174C17.7676 20.7835 17.7756 20.7595 17.7805 20.7442C17.7824 20.7382 17.7836 20.7345 17.7836 20.7345L17.7826 20.7381L17.7798 20.7481C17.7788 20.7519 17.7762 20.7619 17.7734 20.775C17.772 20.7816 17.7697 20.7934 17.7674 20.8084C17.7658 20.8189 17.7608 20.8527 17.7608 20.8964L17.7902 20.712C17.8941 20.3951 18.1836 20.2435 18.4256 20.2435L18.55 20.2574C18.8533 20.326 19.0981 20.5876 19.0981 20.9352L19.0967 20.9768C19.0968 20.9746 19.0957 20.9947 19.0931 21.0523L19.083 21.2728C19.0744 21.4622 19.0623 21.7338 19.0472 22.0759C19.0169 22.7601 18.9744 23.7256 18.9239 24.8783C18.8993 25.4402 18.8728 26.0466 18.8448 26.6865H26.5657L26.5111 25.3575C26.4654 24.1968 26.4064 23.1071 26.3588 22.3042C26.335 21.9029 26.3141 21.5735 26.2991 21.343C26.2921 21.2362 26.2865 21.1506 26.2824 21.0887L26.2814 21.0745C26.2788 21.0353 26.2737 20.9642 26.2737 20.9352C26.2737 20.6754 26.4426 20.3247 26.8291 20.2592L26.9233 20.2513H26.9309C27.0106 20.2513 27.1384 20.2637 27.2704 20.3383C27.4179 20.4216 27.5228 20.556 27.574 20.712C27.5729 20.7088 27.5818 20.7342 27.6068 20.8066C27.6295 20.872 27.6621 20.9665 27.7031 21.0862C27.7851 21.3254 27.9006 21.6648 28.0363 22.0723C28.3077 22.8867 28.6613 23.9751 28.9922 25.0787L29.0002 25.1081L29.3861 26.6865H30.9806L30.9499 26.4821L30.9496 26.4803C30.3971 22.9234 29.875 20.2652 29.4147 18.407C29.1843 17.4771 28.9716 16.7562 28.7812 16.2272C28.5842 15.6796 28.4311 15.3962 28.3417 15.2872C27.6687 14.4778 26.5776 14.0038 25.4609 13.7397C24.3577 13.4788 23.317 13.443 22.8426 13.443H22.5293C22.0548 13.443 21.0141 13.4788 19.9109 13.7397C18.8016 14.0021 17.7176 14.4715 17.0436 15.2711ZM17.1301 26.6865L17.4254 25.5571C17.5481 25.1516 17.6747 24.7449 17.7996 24.3511C17.7687 25.0559 17.7343 25.8427 17.6974 26.6865H17.1301ZM15.6391 27.8523H14.1258C14.0214 28.3632 13.9333 28.7985 13.8662 29.1311L15.315 29.0921L15.6391 27.8523ZM13.1605 29.7332L12.5987 29.6176L13.1756 30.3159L15.7738 30.2459L16.3125 29.813L16.8252 27.8523H17.6464C17.5728 29.5375 17.4922 31.3872 17.4118 33.232C17.279 36.2786 17.1467 39.3185 17.0476 41.5966L16.8826 45.3911C16.8826 45.3911 16.8826 45.3914 17.4551 45.4171L16.8826 45.3911L17.4551 46H20.8863L21.4563 45.4777L22.6825 33.5454C22.81 34.7825 22.9774 36.4077 23.1475 38.0604C23.4992 41.4768 23.8619 45.0065 23.9076 45.4746L24.4779 46H27.9091L28.4817 45.3928L27.7609 27.8523H28.4899L28.9347 29.6717L29.4979 30.1139L31.9891 30.0829L32.5552 29.5V29.4845L32.5486 29.3961L32.316 27.8523H35.2834V32.1891H36.4296V27.8523H37.553V31.3342H38.6992V27.8523H39.1654V26.6865H38.6992V23.2047H37.553V26.6865H36.4296V22.1321H35.2834V26.6865H32.1403L32.0825 26.3029L32.0821 26.3002C31.5266 22.7234 30.9981 20.0272 30.5262 18.1222C30.2904 17.1703 30.0666 16.4072 29.8577 15.8265C29.6559 15.2657 29.4472 14.8137 29.2194 14.5374L29.218 14.5357C28.309 13.4415 26.9284 12.8899 25.7206 12.6042C24.4987 12.3152 23.3616 12.2772 22.8426 12.2772H22.5293C22.0103 12.2772 20.8731 12.3152 19.6513 12.6042C18.4435 12.8898 17.063 13.4414 16.154 14.5355M31.1563 27.8523H29.6711L29.9376 28.9426L31.318 28.9253L31.1563 27.8523ZM28.2049 26.6865L27.8914 25.4042C27.8029 25.1093 27.7129 24.8158 27.6233 24.5286C27.6349 24.7838 27.646 25.0453 27.6564 25.3105L27.713 26.6865H28.2049ZM26.4905 21.0923C26.4891 21.0884 26.4878 21.0846 26.4865 21.0807C26.4865 21.0807 26.4883 21.086 26.4905 21.0923ZM26.6136 27.8523H18.7938C18.7197 29.5497 18.6382 31.4179 18.5569 33.2836C18.4241 36.3302 18.2918 39.37 18.1927 41.6482L18.0542 44.8342H20.3699L21.7682 31.227L22.3382 30.7047H23.026L23.596 31.2268L23.026 31.2876C23.596 31.2268 23.596 31.2268 23.596 31.2268L23.81 33.3023C23.9389 34.5535 24.1118 36.2315 24.2876 37.939C24.5764 40.7447 24.8732 43.6326 24.9954 44.8342H27.3115L26.6136 27.8523ZM13.1605 29.7332C12.5987 29.6176 12.5987 29.6176 12.5987 29.6176L12.6304 29.4589C12.6511 29.3555 12.6815 29.2038 12.7204 29.0106C12.7801 28.7143 12.8598 28.3202 12.9551 27.8523H9.90509V32.1891H8.75882V27.8523H7.62784V31.3342H6.48158V27.8523H5.83203V26.6865H6.48158V23.2047H7.62784V26.6865H8.75882V22.1321H9.90509V26.6865H13.1939C13.4455 25.4649 13.7551 23.9825 14.0784 22.4833C14.468 20.6766 14.8785 18.841 15.232 17.4073C15.4085 16.6913 15.5725 16.0686 15.7139 15.5974C15.7844 15.3625 15.8516 15.1569 15.9143 14.9928C15.9666 14.856 16.0442 14.6676 16.154 14.5355"/>
</mask>
<path fill-rule="evenodd" clip-rule="evenodd" d="M17.9289 5.86528C17.9289 3.18066 20.073 1 22.7127 1C25.3523 1 27.4964 3.18066 27.4964 5.86528C27.4964 8.54991 25.3523 10.7306 22.7127 10.7306C20.073 10.7306 17.9289 8.54991 17.9289 5.86528ZM22.7127 2.1658C20.7061 2.1658 19.0752 3.82452 19.0752 5.86528C19.0752 7.90605 20.7061 9.56477 22.7127 9.56477C24.7192 9.56477 26.3501 7.90605 26.3501 5.86528C26.3501 3.82452 24.7192 2.1658 22.7127 2.1658ZM17.0436 15.2711C17.0426 15.2752 17.0214 15.3141 16.9828 15.415C16.9348 15.5405 16.877 15.7151 16.8103 15.9375C16.6773 16.3809 16.5187 16.9816 16.3438 17.6908C15.9945 19.1075 15.5869 20.9296 15.198 22.733C14.8965 24.1313 14.6068 25.5156 14.3651 26.6865H15.944L16.3205 25.2466L16.3266 25.2249C16.665 24.1062 17.0318 22.9814 17.3134 22.1348C17.4543 21.7112 17.5741 21.3567 17.6585 21.1072L17.6686 21.0773C17.7061 20.9664 17.7356 20.8791 17.7563 20.8174C17.7676 20.7835 17.7756 20.7595 17.7805 20.7442C17.7824 20.7382 17.7836 20.7345 17.7836 20.7345L17.7826 20.7381L17.7798 20.7481C17.7788 20.7519 17.7762 20.7619 17.7734 20.775C17.772 20.7816 17.7697 20.7934 17.7674 20.8084C17.7658 20.8189 17.7608 20.8527 17.7608 20.8964L17.7902 20.712C17.8941 20.3951 18.1836 20.2435 18.4256 20.2435L18.55 20.2574C18.8533 20.326 19.0981 20.5876 19.0981 20.9352L19.0967 20.9768C19.0968 20.9746 19.0957 20.9947 19.0931 21.0523L19.083 21.2728C19.0744 21.4622 19.0623 21.7338 19.0472 22.0759C19.0169 22.7601 18.9744 23.7256 18.9239 24.8783C18.8993 25.4402 18.8728 26.0466 18.8448 26.6865H26.5657L26.5111 25.3575C26.4654 24.1968 26.4064 23.1071 26.3588 22.3042C26.335 21.9029 26.3141 21.5735 26.2991 21.343C26.2921 21.2362 26.2865 21.1506 26.2824 21.0887L26.2814 21.0745C26.2788 21.0353 26.2737 20.9642 26.2737 20.9352C26.2737 20.6754 26.4426 20.3247 26.8291 20.2592L26.9233 20.2513H26.9309C27.0106 20.2513 27.1384 20.2637 27.2704 20.3383C27.4179 20.4216 27.5228 20.556 27.574 20.712C27.5729 20.7088 27.5818 20.7342 27.6068 20.8066C27.6295 20.872 27.6621 20.9665 27.7031 21.0862C27.7851 21.3254 27.9006 21.6648 28.0363 22.0723C28.3077 22.8867 28.6613 23.9751 28.9922 25.0787L29.0002 25.1081L29.3861 26.6865H30.9806L30.9499 26.4821L30.9496 26.4803C30.3971 22.9234 29.875 20.2652 29.4147 18.407C29.1843 17.4771 28.9716 16.7562 28.7812 16.2272C28.5842 15.6796 28.4311 15.3962 28.3417 15.2872C27.6687 14.4778 26.5776 14.0038 25.4609 13.7397C24.3577 13.4788 23.317 13.443 22.8426 13.443H22.5293C22.0548 13.443 21.0141 13.4788 19.9109 13.7397C18.8016 14.0021 17.7176 14.4715 17.0436 15.2711ZM17.1301 26.6865L17.4254 25.5571C17.5481 25.1516 17.6747 24.7449 17.7996 24.3511C17.7687 25.0559 17.7343 25.8427 17.6974 26.6865H17.1301ZM15.6391 27.8523H14.1258C14.0214 28.3632 13.9333 28.7985 13.8662 29.1311L15.315 29.0921L15.6391 27.8523ZM13.1605 29.7332L12.5987 29.6176L13.1756 30.3159L15.7738 30.2459L16.3125 29.813L16.8252 27.8523H17.6464C17.5728 29.5375 17.4922 31.3872 17.4118 33.232C17.279 36.2786 17.1467 39.3185 17.0476 41.5966L16.8826 45.3911C16.8826 45.3911 16.8826 45.3914 17.4551 45.4171L16.8826 45.3911L17.4551 46H20.8863L21.4563 45.4777L22.6825 33.5454C22.81 34.7825 22.9774 36.4077 23.1475 38.0604C23.4992 41.4768 23.8619 45.0065 23.9076 45.4746L24.4779 46H27.9091L28.4817 45.3928L27.7609 27.8523H28.4899L28.9347 29.6717L29.4979 30.1139L31.9891 30.0829L32.5552 29.5V29.4845L32.5486 29.3961L32.316 27.8523H35.2834V32.1891H36.4296V27.8523H37.553V31.3342H38.6992V27.8523H39.1654V26.6865H38.6992V23.2047H37.553V26.6865H36.4296V22.1321H35.2834V26.6865H32.1403L32.0825 26.3029L32.0821 26.3002C31.5266 22.7234 30.9981 20.0272 30.5262 18.1222C30.2904 17.1703 30.0666 16.4072 29.8577 15.8265C29.6559 15.2657 29.4472 14.8137 29.2194 14.5374L29.218 14.5357C28.309 13.4415 26.9284 12.8899 25.7206 12.6042C24.4987 12.3152 23.3616 12.2772 22.8426 12.2772H22.5293C22.0103 12.2772 20.8731 12.3152 19.6513 12.6042C18.4435 12.8898 17.063 13.4414 16.154 14.5355M31.1563 27.8523H29.6711L29.9376 28.9426L31.318 28.9253L31.1563 27.8523ZM28.2049 26.6865L27.8914 25.4042C27.8029 25.1093 27.7129 24.8158 27.6233 24.5286C27.6349 24.7838 27.646 25.0453 27.6564 25.3105L27.713 26.6865H28.2049ZM26.4905 21.0923C26.4891 21.0884 26.4878 21.0846 26.4865 21.0807C26.4865 21.0807 26.4883 21.086 26.4905 21.0923ZM26.6136 27.8523H18.7938C18.7197 29.5497 18.6382 31.4179 18.5569 33.2836C18.4241 36.3302 18.2918 39.37 18.1927 41.6482L18.0542 44.8342H20.3699L21.7682 31.227L22.3382 30.7047H23.026L23.596 31.2268L23.026 31.2876C23.596 31.2268 23.596 31.2268 23.596 31.2268L23.81 33.3023C23.9389 34.5535 24.1118 36.2315 24.2876 37.939C24.5764 40.7447 24.8732 43.6326 24.9954 44.8342H27.3115L26.6136 27.8523ZM13.1605 29.7332C12.5987 29.6176 12.5987 29.6176 12.5987 29.6176L12.6304 29.4589C12.6511 29.3555 12.6815 29.2038 12.7204 29.0106C12.7801 28.7143 12.8598 28.3202 12.9551 27.8523H9.90509V32.1891H8.75882V27.8523H7.62784V31.3342H6.48158V27.8523H5.83203V26.6865H6.48158V23.2047H7.62784V26.6865H8.75882V22.1321H9.90509V26.6865H13.1939C13.4455 25.4649 13.7551 23.9825 14.0784 22.4833C14.468 20.6766 14.8785 18.841 15.232 17.4073C15.4085 16.6913 15.5725 16.0686 15.7139 15.5974C15.7844 15.3625 15.8516 15.1569 15.9143 14.9928C15.9666 14.856 16.0442 14.6676 16.154 14.5355" fill="#FFCC01"/>
<path d="M13.0133 29.7042L12.9843 29.8513L13.2787 29.9093L13.3076 29.7622L13.0133 29.7042ZM16.154 14.5355L16.2519 14.4217L16.0069 14.5065L16.154 14.5355ZM16.4938 15.0256L16.6075 15.1235L16.8032 14.896L16.6894 14.7982L16.4938 15.0256ZM16.6894 14.7982L16.2519 14.4217L16.0562 14.6492L16.4938 15.0256L16.6894 14.7982ZM16.0069 14.5065L13.0133 29.7042L13.3076 29.7622L16.3012 14.5644L16.0069 14.5065ZM16.9828 15.415L17.263 15.5221L16.9828 15.415ZM17.0436 15.2711L16.8142 15.0778L16.7533 15.1955L17.0436 15.2711ZM16.8103 15.9375L17.0976 16.0237L16.8103 15.9375ZM16.3438 17.6908L16.0526 17.619L16.3438 17.6908ZM15.198 22.733L14.9048 22.6698L15.198 22.733ZM14.3651 26.6865L14.0713 26.6259L14.3651 26.9865V26.6865ZM15.944 26.6865V26.9865L16.2342 26.7624L15.944 26.6865ZM16.3205 25.2466L16.0317 25.1651L16.0302 25.1707L16.3205 25.2466ZM16.3266 25.2249L16.0394 25.1381L16.0378 25.1435L16.3266 25.2249ZM17.3134 22.1348L17.5981 22.2295V22.2295L17.3134 22.1348ZM17.6585 21.1072L17.3743 21.0111L17.3743 21.0111L17.6585 21.1072ZM17.6686 21.0773L17.9528 21.1734L17.9528 21.1734L17.6686 21.0773ZM17.7563 20.8174L18.0407 20.9126L17.7563 20.8174ZM17.7805 20.7442L17.4951 20.6518L17.4951 20.6519L17.7805 20.7442ZM17.7836 20.7345L18.0715 20.8187L17.4973 20.6448L17.7836 20.7345ZM17.7826 20.7381L17.4946 20.6538L17.4933 20.6585L17.7826 20.7381ZM17.7798 20.7481L17.4905 20.6686L17.4897 20.6716L17.7798 20.7481ZM17.7734 20.775L18.067 20.837V20.837L17.7734 20.775ZM17.7674 20.8084L17.4707 20.7637L17.4707 20.7637L17.7674 20.8084ZM17.7608 20.8964H17.4608L18.0571 20.9436L17.7608 20.8964ZM17.7902 20.712L17.5051 20.6186L17.494 20.6648L17.7902 20.712ZM18.4256 20.2435L18.4589 19.9454L18.4256 19.9435V20.2435ZM18.55 20.2574L18.6161 19.9648L18.5833 19.9593L18.55 20.2574ZM19.0981 20.9352L19.3981 20.9458V20.9352H19.0981ZM19.0967 20.9768L18.7968 20.9662L19.3959 20.9978L19.0967 20.9768ZM19.0931 21.0523L18.7934 21.0383L18.7934 21.0386L19.0931 21.0523ZM19.083 21.2728L18.7833 21.2591L18.7833 21.2592L19.083 21.2728ZM19.0472 22.0759L19.3469 22.0892L19.0472 22.0759ZM18.9239 24.8783L18.6242 24.8652L18.9239 24.8783ZM18.8448 26.6865L18.5451 26.6734L18.8448 26.9865V26.6865ZM26.5657 26.6865V26.9865L26.8654 26.6742L26.5657 26.6865ZM26.5111 25.3575L26.2113 25.3693L26.2113 25.3698L26.5111 25.3575ZM26.3588 22.3042L26.6583 22.2864L26.3588 22.3042ZM26.2991 21.343L26.5985 21.3235L26.2991 21.343ZM26.2824 21.0887L26.5817 21.0689V21.0689L26.2824 21.0887ZM26.2814 21.0745L25.9821 21.0943L25.9821 21.0943L26.2814 21.0745ZM26.8291 20.2592L26.8039 19.9603L26.7789 19.9634L26.8291 20.2592ZM26.9233 20.2513V19.9513L26.8981 19.9524L26.9233 20.2513ZM27.2704 20.3383L27.418 20.0771L27.418 20.0771L27.2704 20.3383ZM27.574 20.712L27.2889 20.8055L27.8591 20.6187L27.574 20.712ZM27.6068 20.8066L27.3233 20.9047L27.3233 20.9047L27.6068 20.8066ZM27.7031 21.0862L27.4194 21.1834V21.1834L27.7031 21.0862ZM28.0363 22.0723L27.7517 22.1671L28.0363 22.0723ZM28.9922 25.0787L29.2818 24.9999L29.2795 24.9925L28.9922 25.0787ZM29.0002 25.1081L29.2917 25.0368L29.2897 25.0293L29.0002 25.1081ZM29.3861 26.6865L29.0947 26.7578L29.3861 26.9865V26.6865ZM30.9806 26.6865V26.9865L31.2773 26.6418L30.9806 26.6865ZM30.9499 26.4821L31.2465 26.4374L31.2463 26.4359L30.9499 26.4821ZM30.9496 26.4803L30.6531 26.5263L30.6532 26.5265L30.9496 26.4803ZM29.4147 18.407L29.1235 18.4791L29.4147 18.407ZM28.7812 16.2272L28.4989 16.3287L28.7812 16.2272ZM28.3417 15.2872L28.5735 15.0968L28.5723 15.0954L28.3417 15.2872ZM25.4609 13.7397L25.53 13.4478L25.4609 13.7397ZM19.9109 13.7397L19.8419 13.4478H19.8419L19.9109 13.7397ZM17.1301 26.6865L16.8398 26.6106L17.1301 26.9865V26.6865ZM17.4254 25.5571L17.1381 25.4701L17.1352 25.4812L17.4254 25.5571ZM17.7996 24.3511L18.0994 24.3642L17.5137 24.2604L17.7996 24.3511ZM17.6974 26.6865V26.9865L17.9971 26.6996L17.6974 26.6865ZM14.1258 27.8523V27.5523L13.8318 27.7923L14.1258 27.8523ZM15.6391 27.8523L15.9294 27.9282L15.6391 27.5523V27.8523ZM13.8662 29.1311L13.5721 29.0718L13.8743 29.4309L13.8662 29.1311ZM15.315 29.0921L15.323 29.3919L15.6052 29.1679L15.315 29.0921ZM12.5987 29.6176L12.3045 29.5588L12.3674 29.8086L12.5987 29.6176ZM13.1756 30.3159L12.9444 30.5069L13.1837 30.6157L13.1756 30.3159ZM15.7738 30.2459L15.7819 30.5458L15.9618 30.4798L15.7738 30.2459ZM16.3125 29.813L16.5005 30.0469L16.6028 29.8889L16.3125 29.813ZM16.8252 27.8523V27.5523L16.535 27.7764L16.8252 27.8523ZM17.6464 27.8523L17.9462 27.8654L17.6464 27.5523V27.8523ZM17.4118 33.232L17.112 33.2189L17.4118 33.232ZM17.0476 41.5966L16.7479 41.5836V41.5836L17.0476 41.5966ZM17.4551 45.4171L17.4417 45.7168L17.4688 45.1174L17.4551 45.4171ZM17.4551 46L17.2366 46.2055L17.4551 46.3V46ZM20.8863 46V46.3L21.089 46.2212L20.8863 46ZM21.4563 45.4777L21.659 45.6989L21.7547 45.5084L21.4563 45.4777ZM22.6825 33.5454L22.9809 33.5146L22.384 33.5147L22.6825 33.5454ZM23.1475 38.0604L23.446 38.0297L23.1475 38.0604ZM23.9076 45.4746L23.609 45.5037L23.7043 45.6953L23.9076 45.4746ZM24.4779 46L24.2747 46.2206L24.4779 46.3V46ZM27.9091 46V46.3L28.1273 46.2058L27.9091 46ZM28.4817 45.3928L28.7 45.5986L28.7814 45.3804L28.4817 45.3928ZM27.7609 27.8523V27.5523L27.4611 27.8646L27.7609 27.8523ZM28.4899 27.8523L28.7813 27.7811L28.4899 27.5523V27.8523ZM28.9347 29.6717L28.6433 29.743L28.7494 29.9077L28.9347 29.6717ZM29.4979 30.1139L29.3127 30.3499L29.5017 30.4139L29.4979 30.1139ZM31.9891 30.0829L31.9929 30.3828L32.2043 30.2919L31.9891 30.0829ZM32.5552 29.5L32.7704 29.709L32.8552 29.5H32.5552ZM32.5552 29.4845H32.8552L32.8544 29.462L32.5552 29.4845ZM32.5486 29.3961L32.8478 29.3737L32.8453 29.3514L32.5486 29.3961ZM32.316 27.8523V27.5523L32.0193 27.897L32.316 27.8523ZM35.2834 27.8523H35.5834L35.2834 27.5523V27.8523ZM35.2834 32.1891H34.9834L35.2834 32.4891V32.1891ZM36.4296 32.1891V32.4891L36.7296 32.1891H36.4296ZM36.4296 27.8523V27.5523L36.1296 27.8523H36.4296ZM37.553 27.8523H37.853L37.553 27.5523V27.8523ZM37.553 31.3342H37.253L37.553 31.6342V31.3342ZM38.6992 31.3342V31.6342L38.9992 31.3342H38.6992ZM38.6992 27.8523V27.5523L38.3992 27.8523H38.6992ZM39.1654 27.8523V28.1523L39.4654 27.8523H39.1654ZM39.1654 26.6865H39.4654L39.1654 26.3865V26.6865ZM38.6992 26.6865H38.3992L38.6992 26.9865V26.6865ZM38.6992 23.2047H38.9992L38.6992 22.9047V23.2047ZM37.553 23.2047V22.9047L37.253 23.2047H37.553ZM37.553 26.6865V26.9865L37.853 26.6865H37.553ZM36.4296 26.6865H36.1296L36.4296 26.9865V26.6865ZM36.4296 22.1321H36.7296L36.4296 21.8321V22.1321ZM35.2834 22.1321V21.8321L34.9834 22.1321H35.2834ZM35.2834 26.6865V26.9865L35.5834 26.6865H35.2834ZM32.1403 26.6865L31.8436 26.7312L32.1403 26.9865V26.6865ZM32.0825 26.3029L32.3791 26.2582L32.3789 26.2566L32.0825 26.3029ZM32.0821 26.3002L31.7856 26.3463L31.7857 26.3465L32.0821 26.3002ZM30.5262 18.1222L30.235 18.1943V18.1943L30.5262 18.1222ZM29.8577 15.8265L30.1399 15.7249L29.8577 15.8265ZM29.2194 14.5374L29.4509 14.3466L29.4502 14.3458L29.2194 14.5374ZM29.218 14.5357L29.4488 14.3441L29.4488 14.344L29.218 14.5357ZM25.7206 12.6042L25.7896 12.3123L25.7206 12.6042ZM19.6513 12.6042L19.5822 12.3123H19.5822L19.6513 12.6042ZM16.154 14.5355L16.3848 14.7272L16.3848 14.7272L16.154 14.5355ZM29.6711 27.8523V27.5523L29.3797 27.9236L29.6711 27.8523ZM31.1563 27.8523L31.453 27.8076L31.1563 27.5523V27.8523ZM29.9376 28.9426L29.6462 29.0138L29.9413 29.2425L29.9376 28.9426ZM31.318 28.9253L31.3218 29.2253L31.6147 28.8806L31.318 28.9253ZM27.8914 25.4042L28.1828 25.333L28.1788 25.318L27.8914 25.4042ZM28.2049 26.6865V26.9865L28.4963 26.6153L28.2049 26.6865ZM27.6233 24.5286L27.9097 24.4393L27.3236 24.5421L27.6233 24.5286ZM27.6564 25.3105L27.3566 25.3223L27.3567 25.3229L27.6564 25.3105ZM27.713 26.6865L27.4132 26.6988L27.713 26.9865V26.6865ZM26.4905 21.0923L26.2079 21.1931L26.7741 20.9945L26.4905 21.0923ZM26.4865 21.0807L26.7707 20.9845L26.2015 21.1742L26.4865 21.0807ZM18.7938 27.8523V27.5523L18.4941 27.8392L18.7938 27.8523ZM26.6136 27.8523L26.9133 27.84L26.6136 27.5523V27.8523ZM18.5569 33.2836L18.2572 33.2705L18.5569 33.2836ZM18.1927 41.6482L17.893 41.6351V41.6351L18.1927 41.6482ZM18.0542 44.8342L17.7545 44.8212L18.0542 45.1342V44.8342ZM20.3699 44.8342V45.1342L20.6684 44.8649L20.3699 44.8342ZM21.7682 31.227L21.5655 31.0058L21.4698 31.1963L21.7682 31.227ZM22.3382 30.7047V30.4047L22.1355 30.4835L22.3382 30.7047ZM23.026 30.7047L23.2286 30.4834L23.026 30.4047V30.7047ZM23.596 31.2268L23.8944 31.196L23.7986 31.0055L23.596 31.2268ZM23.81 33.3023L24.1084 33.2715L24.1084 33.2715L23.81 33.3023ZM24.2876 37.939L23.9891 37.9697L24.2876 37.939ZM24.9954 44.8342L24.6969 44.8645L24.9954 45.1342V44.8342ZM27.3115 44.8342V45.1342L27.6112 44.8219L27.3115 44.8342ZM12.6304 29.4589L12.3362 29.4L12.3362 29.4001L12.6304 29.4589ZM12.7204 29.0106L13.0145 29.0698L12.7204 29.0106ZM12.9551 27.8523L13.2491 27.9122L12.9551 27.5523V27.8523ZM9.90509 27.8523V27.5523L9.60509 27.8523H9.90509ZM9.90509 32.1891V32.4891L10.2051 32.1891H9.90509ZM8.75882 32.1891H8.45882L8.75882 32.4891V32.1891ZM8.75882 27.8523H9.05882L8.75882 27.5523V27.8523ZM7.62784 27.8523V27.5523L7.32784 27.8523H7.62784ZM7.62784 31.3342V31.6342L7.92784 31.3342H7.62784ZM6.48158 31.3342H6.18158L6.48158 31.6342V31.3342ZM6.48158 27.8523H6.78158L6.48158 27.5523V27.8523ZM5.83203 27.8523H5.53203L5.83203 28.1523V27.8523ZM5.83203 26.6865V26.3865L5.53203 26.6865H5.83203ZM6.48158 26.6865V26.9865L6.78158 26.6865H6.48158ZM6.48158 23.2047V22.9047L6.18158 23.2047H6.48158ZM7.62784 23.2047H7.92784L7.62784 22.9047V23.2047ZM7.62784 26.6865H7.32784L7.62784 26.9865V26.6865ZM8.75882 26.6865V26.9865L9.05882 26.6865H8.75882ZM8.75882 22.1321V21.8321L8.45882 22.1321H8.75882ZM9.90509 22.1321H10.2051L9.90509 21.8321V22.1321ZM9.90509 26.6865H9.60509L9.90509 26.9865V26.6865ZM13.1939 26.6865V26.9865L13.4877 26.747L13.1939 26.6865ZM14.0784 22.4833L14.3716 22.5465L14.0784 22.4833ZM15.232 17.4073L15.5233 17.4791L15.232 17.4073ZM15.7139 15.5974L16.0012 15.6836L16.0012 15.6836L15.7139 15.5974ZM15.9143 14.9928L15.6341 14.8857L15.9143 14.9928ZM22.7127 0.7C19.9026 0.7 17.6289 3.01978 17.6289 5.86528H18.2289C18.2289 3.34155 20.2435 1.3 22.7127 1.3V0.7ZM27.7964 5.86528C27.7964 3.01978 25.5227 0.7 22.7127 0.7V1.3C25.1818 1.3 27.1964 3.34155 27.1964 5.86528H27.7964ZM22.7127 11.0306C25.5227 11.0306 27.7964 8.71079 27.7964 5.86528H27.1964C27.1964 8.38902 25.1818 10.4306 22.7127 10.4306V11.0306ZM17.6289 5.86528C17.6289 8.71079 19.9026 11.0306 22.7127 11.0306V10.4306C20.2435 10.4306 18.2289 8.38902 18.2289 5.86528H17.6289ZM19.3752 5.86528C19.3752 3.9854 20.8766 2.4658 22.7127 2.4658V1.8658C20.5357 1.8658 18.7752 3.66363 18.7752 5.86528H19.3752ZM22.7127 9.26477C20.8766 9.26477 19.3752 7.74517 19.3752 5.86528H18.7752C18.7752 8.06694 20.5357 9.86477 22.7127 9.86477V9.26477ZM26.0501 5.86528C26.0501 7.74517 24.5488 9.26477 22.7127 9.26477V9.86477C24.8897 9.86477 26.6501 8.06694 26.6501 5.86528H26.0501ZM22.7127 2.4658C24.5488 2.4658 26.0501 3.9854 26.0501 5.86528H26.6501C26.6501 3.66363 24.8897 1.8658 22.7127 1.8658V2.4658ZM17.263 15.5221C17.2803 15.4769 17.2931 15.4472 17.3009 15.4296C17.3049 15.4208 17.3079 15.4145 17.3103 15.4094C17.3111 15.4077 17.3132 15.4032 17.3149 15.3995C17.3158 15.3976 17.3177 15.3933 17.3199 15.3882C17.3204 15.3871 17.328 15.3695 17.3339 15.3468L16.7533 15.1955C16.7568 15.182 16.7605 15.1718 16.7621 15.1676C16.764 15.1625 16.7656 15.1586 16.7665 15.1564C16.7682 15.1523 16.7695 15.1494 16.7696 15.1492C16.7698 15.1488 16.7698 15.1488 16.7679 15.1528C16.7648 15.1593 16.7599 15.1698 16.7536 15.1838C16.741 15.2119 16.7238 15.2522 16.7025 15.3079L17.263 15.5221ZM17.0976 16.0237C17.1634 15.8044 17.2188 15.6377 17.263 15.5221L16.7025 15.3079C16.6508 15.4433 16.5906 15.6257 16.5229 15.8513L17.0976 16.0237ZM16.6351 17.7627C16.8096 17.0551 16.9668 16.46 17.0976 16.0237L16.5229 15.8513C16.3878 16.3018 16.2279 16.9081 16.0526 17.619L16.6351 17.7627ZM15.4913 22.7963C15.88 20.9937 16.2869 19.175 16.6351 17.7627L16.0526 17.619C15.7022 19.04 15.2938 20.8656 14.9048 22.6698L15.4913 22.7963ZM14.6589 26.7472C14.9005 25.5769 15.19 24.1935 15.4913 22.7963L14.9048 22.6698C14.603 24.0692 14.3131 25.4544 14.0713 26.6259L14.6589 26.7472ZM15.944 26.3865H14.3651V26.9865H15.944V26.3865ZM16.0302 25.1707L15.6537 26.6106L16.2342 26.7624L16.6107 25.3225L16.0302 25.1707ZM16.0378 25.1435L16.0317 25.1652L16.6092 25.328L16.6153 25.3064L16.0378 25.1435ZM17.0288 22.0401C16.7467 22.8879 16.379 24.0156 16.0394 25.1381L16.6137 25.3118C16.9511 24.1968 17.3169 23.0749 17.5981 22.2295L17.0288 22.0401ZM17.3743 21.0111C17.2899 21.2607 17.1699 21.6158 17.0288 22.0401L17.5981 22.2295C17.7387 21.8066 17.8583 21.4527 17.9427 21.2033L17.3743 21.0111ZM17.3844 20.9812L17.3743 21.0111L17.9427 21.2033L17.9528 21.1734L17.3844 20.9812ZM17.4718 20.7221C17.4513 20.7833 17.4219 20.8701 17.3844 20.9812L17.9528 21.1734C17.9902 21.0627 18.0199 20.9748 18.0407 20.9126L17.4718 20.7221ZM17.4951 20.6519C17.4906 20.6656 17.4831 20.6884 17.4718 20.7221L18.0407 20.9126C18.0521 20.8786 18.0605 20.8533 18.0659 20.8365L17.4951 20.6519ZM17.7836 20.7345C17.4973 20.6448 17.4973 20.6448 17.4973 20.6448C17.4973 20.6448 17.4973 20.6448 17.4973 20.6448C17.4973 20.6448 17.4973 20.6448 17.4973 20.6448C17.4973 20.6448 17.4973 20.6448 17.4973 20.6448C17.4973 20.6448 17.4973 20.6448 17.4973 20.6448C17.4973 20.6447 17.4973 20.6447 17.4973 20.6447C17.4974 20.6447 17.4974 20.6447 17.4974 20.6447C17.4973 20.6447 17.4973 20.6448 17.4973 20.6449C17.4972 20.6452 17.4971 20.6456 17.4969 20.6462C17.4965 20.6475 17.4959 20.6494 17.4951 20.6518L18.0659 20.8365C18.0671 20.833 18.068 20.83 18.0687 20.8279C18.069 20.8269 18.0693 20.826 18.0695 20.8253C18.0696 20.825 18.0697 20.8248 18.0698 20.8245C18.0698 20.8244 18.0698 20.8244 18.0699 20.8243C18.0699 20.8242 18.0699 20.8242 18.0699 20.8242C18.0699 20.8242 18.0699 20.8241 18.0699 20.8241C18.0699 20.8241 18.0699 20.8241 18.0699 20.8241C18.0699 20.8241 18.0699 20.8241 18.0699 20.8241C18.0699 20.8241 18.0699 20.8241 18.0699 20.8241C18.0699 20.8241 18.0699 20.8241 17.7836 20.7345ZM18.0705 20.8223L18.0715 20.8187L17.4957 20.6502L17.4946 20.6539L18.0705 20.8223ZM18.069 20.8277L18.0718 20.8176L17.4933 20.6585L17.4905 20.6686L18.069 20.8277ZM18.067 20.837C18.0683 20.8306 18.0695 20.826 18.0699 20.8246L17.4897 20.6716C17.4881 20.6777 17.4841 20.6931 17.4799 20.7131L18.067 20.837ZM18.064 20.8531C18.0651 20.8458 18.0663 20.84 18.067 20.837L17.4799 20.7131C17.4778 20.7231 17.4742 20.7411 17.4707 20.7637L18.064 20.8531ZM18.0608 20.8964C18.0608 20.8746 18.0633 20.8578 18.064 20.8531L17.4707 20.7637C17.4683 20.78 17.4608 20.8307 17.4608 20.8964H18.0608ZM17.494 20.6648L17.4646 20.8491L18.0571 20.9436L18.0865 20.7593L17.494 20.6648ZM18.4256 19.9435C18.0724 19.9435 17.6549 20.1617 17.5051 20.6186L18.0753 20.8055C18.1333 20.6284 18.2949 20.5435 18.4256 20.5435V19.9435ZM18.5833 19.9593L18.4589 19.9454L18.3924 20.5417L18.5167 20.5556L18.5833 19.9593ZM19.3981 20.9352C19.3981 20.4339 19.0426 20.0612 18.6161 19.9648L18.4838 20.55C18.664 20.5907 18.7981 20.7413 18.7981 20.9352H19.3981ZM19.3965 20.9873L19.3979 20.9457L18.7983 20.9247L18.7968 20.9662L19.3965 20.9873ZM19.3927 21.0663C19.3941 21.0377 19.395 21.0185 19.3956 21.0067C19.3958 21.0011 19.3961 20.9965 19.3962 20.9941C19.3962 20.993 19.3963 20.9914 19.3964 20.99C19.3964 20.9897 19.3964 20.9888 19.3965 20.9878C19.3965 20.9873 19.3965 20.9863 19.3966 20.9851C19.3966 20.9846 19.3967 20.981 19.3967 20.9764C19.3967 20.9759 19.3967 20.9669 19.3959 20.9557C19.3957 20.9522 19.3949 20.9437 19.3943 20.9386C19.3931 20.9306 19.3888 20.9083 19.3851 20.8941C19.3741 20.8625 19.2943 20.7509 19.2049 20.6968C19.0457 20.681 18.8609 20.7911 18.8297 20.8399C18.8206 20.8593 18.8096 20.8895 18.8067 20.8998C18.8051 20.906 18.8028 20.9162 18.802 20.9203C18.8005 20.9281 18.7997 20.9343 18.7994 20.9366C18.7986 20.9419 18.7982 20.9461 18.7981 20.9473C18.7978 20.9504 18.7976 20.9529 18.7976 20.9535C18.7975 20.9545 18.7974 20.9553 18.7974 20.9557L19.3959 20.9978C19.3959 20.9982 19.3958 20.9989 19.3958 20.9999C19.3957 21.0004 19.3955 21.0029 19.3952 21.006C19.3951 21.0072 19.3947 21.0113 19.394 21.0166C19.3937 21.0189 19.3928 21.0251 19.3913 21.0329C19.3905 21.037 19.3882 21.0473 19.3867 21.0534C19.3838 21.0637 19.3728 21.0939 19.3637 21.1133C19.3324 21.1621 19.1476 21.2722 18.9884 21.2564C18.899 21.2023 18.8192 21.0907 18.8082 21.0591C18.8046 21.0449 18.8002 21.0226 18.7991 21.0146C18.7985 21.0095 18.7977 21.001 18.7974 20.9975C18.7966 20.9863 18.7967 20.9773 18.7967 20.9768C18.7967 20.9723 18.7968 20.9687 18.7968 20.9683C18.7968 20.9671 18.7969 20.9661 18.7969 20.9657C18.7969 20.9648 18.7969 20.9641 18.7969 20.964C18.797 20.9635 18.797 20.9636 18.7969 20.965C18.7968 20.9675 18.7966 20.9711 18.7963 20.9775C18.7957 20.9896 18.7947 21.0092 18.7934 21.0383L19.3927 21.0663ZM19.3827 21.2865L19.3927 21.066L18.7934 21.0386L18.7833 21.2591L19.3827 21.2865ZM19.3469 22.0892C19.362 21.7471 19.3741 21.4756 19.3827 21.2863L18.7833 21.2592C18.7747 21.4488 18.7626 21.7205 18.7475 22.0626L19.3469 22.0892ZM19.2236 24.8914C19.2742 23.7388 19.3166 22.7733 19.3469 22.0892L18.7475 22.0626C18.7172 22.7469 18.6747 23.7125 18.6242 24.8652L19.2236 24.8914ZM19.1445 26.6996C19.1725 26.0597 19.199 25.4533 19.2236 24.8914L18.6242 24.8652C18.5996 25.4271 18.5731 26.0335 18.5451 26.6734L19.1445 26.6996ZM26.5657 26.3865H18.8448V26.9865H26.5657V26.3865ZM26.0593 22.322C26.1069 23.1236 26.1658 24.2112 26.2113 25.3693L26.8108 25.3457C26.7651 24.1824 26.706 23.0906 26.6583 22.2864L26.0593 22.322ZM25.9997 21.3625C26.0147 21.5925 26.0356 21.9213 26.0593 22.322L26.6583 22.2864C26.6345 21.8844 26.6135 21.5544 26.5985 21.3235L25.9997 21.3625ZM25.983 21.1085C25.9871 21.1704 25.9928 21.2558 25.9997 21.3625L26.5985 21.3235C26.5915 21.2165 26.5858 21.1308 26.5817 21.0689L25.983 21.1085ZM25.9821 21.0943L25.983 21.1086L26.5817 21.0689L26.5808 21.0546L25.9821 21.0943ZM25.9737 20.9352C25.9737 20.9773 25.9801 21.0644 25.9821 21.0943L26.5808 21.0547C26.5794 21.0334 26.5776 21.0081 26.5761 20.9828C26.5753 20.9704 26.5747 20.9592 26.5742 20.95C26.574 20.9454 26.5739 20.9417 26.5738 20.9389C26.5737 20.9359 26.5737 20.9348 26.5737 20.9352H25.9737ZM26.7789 19.9634C26.2056 20.0606 25.9737 20.577 25.9737 20.9352H26.5737C26.5737 20.7738 26.6796 20.5888 26.8792 20.555L26.7789 19.9634ZM26.8981 19.9524L26.8039 19.9603L26.8542 20.5582L26.9484 20.5502L26.8981 19.9524ZM26.9309 19.9513H26.9233V20.5513H26.9309V19.9513ZM27.418 20.0771C27.2254 19.9683 27.0408 19.9513 26.9309 19.9513V20.5513C26.9804 20.5513 27.0515 20.5591 27.1228 20.5994L27.418 20.0771ZM27.8591 20.6186C27.7859 20.3953 27.6341 20.1992 27.418 20.0771L27.1228 20.5994C27.2017 20.644 27.2598 20.7166 27.2889 20.8055L27.8591 20.6186ZM27.8903 20.7084C27.8778 20.6722 27.8692 20.6476 27.864 20.6324C27.8613 20.6249 27.8594 20.6194 27.8582 20.6159C27.8577 20.6145 27.8569 20.6123 27.8563 20.6104C27.8561 20.6099 27.8556 20.6086 27.855 20.607C27.8547 20.6063 27.8541 20.6045 27.8532 20.6022C27.8527 20.6011 27.8518 20.5988 27.8507 20.596C27.8503 20.595 27.8468 20.5865 27.8415 20.5762C27.841 20.5752 27.8308 20.5541 27.8133 20.531C27.7995 20.5141 27.7449 20.4653 27.7002 20.4396C27.5752 20.4118 27.3572 20.5043 27.2956 20.5998C27.2823 20.6413 27.274 20.7033 27.2741 20.7225C27.2746 20.733 27.2763 20.7499 27.2772 20.7564C27.279 20.7681 27.2811 20.7771 27.2817 20.78C27.2834 20.7871 27.285 20.7926 27.2854 20.794C27.286 20.7963 27.2866 20.7981 27.2869 20.7991C27.2879 20.8025 27.2888 20.8052 27.2889 20.8054L27.8591 20.6187C27.8591 20.6187 27.8599 20.6213 27.8609 20.6245C27.8612 20.6255 27.8618 20.6273 27.8624 20.6295C27.8628 20.6309 27.8644 20.6364 27.866 20.6436C27.8667 20.6465 27.8688 20.6555 27.8706 20.6672C27.8715 20.6736 27.8731 20.6905 27.8737 20.701C27.8738 20.7202 27.8655 20.7823 27.8522 20.8237C27.7906 20.9192 27.5726 21.0118 27.4476 20.9839C27.4029 20.9582 27.3483 20.9095 27.3345 20.8926C27.317 20.8694 27.3068 20.8483 27.3063 20.8473C27.301 20.837 27.2975 20.8285 27.2971 20.8276C27.296 20.8248 27.2951 20.8225 27.2947 20.8215C27.2938 20.8192 27.2931 20.8174 27.2929 20.8168C27.2923 20.8153 27.2919 20.8142 27.2919 20.814C27.2915 20.8131 27.2915 20.813 27.2921 20.8146C27.293 20.8172 27.2947 20.822 27.2973 20.8295C27.3024 20.8443 27.3108 20.8686 27.3233 20.9047L27.8903 20.7084ZM27.9869 20.9889C27.9458 20.8689 27.9131 20.7741 27.8903 20.7084L27.3233 20.9047C27.3459 20.9699 27.3785 21.0642 27.4194 21.1834L27.9869 20.9889ZM28.321 21.9774C28.1849 21.569 28.0692 21.2287 27.9869 20.9889L27.4194 21.1834C27.5011 21.422 27.6163 21.7606 27.7517 22.1671L28.321 21.9774ZM29.2795 24.9925C28.9474 23.885 28.5929 22.7935 28.321 21.9774L27.7517 22.1671C28.0226 22.9799 28.3751 24.0652 28.7048 25.1648L29.2795 24.9925ZM29.2897 25.0293L29.2817 25L28.7027 25.1574L28.7107 25.1868L29.2897 25.0293ZM29.6775 26.6153L29.2916 25.0368L28.7088 25.1793L29.0947 26.7578L29.6775 26.6153ZM30.9806 26.3865H29.3861V26.9865H30.9806V26.3865ZM30.6532 26.5268L30.684 26.7312L31.2773 26.6418L31.2465 26.4374L30.6532 26.5268ZM30.6532 26.5265L30.6534 26.5283L31.2463 26.4359L31.246 26.4341L30.6532 26.5265ZM29.1235 18.4791C29.5809 20.3256 30.1014 22.9742 30.6531 26.5263L31.246 26.4343C30.6928 22.8725 30.1691 20.2049 29.7059 18.3348L29.1235 18.4791ZM28.4989 16.3287C28.6846 16.8446 28.8945 17.5548 29.1235 18.4791L29.7059 18.3348C29.4741 17.3994 29.2586 16.6678 29.0635 16.1256L28.4989 16.3287ZM28.1098 15.4775C28.1639 15.5435 28.3029 15.7838 28.4989 16.3287L29.0635 16.1256C28.8655 15.5754 28.6984 15.2489 28.5735 15.0968L28.1098 15.4775ZM25.3919 14.0317C26.484 14.2899 27.4994 14.7434 28.111 15.479L28.5723 15.0954C27.8381 14.2122 26.6713 13.7177 25.53 13.4478L25.3919 14.0317ZM22.8426 13.743C23.3052 13.743 24.3202 13.7782 25.3919 14.0317L25.53 13.4478C24.3953 13.1794 23.3289 13.143 22.8426 13.143V13.743ZM19.98 14.0317C21.0516 13.7782 22.0667 13.743 22.5293 13.743V13.143C22.043 13.143 20.9766 13.1794 19.8419 13.4478L19.98 14.0317ZM17.273 15.4645C17.8859 14.7373 18.8952 14.2882 19.98 14.0317L19.8419 13.4478C18.708 13.7159 17.5493 14.2057 16.8142 15.0778L17.273 15.4645ZM17.4203 26.7624L17.7156 25.6329L17.1352 25.4812L16.8398 26.6106L17.4203 26.7624ZM17.7125 25.644C17.8348 25.24 17.961 24.8346 18.0856 24.4418L17.5137 24.2604C17.3885 24.6553 17.2615 25.0632 17.1383 25.4701L17.7125 25.644ZM17.4999 24.3379C17.469 25.0428 17.4346 25.8296 17.3977 26.6734L17.9971 26.6996C18.034 25.8558 18.0684 25.0691 18.0994 24.3642L17.4999 24.3379ZM17.6974 26.3865H17.1301V26.9865H17.6974V26.3865ZM14.1258 28.1523H15.6391V27.5523H14.1258V28.1523ZM14.1603 29.1904C14.2273 28.858 14.3154 28.423 14.4197 27.9124L13.8318 27.7923C13.7274 28.3035 13.6392 28.739 13.5721 29.0718L14.1603 29.1904ZM15.3069 28.7922L13.8582 28.8312L13.8743 29.4309L15.323 29.3919L15.3069 28.7922ZM15.3489 27.7764L15.0247 29.0162L15.6052 29.1679L15.9294 27.9282L15.3489 27.7764ZM13.2209 29.4393L12.6592 29.3237L12.5383 29.9114L13.1 30.027L13.2209 29.4393ZM12.3674 29.8086L12.9444 30.5069L13.4069 30.1248L12.83 29.4265L12.3674 29.8086ZM13.1837 30.6157L15.7819 30.5458L15.7658 29.946L13.1676 30.016L13.1837 30.6157ZM15.9618 30.4798L16.5005 30.0469L16.1246 29.5792L15.5859 30.0121L15.9618 30.4798ZM16.6028 29.8889L17.1155 27.9282L16.535 27.7764L16.0223 29.7371L16.6028 29.8889ZM16.8252 28.1523H17.6464V27.5523H16.8252V28.1523ZM17.3467 27.8392C17.2731 29.5245 17.1924 31.3741 17.112 33.2189L17.7115 33.245C17.7919 31.4002 17.8725 29.5506 17.9462 27.8654L17.3467 27.8392ZM17.112 33.2189C16.9793 36.2656 16.847 39.3054 16.7479 41.5836L17.3473 41.6097C17.4464 39.3315 17.5787 36.2917 17.7115 33.245L17.112 33.2189ZM16.8826 45.3911C16.5829 45.3778 16.6208 45.5375 16.7371 45.6534C16.751 45.6607 16.7811 45.6734 16.7973 45.6787C16.8151 45.684 16.8295 45.6864 16.8324 45.6869C16.8419 45.6885 16.8494 45.6892 16.8508 45.6894C16.8556 45.6899 16.8594 45.6902 16.8601 45.6902C16.8625 45.6904 16.8645 45.6905 16.8649 45.6906C16.8662 45.6906 16.8674 45.6907 16.8682 45.6907C16.8699 45.6908 16.8726 45.691 16.8772 45.6912C16.8864 45.6916 16.9046 45.6925 16.9404 45.6941C17.0121 45.6974 17.1554 45.7039 17.4417 45.7168L17.4686 45.1174C17.1823 45.1045 17.0393 45.098 16.9679 45.0948C16.9322 45.0931 16.9145 45.0923 16.9059 45.0919C16.9015 45.0917 16.8997 45.0916 16.8992 45.0915C16.8988 45.0915 16.8995 45.0916 16.9006 45.0916C16.9008 45.0916 16.9027 45.0917 16.9051 45.0919C16.9058 45.092 16.9096 45.0923 16.9144 45.0928C16.9158 45.0929 16.9233 45.0937 16.9327 45.0953C16.9356 45.0958 16.95 45.0982 16.9678 45.1035C16.984 45.1088 17.0142 45.1215 17.0281 45.1287C17.1444 45.2446 17.1823 45.4044 16.8826 45.3911ZM17.4688 45.1174L16.8962 45.0914L16.869 45.6908L17.4415 45.7168L17.4688 45.1174ZM16.664 45.5966L17.2366 46.2055L17.6737 45.7945L17.1011 45.1856L16.664 45.5966ZM17.4551 46.3H20.8863V45.7H17.4551V46.3ZM21.089 46.2212L21.659 45.6989L21.2536 45.2565L20.6836 45.7788L21.089 46.2212ZM21.7547 45.5084L22.9809 33.576L22.384 33.5147L21.1579 45.447L21.7547 45.5084ZM22.384 33.5761C22.5116 34.8133 22.679 36.4384 22.8491 38.0911L23.446 38.0297C23.2758 36.3769 23.1084 34.7518 22.9809 33.5146L22.384 33.5761ZM22.8491 38.0911C23.2009 41.5083 23.5634 45.0367 23.609 45.5037L24.2062 45.4455C24.1604 44.9763 23.7976 41.4453 23.446 38.0297L22.8491 38.0911ZM23.7043 45.6953L24.2747 46.2206L24.6812 45.7794L24.1108 45.254L23.7043 45.6953ZM24.4779 46.3H27.9091V45.7H24.4779V46.3ZM28.1273 46.2058L28.7 45.5986L28.2634 45.1869L27.6908 45.7942L28.1273 46.2058ZM28.7814 45.3804L28.0606 27.84L27.4611 27.8646L28.1819 45.4051L28.7814 45.3804ZM27.7609 28.1523H28.4899V27.5523H27.7609V28.1523ZM28.1985 27.9236L28.6433 29.743L29.2261 29.6005L28.7813 27.7811L28.1985 27.9236ZM28.7494 29.9077L29.3127 30.3499L29.6832 29.878L29.12 29.4358L28.7494 29.9077ZM29.5017 30.4139L31.9929 30.3828L31.9854 29.7829L29.4942 29.814L29.5017 30.4139ZM32.2043 30.2919L32.7704 29.709L32.34 29.291L31.7739 29.8738L32.2043 30.2919ZM32.8552 29.5V29.4845H32.2552V29.5H32.8552ZM32.8544 29.462L32.8478 29.3737L32.2495 29.4186L32.2561 29.5069L32.8544 29.462ZM32.8453 29.3514L32.6126 27.8076L32.0193 27.897L32.252 29.4409L32.8453 29.3514ZM32.316 28.1523H35.2834V27.5523H32.316V28.1523ZM35.2834 32.4891H36.4296V31.8891H35.2834V32.4891ZM36.4296 28.1523H37.553V27.5523H36.4296V28.1523ZM37.553 31.6342H38.6992V31.0342H37.553V31.6342ZM38.6992 28.1523H39.1654V27.5523H38.6992V28.1523ZM39.4654 27.8523V26.6865H38.8654V27.8523H39.4654ZM39.1654 26.3865H38.6992V26.9865H39.1654V26.3865ZM38.6992 22.9047H37.553V23.5047H38.6992V22.9047ZM37.553 26.3865H36.4296V26.9865H37.553V26.3865ZM36.4296 21.8321H35.2834V22.4321H36.4296V21.8321ZM35.2834 26.3865H32.1403V26.9865H35.2834V26.3865ZM32.437 26.6418L32.3791 26.2582L31.7858 26.3476L31.8436 26.7312L32.437 26.6418ZM32.3789 26.2566L32.3785 26.254L31.7857 26.3465L31.7861 26.3492L32.3789 26.2566ZM32.3785 26.2542C31.8223 22.6725 31.2922 19.9668 30.8174 18.05L30.235 18.1943C30.704 20.0875 31.2309 22.7742 31.7856 26.3463L32.3785 26.2542ZM30.8174 18.05C30.5802 17.0926 30.3536 16.3187 30.1399 15.7249L29.5754 15.9281C29.7796 16.4956 30.0006 17.248 30.235 18.1943L30.8174 18.05ZM30.1399 15.7249C29.937 15.1609 29.7142 14.6659 29.4509 14.3466L28.9879 14.7282C29.1802 14.9614 29.3747 15.3704 29.5754 15.9281L30.1399 15.7249ZM29.4502 14.3458L29.4488 14.3441L28.9872 14.7274L28.9886 14.7291L29.4502 14.3458ZM29.4488 14.344C28.4784 13.1759 27.022 12.6037 25.7896 12.3123L25.6515 12.8961C26.8348 13.176 28.1396 13.7071 28.9873 14.7274L29.4488 14.344ZM25.7896 12.3123C24.5363 12.0158 23.3734 11.9772 22.8426 11.9772V12.5772C23.3497 12.5772 24.4612 12.6146 25.6515 12.8961L25.7896 12.3123ZM22.5293 11.9772C21.9984 11.9772 20.8356 12.0158 19.5822 12.3123L19.7203 12.8961C20.9106 12.6146 22.0222 12.5772 22.5293 12.5772V11.9772ZM19.5822 12.3123C18.3499 12.6037 16.8937 13.1758 15.9233 14.3437L16.3848 14.7272C17.2324 13.707 18.5371 13.176 19.7203 12.8961L19.5822 12.3123ZM29.6711 28.1523H31.1563V27.5523H29.6711V28.1523ZM30.229 28.8713L29.9625 27.7811L29.3797 27.9236L29.6462 29.0138L30.229 28.8713ZM31.3143 28.6254L29.9339 28.6426L29.9413 29.2425L31.3218 29.2253L31.3143 28.6254ZM30.8597 27.897L31.0214 28.97L31.6147 28.8806L31.453 27.8076L30.8597 27.897ZM27.6 25.4754L27.9135 26.7578L28.4963 26.6153L28.1828 25.333L27.6 25.4754ZM27.3369 24.6179C27.4262 24.9042 27.5159 25.1967 27.6041 25.4904L28.1788 25.318C28.0899 25.022 27.9996 24.7274 27.9097 24.4393L27.3369 24.6179ZM27.9562 25.2988C27.9457 25.0329 27.9346 24.7708 27.923 24.515L27.3236 24.5421C27.3351 24.7968 27.3462 25.0577 27.3566 25.3223L27.9562 25.2988ZM28.0127 26.6742L27.9562 25.2982L27.3567 25.3229L27.4132 26.6988L28.0127 26.6742ZM28.2049 26.3865H27.713V26.9865H28.2049V26.3865ZM26.7731 20.9915C26.7726 20.9902 26.7721 20.9887 26.7716 20.9872L26.2015 21.1742C26.2035 21.1804 26.2057 21.1867 26.2079 21.1931L26.7731 20.9915ZM26.4865 21.0807C26.2024 21.1769 26.2024 21.1769 26.2024 21.1769C26.2024 21.1769 26.2024 21.1769 26.2024 21.1769C26.2024 21.1769 26.2024 21.1769 26.2024 21.1769C26.2024 21.1769 26.2024 21.1769 26.2024 21.1769C26.2024 21.1769 26.2024 21.1769 26.2024 21.177C26.2024 21.177 26.2024 21.177 26.2024 21.177C26.2024 21.1771 26.2025 21.1772 26.2025 21.1773C26.2026 21.1775 26.2027 21.1778 26.2028 21.1781C26.203 21.1788 26.2034 21.1798 26.2038 21.181C26.2046 21.1833 26.2057 21.1866 26.2069 21.1901L26.7741 20.9945C26.7732 20.9917 26.7723 20.9892 26.7717 20.9873C26.7713 20.9864 26.7711 20.9857 26.7709 20.9852C26.7708 20.9849 26.7708 20.9847 26.7707 20.9846C26.7707 20.9846 26.7707 20.9845 26.7707 20.9845C26.7707 20.9845 26.7707 20.9845 26.7707 20.9845C26.7707 20.9845 26.7707 20.9845 26.7707 20.9845C26.7707 20.9845 26.7707 20.9845 26.7707 20.9845C26.7707 20.9845 26.7707 20.9845 26.7707 20.9845V20.9845C26.7707 20.9845 26.7707 20.9845 26.4865 21.0807ZM18.7938 28.1523H26.6136V27.5523H18.7938V28.1523ZM18.8566 33.2966C18.9379 31.431 19.0194 29.5628 19.0936 27.8654L18.4941 27.8392C18.42 29.5366 18.3385 31.4049 18.2572 33.2705L18.8566 33.2966ZM18.4924 41.6612C18.5915 39.3831 18.7238 36.3432 18.8566 33.2966L18.2572 33.2705C18.1244 36.3171 17.9921 39.357 17.893 41.6351L18.4924 41.6612ZM20.3699 44.5342H18.0542V45.1342H20.3699V44.5342ZM21.4698 31.1963L20.0715 44.8035L20.6684 44.8649L22.0666 31.2576L21.4698 31.1963ZM22.1355 30.4835L21.5655 31.0058L21.9709 31.4482L22.5409 30.9259L22.1355 30.4835ZM23.026 30.4047H22.3382V31.0047H23.026V30.4047ZM23.7986 31.0055L23.2286 30.4834L22.8233 30.9259L23.3934 31.448L23.7986 31.0055ZM23.0578 31.5859L23.6278 31.5251L23.5642 30.9284L22.9942 30.9893L23.0578 31.5859ZM23.596 31.2268L23.5642 30.9284C23.5642 30.9285 23.5642 30.9284 23.5642 30.9285C23.5642 30.9285 23.5642 30.9285 23.5642 30.9285C23.5641 30.9285 23.5641 30.9285 23.5641 30.9285C23.5641 30.9285 23.5642 30.9285 23.5641 30.9285C23.5641 30.9285 23.5642 30.9285 23.5641 30.9285C23.5641 30.9285 23.5641 30.9285 23.5641 30.9285C23.5639 30.9285 23.5643 30.9284 23.5641 30.9285C23.5641 30.9285 23.5641 30.9285 23.5641 30.9285C23.5641 30.9285 23.5641 30.9285 23.5641 30.9285C23.5641 30.9285 23.5641 30.9285 23.5641 30.9285C23.5641 30.9285 23.5641 30.9285 23.5641 30.9285C23.5641 30.9285 23.564 30.9285 23.564 30.9285C23.564 30.9285 23.5641 30.9285 23.564 30.9285C23.564 30.9285 23.5635 30.9285 23.563 30.9286C23.5591 30.929 23.5626 30.9286 23.5553 30.9294C23.536 30.9315 23.5589 30.929 23.5341 30.9317C23.5152 30.9337 23.5371 30.9313 23.5164 30.9335C23.5058 30.9347 23.5056 30.9347 23.4929 30.9361C23.4733 30.9381 23.4546 30.9401 23.425 30.9433C23.4232 30.9435 23.4162 30.9442 23.4143 30.9444C23.4024 30.9457 23.4234 30.9435 23.4115 30.9447C23.409 30.945 23.4113 30.9448 23.4087 30.945C23.4028 30.9457 23.4118 30.9447 23.4059 30.9453C23.4056 30.9454 23.4034 30.9456 23.4031 30.9456C23.3876 30.9473 23.407 30.9452 23.3913 30.9469C23.3904 30.947 23.38 30.9481 23.3789 30.9482C23.374 30.9487 23.3583 30.9504 23.3525 30.951C23.3443 30.9519 23.3327 30.9531 23.3237 30.9541C23.2971 30.9569 23.3198 30.9545 23.2924 30.9574C23.2725 30.9596 23.2791 30.9589 23.2584 30.9611C23.2334 30.9637 23.2477 30.9622 23.2218 30.965C23.2003 30.9673 23.2047 30.9668 23.1823 30.9692C23.1612 30.9714 23.1197 30.9759 23.0945 30.9786C23.0882 30.9792 23.089 30.9791 23.0827 30.9798C23.0759 30.9805 23.0834 30.9797 23.0767 30.9805C23.0668 30.9815 23.0805 30.98 23.0706 30.9811C23.0684 30.9813 23.0484 30.9835 23.0459 30.9837C23.0356 30.9848 23.0056 30.988 22.9942 30.9893L23.0578 31.5859C23.0589 31.5858 23.06 31.5856 23.0611 31.5855C23.0622 31.5854 23.0634 31.5853 23.0645 31.5852C23.0656 31.585 23.0667 31.5849 23.0678 31.5848C23.0689 31.5847 23.07 31.5846 23.0711 31.5845C23.0835 31.5831 23.0717 31.5844 23.0841 31.5831C23.0908 31.5824 23.0903 31.5824 23.0969 31.5817C23.1035 31.581 23.1031 31.581 23.1096 31.5803C23.1183 31.5794 23.1258 31.5786 23.1343 31.5777C23.1404 31.5771 23.1402 31.5771 23.1463 31.5764C23.1495 31.5761 23.155 31.5755 23.1581 31.5752C23.2079 31.5699 23.2002 31.5707 23.2459 31.5658C23.2604 31.5643 23.2719 31.563 23.2854 31.5616C23.2861 31.5615 23.3037 31.5596 23.3041 31.5596C23.3208 31.5578 23.3056 31.5594 23.3221 31.5577C23.3383 31.5559 23.3406 31.5557 23.356 31.5541C23.3603 31.5536 23.3839 31.5511 23.3873 31.5507C23.3926 31.5502 23.3858 31.5509 23.3911 31.5503C23.3917 31.5503 23.3923 31.5502 23.3929 31.5501C23.3935 31.5501 23.3942 31.55 23.3948 31.5499C23.4073 31.5486 23.3896 31.5505 23.4021 31.5491C23.4036 31.549 23.4041 31.5489 23.4056 31.5488C23.4062 31.5487 23.4068 31.5486 23.4074 31.5486C23.408 31.5485 23.4086 31.5485 23.4092 31.5484C23.4229 31.5469 23.4025 31.5491 23.4162 31.5476C23.4254 31.5467 23.4342 31.5457 23.4426 31.5448C23.4471 31.5443 23.487 31.5401 23.4886 31.5399C23.5394 31.5345 23.5158 31.537 23.5566 31.5327C23.5757 31.5306 23.5631 31.532 23.5801 31.5302C23.6052 31.5275 23.5744 31.5308 23.5977 31.5283C23.603 31.5277 23.5998 31.5281 23.6047 31.5275C23.6065 31.5273 23.606 31.5274 23.6077 31.5272C23.6094 31.527 23.6088 31.5271 23.6104 31.5269C23.627 31.5252 23.6036 31.5276 23.6189 31.526C23.6242 31.5255 23.6198 31.5259 23.624 31.5255C23.6252 31.5253 23.6263 31.5252 23.6267 31.5252C23.6271 31.5251 23.6267 31.5252 23.6271 31.5251C23.6281 31.525 23.6263 31.5252 23.6273 31.5251C23.6275 31.5251 23.6276 31.5251 23.6277 31.5251C23.628 31.525 23.6275 31.5251 23.6278 31.5251C23.6278 31.5251 23.6278 31.5251 23.6278 31.5251C23.6278 31.5251 23.6278 31.5251 23.6278 31.5251L23.596 31.2268ZM24.586 37.9083C24.4102 36.2008 24.2373 34.5227 24.1084 33.2715L23.5115 33.333C23.6405 34.5842 23.8134 36.2623 23.9891 37.9697L24.586 37.9083ZM25.2938 44.8039C25.1717 43.6021 24.8748 40.7139 24.586 37.9083L23.9891 37.9697C24.278 40.7755 24.5748 43.6632 24.6969 44.8645L25.2938 44.8039ZM27.3115 44.5342H24.9954V45.1342H27.3115V44.5342ZM26.3139 27.8646L27.0117 44.8465L27.6112 44.8219L26.9133 27.84L26.3139 27.8646ZM12.5987 29.6176L12.5383 29.9114C12.5383 29.9114 12.5383 29.9114 12.5383 29.9114C12.5383 29.9114 12.5383 29.9114 12.5383 29.9114C12.5383 29.9114 12.5383 29.9114 12.5383 29.9114C12.5383 29.9114 12.5383 29.9114 12.5383 29.9114C12.5383 29.9114 12.5383 29.9114 12.5383 29.9114C12.5383 29.9114 12.5383 29.9114 12.5383 29.9114C12.5384 29.9114 12.5383 29.9114 12.5384 29.9114C12.5384 29.9114 12.5384 29.9114 12.5384 29.9114C12.5384 29.9114 12.5384 29.9114 12.5384 29.9114C12.5384 29.9114 12.5385 29.9115 12.5385 29.9115C12.5386 29.9115 12.5387 29.9115 12.5387 29.9115C12.5398 29.9117 12.5381 29.9114 12.5394 29.9116C12.5424 29.9123 12.5407 29.9119 12.547 29.9132C12.552 29.9142 12.5574 29.9154 12.5679 29.9175C12.5732 29.9186 12.5702 29.918 12.5759 29.9192C12.5913 29.9223 12.5695 29.9178 12.5853 29.9211C12.6136 29.9269 12.5781 29.9196 12.6085 29.9259C12.613 29.9268 12.6106 29.9263 12.6153 29.9273C12.6153 29.9273 12.6223 29.9287 12.6225 29.9287C12.6323 29.9308 12.6201 29.9283 12.6301 29.9303C12.6319 29.9307 12.6303 29.9304 12.6321 29.9307C12.6325 29.9308 12.6328 29.9309 12.6331 29.9309C12.6335 29.931 12.6338 29.9311 12.6341 29.9311C12.6426 29.9329 12.6298 29.9302 12.6382 29.932C12.6484 29.9341 12.6627 29.937 12.6754 29.9396C12.6988 29.9444 12.673 29.9391 12.697 29.9441C12.7087 29.9465 12.7084 29.9464 12.7208 29.949C12.7289 29.9506 12.7379 29.9525 12.7468 29.9543C12.7546 29.9559 12.7528 29.9556 12.7607 29.9572C12.7613 29.9573 12.7619 29.9574 12.7625 29.9576C12.7631 29.9577 12.7637 29.9578 12.7643 29.9579C12.7649 29.9581 12.7655 29.9582 12.7661 29.9583C12.7667 29.9584 12.7673 29.9585 12.7679 29.9587C12.7917 29.9636 12.7514 29.9553 12.7752 29.9602C12.7911 29.9634 12.7743 29.96 12.7904 29.9633C12.8066 29.9666 12.7819 29.9615 12.7982 29.9649C12.7988 29.965 12.7995 29.9652 12.8001 29.9653C12.8008 29.9654 12.8015 29.9656 12.8021 29.9657C12.8112 29.9676 12.7971 29.9647 12.8061 29.9665C12.8124 29.9678 12.8079 29.9669 12.8142 29.9682C12.824 29.9702 12.8086 29.967 12.8184 29.969C12.819 29.9692 12.8197 29.9693 12.8204 29.9695C12.8211 29.9696 12.8218 29.9698 12.8225 29.9699C12.8443 29.9744 12.8176 29.9689 12.8396 29.9734C12.8772 29.9812 12.8732 29.9803 12.9146 29.9889C12.956 29.9974 12.9557 29.9973 13.0011 30.0067C13.0175 30.01 13.0794 30.0228 13.1 30.027L13.2209 29.4393C13.203 29.4356 13.1867 29.4323 13.1699 29.4288C13.1601 29.4268 13.1308 29.4208 13.1221 29.419C13.1108 29.4167 13.1275 29.4201 13.1163 29.4178C13.1153 29.4176 13.1144 29.4174 13.1134 29.4172C13.1125 29.417 13.1115 29.4168 13.1106 29.4166C13.105 29.4155 13.1048 29.4154 13.0993 29.4143C13.0936 29.4131 13.0994 29.4143 13.0937 29.4131C13.0786 29.41 13.1033 29.4151 13.0882 29.412C13.086 29.4116 13.0849 29.4113 13.0827 29.4109C13.0818 29.4107 13.0809 29.4105 13.08 29.4103C13.0791 29.4101 13.0782 29.4099 13.0773 29.4098C13.0719 29.4086 13.0399 29.4021 13.0355 29.4012C13.0125 29.3964 12.9798 29.3897 12.9605 29.3857C12.9375 29.381 12.9492 29.3834 12.9271 29.3788C12.9264 29.3787 12.9257 29.3786 12.925 29.3784C12.9244 29.3783 12.9237 29.3782 12.9231 29.378C12.9224 29.3779 12.9217 29.3778 12.9211 29.3776C12.9204 29.3775 12.9198 29.3773 12.9191 29.3772C12.9149 29.3763 12.9155 29.3765 12.9113 29.3756C12.9024 29.3738 12.9125 29.3759 12.9037 29.374C12.8983 29.3729 12.9052 29.3744 12.8999 29.3733C12.8987 29.373 12.8973 29.3727 12.8962 29.3725C12.8701 29.3671 12.8103 29.3548 12.7963 29.3519C12.7817 29.3489 12.7712 29.3468 12.7592 29.3443C12.7476 29.3419 12.7544 29.3433 12.7434 29.3411C12.7395 29.3403 12.7399 29.3403 12.7362 29.3396C12.7156 29.3353 12.7499 29.3424 12.7294 29.3382C12.7292 29.3381 12.728 29.3379 12.7278 29.3378C12.7267 29.3376 12.7272 29.3377 12.7262 29.3375C12.7259 29.3375 12.7256 29.3374 12.7254 29.3373C12.7251 29.3373 12.7248 29.3372 12.7246 29.3372C12.7234 29.3369 12.7242 29.3371 12.723 29.3369C12.7113 29.3344 12.7287 29.338 12.717 29.3356C12.7029 29.3327 12.7199 29.3362 12.7062 29.3334C12.6959 29.3313 12.7067 29.3335 12.6969 29.3315C12.6858 29.3292 12.6994 29.332 12.6888 29.3298C12.6663 29.3252 12.685 29.329 12.668 29.3255C12.6641 29.3247 12.6609 29.3241 12.6603 29.324C12.6595 29.3238 12.6597 29.3238 12.6593 29.3238C12.6591 29.3237 12.6594 29.3238 12.6592 29.3237C12.6592 29.3237 12.6592 29.3237 12.6592 29.3237C12.6592 29.3237 12.6592 29.3237 12.6592 29.3237C12.6592 29.3237 12.6592 29.3237 12.6592 29.3237L12.5987 29.6176ZM12.4263 28.9514C12.3874 29.1447 12.357 29.2965 12.3362 29.4L12.9246 29.5177C12.9452 29.4144 12.9756 29.2629 13.0145 29.0698L12.4263 28.9514ZM12.6611 27.7924C12.5658 28.2605 12.486 28.6549 12.4263 28.9514L13.0145 29.0698C13.0741 28.7737 13.1538 28.3798 13.2491 27.9122L12.6611 27.7924ZM9.90509 28.1523H12.9551V27.5523H9.90509V28.1523ZM8.75882 32.4891H9.90509V31.8891H8.75882V32.4891ZM7.62784 28.1523H8.75882V27.5523H7.62784V28.1523ZM6.48158 31.6342H7.62784V31.0342H6.48158V31.6342ZM5.83203 28.1523H6.48158V27.5523H5.83203V28.1523ZM5.53203 26.6865V27.8523H6.13203V26.6865H5.53203ZM6.48158 26.3865H5.83203V26.9865H6.48158V26.3865ZM7.62784 22.9047H6.48158V23.5047H7.62784V22.9047ZM8.75882 26.3865H7.62784V26.9865H8.75882V26.3865ZM9.90509 21.8321H8.75882V22.4321H9.90509V21.8321ZM13.1939 26.3865H9.90509V26.9865H13.1939V26.3865ZM13.7851 22.42C13.4616 23.9204 13.1518 25.4038 12.9001 26.626L13.4877 26.747C13.7392 25.526 14.0486 24.0445 14.3716 22.5465L13.7851 22.42ZM14.9407 17.3355C14.5862 18.7735 14.1749 20.6125 13.7851 22.42L14.3716 22.5465C14.7611 20.7407 15.1708 18.9085 15.5233 17.4791L14.9407 17.3355ZM15.4265 15.5112C15.2831 15.9895 15.1177 16.6178 14.9407 17.3355L15.5233 17.4791C15.6994 16.7649 15.862 16.1477 16.0012 15.6836L15.4265 15.5112ZM15.6341 14.8857C15.5676 15.0596 15.498 15.2731 15.4265 15.5112L16.0012 15.6836C16.0708 15.4518 16.1356 15.2541 16.1946 15.0998L15.6341 14.8857ZM15.9233 14.3437C15.7778 14.5188 15.6853 14.7516 15.6341 14.8857L16.1946 15.0998C16.2478 14.9605 16.3106 14.8164 16.3848 14.7272L15.9233 14.3437ZM26.2113 25.3698L26.2659 26.6988L26.8654 26.6742L26.8108 25.3452L26.2113 25.3698ZM22.5293 13.743H22.8426V13.143H22.5293V13.743ZM16.7479 41.5836L16.5829 45.378L17.1823 45.4041L17.3473 41.6097L16.7479 41.5836ZM34.9834 27.8523V32.1891H35.5834V27.8523H34.9834ZM36.7296 32.1891V27.8523H36.1296V32.1891H36.7296ZM37.253 27.8523V31.3342H37.853V27.8523H37.253ZM38.9992 31.3342V27.8523H38.3992V31.3342H38.9992ZM38.9992 26.6865V23.2047H38.3992V26.6865H38.9992ZM37.253 23.2047V26.6865H37.853V23.2047H37.253ZM36.7296 26.6865V22.1321H36.1296V26.6865H36.7296ZM34.9834 22.1321V26.6865H35.5834V22.1321H34.9834ZM22.8426 11.9772H22.5293V12.5772H22.8426V11.9772ZM18.3539 44.8472L18.4924 41.6612L17.893 41.6351L17.7545 44.8212L18.3539 44.8472ZM24.1084 33.2715L23.8944 31.196L23.2976 31.2575L23.5115 33.3331L24.1084 33.2715ZM12.3362 29.4001L12.3045 29.5588L12.8929 29.6763L12.9246 29.5176L12.3362 29.4001ZM10.2051 32.1891V27.8523H9.60509V32.1891H10.2051ZM8.45882 27.8523V32.1891H9.05882V27.8523H8.45882ZM7.92784 31.3342V27.8523H7.32784V31.3342H7.92784ZM6.18158 27.8523V31.3342H6.78158V27.8523H6.18158ZM6.18158 23.2047V26.6865H6.78158V23.2047H6.18158ZM7.92784 26.6865V23.2047H7.32784V26.6865H7.92784ZM8.45882 22.1321V26.6865H9.05882V22.1321H8.45882ZM10.2051 26.6865V22.1321H9.60509V26.6865H10.2051Z" fill="#FFCC01" mask="url(#path-1-outside-1_459_49360)"/>
</svg>
