<svg width="47" height="47" viewBox="0 0 47 47" fill="none" xmlns="http://www.w3.org/2000/svg">
<mask id="path-1-outside-1_459_49472" maskUnits="userSpaceOnUse" x="0" y="0.000488281" width="47" height="47" fill="black">
<rect fill="white" y="0.000488281" width="47" height="47"/>
<path fill-rule="evenodd" clip-rule="evenodd" d="M44.9431 8.93215L45.5206 9.52652L45.5216 9.52641C45.9675 9.98417 46.3322 10.9727 45.5088 11.8197L36.1029 21.4786C34.2093 23.4228 31.3789 23.9865 28.8904 22.9146C28.8648 22.9038 28.8395 22.8912 28.8157 22.8774L28.775 22.8545L6.4484 45.7804C6.31185 45.9201 6.124 45.9997 5.92937 45.9997C5.73473 45.9997 5.54726 45.9209 5.41034 45.7804L2.23541 42.5381C1.95552 42.2506 1.95402 41.7894 2.23202 41.5001L21.203 21.7584L3.06054 3.00344C2.3673 4.72452 1.42764 8.72861 5.31135 12.7258L16.4568 24.1962L15.4179 25.2364L4.27155 13.7661C-1.58941 7.73275 2.20446 1.41084 2.24332 1.34731C2.3625 1.15518 2.56091 1.02926 2.78309 1.00439C3.00828 0.981429 3.22592 1.06065 3.38284 1.22178L22.7449 21.2378C23.0225 21.5256 23.0233 21.9852 22.746 22.2738L3.77699 42.0145L5.92862 44.2067L28.1277 21.411C28.3597 21.173 28.7199 21.1228 29.0066 21.287L29.4959 21.5683C31.4212 22.3793 33.6021 21.94 35.0615 20.4408L44.4686 10.7797L44.4694 10.7788C44.5424 10.7029 44.5727 10.6713 44.4709 10.5542L43.9051 9.97324C43.8688 9.93612 43.8443 9.92234 43.8379 9.92004C43.8111 9.92311 43.7293 9.98128 43.724 9.98626L36.4805 17.4234C36.3436 17.5639 36.1565 17.6435 35.9619 17.6435C35.7665 17.6435 35.5794 17.5642 35.4421 17.4234L33.9465 15.8875C33.6659 15.5993 33.6666 15.1354 33.9476 14.8473L41.1892 7.41158L41.1896 7.41115C41.2628 7.33491 41.2931 7.30343 41.1914 7.18615L40.6253 6.60517C40.5902 6.56881 40.5657 6.55503 40.5592 6.55235C40.5313 6.55618 40.448 6.6155 40.4431 6.62048L33.2008 14.0558C32.9277 14.3378 32.4377 14.3378 32.1631 14.0558L30.6663 12.5206C30.3846 12.2324 30.3846 11.7678 30.6663 11.4792L37.9109 4.04208L37.911 4.04195C37.9822 3.96856 38.0145 3.93522 37.912 3.81665L37.3462 3.23567C37.3119 3.19931 37.2873 3.18553 37.2809 3.18285C37.2526 3.18668 37.1689 3.246 37.164 3.25098L29.016 11.6181C28.4558 12.1934 27.8301 12.8364 27.7588 12.9099C26.2816 14.4258 25.8558 16.6919 26.6716 18.6852C26.8263 19.0626 26.6494 19.4962 26.2775 19.6531C25.904 19.8101 25.4774 19.6306 25.3231 19.2532C24.2817 16.7072 24.829 13.8096 26.7184 11.8707C26.7524 11.8359 26.9202 11.6635 27.1488 11.4287C27.3868 11.1842 27.6908 10.872 27.9779 10.5771L36.1259 2.20995C36.2081 2.12537 36.6502 1.70398 37.2896 1.70398C37.571 1.70474 37.9893 1.79048 38.3842 2.19578L38.9617 2.79016C39.4083 3.24909 39.7712 4.23801 38.9478 5.08422L32.212 11.9997L32.6824 12.482L39.4057 5.57832C39.4878 5.49373 39.93 5.07235 40.5682 5.07235H40.5697C40.8503 5.07235 41.2679 5.15808 41.6632 5.56415L42.2407 6.15776C42.6869 6.61591 43.0506 7.60485 42.2271 8.45183L35.4918 15.3673L35.9618 15.8496L42.6862 8.94631C42.7677 8.86211 43.2087 8.44034 43.8469 8.44034H43.848C44.1291 8.44034 44.5478 8.52569 44.9431 8.93215ZM27.8844 27.1401C28.1715 26.853 28.6332 26.8557 28.9172 27.1466L42.9358 41.5871C43.2164 41.8745 43.2164 42.3387 42.9358 42.6273L39.8503 45.7797C39.7122 45.9198 39.5259 45.9998 39.3305 45.9998C39.1351 45.9998 38.9488 45.9202 38.8107 45.7797L24.7911 31.3401C24.5082 31.0489 24.5109 30.5797 24.7975 30.2922C25.0849 30.0056 25.5463 30.009 25.8303 30.2987L39.3303 44.2063L41.3906 42.1072L27.878 28.1869C27.5955 27.8967 27.5985 27.4271 27.8844 27.1401Z"/>
</mask>
<path fill-rule="evenodd" clip-rule="evenodd" d="M44.9431 8.93215L45.5206 9.52652L45.5216 9.52641C45.9675 9.98417 46.3322 10.9727 45.5088 11.8197L36.1029 21.4786C34.2093 23.4228 31.3789 23.9865 28.8904 22.9146C28.8648 22.9038 28.8395 22.8912 28.8157 22.8774L28.775 22.8545L6.4484 45.7804C6.31185 45.9201 6.124 45.9997 5.92937 45.9997C5.73473 45.9997 5.54726 45.9209 5.41034 45.7804L2.23541 42.5381C1.95552 42.2506 1.95402 41.7894 2.23202 41.5001L21.203 21.7584L3.06054 3.00344C2.3673 4.72452 1.42764 8.72861 5.31135 12.7258L16.4568 24.1962L15.4179 25.2364L4.27155 13.7661C-1.58941 7.73275 2.20446 1.41084 2.24332 1.34731C2.3625 1.15518 2.56091 1.02926 2.78309 1.00439C3.00828 0.981429 3.22592 1.06065 3.38284 1.22178L22.7449 21.2378C23.0225 21.5256 23.0233 21.9852 22.746 22.2738L3.77699 42.0145L5.92862 44.2067L28.1277 21.411C28.3597 21.173 28.7199 21.1228 29.0066 21.287L29.4959 21.5683C31.4212 22.3793 33.6021 21.94 35.0615 20.4408L44.4686 10.7797L44.4694 10.7788C44.5424 10.7029 44.5727 10.6713 44.4709 10.5542L43.9051 9.97324C43.8688 9.93612 43.8443 9.92234 43.8379 9.92004C43.8111 9.92311 43.7293 9.98128 43.724 9.98626L36.4805 17.4234C36.3436 17.5639 36.1565 17.6435 35.9619 17.6435C35.7665 17.6435 35.5794 17.5642 35.4421 17.4234L33.9465 15.8875C33.6659 15.5993 33.6666 15.1354 33.9476 14.8473L41.1892 7.41158L41.1896 7.41115C41.2628 7.33491 41.2931 7.30343 41.1914 7.18615L40.6253 6.60517C40.5902 6.56881 40.5657 6.55503 40.5592 6.55235C40.5313 6.55618 40.448 6.6155 40.4431 6.62048L33.2008 14.0558C32.9277 14.3378 32.4377 14.3378 32.1631 14.0558L30.6663 12.5206C30.3846 12.2324 30.3846 11.7678 30.6663 11.4792L37.9109 4.04208L37.911 4.04195C37.9822 3.96856 38.0145 3.93522 37.912 3.81665L37.3462 3.23567C37.3119 3.19931 37.2873 3.18553 37.2809 3.18285C37.2526 3.18668 37.1689 3.246 37.164 3.25098L29.016 11.6181C28.4558 12.1934 27.8301 12.8364 27.7588 12.9099C26.2816 14.4258 25.8558 16.6919 26.6716 18.6852C26.8263 19.0626 26.6494 19.4962 26.2775 19.6531C25.904 19.8101 25.4774 19.6306 25.3231 19.2532C24.2817 16.7072 24.829 13.8096 26.7184 11.8707C26.7524 11.8359 26.9202 11.6635 27.1488 11.4287C27.3868 11.1842 27.6908 10.872 27.9779 10.5771L36.1259 2.20995C36.2081 2.12537 36.6502 1.70398 37.2896 1.70398C37.571 1.70474 37.9893 1.79048 38.3842 2.19578L38.9617 2.79016C39.4083 3.24909 39.7712 4.23801 38.9478 5.08422L32.212 11.9997L32.6824 12.482L39.4057 5.57832C39.4878 5.49373 39.93 5.07235 40.5682 5.07235H40.5697C40.8503 5.07235 41.2679 5.15808 41.6632 5.56415L42.2407 6.15776C42.6869 6.61591 43.0506 7.60485 42.2271 8.45183L35.4918 15.3673L35.9618 15.8496L42.6862 8.94631C42.7677 8.86211 43.2087 8.44034 43.8469 8.44034H43.848C44.1291 8.44034 44.5478 8.52569 44.9431 8.93215ZM27.8844 27.1401C28.1715 26.853 28.6332 26.8557 28.9172 27.1466L42.9358 41.5871C43.2164 41.8745 43.2164 42.3387 42.9358 42.6273L39.8503 45.7797C39.7122 45.9198 39.5259 45.9998 39.3305 45.9998C39.1351 45.9998 38.9488 45.9202 38.8107 45.7797L24.7911 31.3401C24.5082 31.0489 24.5109 30.5797 24.7975 30.2922C25.0849 30.0056 25.5463 30.009 25.8303 30.2987L39.3303 44.2063L41.3906 42.1072L27.878 28.1869C27.5955 27.8967 27.5985 27.4271 27.8844 27.1401Z" fill="#F1E4C7"/>
<path d="M45.5206 9.52652L45.4489 9.59621L45.4827 9.63102L45.531 9.62598L45.5206 9.52652ZM44.9431 8.93215L45.0148 8.86246L45.0148 8.86243L44.9431 8.93215ZM45.5216 9.52641L45.5933 9.45664L45.5594 9.42192L45.5112 9.42695L45.5216 9.52641ZM45.5088 11.8197L45.5804 11.8895L45.5805 11.8894L45.5088 11.8197ZM36.1029 21.4786L36.1745 21.5484L36.1745 21.5484L36.1029 21.4786ZM28.8904 22.9146L28.93 22.8227L28.929 22.8223L28.8904 22.9146ZM28.8157 22.8774L28.8659 22.7909L28.8648 22.7903L28.8157 22.8774ZM28.775 22.8545L28.8241 22.7674L28.757 22.7296L28.7033 22.7847L28.775 22.8545ZM6.4484 45.7804L6.51991 45.8503L6.52004 45.8502L6.4484 45.7804ZM5.41034 45.7804L5.48194 45.7106L5.48179 45.7105L5.41034 45.7804ZM2.23541 42.5381L2.16376 42.6079L2.16396 42.6081L2.23541 42.5381ZM2.23202 41.5001L2.15991 41.4308L2.15991 41.4308L2.23202 41.5001ZM21.203 21.7584L21.2751 21.8277L21.3419 21.7582L21.2749 21.6889L21.203 21.7584ZM3.06054 3.00344L3.13241 2.93391L3.02532 2.82321L2.96778 2.96608L3.06054 3.00344ZM5.31135 12.7258L5.23963 12.7955L5.23963 12.7955L5.31135 12.7258ZM16.4568 24.1962L16.5275 24.2668L16.5971 24.1971L16.5285 24.1265L16.4568 24.1962ZM15.4179 25.2364L15.3462 25.3061L15.417 25.3789L15.4887 25.3071L15.4179 25.2364ZM4.27155 13.7661L4.19982 13.8357L4.19983 13.8358L4.27155 13.7661ZM2.24332 1.34731L2.15834 1.29459L2.158 1.29514L2.24332 1.34731ZM2.78309 1.00439L2.77295 0.904896L2.77196 0.905007L2.78309 1.00439ZM3.38284 1.22178L3.45471 1.15225L3.45448 1.15201L3.38284 1.22178ZM22.7449 21.2378L22.8169 21.1683L22.8168 21.1682L22.7449 21.2378ZM22.746 22.2738L22.8181 22.3431L22.8181 22.3431L22.746 22.2738ZM3.77699 42.0145L3.70488 41.9452L3.63759 42.0152L3.70562 42.0845L3.77699 42.0145ZM5.92862 44.2067L5.85725 44.2767L5.9289 44.3497L6.00026 44.2764L5.92862 44.2067ZM28.1277 21.411L28.0561 21.3412L28.0561 21.3413L28.1277 21.411ZM29.0066 21.287L29.0565 21.2003L29.0563 21.2003L29.0066 21.287ZM29.4959 21.5683L29.4456 21.6557L29.457 21.6605L29.4959 21.5683ZM35.0615 20.4408L34.9899 20.371L34.9899 20.3711L35.0615 20.4408ZM44.4686 10.7797L44.5402 10.8494L44.5407 10.8489L44.4686 10.7797ZM44.4694 10.7788L44.3973 10.7095L44.3973 10.7095L44.4694 10.7788ZM44.4709 10.5542L44.5464 10.4885L44.5425 10.4845L44.4709 10.5542ZM43.9051 9.97324L43.9767 9.90347L43.9766 9.90342L43.9051 9.97324ZM43.8379 9.92004L43.8716 9.8259L43.8497 9.81805L43.8266 9.82069L43.8379 9.92004ZM43.724 9.98626L43.6554 9.91341L43.6524 9.91648L43.724 9.98626ZM36.4805 17.4234L36.5521 17.4932L36.5522 17.4932L36.4805 17.4234ZM35.4421 17.4234L35.3704 17.4932L35.3705 17.4932L35.4421 17.4234ZM33.9465 15.8875L34.0182 15.8177L34.0181 15.8177L33.9465 15.8875ZM33.9476 14.8473L34.0192 14.9171L34.0193 14.917L33.9476 14.8473ZM41.1892 7.41158L41.2608 7.48135L41.2612 7.48099L41.1892 7.41158ZM41.1896 7.41115L41.2616 7.48057L41.2617 7.48044L41.1896 7.41115ZM41.1914 7.18615L41.2671 7.12054L41.2631 7.11636L41.1914 7.18615ZM40.6253 6.60517L40.5533 6.67461L40.5536 6.67496L40.6253 6.60517ZM40.5592 6.55235L40.5978 6.46008L40.5727 6.44958L40.5457 6.45328L40.5592 6.55235ZM40.4431 6.62048L40.3718 6.5503L40.3714 6.5507L40.4431 6.62048ZM33.2008 14.0558L33.1291 13.986L33.1289 13.9862L33.2008 14.0558ZM32.1631 14.0558L32.2347 13.986L32.2347 13.986L32.1631 14.0558ZM30.6663 12.5206L30.7379 12.4508L30.7378 12.4507L30.6663 12.5206ZM30.6663 11.4792L30.7379 11.5491L30.738 11.549L30.6663 11.4792ZM37.9109 4.04208L37.9825 4.11186L37.9832 4.11107L37.9109 4.04208ZM37.911 4.04195L37.8392 3.97231L37.8386 3.97296L37.911 4.04195ZM37.912 3.81665L37.9878 3.75113L37.9836 3.74688L37.912 3.81665ZM37.3462 3.23567L37.2735 3.30433L37.2745 3.30544L37.3462 3.23567ZM37.2809 3.18285L37.3195 3.09058L37.2944 3.08012L37.2675 3.08376L37.2809 3.18285ZM37.164 3.25098L37.0928 3.18077L37.0924 3.18121L37.164 3.25098ZM29.016 11.6181L28.9444 11.5484L28.9444 11.5484L29.016 11.6181ZM27.7588 12.9099L27.8304 12.9797L27.8305 12.9795L27.7588 12.9099ZM26.6716 18.6852L26.5791 18.7231L26.5791 18.7231L26.6716 18.6852ZM26.2775 19.6531L26.3162 19.7453L26.3163 19.7453L26.2775 19.6531ZM25.3231 19.2532L25.4157 19.2153L25.4157 19.2153L25.3231 19.2532ZM26.7184 11.8707L26.6468 11.8009L26.6468 11.8009L26.7184 11.8707ZM27.1488 11.4287L27.2204 11.4985L27.1488 11.4287ZM27.9779 10.5771L28.0495 10.6469L28.0495 10.6469L27.9779 10.5771ZM36.1259 2.20995L36.1975 2.27972L36.1975 2.27968L36.1259 2.20995ZM37.2896 1.70398L37.2898 1.60398H37.2896V1.70398ZM38.3842 2.19578L38.4559 2.1261L38.4558 2.12599L38.3842 2.19578ZM38.9617 2.79016L38.89 2.85984L38.89 2.8599L38.9617 2.79016ZM38.9478 5.08422L39.0194 5.154L39.0194 5.15396L38.9478 5.08422ZM32.212 11.9997L32.1404 11.93L32.0724 11.9998L32.1404 12.0696L32.212 11.9997ZM32.6824 12.482L32.6108 12.5518L32.6825 12.6252L32.754 12.5517L32.6824 12.482ZM39.4057 5.57832L39.4773 5.64809L39.4774 5.648L39.4057 5.57832ZM41.6632 5.56415L41.7349 5.49442L41.7349 5.4944L41.6632 5.56415ZM42.2407 6.15776L42.169 6.22749L42.1691 6.22754L42.2407 6.15776ZM42.2271 8.45183L42.2988 8.5216L42.2988 8.52153L42.2271 8.45183ZM35.4918 15.3673L35.4201 15.2976L35.3522 15.3674L35.4202 15.4371L35.4918 15.3673ZM35.9618 15.8496L35.8902 15.9194L35.9618 15.9929L36.0334 15.9193L35.9618 15.8496ZM42.6862 8.94631L42.7578 9.01609L42.7581 9.01586L42.6862 8.94631ZM28.9172 27.1466L28.9889 27.0769L28.9887 27.0767L28.9172 27.1466ZM27.8844 27.1401L27.8137 27.0694L27.8136 27.0695L27.8844 27.1401ZM42.9358 41.5871L42.864 41.6567L42.8642 41.6569L42.9358 41.5871ZM42.9358 42.6273L43.0072 42.6973L43.0075 42.697L42.9358 42.6273ZM39.8503 45.7797L39.9215 45.8499L39.9217 45.8496L39.8503 45.7797ZM38.8107 45.7797L38.739 45.8494L38.7394 45.8498L38.8107 45.7797ZM24.7911 31.3401L24.8629 31.2705L24.8629 31.2704L24.7911 31.3401ZM24.7975 30.2922L24.7269 30.2214L24.7267 30.2216L24.7975 30.2922ZM25.8303 30.2987L25.9021 30.2291L25.9017 30.2287L25.8303 30.2987ZM39.3303 44.2063L39.2586 44.276L39.33 44.3495L39.4017 44.2763L39.3303 44.2063ZM41.3906 42.1072L41.462 42.1772L41.5304 42.1076L41.4624 42.0375L41.3906 42.1072ZM27.878 28.1869L27.9498 28.1172L27.9497 28.1171L27.878 28.1869ZM45.5923 9.45684L45.0148 8.86246L44.8714 9.00183L45.4489 9.59621L45.5923 9.45684ZM45.5112 9.42695L45.5102 9.42706L45.531 9.62598L45.532 9.62587L45.5112 9.42695ZM45.5805 11.8894C46.0133 11.4442 46.1377 10.9557 46.0906 10.5164C46.044 10.0814 45.8299 9.69959 45.5933 9.45664L45.45 9.59619C45.6592 9.81099 45.8504 10.1524 45.8918 10.5378C45.9326 10.919 45.8277 11.3482 45.4371 11.75L45.5805 11.8894ZM36.1745 21.5484L45.5804 11.8895L45.4372 11.7499L36.0312 21.4088L36.1745 21.5484ZM28.8508 23.0064C31.3775 24.0948 34.2521 23.5222 36.1745 21.5484L36.0312 21.4088C34.1666 23.3234 31.3803 23.8783 28.93 22.8227L28.8508 23.0064ZM28.7656 22.9639C28.7929 22.9798 28.8221 22.9944 28.8519 23.0068L28.929 22.8223C28.9074 22.8133 28.886 22.8026 28.8659 22.7909L28.7656 22.9639ZM28.7259 22.9416L28.7666 22.9646L28.8648 22.7903L28.8241 22.7674L28.7259 22.9416ZM6.52004 45.8502L28.8466 22.9242L28.7033 22.7847L6.37676 45.7107L6.52004 45.8502ZM5.92937 46.0997C6.15116 46.0997 6.36471 46.0091 6.51991 45.8503L6.37689 45.7105C6.25898 45.8311 6.09685 45.8997 5.92937 45.8997V46.0997ZM5.33873 45.8502C5.49445 46.01 5.70773 46.0997 5.92937 46.0997V45.8997C5.76174 45.8997 5.60007 45.8318 5.48194 45.7106L5.33873 45.8502ZM2.16396 42.6081L5.33889 45.8504L5.48179 45.7105L2.30686 42.4681L2.16396 42.6081ZM2.15991 41.4308C1.84455 41.759 1.84625 42.2818 2.16376 42.6079L2.30706 42.4683C2.0648 42.2195 2.06349 41.8198 2.30413 41.5694L2.15991 41.4308ZM21.1309 21.6892L2.15991 41.4308L2.30412 41.5694L21.2751 21.8277L21.1309 21.6892ZM2.98866 3.07296L21.1311 21.828L21.2749 21.6889L3.13241 2.93391L2.98866 3.07296ZM5.38307 12.6561C1.53704 8.6977 2.46854 4.74085 3.15329 3.0408L2.96778 2.96608C2.26607 4.7082 1.31824 8.75951 5.23963 12.7955L5.38307 12.6561ZM16.5285 24.1265L5.38307 12.6561L5.23963 12.7955L16.3851 24.2658L16.5285 24.1265ZM15.4887 25.3071L16.5275 24.2668L16.386 24.1255L15.3472 25.1657L15.4887 25.3071ZM4.19983 13.8358L15.3462 25.3061L15.4897 25.1667L4.34326 13.6964L4.19983 13.8358ZM2.158 1.29514C2.13443 1.33369 1.16813 2.94502 0.945444 5.30864C0.722341 7.67667 1.24647 10.7955 4.19982 13.8357L4.34327 13.6964C1.43567 10.7033 0.926254 7.64454 1.14456 5.3274C1.36328 3.00586 2.31335 1.42446 2.32863 1.39948L2.158 1.29514ZM2.77196 0.905007C2.51898 0.933334 2.29351 1.07671 2.15834 1.29459L2.32829 1.40003C2.4315 1.23366 2.60285 1.12519 2.79422 1.10376L2.77196 0.905007ZM3.45448 1.15201C3.27622 0.968974 3.02844 0.878855 2.77295 0.904901L2.79323 1.10387C2.98811 1.084 3.17562 1.15233 3.3112 1.29155L3.45448 1.15201ZM22.8168 21.1682L3.45471 1.15225L3.31096 1.29131L22.673 21.3073L22.8168 21.1682ZM22.8181 22.3431C23.1327 22.0157 23.1318 21.4948 22.8169 21.1683L22.6729 21.3072C22.9133 21.5563 22.9139 21.9547 22.6739 22.2045L22.8181 22.3431ZM3.84909 42.0838L22.8181 22.3431L22.6739 22.2045L3.70488 41.9452L3.84909 42.0838ZM5.99999 44.1366L3.84835 41.9444L3.70562 42.0845L5.85725 44.2767L5.99999 44.1366ZM28.0561 21.3413L5.85698 44.1369L6.00026 44.2764L28.1994 21.4808L28.0561 21.3413ZM29.0563 21.2003C28.73 21.0134 28.3199 21.0706 28.0561 21.3412L28.1994 21.4808C28.3996 21.2754 28.7099 21.2323 28.9569 21.3738L29.0563 21.2003ZM29.5457 21.4816L29.0565 21.2003L28.9568 21.3737L29.446 21.655L29.5457 21.4816ZM34.9899 20.3711C33.5593 21.8407 31.4221 22.2712 29.5347 21.4762L29.457 21.6605C31.4202 22.4874 33.645 22.0393 35.1332 20.5106L34.9899 20.3711ZM44.397 10.7099L34.9899 20.371L35.1332 20.5106L44.5402 10.8494L44.397 10.7099ZM44.3973 10.7095L44.3965 10.7104L44.5407 10.8489L44.5415 10.8481L44.3973 10.7095ZM44.3954 10.6199C44.4186 10.6465 44.4296 10.6631 44.4345 10.6729C44.4387 10.6813 44.4354 10.6785 44.4365 10.6696C44.4374 10.6618 44.4407 10.6602 44.4345 10.6684C44.4276 10.6778 44.4169 10.6891 44.3973 10.7095L44.5415 10.8481C44.5583 10.8306 44.5789 10.8095 44.595 10.7879C44.6119 10.7652 44.63 10.7341 44.6349 10.6943C44.6449 10.6143 44.5967 10.5466 44.5463 10.4886L44.3954 10.6199ZM43.8334 10.043L44.3992 10.624L44.5425 10.4845L43.9767 9.90347L43.8334 10.043ZM43.8042 10.0142C43.8002 10.0128 43.7976 10.0115 43.7969 10.0111C43.7959 10.0106 43.7954 10.0104 43.7957 10.0105C43.7961 10.0108 43.798 10.0119 43.8013 10.0143C43.8079 10.0191 43.8189 10.0281 43.8335 10.0431L43.9766 9.90342C43.9363 9.86208 43.8991 9.83573 43.8716 9.8259L43.8042 10.0142ZM43.7926 10.059C43.7904 10.0611 43.7886 10.0625 43.7883 10.0628C43.788 10.063 43.7878 10.0632 43.7877 10.0633C43.7875 10.0634 43.7874 10.0635 43.7874 10.0635C43.7874 10.0635 43.7875 10.0635 43.7878 10.0633C43.788 10.0631 43.7884 10.0628 43.7889 10.0624C43.7908 10.061 43.7938 10.0588 43.7977 10.0561C43.8055 10.0506 43.8158 10.0437 43.8265 10.0368C43.8375 10.0298 43.8477 10.0239 43.8555 10.0198C43.8595 10.0178 43.8616 10.0168 43.8622 10.0166C43.8639 10.0159 43.8587 10.0183 43.8493 10.0194L43.8266 9.82069C43.7994 9.82379 43.7743 9.83661 43.7636 9.84217C43.7484 9.85003 43.7327 9.85947 43.7193 9.86803C43.7055 9.87675 43.6927 9.88545 43.6828 9.89239C43.6779 9.89586 43.6734 9.89907 43.6698 9.90178C43.6684 9.90276 43.6613 9.90797 43.6554 9.91348L43.7926 10.059ZM36.5522 17.4932L43.7956 10.056L43.6524 9.91648L36.4089 17.3536L36.5522 17.4932ZM35.9619 17.7435C36.1838 17.7435 36.3966 17.6527 36.5521 17.4932L36.4089 17.3536C36.2906 17.475 36.1292 17.5435 35.9619 17.5435V17.7435ZM35.3705 17.4932C35.5265 17.6532 35.7393 17.7435 35.9619 17.7435V17.5435C35.7937 17.5435 35.6323 17.4753 35.5137 17.3536L35.3705 17.4932ZM33.8749 15.9573L35.3704 17.4932L35.5137 17.3536L34.0182 15.8177L33.8749 15.9573ZM33.876 14.7774C33.5573 15.1043 33.5563 15.6301 33.8749 15.9573L34.0181 15.8177C33.7755 15.5685 33.7759 15.1666 34.0192 14.9171L33.876 14.7774ZM41.1175 7.34181L33.876 14.7775L34.0193 14.917L41.2608 7.48135L41.1175 7.34181ZM41.1176 7.34174L41.1172 7.34217L41.2612 7.48099L41.2616 7.48057L41.1176 7.34174ZM41.1159 7.25165C41.139 7.27837 41.15 7.29502 41.1549 7.30477C41.1591 7.31319 41.1558 7.31046 41.1569 7.30162C41.1579 7.29381 41.1611 7.2923 41.1549 7.30059C41.1479 7.31 41.1372 7.32136 41.1175 7.34187L41.2617 7.48044C41.2786 7.46283 41.2992 7.44167 41.3153 7.42006C41.3322 7.39734 41.3503 7.36633 41.3553 7.32646C41.3653 7.24654 41.3173 7.1787 41.267 7.12065L41.1159 7.25165ZM40.5536 6.67496L41.1198 7.25595L41.2631 7.11636L40.6969 6.53538L40.5536 6.67496ZM40.5207 6.64463C40.5165 6.64285 40.5148 6.64171 40.5161 6.6425C40.5169 6.64297 40.519 6.64428 40.5222 6.64669C40.5288 6.65148 40.5394 6.66024 40.5533 6.6746L40.6972 6.53574C40.6562 6.49325 40.6208 6.46968 40.5978 6.46008L40.5207 6.64463ZM40.5143 6.69066C40.5114 6.69358 40.5091 6.69556 40.5087 6.69589C40.5079 6.69657 40.5074 6.69698 40.5073 6.69705C40.5071 6.69719 40.5074 6.69695 40.5084 6.69623C40.5102 6.69486 40.5132 6.6927 40.5171 6.68993C40.5249 6.6844 40.5354 6.67729 40.5464 6.67026C40.5576 6.66309 40.5681 6.65685 40.5763 6.65253C40.5805 6.65037 40.5829 6.6493 40.5838 6.64893C40.5858 6.64814 40.5813 6.65027 40.5728 6.65143L40.5457 6.45328C40.5194 6.45688 40.495 6.46938 40.4837 6.47529C40.4683 6.48334 40.4524 6.49295 40.4387 6.50171C40.4248 6.51062 40.4117 6.51951 40.4016 6.52662C40.3966 6.53017 40.392 6.53349 40.3883 6.53633C40.3876 6.5368 40.3788 6.54319 40.3718 6.5503L40.5143 6.69066ZM33.2724 14.1255L40.5147 6.69025L40.3714 6.5507L33.1291 13.986L33.2724 14.1255ZM32.0914 14.1255C32.4052 14.4478 32.9601 14.4481 33.2726 14.1253L33.1289 13.9862C32.8952 14.2276 32.4702 14.2279 32.2347 13.986L32.0914 14.1255ZM30.5947 12.5904L32.0915 14.1256L32.2347 13.986L30.7379 12.4508L30.5947 12.5904ZM30.5948 11.4094C30.2751 11.7368 30.275 12.2635 30.5948 12.5905L30.7378 12.4507C30.4941 12.2014 30.494 11.7988 30.7379 11.5491L30.5948 11.4094ZM37.8392 3.9723L30.5947 11.4094L30.738 11.549L37.9825 4.11186L37.8392 3.9723ZM37.8386 3.97296L37.8385 3.97309L37.9832 4.11107L37.9834 4.11094L37.8386 3.97296ZM37.8364 3.88207C37.8595 3.90888 37.8705 3.92574 37.8753 3.9356C37.8795 3.94415 37.8764 3.9418 37.8775 3.93346C37.8784 3.92604 37.8814 3.92465 37.8755 3.93256C37.8687 3.94165 37.8584 3.95253 37.8392 3.97232L37.9828 4.11158C37.9992 4.09467 38.0196 4.07387 38.0357 4.05236C38.0526 4.02967 38.0707 3.99877 38.0758 3.95903C38.0861 3.8792 38.0391 3.81075 37.9876 3.75124L37.8364 3.88207ZM37.2745 3.30544L37.8404 3.88642L37.9836 3.74688L37.4178 3.1659L37.2745 3.30544ZM37.2424 3.27512C37.2381 3.27334 37.2364 3.27219 37.2376 3.27293C37.2384 3.27336 37.2404 3.27461 37.2435 3.27695C37.2498 3.2816 37.2601 3.29018 37.2735 3.30432L37.4189 3.16702C37.3783 3.12404 37.3427 3.10027 37.3195 3.09058L37.2424 3.27512ZM37.2352 3.32119C37.2323 3.32414 37.2299 3.32614 37.2295 3.32648C37.2287 3.32716 37.2282 3.32759 37.2281 3.32765C37.2279 3.3278 37.2282 3.32756 37.2292 3.32685C37.231 3.32548 37.234 3.32333 37.2379 3.32055C37.2458 3.31503 37.2563 3.30792 37.2673 3.3009C37.2786 3.29373 37.2892 3.28749 37.2975 3.28318C37.3016 3.28102 37.3041 3.27993 37.3051 3.27955C37.307 3.27876 37.3027 3.28083 37.2943 3.28195L37.2675 3.08376C37.2413 3.0873 37.2168 3.09969 37.2054 3.10565C37.1899 3.11369 37.1739 3.12331 37.1601 3.13207C37.1461 3.14098 37.1329 3.14988 37.1228 3.15699C37.1178 3.16054 37.1132 3.16387 37.1094 3.16671C37.1088 3.16717 37.0999 3.17359 37.0928 3.18077L37.2352 3.32119ZM29.0877 11.6879L37.2356 3.32075L37.0924 3.18121L28.9444 11.5484L29.0877 11.6879ZM27.8305 12.9795C27.9017 12.9061 28.5274 12.2632 29.0877 11.6879L28.9444 11.5484C28.3842 12.1236 27.7584 12.7667 27.687 12.8402L27.8305 12.9795ZM26.7642 18.6473C25.963 16.69 26.3817 14.4664 27.8304 12.9797L27.6871 12.8401C26.1815 14.3852 25.7485 16.6939 26.5791 18.7231L26.7642 18.6473ZM26.3163 19.7453C26.7395 19.5667 26.9393 19.0746 26.7642 18.6473L26.5791 18.7231C26.7133 19.0505 26.5593 19.4257 26.2386 19.561L26.3163 19.7453ZM25.2306 19.291C25.4056 19.719 25.8907 19.9241 26.3162 19.7453L26.2387 19.5609C25.9174 19.696 25.5493 19.5421 25.4157 19.2153L25.2306 19.291ZM26.6468 11.8009C24.729 13.7689 24.1744 16.709 25.2306 19.291L25.4157 19.2153C24.389 16.7054 24.929 13.8503 26.79 11.9405L26.6468 11.8009ZM27.0771 11.3589C26.8485 11.5938 26.6808 11.7661 26.6468 11.8009L26.79 11.9406C26.824 11.9057 26.9919 11.7332 27.2204 11.4985L27.0771 11.3589ZM27.9062 10.5073C27.6191 10.8022 27.3152 11.1144 27.0771 11.3589L27.2204 11.4985C27.4585 11.2539 27.7624 10.9417 28.0495 10.6469L27.9062 10.5073ZM36.0542 2.14018L27.9062 10.5073L28.0495 10.6469L36.1975 2.27972L36.0542 2.14018ZM37.2896 1.60398C36.6079 1.60398 36.141 2.05102 36.0542 2.14022L36.1975 2.27968C36.2753 2.19971 36.6925 1.80398 37.2896 1.80398V1.60398ZM38.4558 2.12599C38.0387 1.69788 37.5927 1.6048 37.2898 1.60398L37.2893 1.80398C37.5492 1.80469 37.9399 1.88307 38.3126 2.26557L38.4558 2.12599ZM39.0334 2.72047L38.4559 2.1261L38.3125 2.26547L38.89 2.85984L39.0334 2.72047ZM39.0194 5.15396C39.4522 4.70916 39.5771 4.2208 39.5304 3.78139C39.4842 3.34617 39.2704 2.96399 39.0334 2.72042L38.89 2.8599C39.0996 3.07526 39.2906 3.417 39.3316 3.80253C39.3721 4.18387 39.2667 4.61307 38.8761 5.01448L39.0194 5.15396ZM32.2837 12.0695L39.0194 5.154L38.8761 5.01445L32.1404 11.93L32.2837 12.0695ZM32.754 12.4121L32.2836 11.9299L32.1404 12.0696L32.6108 12.5518L32.754 12.4121ZM39.334 5.50855L32.6108 12.4122L32.754 12.5517L39.4773 5.64809L39.334 5.50855ZM40.5682 4.97235C39.8877 4.97235 39.4206 5.41941 39.3339 5.50864L39.4774 5.648C39.5551 5.56806 39.9723 5.17235 40.5682 5.17235V4.97235ZM40.5697 4.97235H40.5682V5.17235H40.5697V4.97235ZM41.7349 5.4944C41.3174 5.06557 40.8721 4.97235 40.5697 4.97235V5.17235C40.8285 5.17235 41.2184 5.25059 41.5916 5.63391L41.7349 5.4944ZM42.3124 6.08803L41.7349 5.49442L41.5915 5.63388L42.169 6.22749L42.3124 6.08803ZM42.2988 8.52153C42.7316 8.07635 42.8563 7.58778 42.8095 7.14838C42.7631 6.71317 42.5492 6.33117 42.3123 6.08799L42.1691 6.22754C42.3784 6.4425 42.5695 6.78405 42.6106 7.16959C42.6513 7.55094 42.546 7.98033 42.1554 8.38212L42.2988 8.52153ZM35.5634 15.4371L42.2988 8.5216L42.1555 8.38206L35.4201 15.2976L35.5634 15.4371ZM36.0334 15.7798L35.5634 15.2975L35.4202 15.4371L35.8902 15.9194L36.0334 15.7798ZM42.6146 8.87654L35.8901 15.7798L36.0334 15.9193L42.7578 9.01609L42.6146 8.87654ZM43.8469 8.34034C43.1663 8.34034 42.7004 8.78788 42.6144 8.87677L42.7581 9.01586C42.835 8.93635 43.2511 8.54034 43.8469 8.54034V8.34034ZM43.848 8.34034H43.8469V8.54034H43.848V8.34034ZM45.0148 8.86243C44.5972 8.4331 44.1507 8.34034 43.848 8.34034V8.54034C44.1074 8.54034 44.4983 8.61829 44.8714 9.00187L45.0148 8.86243ZM28.9887 27.0767C28.6658 26.746 28.1402 26.7429 27.8137 27.0694L27.9552 27.2108C28.2028 26.9632 28.6005 26.9654 28.8456 27.2164L28.9887 27.0767ZM43.0075 41.5174L28.9889 27.0769L28.8454 27.2162L42.864 41.6567L43.0075 41.5174ZM43.0075 42.697C43.3258 42.3697 43.326 41.8435 43.0073 41.5172L42.8642 41.6569C43.1068 41.9054 43.1071 42.3077 42.8641 42.5576L43.0075 42.697ZM39.9217 45.8496L43.0072 42.6973L42.8643 42.5574L39.7788 45.7097L39.9217 45.8496ZM39.3305 46.0998C39.5534 46.0998 39.7652 46.0085 39.9215 45.8499L39.779 45.7095C39.6592 45.8311 39.4983 45.8998 39.3305 45.8998V46.0998ZM38.7394 45.8498C38.8958 46.0089 39.1077 46.0998 39.3305 46.0998V45.8998C39.1625 45.8998 39.0017 45.8314 38.882 45.7096L38.7394 45.8498ZM24.7194 31.4098L38.739 45.8494L38.8824 45.71L24.8629 31.2705L24.7194 31.4098ZM24.7267 30.2216C24.4014 30.5478 24.3985 31.0795 24.7194 31.4098L24.8629 31.2704C24.6179 31.0183 24.6203 30.6115 24.8683 30.3629L24.7267 30.2216ZM25.9017 30.2287C25.5789 29.8995 25.0538 29.8954 24.7269 30.2214L24.8682 30.363C25.1161 30.1158 25.5136 30.1186 25.7589 30.3687L25.9017 30.2287ZM39.4021 44.1366L25.9021 30.2291L25.7585 30.3684L39.2586 44.276L39.4021 44.1366ZM41.3193 42.0371L39.259 44.1362L39.4017 44.2763L41.462 42.1772L41.3193 42.0371ZM27.8063 28.2565L41.3189 42.1768L41.4624 42.0375L27.9498 28.1172L27.8063 28.2565ZM27.8136 27.0695C27.4892 27.3952 27.4857 27.9273 27.8064 28.2566L27.9497 28.1171C27.7053 27.8662 27.7079 27.4591 27.9553 27.2106L27.8136 27.0695Z" fill="#F1E4C7" mask="url(#path-1-outside-1_459_49472)"/>
</svg>
