<svg width="45" height="45" viewBox="0 0 45 45" fill="none" xmlns="http://www.w3.org/2000/svg">
<path d="M22.5 25.8596L45 15.7357L22.5 5.61182L0 15.7357L9.69737 20.098L6.78666 21.3551V38.2656C6.78666 38.8867 7.28799 39.388 7.90905 39.388C8.5301 39.388 9.03143 38.8867 9.03143 38.2656V22.8366L12.4734 21.3476L22.5 25.8596ZM5.46974 15.7357L22.5 8.07357L39.5303 15.7357L22.5 23.3978L15.2644 20.1429L23.0762 16.7683C23.6448 16.5214 23.9067 15.8629 23.6598 15.2942C23.4129 14.7256 22.7544 14.4637 22.1857 14.7106L12.4958 18.9008L5.46974 15.7357Z" fill="#221F20"/>
<path d="M31.4802 31.1619C25.8084 33.8705 19.1939 33.8705 13.5221 31.1619V25.1459L11.2773 24.1582V32.5386L11.8834 32.8529C15.2057 34.5739 18.8572 35.4419 22.5012 35.4419C26.1452 35.4419 29.7966 34.5814 33.1189 32.8529L33.725 32.5386V24.1582L31.4802 25.1459V31.1619Z" fill="#221F20"/>
</svg>
