<svg width="56" height="56" viewBox="0 0 56 56" fill="none" xmlns="http://www.w3.org/2000/svg">
<mask id="path-1-outside-1_459_49468" maskUnits="userSpaceOnUse" x="0" y="0.000488281" width="56" height="56" fill="black">
<rect fill="white" y="0.000488281" width="56" height="56"/>
<path fill-rule="evenodd" clip-rule="evenodd" d="M53.7317 10.5185L54.4247 11.2317L54.4259 11.2316C54.961 11.7809 55.3987 12.9672 54.4106 13.9835L43.1234 25.5742C40.8512 27.9073 37.4546 28.5838 34.4685 27.2974C34.4377 27.2845 34.4074 27.2694 34.3789 27.2528L34.33 27.2253L7.53808 54.7364C7.37422 54.9041 7.1488 54.9996 6.91524 54.9996C6.68168 54.9996 6.45672 54.905 6.2924 54.7364L2.48249 50.8456C2.14663 50.5007 2.14482 49.9472 2.47842 49.6L25.2436 25.91L3.47264 3.40403C2.64076 5.46933 1.51316 10.2742 6.17362 15.0709L19.5481 28.8353L18.3015 30.0836L4.92586 16.3192C-2.10729 9.07921 2.44536 1.49291 2.49198 1.41667C2.635 1.18612 2.8731 1.03502 3.13971 1.00517C3.40993 0.977617 3.67111 1.07269 3.85941 1.26604L27.0939 25.2852C27.427 25.6306 27.4279 26.1822 27.0952 26.5285L4.33238 50.2173L6.91435 52.8479L33.5533 25.4932C33.8317 25.2075 34.2639 25.1473 34.6079 25.3443L35.195 25.6819C37.5054 26.6551 40.1226 26.1279 41.8738 24.3289L53.1623 12.7355L53.1633 12.7345C53.2509 12.6434 53.2873 12.6055 53.165 12.465L52.4861 11.7678C52.4426 11.7232 52.4132 11.7067 52.4055 11.704C52.3734 11.7076 52.2751 11.7774 52.2688 11.7834L43.5766 20.708C43.4123 20.8765 43.1878 20.9721 42.9543 20.9721C42.7198 20.9721 42.4953 20.877 42.3305 20.708L40.5358 18.8649C40.199 18.5191 40.1999 17.9624 40.5372 17.6166L49.227 8.6938L49.2275 8.69329C49.3154 8.6018 49.3517 8.56402 49.2297 8.42329L48.5503 7.72611C48.5082 7.68248 48.4788 7.66594 48.4711 7.66273C48.4376 7.66732 48.3376 7.73851 48.3317 7.74448L39.6409 16.6668C39.3132 17.0053 38.7252 17.0053 38.3957 16.6668L36.5996 14.8247C36.2615 14.4788 36.2615 13.9213 36.5996 13.575L45.293 4.6504L45.2932 4.65024C45.3786 4.56217 45.4174 4.52217 45.2944 4.37989L44.6154 3.68271C44.5742 3.63908 44.5448 3.62254 44.5371 3.61933C44.5032 3.62392 44.4027 3.69511 44.3968 3.70108L34.6192 13.7417C33.947 14.432 33.1961 15.2036 33.1105 15.2918C31.3379 17.1109 30.8269 19.8302 31.806 22.2222C31.9916 22.675 31.7793 23.1954 31.333 23.3837C30.8848 23.572 30.3729 23.3566 30.1878 22.9037C28.938 19.8486 29.5948 16.3714 31.8621 14.0448C31.9029 14.0029 32.1047 13.7956 32.3795 13.5134C32.665 13.2201 33.0293 12.8459 33.3735 12.4924L43.151 2.45184C43.2498 2.35034 43.7802 1.84468 44.5475 1.84468C44.8851 1.8456 45.3871 1.94847 45.861 2.43484L46.5541 3.14809C47.09 3.69881 47.5254 4.88552 46.5373 5.90097L38.4544 14.1996L39.0189 14.7783L47.0868 6.49389C47.1854 6.39238 47.716 5.88672 48.4818 5.88672H48.4837C48.8204 5.88672 49.3215 5.9896 49.7958 6.47688L50.4888 7.18922C51.0243 7.73899 51.4607 8.92573 50.4725 9.94209L42.3901 18.2407L42.9541 18.8194L51.0235 10.5355C51.1213 10.4344 51.6504 9.92832 52.4163 9.92832H52.4177C52.7549 9.92832 53.2573 10.0307 53.7317 10.5185ZM33.2613 32.368C33.6058 32.0235 34.1598 32.0267 34.5006 32.3758L51.3229 49.7044C51.6597 50.0493 51.6597 50.6064 51.3229 50.9527L47.6203 54.7355C47.4547 54.9036 47.231 54.9996 46.9966 54.9996C46.7621 54.9996 46.5385 54.9041 46.3728 54.7355L29.5494 37.408C29.2099 37.0586 29.213 36.4955 29.5571 36.1506C29.9019 35.8066 30.4555 35.8107 30.7964 36.1584L46.9964 52.8475L49.4688 50.3285L33.2536 33.6242C32.9146 33.276 32.9182 32.7125 33.2613 32.368Z"/>
</mask>
<path fill-rule="evenodd" clip-rule="evenodd" d="M53.7317 10.5185L54.4247 11.2317L54.4259 11.2316C54.961 11.7809 55.3987 12.9672 54.4106 13.9835L43.1234 25.5742C40.8512 27.9073 37.4546 28.5838 34.4685 27.2974C34.4377 27.2845 34.4074 27.2694 34.3789 27.2528L34.33 27.2253L7.53808 54.7364C7.37422 54.9041 7.1488 54.9996 6.91524 54.9996C6.68168 54.9996 6.45672 54.905 6.2924 54.7364L2.48249 50.8456C2.14663 50.5007 2.14482 49.9472 2.47842 49.6L25.2436 25.91L3.47264 3.40403C2.64076 5.46933 1.51316 10.2742 6.17362 15.0709L19.5481 28.8353L18.3015 30.0836L4.92586 16.3192C-2.10729 9.07921 2.44536 1.49291 2.49198 1.41667C2.635 1.18612 2.8731 1.03502 3.13971 1.00517C3.40993 0.977617 3.67111 1.07269 3.85941 1.26604L27.0939 25.2852C27.427 25.6306 27.4279 26.1822 27.0952 26.5285L4.33238 50.2173L6.91435 52.8479L33.5533 25.4932C33.8317 25.2075 34.2639 25.1473 34.6079 25.3443L35.195 25.6819C37.5054 26.6551 40.1226 26.1279 41.8738 24.3289L53.1623 12.7355L53.1633 12.7345C53.2509 12.6434 53.2873 12.6055 53.165 12.465L52.4861 11.7678C52.4426 11.7232 52.4132 11.7067 52.4055 11.704C52.3734 11.7076 52.2751 11.7774 52.2688 11.7834L43.5766 20.708C43.4123 20.8765 43.1878 20.9721 42.9543 20.9721C42.7198 20.9721 42.4953 20.877 42.3305 20.708L40.5358 18.8649C40.199 18.5191 40.1999 17.9624 40.5372 17.6166L49.227 8.6938L49.2275 8.69329C49.3154 8.6018 49.3517 8.56402 49.2297 8.42329L48.5503 7.72611C48.5082 7.68248 48.4788 7.66594 48.4711 7.66273C48.4376 7.66732 48.3376 7.73851 48.3317 7.74448L39.6409 16.6668C39.3132 17.0053 38.7252 17.0053 38.3957 16.6668L36.5996 14.8247C36.2615 14.4788 36.2615 13.9213 36.5996 13.575L45.293 4.6504L45.2932 4.65024C45.3786 4.56217 45.4174 4.52217 45.2944 4.37989L44.6154 3.68271C44.5742 3.63908 44.5448 3.62254 44.5371 3.61933C44.5032 3.62392 44.4027 3.69511 44.3968 3.70108L34.6192 13.7417C33.947 14.432 33.1961 15.2036 33.1105 15.2918C31.3379 17.1109 30.8269 19.8302 31.806 22.2222C31.9916 22.675 31.7793 23.1954 31.333 23.3837C30.8848 23.572 30.3729 23.3566 30.1878 22.9037C28.938 19.8486 29.5948 16.3714 31.8621 14.0448C31.9029 14.0029 32.1047 13.7956 32.3795 13.5134C32.665 13.2201 33.0293 12.8459 33.3735 12.4924L43.151 2.45184C43.2498 2.35034 43.7802 1.84468 44.5475 1.84468C44.8851 1.8456 45.3871 1.94847 45.861 2.43484L46.5541 3.14809C47.09 3.69881 47.5254 4.88552 46.5373 5.90097L38.4544 14.1996L39.0189 14.7783L47.0868 6.49389C47.1854 6.39238 47.716 5.88672 48.4818 5.88672H48.4837C48.8204 5.88672 49.3215 5.9896 49.7958 6.47688L50.4888 7.18922C51.0243 7.73899 51.4607 8.92573 50.4725 9.94209L42.3901 18.2407L42.9541 18.8194L51.0235 10.5355C51.1213 10.4344 51.6504 9.92832 52.4163 9.92832H52.4177C52.7549 9.92832 53.2573 10.0307 53.7317 10.5185ZM33.2613 32.368C33.6058 32.0235 34.1598 32.0267 34.5006 32.3758L51.3229 49.7044C51.6597 50.0493 51.6597 50.6064 51.3229 50.9527L47.6203 54.7355C47.4547 54.9036 47.231 54.9996 46.9966 54.9996C46.7621 54.9996 46.5385 54.9041 46.3728 54.7355L29.5494 37.408C29.2099 37.0586 29.213 36.4955 29.5571 36.1506C29.9019 35.8066 30.4555 35.8107 30.7964 36.1584L46.9964 52.8475L49.4688 50.3285L33.2536 33.6242C32.9146 33.276 32.9182 32.7125 33.2613 32.368Z" fill="#F1E4C7"/>
<path d="M54.4247 11.2317L54.353 11.3014L54.3868 11.3363L54.4352 11.3312L54.4247 11.2317ZM53.7317 10.5185L53.8034 10.4488L53.8034 10.4488L53.7317 10.5185ZM54.4259 11.2316L54.4976 11.1618L54.4637 11.1271L54.4155 11.1321L54.4259 11.2316ZM54.4106 13.9835L54.4822 14.0533L54.4823 14.0532L54.4106 13.9835ZM43.1234 25.5742L43.1951 25.644L43.1951 25.644L43.1234 25.5742ZM34.4685 27.2974L34.5081 27.2055L34.507 27.2051L34.4685 27.2974ZM34.3789 27.2528L34.429 27.1663L34.428 27.1657L34.3789 27.2528ZM34.33 27.2253L34.3791 27.1382L34.312 27.1004L34.2583 27.1555L34.33 27.2253ZM7.53808 54.7364L7.60959 54.8063L7.60972 54.8062L7.53808 54.7364ZM6.2924 54.7364L6.36401 54.6666L6.36385 54.6665L6.2924 54.7364ZM2.48249 50.8456L2.41085 50.9154L2.41104 50.9156L2.48249 50.8456ZM2.47842 49.6L2.40632 49.5307L2.40631 49.5308L2.47842 49.6ZM25.2436 25.91L25.3157 25.9793L25.3825 25.9098L25.3155 25.8405L25.2436 25.91ZM3.47264 3.40403L3.54452 3.3345L3.43743 3.2238L3.37989 3.36667L3.47264 3.40403ZM6.17362 15.0709L6.1019 15.1406L6.1019 15.1406L6.17362 15.0709ZM19.5481 28.8353L19.6189 28.9059L19.6885 28.8362L19.6198 28.7656L19.5481 28.8353ZM18.3015 30.0836L18.2298 30.1533L18.3006 30.2261L18.3723 30.1542L18.3015 30.0836ZM4.92586 16.3192L4.85413 16.3889L4.85414 16.3889L4.92586 16.3192ZM2.49198 1.41667L2.407 1.36396L2.40667 1.3645L2.49198 1.41667ZM3.13971 1.00517L3.12956 0.905676L3.12858 0.905786L3.13971 1.00517ZM3.85941 1.26604L3.93128 1.19651L3.93105 1.19627L3.85941 1.26604ZM27.0939 25.2852L27.1659 25.2158L27.1658 25.2157L27.0939 25.2852ZM27.0952 26.5285L27.1673 26.5977L27.1674 26.5977L27.0952 26.5285ZM4.33238 50.2173L4.26028 50.148L4.19299 50.218L4.26101 50.2873L4.33238 50.2173ZM6.91435 52.8479L6.84298 52.918L6.91463 52.991L6.98599 52.9177L6.91435 52.8479ZM33.5533 25.4932L33.4817 25.4234L33.4816 25.4234L33.5533 25.4932ZM34.6079 25.3443L34.6578 25.2577L34.6576 25.2576L34.6079 25.3443ZM35.195 25.6819L35.1448 25.7693L35.1562 25.7741L35.195 25.6819ZM41.8738 24.3289L41.8022 24.2591L41.8022 24.2591L41.8738 24.3289ZM53.1623 12.7355L53.234 12.8053L53.2344 12.8048L53.1623 12.7355ZM53.1633 12.7345L53.2353 12.8038L53.2354 12.8038L53.1633 12.7345ZM53.165 12.465L53.2406 12.3992L53.2367 12.3952L53.165 12.465ZM52.4861 11.7678L52.5577 11.698L52.5577 11.698L52.4861 11.7678ZM52.4055 11.704L52.4392 11.6098L52.4173 11.602L52.3941 11.6046L52.4055 11.704ZM52.2688 11.7834L52.2002 11.7106L52.1972 11.7136L52.2688 11.7834ZM43.5766 20.708L43.6482 20.7778L43.6483 20.7778L43.5766 20.708ZM42.3305 20.708L42.2589 20.7777L42.2589 20.7778L42.3305 20.708ZM40.5358 18.8649L40.6075 18.7951L40.6074 18.7951L40.5358 18.8649ZM40.5372 17.6166L40.6088 17.6864L40.6088 17.6864L40.5372 17.6166ZM49.227 8.6938L49.2986 8.76357L49.2992 8.76302L49.227 8.6938ZM49.2275 8.69329L49.1554 8.624L49.1553 8.62407L49.2275 8.69329ZM49.2297 8.42329L49.3054 8.35768L49.3013 8.35349L49.2297 8.42329ZM48.5503 7.72611L48.4783 7.79554L48.4787 7.7959L48.5503 7.72611ZM48.4711 7.66273L48.5096 7.57046L48.4845 7.55995L48.4575 7.56365L48.4711 7.66273ZM48.3317 7.74448L48.2604 7.67429L48.26 7.6747L48.3317 7.74448ZM39.6409 16.6668L39.5693 16.597L39.5691 16.5973L39.6409 16.6668ZM38.3957 16.6668L38.4673 16.5971L38.4673 16.597L38.3957 16.6668ZM36.5996 14.8247L36.6712 14.7549L36.6711 14.7548L36.5996 14.8247ZM36.5996 13.575L36.6712 13.6448L36.6712 13.6447L36.5996 13.575ZM45.293 4.6504L45.2222 4.57984L45.2214 4.58062L45.293 4.6504ZM45.2932 4.65024L45.3641 4.7208L45.365 4.71987L45.2932 4.65024ZM45.2944 4.37989L45.3702 4.31436L45.366 4.31012L45.2944 4.37989ZM44.6154 3.68271L44.5427 3.75136L44.5438 3.75248L44.6154 3.68271ZM44.5371 3.61933L44.5757 3.52706L44.5506 3.51659L44.5237 3.52023L44.5371 3.61933ZM44.3968 3.70108L44.3256 3.63089L44.3252 3.63131L44.3968 3.70108ZM34.6192 13.7417L34.5476 13.6719V13.6719L34.6192 13.7417ZM33.1105 15.2918L33.1821 15.3615L33.1823 15.3614L33.1105 15.2918ZM31.806 22.2222L31.7134 22.26L31.7134 22.2601L31.806 22.2222ZM31.333 23.3837L31.3717 23.4759L31.3718 23.4758L31.333 23.3837ZM30.1878 22.9037L30.2803 22.8659L30.2803 22.8659L30.1878 22.9037ZM31.8621 14.0448L31.7905 13.9749L31.7905 13.975L31.8621 14.0448ZM32.3795 13.5134L32.4511 13.5831L32.3795 13.5134ZM33.3735 12.4924L33.4451 12.5622V12.5622L33.3735 12.4924ZM43.151 2.45184L43.2227 2.52161L43.2227 2.52157L43.151 2.45184ZM44.5475 1.84468L44.5477 1.74468H44.5475V1.84468ZM45.861 2.43484L45.9328 2.36516L45.9327 2.36505L45.861 2.43484ZM46.5541 3.14809L46.4823 3.21778L46.4824 3.21783L46.5541 3.14809ZM46.5373 5.90097L46.6089 5.97074L46.609 5.97071L46.5373 5.90097ZM38.4544 14.1996L38.3828 14.1298L38.3148 14.1996L38.3828 14.2694L38.4544 14.1996ZM39.0189 14.7783L38.9473 14.8481L39.0189 14.9215L39.0905 14.848L39.0189 14.7783ZM47.0868 6.49389L47.1584 6.56365L47.1585 6.56357L47.0868 6.49389ZM49.7958 6.47688L49.8675 6.40715L49.8675 6.40713L49.7958 6.47688ZM50.4888 7.18922L50.4172 7.25895L50.4172 7.25899L50.4888 7.18922ZM50.4725 9.94209L50.5442 10.0119L50.5443 10.0118L50.4725 9.94209ZM42.3901 18.2407L42.3185 18.1709L42.2505 18.2407L42.3185 18.3105L42.3901 18.2407ZM42.9541 18.8194L42.8825 18.8892L42.9542 18.9627L43.0258 18.8892L42.9541 18.8194ZM51.0235 10.5355L51.0951 10.6053L51.0953 10.605L51.0235 10.5355ZM34.5006 32.3758L34.5724 32.3061L34.5722 32.3059L34.5006 32.3758ZM33.2613 32.368L33.1906 32.2973L33.1905 32.2974L33.2613 32.368ZM51.3229 49.7044L51.2512 49.774L51.2514 49.7742L51.3229 49.7044ZM51.3229 50.9527L51.3944 51.0226L51.3946 51.0224L51.3229 50.9527ZM47.6203 54.7355L47.6916 54.8057L47.6918 54.8055L47.6203 54.7355ZM46.3728 54.7355L46.3011 54.8052L46.3015 54.8056L46.3728 54.7355ZM29.5494 37.408L29.6211 37.3384L29.6211 37.3384L29.5494 37.408ZM29.5571 36.1506L29.4864 36.0798L29.4862 36.08L29.5571 36.1506ZM30.7964 36.1584L30.8681 36.0887L30.8678 36.0884L30.7964 36.1584ZM46.9964 52.8475L46.9247 52.9171L46.996 52.9906L47.0678 52.9175L46.9964 52.8475ZM49.4688 50.3285L49.5401 50.3986L49.6085 50.3289L49.5405 50.2589L49.4688 50.3285ZM33.2536 33.6242L33.3254 33.5545L33.3253 33.5544L33.2536 33.6242ZM54.4964 11.162L53.8034 10.4488L53.66 10.5882L54.353 11.3014L54.4964 11.162ZM54.4155 11.1321L54.4142 11.1323L54.4352 11.3312L54.4364 11.331L54.4155 11.1321ZM54.4823 14.0532C54.9974 13.5233 55.1448 12.9431 55.0889 12.4218C55.0334 11.9046 54.7788 11.4506 54.4976 11.1618L54.3543 11.3014C54.6081 11.5619 54.8399 11.9756 54.89 12.4431C54.9397 12.9063 54.8118 13.4274 54.3389 13.9138L54.4823 14.0532ZM43.1951 25.644L54.4822 14.0533L54.3389 13.9138L43.0518 25.5044L43.1951 25.644ZM34.4289 27.3892C37.4532 28.692 40.894 28.0067 43.1951 25.644L43.0518 25.5044C40.8084 27.8079 37.456 28.4755 34.508 27.2055L34.4289 27.3892ZM34.3287 27.3393C34.3608 27.358 34.395 27.3751 34.4299 27.3897L34.507 27.2051C34.4804 27.194 34.4539 27.1808 34.429 27.1663L34.3287 27.3393ZM34.2809 27.3124L34.3298 27.3399L34.428 27.1657L34.3791 27.1382L34.2809 27.3124ZM7.60972 54.8062L34.4016 27.295L34.2583 27.1555L7.46644 54.6667L7.60972 54.8062ZM6.91524 55.0996C7.17596 55.0996 7.42708 54.993 7.60959 54.8063L7.46657 54.6665C7.32135 54.8151 7.12165 54.8996 6.91524 54.8996V55.0996ZM6.2208 54.8062C6.40391 54.9941 6.65468 55.0996 6.91524 55.0996V54.8996C6.70868 54.8996 6.50953 54.8159 6.36401 54.6666L6.2208 54.8062ZM2.41104 50.9156L6.22095 54.8064L6.36385 54.6665L2.55394 50.7757L2.41104 50.9156ZM2.40631 49.5308C2.03535 49.9168 2.03735 50.5318 2.41085 50.9154L2.55414 50.7759C2.25591 50.4696 2.25429 49.9776 2.55053 49.6693L2.40631 49.5308ZM25.1715 25.8408L2.40632 49.5307L2.55052 49.6693L25.3157 25.9793L25.1715 25.8408ZM3.40077 3.47355L25.1717 25.9796L25.3155 25.8405L3.54452 3.3345L3.40077 3.47355ZM6.24534 15.0012C1.62256 10.2433 2.742 5.48566 3.5654 3.44139L3.37989 3.36667C2.53953 5.45301 1.40376 10.3051 6.1019 15.1406L6.24534 15.0012ZM19.6198 28.7656L6.24534 15.0012L6.1019 15.1406L19.4764 28.905L19.6198 28.7656ZM18.3723 30.1542L19.6189 28.9059L19.4774 28.7646L18.2308 30.0129L18.3723 30.1542ZM4.85414 16.3889L18.2298 30.1533L18.3732 30.0139L4.99757 16.2495L4.85414 16.3889ZM2.40667 1.3645C2.37921 1.40941 1.22127 3.34001 0.954444 6.17215C0.687201 9.00869 1.31468 12.7453 4.85413 16.3889L4.99758 16.2495C1.50388 12.6531 0.891113 8.97656 1.15356 6.19091C1.41643 3.40085 2.55813 1.50018 2.57729 1.46884L2.40667 1.3645ZM3.12858 0.905786C2.83116 0.939089 2.56601 1.10765 2.407 1.36396L2.57695 1.46939C2.704 1.2646 2.91503 1.13095 3.15083 1.10454L3.12858 0.905786ZM3.93105 1.19627C3.72141 0.981007 3.4301 0.875044 3.12956 0.905681L3.14985 1.10465C3.38977 1.08019 3.6208 1.16437 3.78777 1.33581L3.93105 1.19627ZM27.1658 25.2157L3.93128 1.19651L3.78753 1.33557L27.022 25.3548L27.1658 25.2157ZM27.1674 26.5977C27.5373 26.2127 27.5363 25.5998 27.1659 25.2158L27.0219 25.3547C27.3178 25.6614 27.3186 26.1517 27.0231 26.4592L27.1674 26.5977ZM4.40449 50.2866L27.1673 26.5977L27.0231 26.4592L4.26028 50.148L4.40449 50.2866ZM6.98571 52.7779L4.40375 50.1472L4.26101 50.2873L6.84298 52.918L6.98571 52.7779ZM33.4816 25.4234L6.8427 52.7782L6.98599 52.9177L33.6249 25.5629L33.4816 25.4234ZM34.6576 25.2576C34.274 25.0378 33.7918 25.1051 33.4817 25.4234L33.6249 25.5629C33.8715 25.3099 34.2539 25.2568 34.5583 25.4311L34.6576 25.2576ZM35.2449 25.5952L34.6578 25.2577L34.5581 25.431L35.1452 25.7686L35.2449 25.5952ZM41.8022 24.2591C40.0797 26.0286 37.5064 26.547 35.2338 25.5898L35.1562 25.7741C37.5044 26.7632 40.1655 26.2272 41.9455 24.3986L41.8022 24.2591ZM53.0907 12.6657L41.8022 24.2591L41.9455 24.3986L53.234 12.8053L53.0907 12.6657ZM53.0912 12.6652L53.0903 12.6661L53.2344 12.8048L53.2353 12.8038L53.0912 12.6652ZM53.0896 12.5306C53.1179 12.5631 53.1323 12.5845 53.1393 12.5984C53.1455 12.6109 53.1429 12.6116 53.1436 12.6059C53.1442 12.6013 53.1459 12.6026 53.1375 12.614C53.1282 12.6264 53.1145 12.641 53.0912 12.6652L53.2354 12.8038C53.2559 12.7825 53.2795 12.7581 53.2979 12.7334C53.3171 12.7076 53.3367 12.6736 53.3421 12.6306C53.3528 12.5442 53.3011 12.469 53.2405 12.3993L53.0896 12.5306ZM52.4144 11.8376L53.0934 12.5347L53.2367 12.3952L52.5577 11.698L52.4144 11.8376ZM52.3718 11.7981C52.3654 11.7958 52.3627 11.7939 52.3649 11.7952C52.3661 11.7959 52.3689 11.7977 52.3734 11.8009C52.3822 11.8074 52.3963 11.8189 52.4145 11.8376L52.5577 11.698C52.5324 11.6721 52.51 11.6531 52.4914 11.6395C52.4749 11.6274 52.4565 11.616 52.4392 11.6098L52.3718 11.7981ZM52.3374 11.8562C52.334 11.8594 52.3314 11.8613 52.3326 11.8604C52.3328 11.8602 52.3335 11.8597 52.3347 11.8588C52.3372 11.8569 52.341 11.8542 52.3458 11.8508C52.3553 11.8441 52.3679 11.8356 52.3811 11.8272C52.3946 11.8187 52.4073 11.8111 52.4174 11.8059C52.4225 11.8033 52.4257 11.8018 52.4273 11.8012C52.43 11.8002 52.4256 11.8023 52.4169 11.8033L52.3941 11.6046C52.3657 11.6079 52.3386 11.6215 52.3255 11.6283C52.308 11.6373 52.2898 11.6483 52.2738 11.6584C52.2577 11.6687 52.2425 11.679 52.2309 11.6871C52.225 11.6912 52.2198 11.695 52.2156 11.6981C52.2137 11.6995 52.2062 11.705 52.2002 11.7106L52.3374 11.8562ZM43.6483 20.7778L52.3404 11.8532L52.1972 11.7136L43.505 20.6382L43.6483 20.7778ZM42.9543 21.0721C43.2151 21.0721 43.4654 20.9654 43.6482 20.7778L43.505 20.6382C43.3593 20.7877 43.1605 20.8721 42.9543 20.8721V21.0721ZM42.2589 20.7778C42.4423 20.966 42.6926 21.0721 42.9543 21.0721V20.8721C42.747 20.8721 42.5482 20.788 42.4021 20.6382L42.2589 20.7778ZM40.4642 18.9347L42.2589 20.7777L42.4022 20.6382L40.6075 18.7951L40.4642 18.9347ZM40.4656 17.5468C40.0906 17.9313 40.0894 18.5499 40.4642 18.9347L40.6074 18.7951C40.3086 18.4883 40.3093 17.9936 40.6088 17.6864L40.4656 17.5468ZM49.1554 8.62403L40.4655 17.5468L40.6088 17.6864L49.2986 8.76357L49.1554 8.62403ZM49.1553 8.62407L49.1548 8.62458L49.2992 8.76302L49.2997 8.76251L49.1553 8.62407ZM49.1542 8.48878C49.1824 8.52137 49.1968 8.54281 49.2038 8.55669C49.21 8.56923 49.2074 8.56996 49.2081 8.56433C49.2087 8.55973 49.2104 8.56116 49.2019 8.57256C49.1926 8.58506 49.1788 8.59968 49.1554 8.624L49.2996 8.76257C49.3202 8.74115 49.3439 8.71673 49.3623 8.69203C49.3815 8.66621 49.4012 8.63225 49.4066 8.58917C49.4174 8.50284 49.3658 8.42756 49.3053 8.35779L49.1542 8.48878ZM48.4787 7.7959L49.1581 8.49308L49.3013 8.35349L48.6219 7.65631L48.4787 7.7959ZM48.4325 7.755C48.4265 7.75246 48.4286 7.75254 48.4385 7.75982C48.4473 7.76627 48.461 7.77755 48.4783 7.79554L48.6223 7.65667C48.5743 7.60692 48.5339 7.5806 48.5096 7.57046L48.4325 7.755ZM48.4029 7.81466C48.4001 7.81754 48.3978 7.81948 48.3975 7.81977C48.3971 7.8201 48.3968 7.82035 48.3966 7.82049C48.3964 7.82063 48.3963 7.82072 48.3963 7.82074C48.3962 7.82077 48.3964 7.82067 48.3967 7.82041C48.397 7.82016 48.3975 7.81983 48.398 7.81939C48.4004 7.8176 48.4041 7.81489 48.409 7.81149C48.4186 7.80469 48.4314 7.79598 48.4449 7.78736C48.4586 7.7786 48.4717 7.77077 48.4823 7.76522C48.4876 7.76244 48.4912 7.76084 48.4931 7.76007C48.4961 7.75888 48.4924 7.76074 48.4847 7.7618L48.4575 7.56365C48.4299 7.56744 48.4033 7.58083 48.3897 7.58798C48.3719 7.59726 48.3534 7.60846 48.3372 7.61881C48.3208 7.62931 48.3054 7.6398 48.2935 7.64818C48.2876 7.65236 48.2823 7.65623 48.2779 7.65949C48.2767 7.66038 48.2676 7.66706 48.2604 7.6743L48.4029 7.81466ZM39.7125 16.7366L48.4033 7.81425L48.26 7.6747L39.5693 16.597L39.7125 16.7366ZM38.324 16.7366C38.6927 17.1153 39.3456 17.1156 39.7128 16.7364L39.5691 16.5973C39.2808 16.895 38.7577 16.8953 38.4673 16.5971L38.324 16.7366ZM36.528 14.8945L38.3241 16.7366L38.4673 16.597L36.6712 14.7549L36.528 14.8945ZM36.5281 13.5051C36.152 13.8902 36.152 14.5098 36.5281 14.8946L36.6711 14.7548C36.371 14.4478 36.3709 13.9523 36.6712 13.6448L36.5281 13.5051ZM45.2214 4.58062L36.528 13.5052L36.6712 13.6447L45.3647 4.72018L45.2214 4.58062ZM45.2223 4.57969L45.2222 4.57985L45.3639 4.72095L45.3641 4.72079L45.2223 4.57969ZM45.2188 4.4453C45.2471 4.47804 45.2615 4.49976 45.2684 4.51381C45.2746 4.52655 45.2721 4.52772 45.2728 4.52261C45.2733 4.51843 45.2749 4.51999 45.2667 4.53096C45.2576 4.5431 45.2442 4.55716 45.2214 4.58061L45.365 4.71987C45.3849 4.69929 45.4084 4.67532 45.4268 4.65074C45.4461 4.625 45.4656 4.59115 45.4712 4.54818C45.4823 4.46188 45.4318 4.38585 45.37 4.31448L45.2188 4.4453ZM44.5438 3.75248L45.2228 4.44966L45.366 4.31012L44.6871 3.61294L44.5438 3.75248ZM44.4986 3.7116C44.4924 3.70903 44.4945 3.70906 44.5041 3.71618C44.5126 3.72249 44.5259 3.73358 44.5427 3.75136L44.6881 3.61406C44.6407 3.5638 44.6001 3.53728 44.5757 3.52706L44.4986 3.7116ZM44.468 3.77126C44.4652 3.77419 44.4628 3.77616 44.4625 3.77644C44.4621 3.77679 44.4618 3.77704 44.4616 3.77718C44.4614 3.77732 44.4613 3.77741 44.4613 3.77744C44.4613 3.77744 44.4618 3.77703 44.463 3.77611C44.4654 3.77432 44.4692 3.77162 44.474 3.76821C44.4836 3.76142 44.4965 3.75271 44.5101 3.7441C44.5238 3.73534 44.5371 3.72751 44.5478 3.72196C44.5531 3.71918 44.5567 3.71757 44.5587 3.71679C44.5616 3.7156 44.5581 3.71739 44.5505 3.71842L44.5237 3.52023C44.4961 3.52397 44.4695 3.53724 44.4556 3.54444C44.4378 3.55371 44.4191 3.56492 44.4028 3.57527C44.3863 3.58578 44.3708 3.59627 44.3589 3.60465C44.3529 3.60883 44.3476 3.61271 44.3432 3.61597C44.3421 3.61685 44.3328 3.62358 44.3256 3.6309L44.468 3.77126ZM34.6909 13.8114L44.4684 3.77084L44.3252 3.63131L34.5476 13.6719L34.6909 13.8114ZM33.1823 15.3614C33.2678 15.2733 34.0186 14.5018 34.6909 13.8114L34.5476 13.6719C33.8754 14.3622 33.1244 15.1339 33.0387 15.2221L33.1823 15.3614ZM31.8985 22.1843C30.9342 19.8283 31.438 17.1515 33.1821 15.3615L33.0389 15.222C31.2379 17.0703 30.7196 19.8321 31.7134 22.26L31.8985 22.1843ZM31.3718 23.4758C31.8694 23.2659 32.1046 22.6871 31.8985 22.1842L31.7134 22.2601C31.8785 22.663 31.6891 23.1248 31.2941 23.2915L31.3718 23.4758ZM30.0952 22.9416C30.301 23.445 30.8715 23.6861 31.3717 23.4759L31.2942 23.2915C30.8982 23.4579 30.4448 23.2681 30.2803 22.8659L30.0952 22.9416ZM31.7905 13.975C29.4948 16.3308 28.8307 19.8504 30.0952 22.9416L30.2803 22.8659C29.0453 19.8468 29.6948 16.4121 31.9337 14.1145L31.7905 13.975ZM32.3078 13.4436C32.033 13.7259 31.8313 13.9331 31.7905 13.9749L31.9336 14.1146C31.9746 14.0727 32.1764 13.8653 32.4511 13.5831L32.3078 13.4436ZM33.3018 12.4227C32.9576 12.7761 32.5933 13.1503 32.3078 13.4436L32.4511 13.5831C32.7366 13.2898 33.1009 12.9156 33.4451 12.5622L33.3018 12.4227ZM43.0794 2.38208L33.3018 12.4227L33.4451 12.5622L43.2227 2.52161L43.0794 2.38208ZM44.5475 1.74468C43.738 1.74468 43.1826 2.27599 43.0794 2.38212L43.2227 2.52157C43.3169 2.42469 43.8225 1.94468 44.5475 1.94468V1.74468ZM45.9327 2.36505C45.4365 1.85588 44.9069 1.74565 44.5477 1.74468L44.5472 1.94468C44.8634 1.94554 45.3377 2.04107 45.7894 2.50463L45.9327 2.36505ZM46.6258 3.07841L45.9328 2.36516L45.7893 2.50453L46.4823 3.21778L46.6258 3.07841ZM46.609 5.97071C47.1241 5.44129 47.2721 4.86117 47.2166 4.33969C47.1617 3.8224 46.9074 3.36781 46.6257 3.07835L46.4824 3.21783C46.7366 3.47909 46.9681 3.89322 47.0178 4.36082C47.067 4.82424 46.9386 5.3452 46.4656 5.83123L46.609 5.97071ZM38.5261 14.2694L46.6089 5.97074L46.4657 5.8312L38.3828 14.1298L38.5261 14.2694ZM39.0905 14.7084L38.526 14.1298L38.3828 14.2694L38.9473 14.8481L39.0905 14.7084ZM47.0152 6.42412L38.9472 14.7085L39.0905 14.848L47.1584 6.56365L47.0152 6.42412ZM48.4818 5.78672C47.6737 5.78672 47.1182 6.31806 47.0151 6.4242L47.1585 6.56357C47.2526 6.46671 47.7583 5.98672 48.4818 5.98672V5.78672ZM48.4837 5.78672H48.4818V5.98672H48.4837V5.78672ZM49.8675 6.40713C49.371 5.89709 48.8422 5.78672 48.4837 5.78672V5.98672C48.7986 5.98672 49.272 6.08211 49.7242 6.54664L49.8675 6.40713ZM50.5605 7.11949L49.8675 6.40715L49.7242 6.54661L50.4172 7.25895L50.5605 7.11949ZM50.5443 10.0118C51.0594 9.48192 51.2071 8.90156 51.1515 8.38008C51.0963 7.86279 50.842 7.40844 50.5605 7.11944L50.4172 7.25899C50.6712 7.51977 50.9028 7.93367 50.9526 8.40129C51.002 8.86471 50.8738 9.3859 50.4008 9.87239L50.5443 10.0118ZM42.4618 18.3105L50.5442 10.0119L50.4009 9.87232L42.3185 18.1709L42.4618 18.3105ZM43.0257 18.7496L42.4618 18.1709L42.3185 18.3105L42.8825 18.8892L43.0257 18.7496ZM50.9518 10.4657L42.8825 18.7496L43.0258 18.8892L51.0951 10.6053L50.9518 10.4657ZM52.4163 9.82831C51.608 9.82831 51.0539 10.3602 50.9516 10.4659L51.0953 10.605C51.1886 10.5087 51.6928 10.0283 52.4163 10.0283V9.82831ZM52.4177 9.82831H52.4163V10.0283H52.4177V9.82831ZM53.8034 10.4488C53.3068 9.93814 52.7766 9.82831 52.4177 9.82831V10.0283C52.7332 10.0283 53.2079 10.1233 53.66 10.5882L53.8034 10.4488ZM34.5722 32.3059C34.1925 31.9171 33.5744 31.9134 33.1906 32.2973L33.332 32.4387C33.6371 32.1337 34.1271 32.1364 34.4291 32.4457L34.5722 32.3059ZM51.3947 49.6347L34.5724 32.3061L34.4289 32.4455L51.2512 49.774L51.3947 49.6347ZM51.3946 51.0224C51.7691 50.6374 51.7693 50.0183 51.3945 49.6345L51.2514 49.7742C51.5501 50.0802 51.5503 50.5754 51.2512 50.8829L51.3946 51.0224ZM47.6918 54.8055L51.3944 51.0226L51.2515 50.8827L47.5489 54.6656L47.6918 54.8055ZM46.9966 55.0996C47.2586 55.0996 47.5076 54.9923 47.6916 54.8057L47.5491 54.6653C47.4017 54.8149 47.2035 54.8996 46.9966 54.8996V55.0996ZM46.3015 54.8056C46.4855 54.9929 46.7347 55.0996 46.9966 55.0996V54.8996C46.7896 54.8996 46.5915 54.8153 46.4442 54.6654L46.3015 54.8056ZM29.4776 37.4777L46.3011 54.8052L46.4446 54.6659L29.6211 37.3384L29.4776 37.4777ZM29.4862 36.08C29.1036 36.4636 29.1002 37.0892 29.4776 37.4777L29.6211 37.3384C29.3196 37.028 29.3225 36.5274 29.6279 36.2212L29.4862 36.08ZM30.8678 36.0884C30.4882 35.7012 29.8708 35.6964 29.4864 36.0798L29.6277 36.2214C29.9331 35.9168 30.4229 35.9203 30.7249 36.2284L30.8678 36.0884ZM47.0682 52.7778L30.8681 36.0887L30.7246 36.228L46.9247 52.9171L47.0682 52.7778ZM49.3974 50.2585L46.925 52.7774L47.0678 52.9175L49.5401 50.3986L49.3974 50.2585ZM33.1819 33.6938L49.397 50.3982L49.5405 50.2589L33.3254 33.5545L33.1819 33.6938ZM33.1905 32.2974C32.8089 32.6805 32.8048 33.3065 33.182 33.6939L33.3253 33.5544C33.0244 33.2454 33.0276 32.7444 33.3322 32.4386L33.1905 32.2974Z" fill="#F1E4C7" mask="url(#path-1-outside-1_459_49468)"/>
</svg>
