<svg width="54" height="54" viewBox="0 0 54 54" fill="none" xmlns="http://www.w3.org/2000/svg">
<path d="M27 31.0317L54.0001 18.883L27 6.73438L0 18.883L11.6369 24.1178L8.14401 25.6263V45.919C8.14401 46.6643 8.74561 47.2659 9.49087 47.2659C10.2361 47.2659 10.8377 46.6643 10.8377 45.919V27.4042L14.9681 25.6173L27 31.0317ZM6.5637 18.883L27 9.68849L47.4364 18.883L27 28.0776L18.3173 24.1717L27.6914 20.1222C28.3738 19.8259 28.6881 19.0357 28.3918 18.3533C28.0955 17.6709 27.3053 17.3566 26.6229 17.6529L14.995 22.6812L6.5637 18.883Z" fill="#F1E4C7"/>
<path d="M37.7747 37.3946C30.9686 40.6451 23.0311 40.6451 16.225 37.3946V30.1755L13.5312 28.9902V39.0468L14.2586 39.4239C18.2453 41.4891 22.627 42.5307 26.9998 42.5307C31.3727 42.5307 35.7544 41.4981 39.7411 39.4239L40.4684 39.0468V28.9902L37.7747 30.1755V37.3946Z" fill="#F1E4C7"/>
</svg>
