<svg width="54" height="54" viewBox="0 0 54 54" fill="none" xmlns="http://www.w3.org/2000/svg">
<mask id="path-1-inside-1_459_49218" fill="white">
<path d="M0 0H54V54H0V0Z"/>
</mask>
<path d="M0 0H54V54H0V0Z" fill="#F1E4C7"/>
<path d="M25.5228 30.416L22.5166 32.8987L15.3828 34.2417L16.1529 36.9399L23.761 35.8126L27.2293 33.0958L25.5228 30.416ZM33.8825 27.225L34.9421 28.6418L39.5994 28.6295L39.6179 26.1038L35.9832 25.9497L34.5047 21.5574L33.8825 27.225ZM33.7162 9.58154C31.7695 9.58154 30.1863 11.1648 30.1863 13.1053C30.1863 15.0458 31.7695 16.629 33.7162 16.629C35.6629 16.629 37.2461 15.0458 37.2461 13.1053C37.2461 11.1648 35.6629 9.58154 33.7162 9.58154ZM25.9787 20.8243C26.7857 20.8243 27.5311 20.8613 27.5373 20.8613C27.5619 20.8613 27.5804 20.8736 27.5989 20.8921C27.6112 20.9105 27.6235 20.9352 27.6174 20.9537L26.4469 28.7774L31.5724 36.7674L31.9974 44.4187H34.6033L34.6526 35.8618L31.6525 30.6933L32.903 20.8304C33.0385 20.159 32.8722 19.4382 32.4348 18.7975C31.9913 18.1384 31.3321 17.6825 30.6914 17.5654C29.6811 17.3868 28.985 17.3683 28.4121 17.3683H27.7283C26.8289 17.3745 23.4837 18.126 22.9909 18.354L22.954 18.3724L22.9232 18.3909C22.5104 18.6558 19.307 21.7299 19.307 21.7299L20.9888 23.6273L24.1676 20.966L25.9726 20.8243H25.9787Z" stroke="#221F20" stroke-width="1.23208" stroke-linecap="square" stroke-linejoin="bevel"/>
<path d="M0 0V-1H-1V0H0ZM54 0H55V-1H54V0ZM54 54V55H55V54H54ZM0 54H-1V55H0V54ZM0 1H54V-1H0V1ZM53 0V54H55V0H53ZM54 53H0V55H54V53ZM1 54V0H-1V54H1Z" fill="#221F20" mask="url(#path-1-inside-1_459_49218)"/>
</svg>
