<svg width="54" height="54" viewBox="0 0 54 54" fill="none" xmlns="http://www.w3.org/2000/svg">
<mask id="path-1-inside-1_459_49226" fill="white">
<path d="M0 0H54V54H0V0Z"/>
</mask>
<path d="M0 0H54V54H0V0Z" fill="#F1E4C7"/>
<rect x="21.8398" y="13.5" width="11.3226" height="27" stroke="#221F20" stroke-width="1.5"/>
<path d="M0 0V-1H-1V0H0ZM54 0H55V-1H54V0ZM54 54V55H55V54H54ZM0 54H-1V55H0V54ZM0 1H54V-1H0V1ZM53 0V54H55V0H53ZM54 53H0V55H54V53ZM1 54V0H-1V54H1Z" fill="#221F20" mask="url(#path-1-inside-1_459_49226)"/>
</svg>
