<svg width="47" height="45" viewBox="0 0 47 45" fill="none" xmlns="http://www.w3.org/2000/svg">
<mask id="path-1-outside-1_459_49412" maskUnits="userSpaceOnUse" x="0" y="1.78711" width="47" height="41" fill="black">
<rect fill="white" y="1.78711" width="47" height="41"/>
<path fill-rule="evenodd" clip-rule="evenodd" d="M4.95576 20.1109C1.51609 16.3132 1.72356 10.4677 5.42381 6.92342C9.6563 2.86931 16.5186 3.59782 19.8056 8.45021L22.8764 12.9836H24.1236L27.1944 8.45021C30.4814 3.59782 37.3437 2.86931 41.5762 6.92343C45.2764 10.4677 45.4839 16.3132 42.0442 20.1109L23.5 40.5855L4.95576 20.1109ZM4.38185 5.83562C0.0926481 9.94406 -0.14785 16.7199 3.8393 21.1221L22.9418 42.2131H24.0582L43.1607 21.1221C47.1478 16.7199 46.9074 9.94406 42.6181 5.83562C37.712 1.13623 29.7574 1.9807 25.9473 7.60542L23.5 11.2183L21.0527 7.60542C17.2426 1.9807 9.28801 1.13623 4.38185 5.83562ZM19.8586 18.9417L18.4344 22.0672L17.749 22.5081H13.7626V21.0018H17.2646L19.2102 16.7318L20.5926 16.7588L24.2014 25.5746L25.9486 21.4606L26.6419 21.0018H30.1297C30.4489 20.1467 31.2731 19.5378 32.2395 19.5378C33.4829 19.5378 34.4909 20.5458 34.4909 21.7892C34.4909 23.0325 33.4829 24.0405 32.2395 24.0405C31.2476 24.0405 30.4054 23.3989 30.1054 22.5081H27.1403L24.8819 27.8259L23.4916 27.8168L19.8586 18.9417ZM32.2395 21.0441C31.8281 21.0441 31.4945 21.3777 31.4945 21.7892C31.4945 22.2006 31.8281 22.5342 32.2395 22.5342C32.651 22.5342 32.9846 22.2006 32.9846 21.7892C32.9846 21.3777 32.651 21.0441 32.2395 21.0441Z"/>
</mask>
<path fill-rule="evenodd" clip-rule="evenodd" d="M4.95576 20.1109C1.51609 16.3132 1.72356 10.4677 5.42381 6.92342C9.6563 2.86931 16.5186 3.59782 19.8056 8.45021L22.8764 12.9836H24.1236L27.1944 8.45021C30.4814 3.59782 37.3437 2.86931 41.5762 6.92343C45.2764 10.4677 45.4839 16.3132 42.0442 20.1109L23.5 40.5855L4.95576 20.1109ZM4.38185 5.83562C0.0926481 9.94406 -0.14785 16.7199 3.8393 21.1221L22.9418 42.2131H24.0582L43.1607 21.1221C47.1478 16.7199 46.9074 9.94406 42.6181 5.83562C37.712 1.13623 29.7574 1.9807 25.9473 7.60542L23.5 11.2183L21.0527 7.60542C17.2426 1.9807 9.28801 1.13623 4.38185 5.83562ZM19.8586 18.9417L18.4344 22.0672L17.749 22.5081H13.7626V21.0018H17.2646L19.2102 16.7318L20.5926 16.7588L24.2014 25.5746L25.9486 21.4606L26.6419 21.0018H30.1297C30.4489 20.1467 31.2731 19.5378 32.2395 19.5378C33.4829 19.5378 34.4909 20.5458 34.4909 21.7892C34.4909 23.0325 33.4829 24.0405 32.2395 24.0405C31.2476 24.0405 30.4054 23.3989 30.1054 22.5081H27.1403L24.8819 27.8259L23.4916 27.8168L19.8586 18.9417ZM32.2395 21.0441C31.8281 21.0441 31.4945 21.3777 31.4945 21.7892C31.4945 22.2006 31.8281 22.5342 32.2395 22.5342C32.651 22.5342 32.9846 22.2006 32.9846 21.7892C32.9846 21.3777 32.651 21.0441 32.2395 21.0441Z" fill="#221F20"/>
<path d="M5.42381 6.92342L5.63133 7.14007L5.42381 6.92342ZM4.95576 20.1109L4.7334 20.3123L4.95576 20.1109ZM19.8056 8.45021L20.0539 8.28196L19.8056 8.45021ZM22.8764 12.9836L22.6281 13.1518L22.7173 13.2836H22.8764V12.9836ZM24.1236 12.9836V13.2836H24.2827L24.3719 13.1518L24.1236 12.9836ZM27.1944 8.45021L27.4428 8.61846L27.1944 8.45021ZM41.5762 6.92343L41.7837 6.70678L41.5762 6.92343ZM42.0442 20.1109L42.2666 20.3123L42.0442 20.1109ZM23.5 40.5855L23.2776 40.7869L23.5 41.0324L23.7224 40.7869L23.5 40.5855ZM3.8393 21.1221L3.61694 21.3235L3.8393 21.1221ZM4.38185 5.83562L4.58937 6.05227L4.38185 5.83562ZM22.9418 42.2131L22.7194 42.4144L22.8087 42.5131H22.9418V42.2131ZM24.0582 42.2131V42.5131H24.1913L24.2806 42.4144L24.0582 42.2131ZM43.1607 21.1221L42.9383 20.9207L43.1607 21.1221ZM42.6181 5.83562L42.8257 5.61897L42.6181 5.83562ZM25.9473 7.60542L25.6989 7.43717L25.9473 7.60542ZM23.5 11.2183L23.2516 11.3865L23.5 11.7532L23.7484 11.3865L23.5 11.2183ZM21.0527 7.60542L21.3011 7.43717L21.0527 7.60542ZM18.4344 22.0672L18.5967 22.3196L18.6708 22.2719L18.7074 22.1916L18.4344 22.0672ZM19.8586 18.9417L20.1362 18.8281L19.8733 18.1859L19.5856 18.8173L19.8586 18.9417ZM17.749 22.5081V22.8081H17.8372L17.9113 22.7604L17.749 22.5081ZM13.7626 22.5081H13.4626V22.8081H13.7626V22.5081ZM13.7626 21.0018V20.7018H13.4626V21.0018H13.7626ZM17.2646 21.0018V21.3018H17.4575L17.5376 21.1262L17.2646 21.0018ZM19.2102 16.7318L19.2161 16.4319L19.019 16.428L18.9372 16.6074L19.2102 16.7318ZM20.5926 16.7588L20.8702 16.6451L20.7956 16.4627L20.5985 16.4588L20.5926 16.7588ZM24.2014 25.5746L23.9238 25.6883L24.1964 26.3541L24.4776 25.6919L24.2014 25.5746ZM25.9486 21.4606L25.7831 21.2104L25.7078 21.2602L25.6725 21.3433L25.9486 21.4606ZM26.6419 21.0018V20.7018H26.5516L26.4763 20.7516L26.6419 21.0018ZM30.1297 21.0018V21.3018H30.3379L30.4108 21.1067L30.1297 21.0018ZM30.1054 22.5081L30.3897 22.4124L30.321 22.2081H30.1054V22.5081ZM27.1403 22.5081V22.2081H26.9417L26.8641 22.3908L27.1403 22.5081ZM24.8819 27.8259L24.8799 28.1259L25.0799 28.1272L25.158 27.9432L24.8819 27.8259ZM23.4916 27.8168L23.214 27.9305L23.2898 28.1155L23.4897 28.1168L23.4916 27.8168ZM5.2163 6.70678C1.39875 10.3634 1.1847 16.3942 4.7334 20.3123L5.17811 19.9095C1.84748 16.2322 2.04838 10.572 5.63133 7.14007L5.2163 6.70678ZM20.0539 8.28196C16.6628 3.27576 9.58295 2.52415 5.2163 6.70678L5.63133 7.14007C9.72965 3.21447 16.3744 3.91989 19.5572 8.61846L20.0539 8.28196ZM23.1248 12.8153L20.0539 8.28196L19.5572 8.61846L22.6281 13.1518L23.1248 12.8153ZM24.1236 12.6836H22.8764V13.2836H24.1236V12.6836ZM26.946 8.28196L23.8752 12.8153L24.3719 13.1518L27.4428 8.61846L26.946 8.28196ZM41.7837 6.70678C37.417 2.52415 30.3372 3.27576 26.946 8.28196L27.4428 8.61846C30.6256 3.91989 37.2704 3.21447 41.3687 7.14007L41.7837 6.70678ZM42.2666 20.3123C45.8153 16.3942 45.6012 10.3634 41.7837 6.70678L41.3687 7.14007C44.9516 10.572 45.1525 16.2322 41.8219 19.9095L42.2666 20.3123ZM23.7224 40.7869L42.2666 20.3123L41.8219 19.9095L23.2776 40.3841L23.7224 40.7869ZM4.7334 20.3123L23.2776 40.7869L23.7224 40.3841L5.17811 19.9095L4.7334 20.3123ZM4.06165 20.9207C0.183541 16.6389 0.417462 10.0484 4.58937 6.05227L4.17434 5.61897C-0.232166 9.83977 -0.479241 16.8009 3.61694 21.3235L4.06165 20.9207ZM23.1641 42.0117L4.06165 20.9207L3.61694 21.3235L22.7194 42.4144L23.1641 42.0117ZM24.0582 41.9131H22.9418V42.5131H24.0582V41.9131ZM42.9383 20.9207L23.8359 42.0117L24.2806 42.4144L43.3831 21.3235L42.9383 20.9207ZM42.4106 6.05227C46.5825 10.0484 46.8165 16.6389 42.9383 20.9207L43.3831 21.3235C47.4792 16.8009 47.2322 9.83977 42.8257 5.61897L42.4106 6.05227ZM26.1957 7.77367C29.9016 2.30277 37.6386 1.48139 42.4106 6.05227L42.8257 5.61897C37.7853 0.791067 29.6132 1.65863 25.6989 7.43717L26.1957 7.77367ZM23.7484 11.3865L26.1957 7.77367L25.6989 7.43717L23.2516 11.05L23.7484 11.3865ZM20.8043 7.77367L23.2516 11.3865L23.7484 11.05L21.3011 7.43717L20.8043 7.77367ZM4.58937 6.05227C9.36136 1.48139 17.0984 2.30277 20.8043 7.77367L21.3011 7.43717C17.3868 1.65863 9.21466 0.79107 4.17434 5.61897L4.58937 6.05227ZM18.7074 22.1916L20.1316 19.0661L19.5856 18.8173L18.1614 21.9429L18.7074 22.1916ZM17.9113 22.7604L18.5967 22.3196L18.2721 21.8149L17.5867 22.2558L17.9113 22.7604ZM13.7626 22.8081H17.749V22.2081H13.7626V22.8081ZM13.4626 21.0018V22.5081H14.0626V21.0018H13.4626ZM17.2646 20.7018H13.7626V21.3018H17.2646V20.7018ZM18.9372 16.6074L16.9916 20.8774L17.5376 21.1262L19.4832 16.8562L18.9372 16.6074ZM20.5985 16.4588L19.2161 16.4319L19.2044 17.0317L20.5868 17.0587L20.5985 16.4588ZM24.4791 25.461L20.8702 16.6451L20.315 16.8724L23.9238 25.6883L24.4791 25.461ZM25.6725 21.3433L23.9253 25.4574L24.4776 25.6919L26.2248 21.5778L25.6725 21.3433ZM26.4763 20.7516L25.7831 21.2104L26.1142 21.7107L26.8074 21.252L26.4763 20.7516ZM30.1297 20.7018H26.6419V21.3018H30.1297V20.7018ZM32.2395 19.2378C31.1439 19.2378 30.2103 19.9283 29.8487 20.8969L30.4108 21.1067C30.6876 20.3651 31.4024 19.8378 32.2395 19.8378V19.2378ZM34.7909 21.7892C34.7909 20.3801 33.6486 19.2378 32.2395 19.2378V19.8378C33.3173 19.8378 34.1909 20.7114 34.1909 21.7892H34.7909ZM32.2395 24.3405C33.6486 24.3405 34.7909 23.1982 34.7909 21.7892H34.1909C34.1909 22.8669 33.3173 23.7405 32.2395 23.7405V24.3405ZM29.8211 22.6039C30.161 23.613 31.1149 24.3405 32.2395 24.3405V23.7405C31.3802 23.7405 30.6499 23.1848 30.3897 22.4124L29.8211 22.6039ZM27.1403 22.8081H30.1054V22.2081H27.1403V22.8081ZM25.158 27.9432L27.4164 22.6254L26.8641 22.3908L24.6058 27.7086L25.158 27.9432ZM23.4897 28.1168L24.8799 28.1259L24.8839 27.5259L23.4936 27.5168L23.4897 28.1168ZM19.5809 19.0554L23.214 27.9305L23.7693 27.7032L20.1362 18.8281L19.5809 19.0554ZM31.7945 21.7892C31.7945 21.5434 31.9938 21.3441 32.2395 21.3441V20.7441C31.6624 20.7441 31.1945 21.212 31.1945 21.7892H31.7945ZM32.2395 22.2342C31.9938 22.2342 31.7945 22.0349 31.7945 21.7892H31.1945C31.1945 22.3663 31.6624 22.8342 32.2395 22.8342V22.2342ZM32.6846 21.7892C32.6846 22.0349 32.4853 22.2342 32.2395 22.2342V22.8342C32.8167 22.8342 33.2846 22.3663 33.2846 21.7892H32.6846ZM32.2395 21.3441C32.4853 21.3441 32.6846 21.5434 32.6846 21.7892H33.2846C33.2846 21.212 32.8167 20.7441 32.2395 20.7441V21.3441Z" fill="#221F20" mask="url(#path-1-outside-1_459_49412)"/>
</svg>
