<svg width="56" height="54" viewBox="0 0 56 54" fill="none" xmlns="http://www.w3.org/2000/svg">
<mask id="path-1-outside-1_459_49394" maskUnits="userSpaceOnUse" x="0" y="2.34424" width="56" height="49" fill="black">
<rect fill="white" y="2.34424" width="56" height="49"/>
<path fill-rule="evenodd" clip-rule="evenodd" d="M5.74691 24.1328C1.6193 19.5755 1.86827 12.561 6.30858 8.30782C11.3876 3.44288 19.6223 4.3171 23.5667 10.14L27.2517 15.58H28.7483L32.4333 10.14C36.3777 4.3171 44.6124 3.44288 49.6914 8.30782C54.1317 12.561 54.3807 19.5755 50.2531 24.1328L28 48.7023L5.74691 24.1328ZM5.05823 7.00245C-0.0888224 11.9326 -0.37742 20.0636 4.40716 25.3462L27.3301 50.6554H28.6699L51.5928 25.3462C56.3774 20.0636 56.0888 11.9326 50.9418 7.00245C45.0544 1.36318 35.5089 2.37655 30.9368 9.12621L28 13.4616L25.0632 9.12621C20.4911 2.37654 10.9456 1.36319 5.05823 7.00245ZM23.6302 22.7277L21.9212 26.4783L21.0987 27.0073H16.315V25.1998H20.5174L22.8522 20.0758L24.511 20.1081L28.8416 30.6872L30.9382 25.7503L31.7701 25.1998H35.9551C36.3383 24.1738 37.3272 23.4433 38.4868 23.4433C39.9789 23.4433 41.1884 24.6528 41.1884 26.1449C41.1884 27.637 39.9789 28.8465 38.4868 28.8465C37.2963 28.8465 36.2856 28.0765 35.9257 27.0073H32.3682L29.6582 33.3887L27.9899 33.3778L23.6302 22.7277ZM38.4868 25.2509C37.993 25.2509 37.5927 25.6511 37.5927 26.1449C37.5927 26.6387 37.993 27.039 38.4868 27.039C38.9805 27.039 39.3808 26.6387 39.3808 26.1449C39.3808 25.6511 38.9805 25.2509 38.4868 25.2509Z"/>
</mask>
<path fill-rule="evenodd" clip-rule="evenodd" d="M5.74691 24.1328C1.6193 19.5755 1.86827 12.561 6.30858 8.30782C11.3876 3.44288 19.6223 4.3171 23.5667 10.14L27.2517 15.58H28.7483L32.4333 10.14C36.3777 4.3171 44.6124 3.44288 49.6914 8.30782C54.1317 12.561 54.3807 19.5755 50.2531 24.1328L28 48.7023L5.74691 24.1328ZM5.05823 7.00245C-0.0888224 11.9326 -0.37742 20.0636 4.40716 25.3462L27.3301 50.6554H28.6699L51.5928 25.3462C56.3774 20.0636 56.0888 11.9326 50.9418 7.00245C45.0544 1.36318 35.5089 2.37655 30.9368 9.12621L28 13.4616L25.0632 9.12621C20.4911 2.37654 10.9456 1.36319 5.05823 7.00245ZM23.6302 22.7277L21.9212 26.4783L21.0987 27.0073H16.315V25.1998H20.5174L22.8522 20.0758L24.511 20.1081L28.8416 30.6872L30.9382 25.7503L31.7701 25.1998H35.9551C36.3383 24.1738 37.3272 23.4433 38.4868 23.4433C39.9789 23.4433 41.1884 24.6528 41.1884 26.1449C41.1884 27.637 39.9789 28.8465 38.4868 28.8465C37.2963 28.8465 36.2856 28.0765 35.9257 27.0073H32.3682L29.6582 33.3887L27.9899 33.3778L23.6302 22.7277ZM38.4868 25.2509C37.993 25.2509 37.5927 25.6511 37.5927 26.1449C37.5927 26.6387 37.993 27.039 38.4868 27.039C38.9805 27.039 39.3808 26.6387 39.3808 26.1449C39.3808 25.6511 38.9805 25.2509 38.4868 25.2509Z" fill="#F1E4C7"/>
<path d="M6.30858 8.30782L6.10106 8.09117L6.30858 8.30782ZM5.74691 24.1328L5.52455 24.3342L5.74691 24.1328ZM23.5667 10.14L23.8151 9.97171L23.5667 10.14ZM27.2517 15.58L27.0033 15.7483L27.0926 15.88H27.2517V15.58ZM28.7483 15.58V15.88H28.9074L28.9967 15.7483L28.7483 15.58ZM32.4333 10.14L32.6817 10.3082L32.4333 10.14ZM49.6914 8.30782L49.8989 8.09117V8.09117L49.6914 8.30782ZM50.2531 24.1328L50.4754 24.3342L50.2531 24.1328ZM28 48.7023L27.7776 48.9037L28 49.1492L28.2224 48.9037L28 48.7023ZM4.40716 25.3462L4.1848 25.5476L4.40716 25.3462ZM5.05823 7.00245L5.26574 7.2191L5.05823 7.00245ZM27.3301 50.6554L27.1078 50.8568L27.1971 50.9554H27.3301V50.6554ZM28.6699 50.6554V50.9554H28.8029L28.8922 50.8568L28.6699 50.6554ZM51.5928 25.3462L51.3705 25.1448L51.5928 25.3462ZM50.9418 7.00245L50.7343 7.2191L50.9418 7.00245ZM30.9368 9.12621L31.1851 9.29446L30.9368 9.12621ZM28 13.4616L27.7516 13.6299L28 13.9965L28.2484 13.6299L28 13.4616ZM25.0632 9.12621L25.3116 8.95796L25.0632 9.12621ZM21.9212 26.4783L22.0835 26.7306L22.1576 26.6829L22.1942 26.6027L21.9212 26.4783ZM23.6302 22.7277L23.9078 22.614L23.6449 21.9718L23.3572 22.6033L23.6302 22.7277ZM21.0987 27.0073V27.3073H21.1869L21.261 27.2596L21.0987 27.0073ZM16.315 27.0073H16.015V27.3073H16.315V27.0073ZM16.315 25.1998V24.8998H16.015V25.1998H16.315ZM20.5174 25.1998V25.4998H20.7103L20.7904 25.3242L20.5174 25.1998ZM22.8522 20.0758L22.858 19.7758L22.6609 19.772L22.5792 19.9514L22.8522 20.0758ZM24.511 20.1081L24.7887 19.9945L24.714 19.812L24.5169 19.8082L24.511 20.1081ZM28.8416 30.6872L28.564 30.8008L28.8365 31.4666L29.1177 30.8044L28.8416 30.6872ZM30.9382 25.7503L30.7727 25.5001L30.6974 25.5499L30.6621 25.633L30.9382 25.7503ZM31.7701 25.1998V24.8998H31.6798L31.6046 24.9496L31.7701 25.1998ZM35.9551 25.1998V25.4998H36.1633L36.2361 25.3047L35.9551 25.1998ZM35.9257 27.0073L36.2101 26.9116L36.1413 26.7073H35.9257V27.0073ZM32.3682 27.0073V26.7073H32.1697L32.0921 26.8901L32.3682 27.0073ZM29.6582 33.3887L29.6562 33.6887L29.8561 33.69L29.9343 33.5059L29.6582 33.3887ZM27.9899 33.3778L27.7122 33.4914L27.788 33.6765L27.9879 33.6778L27.9899 33.3778ZM6.10106 8.09117C1.54346 12.4567 1.28791 19.6565 5.52455 24.3342L5.96926 23.9314C1.9507 19.4945 2.19309 12.6653 6.51609 8.52446L6.10106 8.09117ZM23.8151 9.97171C19.7665 3.99503 11.3142 3.09772 6.10106 8.09117L6.51609 8.52446C11.4609 3.78804 19.4782 4.63916 23.3183 10.3082L23.8151 9.97171ZM27.5001 15.4118L23.8151 9.97171L23.3183 10.3082L27.0033 15.7483L27.5001 15.4118ZM28.7483 15.28H27.2517V15.88H28.7483V15.28ZM32.1849 9.97171L28.4999 15.4118L28.9967 15.7483L32.6817 10.3082L32.1849 9.97171ZM49.8989 8.09117C44.6858 3.09772 36.2335 3.99503 32.1849 9.97171L32.6817 10.3082C36.5218 4.63917 44.5391 3.78804 49.4839 8.52447L49.8989 8.09117ZM50.4754 24.3342C54.7121 19.6565 54.4565 12.4567 49.8989 8.09117L49.4839 8.52447C53.8069 12.6653 54.0493 19.4945 50.0307 23.9314L50.4754 24.3342ZM28.2224 48.9037L50.4754 24.3342L50.0307 23.9314L27.7776 48.5009L28.2224 48.9037ZM5.52455 24.3342L27.7776 48.9037L28.2224 48.5009L5.96926 23.9314L5.52455 24.3342ZM4.62951 25.1448C-0.0460286 19.9826 0.235992 12.0369 5.26574 7.2191L4.85071 6.7858C-0.413637 11.8283 -0.708812 20.1446 4.1848 25.5476L4.62951 25.1448ZM27.5525 50.454L4.62951 25.1448L4.1848 25.5476L27.1078 50.8568L27.5525 50.454ZM28.6699 50.3554H27.3301V50.9554H28.6699V50.3554ZM51.3705 25.1448L28.4475 50.454L28.8922 50.8568L51.8152 25.5476L51.3705 25.1448ZM50.7343 7.2191C55.764 12.0369 56.046 19.9826 51.3705 25.1448L51.8152 25.5476C56.7088 20.1446 56.4136 11.8283 51.1493 6.7858L50.7343 7.2191ZM31.1851 9.29446C35.6531 2.69862 44.981 1.70834 50.7343 7.2191L51.1493 6.7858C45.1277 1.01802 35.3647 2.05448 30.6884 8.95796L31.1851 9.29446ZM28.2484 13.6299L31.1851 9.29446L30.6884 8.95796L27.7516 13.2934L28.2484 13.6299ZM24.8149 9.29446L27.7516 13.6299L28.2484 13.2934L25.3116 8.95796L24.8149 9.29446ZM5.26574 7.2191C11.019 1.70835 20.3469 2.69861 24.8149 9.29446L25.3116 8.95796C20.6353 2.05447 10.8723 1.01802 4.85071 6.7858L5.26574 7.2191ZM22.1942 26.6027L23.9032 22.8521L23.3572 22.6033L21.6482 26.3539L22.1942 26.6027ZM21.261 27.2596L22.0835 26.7306L21.7589 26.226L20.9364 26.755L21.261 27.2596ZM16.315 27.3073H21.0987V26.7073H16.315V27.3073ZM16.015 25.1998V27.0073H16.615V25.1998H16.015ZM20.5174 24.8998H16.315V25.4998H20.5174V24.8998ZM22.5792 19.9514L20.2444 25.0754L20.7904 25.3242L23.1251 20.2002L22.5792 19.9514ZM24.5169 19.8082L22.858 19.7758L22.8463 20.3757L24.5052 20.4081L24.5169 19.8082ZM29.1193 30.5735L24.7887 19.9945L24.2334 20.2218L28.564 30.8008L29.1193 30.5735ZM30.6621 25.633L28.5655 30.5699L29.1177 30.8044L31.2144 25.8675L30.6621 25.633ZM31.6046 24.9496L30.7727 25.5001L31.1038 26.0004L31.9357 25.4499L31.6046 24.9496ZM35.9551 24.8998H31.7701V25.4998H35.9551V24.8998ZM38.4868 23.1433C37.198 23.1433 36.0996 23.9554 35.6741 25.0948L36.2361 25.3047C36.5769 24.3922 37.4565 23.7433 38.4868 23.7433V23.1433ZM41.4884 26.1449C41.4884 24.4872 40.1445 23.1433 38.4868 23.1433V23.7433C39.8132 23.7433 40.8884 24.8185 40.8884 26.1449H41.4884ZM38.4868 29.1465C40.1445 29.1465 41.4884 27.8027 41.4884 26.1449H40.8884C40.8884 27.4713 39.8132 28.5465 38.4868 28.5465V29.1465ZM35.6414 27.103C36.0412 28.2906 37.1636 29.1465 38.4868 29.1465V28.5465C37.4289 28.5465 36.5301 27.8624 36.2101 26.9116L35.6414 27.103ZM32.3682 27.3073H35.9257V26.7073H32.3682V27.3073ZM29.9343 33.5059L32.6443 27.1246L32.0921 26.8901L29.382 33.2714L29.9343 33.5059ZM27.9879 33.6778L29.6562 33.6887L29.6601 33.0887L27.9918 33.0778L27.9879 33.6778ZM23.3525 22.8413L27.7122 33.4914L28.2675 33.2641L23.9078 22.614L23.3525 22.8413ZM37.8927 26.1449C37.8927 25.8168 38.1587 25.5509 38.4868 25.5509V24.9509C37.8273 24.9509 37.2927 25.4855 37.2927 26.1449H37.8927ZM38.4868 26.739C38.1587 26.739 37.8927 26.473 37.8927 26.1449H37.2927C37.2927 26.8044 37.8273 27.339 38.4868 27.339V26.739ZM39.0808 26.1449C39.0808 26.473 38.8149 26.739 38.4868 26.739V27.339C39.1462 27.339 39.6808 26.8044 39.6808 26.1449H39.0808ZM38.4868 25.5509C38.8149 25.5509 39.0808 25.8168 39.0808 26.1449H39.6808C39.6808 25.4855 39.1462 24.9509 38.4868 24.9509V25.5509Z" fill="#F1E4C7" mask="url(#path-1-outside-1_459_49394)"/>
</svg>
