<svg width="56" height="54" viewBox="0 0 56 54" fill="none" xmlns="http://www.w3.org/2000/svg">
<mask id="path-1-outside-1_459_49406" maskUnits="userSpaceOnUse" x="0" y="2.34448" width="56" height="49" fill="black">
<rect fill="white" y="2.34448" width="56" height="49"/>
<path fill-rule="evenodd" clip-rule="evenodd" d="M5.74691 24.133C1.6193 19.5758 1.86827 12.5612 6.30858 8.30806C11.3876 3.44313 19.6223 4.31734 23.5667 10.1402L27.2517 15.5803H28.7483L32.4333 10.1402C36.3777 4.31734 44.6124 3.44313 49.6914 8.30806C54.1317 12.5612 54.3807 19.5758 50.2531 24.133L28 48.7026L5.74691 24.133ZM5.05823 7.0027C-0.0888224 11.9328 -0.37742 20.0638 4.40716 25.3465L27.3301 50.6556H28.6699L51.5928 25.3465C56.3774 20.0639 56.0888 11.9328 50.9418 7.00269C45.0544 1.36343 35.5089 2.37679 30.9368 9.12646L28 13.4619L25.0632 9.12645C20.4911 2.37679 10.9456 1.36343 5.05823 7.0027ZM23.6302 22.7279L21.9212 26.4785L21.0987 27.0076H16.315V25.2H20.5174L22.8522 20.076L24.511 20.1084L28.8416 30.6874L30.9382 25.7505L31.7701 25.2H35.9551C36.3383 24.1741 37.3272 23.4435 38.4868 23.4435C39.9789 23.4435 41.1884 24.6531 41.1884 26.1452C41.1884 27.6372 39.9789 28.8468 38.4868 28.8468C37.2963 28.8468 36.2856 28.0768 35.9257 27.0076H32.3682L29.6582 33.3889L27.9899 33.378L23.6302 22.7279ZM38.4868 25.2511C37.993 25.2511 37.5927 25.6514 37.5927 26.1452C37.5927 26.6389 37.993 27.0392 38.4868 27.0392C38.9805 27.0392 39.3808 26.6389 39.3808 26.1452C39.3808 25.6514 38.9805 25.2511 38.4868 25.2511Z"/>
</mask>
<path fill-rule="evenodd" clip-rule="evenodd" d="M5.74691 24.133C1.6193 19.5758 1.86827 12.5612 6.30858 8.30806C11.3876 3.44313 19.6223 4.31734 23.5667 10.1402L27.2517 15.5803H28.7483L32.4333 10.1402C36.3777 4.31734 44.6124 3.44313 49.6914 8.30806C54.1317 12.5612 54.3807 19.5758 50.2531 24.133L28 48.7026L5.74691 24.133ZM5.05823 7.0027C-0.0888224 11.9328 -0.37742 20.0638 4.40716 25.3465L27.3301 50.6556H28.6699L51.5928 25.3465C56.3774 20.0639 56.0888 11.9328 50.9418 7.00269C45.0544 1.36343 35.5089 2.37679 30.9368 9.12646L28 13.4619L25.0632 9.12645C20.4911 2.37679 10.9456 1.36343 5.05823 7.0027ZM23.6302 22.7279L21.9212 26.4785L21.0987 27.0076H16.315V25.2H20.5174L22.8522 20.076L24.511 20.1084L28.8416 30.6874L30.9382 25.7505L31.7701 25.2H35.9551C36.3383 24.1741 37.3272 23.4435 38.4868 23.4435C39.9789 23.4435 41.1884 24.6531 41.1884 26.1452C41.1884 27.6372 39.9789 28.8468 38.4868 28.8468C37.2963 28.8468 36.2856 28.0768 35.9257 27.0076H32.3682L29.6582 33.3889L27.9899 33.378L23.6302 22.7279ZM38.4868 25.2511C37.993 25.2511 37.5927 25.6514 37.5927 26.1452C37.5927 26.6389 37.993 27.0392 38.4868 27.0392C38.9805 27.0392 39.3808 26.6389 39.3808 26.1452C39.3808 25.6514 38.9805 25.2511 38.4868 25.2511Z" fill="#221F20"/>
<path d="M6.30858 8.30806L6.10106 8.09141L6.30858 8.30806ZM5.74691 24.133L5.52455 24.3344L5.74691 24.133ZM23.5667 10.1402L23.8151 9.97195L23.5667 10.1402ZM27.2517 15.5803L27.0033 15.7485L27.0926 15.8803H27.2517V15.5803ZM28.7483 15.5803V15.8803H28.9074L28.9967 15.7485L28.7483 15.5803ZM32.4333 10.1402L32.6817 10.3085L32.4333 10.1402ZM49.6914 8.30806L49.8989 8.09141V8.09141L49.6914 8.30806ZM50.2531 24.133L50.4754 24.3344L50.2531 24.133ZM28 48.7026L27.7776 48.904L28 49.1495L28.2224 48.904L28 48.7026ZM4.40716 25.3465L4.1848 25.5479L4.40716 25.3465ZM5.05823 7.0027L5.26574 7.21934L5.05823 7.0027ZM27.3301 50.6556L27.1078 50.857L27.1971 50.9556H27.3301V50.6556ZM28.6699 50.6556V50.9556H28.8029L28.8922 50.857L28.6699 50.6556ZM51.5928 25.3465L51.3705 25.1451L51.5928 25.3465ZM50.9418 7.00269L50.7343 7.21934L50.9418 7.00269ZM30.9368 9.12646L31.1851 9.29471L30.9368 9.12646ZM28 13.4619L27.7516 13.6301L28 13.9968L28.2484 13.6301L28 13.4619ZM25.0632 9.12645L25.3116 8.9582L25.0632 9.12645ZM21.9212 26.4785L22.0835 26.7309L22.1576 26.6832L22.1942 26.6029L21.9212 26.4785ZM23.6302 22.7279L23.9078 22.6143L23.6449 21.9721L23.3572 22.6035L23.6302 22.7279ZM21.0987 27.0076V27.3076H21.1869L21.261 27.2599L21.0987 27.0076ZM16.315 27.0076H16.015V27.3076H16.315V27.0076ZM16.315 25.2V24.9H16.015V25.2H16.315ZM20.5174 25.2V25.5H20.7103L20.7904 25.3244L20.5174 25.2ZM22.8522 20.076L22.858 19.7761L22.6609 19.7722L22.5792 19.9516L22.8522 20.076ZM24.511 20.1084L24.7887 19.9947L24.714 19.8123L24.5169 19.8084L24.511 20.1084ZM28.8416 30.6874L28.564 30.8011L28.8365 31.4669L29.1177 30.8047L28.8416 30.6874ZM30.9382 25.7505L30.7727 25.5003L30.6974 25.5501L30.6621 25.6332L30.9382 25.7505ZM31.7701 25.2V24.9H31.6798L31.6046 24.9498L31.7701 25.2ZM35.9551 25.2V25.5H36.1633L36.2361 25.305L35.9551 25.2ZM35.9257 27.0076L36.2101 26.9119L36.1413 26.7076H35.9257V27.0076ZM32.3682 27.0076V26.7076H32.1697L32.0921 26.8903L32.3682 27.0076ZM29.6582 33.3889L29.6562 33.6889L29.8561 33.6902L29.9343 33.5062L29.6582 33.3889ZM27.9899 33.378L27.7122 33.4917L27.788 33.6767L27.9879 33.678L27.9899 33.378ZM6.10106 8.09141C1.54346 12.4569 1.28791 19.6568 5.52455 24.3344L5.96926 23.9317C1.9507 19.4948 2.19309 12.6655 6.51609 8.52471L6.10106 8.09141ZM23.8151 9.97195C19.7665 3.99527 11.3142 3.09796 6.10106 8.09141L6.51609 8.52471C11.4609 3.78829 19.4782 4.63941 23.3183 10.3085L23.8151 9.97195ZM27.5001 15.412L23.8151 9.97195L23.3183 10.3085L27.0033 15.7485L27.5001 15.412ZM28.7483 15.2803H27.2517V15.8803H28.7483V15.2803ZM32.1849 9.97196L28.4999 15.412L28.9967 15.7485L32.6817 10.3085L32.1849 9.97196ZM49.8989 8.09141C44.6858 3.09796 36.2335 3.99527 32.1849 9.97196L32.6817 10.3085C36.5218 4.63941 44.5391 3.78829 49.4839 8.52471L49.8989 8.09141ZM50.4754 24.3344C54.7121 19.6568 54.4565 12.4569 49.8989 8.09141L49.4839 8.52471C53.8069 12.6655 54.0493 19.4948 50.0307 23.9317L50.4754 24.3344ZM28.2224 48.904L50.4754 24.3344L50.0307 23.9317L27.7776 48.5012L28.2224 48.904ZM5.52455 24.3344L27.7776 48.904L28.2224 48.5012L5.96926 23.9317L5.52455 24.3344ZM4.62951 25.1451C-0.0460286 19.9828 0.235992 12.0371 5.26574 7.21934L4.85071 6.78605C-0.413637 11.8285 -0.708812 20.1449 4.1848 25.5479L4.62951 25.1451ZM27.5525 50.4542L4.62951 25.1451L4.1848 25.5479L27.1078 50.857L27.5525 50.4542ZM28.6699 50.3556H27.3301V50.9556H28.6699V50.3556ZM51.3705 25.1451L28.4475 50.4542L28.8922 50.857L51.8152 25.5479L51.3705 25.1451ZM50.7343 7.21934C55.764 12.0371 56.046 19.9828 51.3705 25.1451L51.8152 25.5479C56.7088 20.1449 56.4136 11.8285 51.1493 6.78605L50.7343 7.21934ZM31.1851 9.29471C35.6531 2.69886 44.981 1.70859 50.7343 7.21934L51.1493 6.78605C45.1277 1.01826 35.3647 2.05472 30.6884 8.95821L31.1851 9.29471ZM28.2484 13.6301L31.1851 9.29471L30.6884 8.95821L27.7516 13.2936L28.2484 13.6301ZM24.8149 9.2947L27.7516 13.6301L28.2484 13.2936L25.3116 8.9582L24.8149 9.2947ZM5.26574 7.21934C11.019 1.70859 20.3469 2.69886 24.8149 9.2947L25.3116 8.9582C20.6353 2.05472 10.8723 1.01827 4.85071 6.78605L5.26574 7.21934ZM22.1942 26.6029L23.9032 22.8523L23.3572 22.6035L21.6482 26.3542L22.1942 26.6029ZM21.261 27.2599L22.0835 26.7309L21.7589 26.2262L20.9364 26.7553L21.261 27.2599ZM16.315 27.3076H21.0987V26.7076H16.315V27.3076ZM16.015 25.2V27.0076H16.615V25.2H16.015ZM20.5174 24.9H16.315V25.5H20.5174V24.9ZM22.5792 19.9516L20.2444 25.0756L20.7904 25.3244L23.1251 20.2004L22.5792 19.9516ZM24.5169 19.8084L22.858 19.7761L22.8463 20.376L24.5052 20.4083L24.5169 19.8084ZM29.1193 30.5738L24.7887 19.9947L24.2334 20.222L28.564 30.8011L29.1193 30.5738ZM30.6621 25.6332L28.5655 30.5701L29.1177 30.8047L31.2144 25.8678L30.6621 25.6332ZM31.6046 24.9498L30.7727 25.5003L31.1038 26.0007L31.9357 25.4502L31.6046 24.9498ZM35.9551 24.9H31.7701V25.5H35.9551V24.9ZM38.4868 23.1435C37.198 23.1435 36.0996 23.9556 35.6741 25.095L36.2361 25.305C36.5769 24.3925 37.4565 23.7435 38.4868 23.7435V23.1435ZM41.4884 26.1452C41.4884 24.4874 40.1445 23.1435 38.4868 23.1435V23.7435C39.8132 23.7435 40.8884 24.8188 40.8884 26.1452H41.4884ZM38.4868 29.1468C40.1445 29.1468 41.4884 27.8029 41.4884 26.1452H40.8884C40.8884 27.4715 39.8132 28.5468 38.4868 28.5468V29.1468ZM35.6414 27.1033C36.0412 28.2908 37.1636 29.1468 38.4868 29.1468V28.5468C37.4289 28.5468 36.5301 27.8627 36.2101 26.9119L35.6414 27.1033ZM32.3682 27.3076H35.9257V26.7076H32.3682V27.3076ZM29.9343 33.5062L32.6443 27.1249L32.0921 26.8903L29.382 33.2716L29.9343 33.5062ZM27.9879 33.678L29.6562 33.6889L29.6601 33.0889L27.9918 33.078L27.9879 33.678ZM23.3525 22.8416L27.7122 33.4917L28.2675 33.2644L23.9078 22.6143L23.3525 22.8416ZM37.8927 26.1452C37.8927 25.8171 38.1587 25.5511 38.4868 25.5511V24.9511C37.8273 24.9511 37.2927 25.4857 37.2927 26.1452H37.8927ZM38.4868 26.7392C38.1587 26.7392 37.8927 26.4732 37.8927 26.1452H37.2927C37.2927 26.8046 37.8273 27.3392 38.4868 27.3392V26.7392ZM39.0808 26.1452C39.0808 26.4732 38.8149 26.7392 38.4868 26.7392V27.3392C39.1462 27.3392 39.6808 26.8046 39.6808 26.1452H39.0808ZM38.4868 25.5511C38.8149 25.5511 39.0808 25.8171 39.0808 26.1452H39.6808C39.6808 25.4857 39.1462 24.9511 38.4868 24.9511V25.5511Z" fill="#221F20" mask="url(#path-1-outside-1_459_49406)"/>
</svg>
