<svg width="54" height="54" viewBox="0 0 54 54" fill="none" xmlns="http://www.w3.org/2000/svg">
<path d="M30.0735 41.3841L23.2745 47.3738L24.4513 39.8547L22.0978 37.4334L20.0057 51.3245L17.9137 50.9422L20.2672 35.5217L18.0445 33.1003L15.168 51.8343L16.214 53.3636L20.921 54.0008L22.49 52.9812L22.6208 51.3245L34.6498 40.7468L30.0735 41.3841Z" fill="#221F20"/>
<path d="M53.3462 29.7884L52.0387 28.8963C52.431 23.034 51.7772 13.9856 49.293 9.90748C46.8087 5.7019 40.7942 1.114 33.2107 0.349353C17.7821 -1.30739 8.10654 2.89819 3.66102 13.3484C2.74576 15.3875 2.22276 17.9363 1.96126 19.4656H1.69976L0.261501 20.6126L0 25.2005L1.17676 26.6023L16.7361 28.0042L26.8039 38.7093L27.9806 39.0916L52.8232 35.9056L54 34.5037L53.3462 29.7884ZM6.01453 14.3679C8.49879 8.50562 14.1211 0.85912 32.9492 2.89819C39.6174 3.66284 44.8475 7.74097 47.0702 11.3093C49.293 15.0051 49.9467 23.7986 49.4237 29.1512L30.3341 31.5726L21.1816 21.7596L20.3971 21.2498L4.57627 19.7205C4.83777 18.1912 5.36077 16.0247 6.01453 14.3679ZM28.2421 36.4153L18.3051 25.8377L17.5206 25.4554L2.74576 24.1809V22.1419L19.6126 23.7986L28.8959 33.7391L30.0726 34.1214L50.862 31.4451L51.1235 33.4842L28.2421 36.4153Z" fill="#221F20"/>
</svg>
