<svg width="54" height="54" viewBox="0 0 54 54" fill="none" xmlns="http://www.w3.org/2000/svg">
<path d="M30.0735 41.3838L23.2745 47.3736L24.4513 39.8545L22.0978 37.4331L20.0057 51.3243L17.9137 50.9419L20.2672 35.5215L18.0445 33.1001L15.168 51.834L16.214 53.3633L20.921 54.0005L22.49 52.981L22.6208 51.3243L34.6498 40.7466L30.0735 41.3838Z" fill="#FFCC01"/>
<path d="M53.3462 29.7881L52.0387 28.896C52.431 23.0337 51.7772 13.9854 49.293 9.90723C46.8087 5.70166 40.7942 1.11376 33.2107 0.349109C17.7821 -1.30763 8.10654 2.89794 3.66102 13.3482C2.74576 15.3872 2.22276 17.9361 1.96126 19.4654H1.69976L0.261501 20.6123L0 25.2002L1.17676 26.6021L16.7361 28.0039L26.8039 38.709L27.9806 39.0914L52.8232 35.9053L54 34.5035L53.3462 29.7881ZM6.01453 14.3677C8.49879 8.50538 14.1211 0.858876 32.9492 2.89794C39.6174 3.66259 44.8475 7.74073 47.0702 11.3091C49.293 15.0049 49.9467 23.7984 49.4237 29.1509L30.3341 31.5723L21.1816 21.7593L20.3971 21.2495L4.57627 19.7202C4.83777 18.1909 5.36077 16.0244 6.01453 14.3677ZM28.2421 36.4151L18.3051 25.8374L17.5206 25.4551L2.74576 24.1807V22.1416L19.6126 23.7984L28.8959 33.7388L30.0726 34.1212L50.862 31.4449L51.1235 33.4839L28.2421 36.4151Z" fill="#FFCC01"/>
</svg>
