<svg width="45" height="45" viewBox="0 0 45 45" fill="none" xmlns="http://www.w3.org/2000/svg">
<path d="M25.058 34.4866L19.3922 39.4781L20.3728 33.2122L18.4115 31.1943L16.6682 42.7703L14.9249 42.4517L16.8861 29.6013L15.0338 27.5835L12.6367 43.1951L13.5084 44.4695L17.4309 45.0005L18.7384 44.1509L18.8474 42.7703L28.8716 33.9556L25.058 34.4866Z" fill="#F1E4C7"/>
<path d="M44.4552 24.8233L43.3656 24.0799C43.6925 19.1946 43.1477 11.6543 41.0775 8.25587C39.0073 4.75122 33.9952 0.92797 27.6755 0.290762C14.8184 -1.08986 6.75545 2.41479 3.05085 11.1233C2.28814 12.8225 1.8523 14.9466 1.63438 16.221H1.41647L0.217918 17.1768L0 21L0.98063 22.1682L13.9467 23.3365L22.3366 32.2574L23.3172 32.576L44.0194 29.9209L45 28.7527L44.4552 24.8233ZM5.01211 11.9729C7.08232 7.08765 11.7676 0.715567 27.4576 2.41479C33.0145 3.052 37.3729 6.45044 39.2252 9.42408C41.0775 12.5039 41.6223 19.8318 41.1864 24.2923L25.2785 26.3101L17.6513 18.1326L16.9976 17.7078L3.81356 16.4334C4.03148 15.159 4.46731 13.3535 5.01211 11.9729ZM23.5351 30.3458L15.2542 21.531L14.6005 21.2124L2.28814 20.1504V18.4512L16.3438 19.8318L24.0799 28.1155L25.0605 28.4341L42.385 26.2039L42.6029 27.9031L23.5351 30.3458Z" fill="#F1E4C7"/>
</svg>
