<svg width="54" height="54" viewBox="0 0 54 54" fill="none" xmlns="http://www.w3.org/2000/svg">
<mask id="path-1-inside-1_459_49213" fill="white">
<path d="M0 0H54V54H0V0Z"/>
</mask>
<path d="M0 0H54V54H0V0Z" fill="#F1E4C7"/>
<path d="M30.424 20.0667C29.9176 20.5867 29.9176 21.4134 30.424 21.9334L32.5563 24.0667C33.0761 24.5734 33.9024 24.5734 34.4221 24.0667L39.4464 19.0401C41.2722 23.0667 39.4864 27.8001 35.4616 29.6267C33.3693 30.5734 30.9704 30.5734 28.8648 29.6267L19.6558 38.8401C18.5497 39.9467 16.7639 39.9467 15.6577 38.8401C14.5516 37.7334 14.5516 35.9467 15.6577 34.8401L24.8667 25.6267C23.0409 21.6001 24.8267 16.8667 28.8514 15.0401C30.9438 14.0934 33.3426 14.0934 35.4483 15.0401L30.4374 20.0534L30.424 20.0667Z" stroke="#221F20" stroke-width="1.25" stroke-linecap="round" stroke-linejoin="round"/>
<path d="M0 0V-1H-1V0H0ZM54 0H55V-1H54V0ZM54 54V55H55V54H54ZM0 54H-1V55H0V54ZM0 1H54V-1H0V1ZM53 0V54H55V0H53ZM54 53H0V55H54V53ZM1 54V0H-1V54H1Z" fill="#221F20" mask="url(#path-1-inside-1_459_49213)"/>
</svg>
