<svg width="54" height="54" viewBox="0 0 54 54" fill="none" xmlns="http://www.w3.org/2000/svg">
<mask id="path-1-inside-1_459_49216" fill="white">
<path d="M0 0H54V54H0V0Z"/>
</mask>
<path d="M0 0H54V54H0V0Z" fill="#F1E4C7"/>
<path d="M35.6162 30.1596L35.5879 29.9109C36.398 37.1436 34.268 40.517 33.3164 41.6358C32.0135 43.1615 30.2008 43.9356 27.9179 43.9356C25.6351 43.9356 23.7827 43.1615 22.4798 41.6302C19.5229 38.1494 20.0497 31.7869 20.2819 29.9166L20.2479 30.2217M27.9293 16.1801C29.6513 16.1801 31.0505 14.7844 31.0505 13.0666C31.0505 11.3488 29.6513 9.94751 27.9293 9.94751C26.2072 9.94751 24.808 11.3432 24.808 13.061C24.808 14.7787 26.2072 16.1744 27.9293 16.1744V16.1801ZM36.296 29.7358L35.8032 28.6622C35.2877 27.6451 34.3813 25.7691 34.1774 25.1136C34.1094 24.8932 34.0018 24.4299 33.8828 23.8874L33.8658 23.8196C33.2994 21.3164 32.8575 19.6665 32.427 19.1579C31.8039 18.4233 29.9402 17.6662 27.8953 17.6662H27.8499C25.8333 17.6662 23.9866 18.4233 23.3635 19.1579C22.9273 19.6721 21.6018 25.1023 21.6018 25.1023L19.4492 29.521L20.8824 29.7923L23.2842 26.7297L24.6777 23.5314L24.8137 23.5654C24.8137 23.5654 24.6267 26.2268 24.5871 28.4926C24.5248 31.8321 24.5078 39.0931 24.5021 39.1383L27.0512 39.0987C27.0626 38.9462 27.6404 31.2049 27.6404 31.2049L28.1388 31.1936L28.4901 41.4381H31.0392C31.0392 41.4381 31.2657 32.5102 31.1978 28.4926C31.1581 26.2211 30.9712 23.588 30.9712 23.5654C30.9712 23.5314 30.9938 23.4975 31.0278 23.4919H31.0335C31.0675 23.4919 31.0958 23.5032 31.1071 23.5314L32.5006 26.7297C32.7499 27.3004 34.9025 29.7923 34.9025 29.7923L36.296 29.7301V29.7358Z" stroke="#221F20" stroke-width="1.16667" stroke-linecap="square" stroke-linejoin="bevel"/>
<path d="M0 0V-1H-1V0H0ZM54 0H55V-1H54V0ZM54 54V55H55V54H54ZM0 54H-1V55H0V54ZM0 1H54V-1H0V1ZM53 0V54H55V0H53ZM54 53H0V55H54V53ZM1 54V0H-1V54H1Z" fill="#221F20" mask="url(#path-1-inside-1_459_49216)"/>
</svg>
