<svg width="54" height="54" viewBox="0 0 54 54" fill="none" xmlns="http://www.w3.org/2000/svg">
<g clip-path="url(#clip0_459_49310)">
<path d="M26.9688 0.5C12.3584 0.5 0.46875 12.3897 0.46875 27C0.46875 41.6103 12.3584 53.5 26.9688 53.5C41.5791 53.5 53.4688 41.6103 53.4688 27C53.4688 12.3897 41.5791 0.5 26.9688 0.5ZM26.9688 50.85C13.8159 50.85 3.11875 40.1528 3.11875 27C3.11875 13.8472 13.8159 3.15 26.9688 3.15C40.1216 3.15 50.8187 13.8472 50.8187 27C50.8187 40.1528 40.1216 50.85 26.9688 50.85Z" fill="#FFCC01"/>
<path d="M34.4988 19.7521H37.1169C37.1169 15.31 33.1112 11.6359 27.9535 11.1035V8.35449H25.3353V11.1035V13.7391V25.3462C21.6263 24.8924 18.79 22.5622 18.79 19.7608C18.79 17.5092 20.3696 15.5369 22.7172 14.4809V11.6795C18.886 12.9799 16.1719 16.1129 16.1719 19.7608C16.1719 23.976 20.1776 27.4669 25.3353 27.9818V45.0171H27.9535V42.3727C33.1112 41.8317 37.1169 38.1663 37.1257 33.7242C37.1257 29.5003 33.1199 26.0182 27.9622 25.5033V13.7391C31.6712 14.2278 34.5075 16.7325 34.5075 19.7521H34.4988ZM34.4988 33.7155C34.4988 36.735 31.6625 39.2484 27.9535 39.7284V28.1214C31.6625 28.5752 34.4988 30.9053 34.4988 33.7067V33.7155Z" fill="#FFCC01"/>
<path d="M18.79 33.6631H16.1719C16.1719 37.3372 18.886 40.4877 22.7172 41.7967V38.9953C20.3696 37.9306 18.79 35.9409 18.79 33.6718V33.6631Z" fill="#FFCC01"/>
</g>
<defs>
<clipPath id="clip0_459_49310">
<rect width="53" height="53" fill="white" transform="translate(0.5 0.5)"/>
</clipPath>
</defs>
</svg>
