<svg width="45" height="45" viewBox="0 0 45 45" fill="none" xmlns="http://www.w3.org/2000/svg">
<g clip-path="url(#clip0_459_49320)">
<path d="M22.4727 0C10.0677 0 -0.0273438 10.095 -0.0273438 22.5C-0.0273438 34.905 10.0677 45 22.4727 45C34.8777 45 44.9727 34.905 44.9727 22.5C44.9727 10.095 34.8777 0 22.4727 0ZM22.4727 42.75C11.3052 42.75 2.22266 33.6675 2.22266 22.5C2.22266 11.3325 11.3052 2.25 22.4727 2.25C33.6402 2.25 42.7227 11.3325 42.7227 22.5C42.7227 33.6675 33.6402 42.75 22.4727 42.75Z" fill="#221F20"/>
<path d="M28.8692 16.3462H31.0921C31.0921 12.5746 27.691 9.45503 23.3118 9.00303V6.66895H21.0889V9.00303V11.2408V21.0958C17.9397 20.7105 15.5315 18.7321 15.5315 16.3536C15.5315 14.4418 16.8727 12.7672 18.8659 11.8706V9.49208C15.613 10.5961 13.3086 13.2563 13.3086 16.3536C13.3086 19.9325 16.7097 22.8964 21.0889 23.3336V37.7975H23.3118V35.5524C27.691 35.093 31.0921 31.9808 31.0995 28.2093C31.0995 24.6229 27.6984 21.6664 23.3192 21.2292V11.2408C26.4684 11.6557 28.8766 13.7824 28.8766 16.3462H28.8692ZM28.8692 28.2018C28.8692 30.7656 26.461 32.8997 23.3118 33.3072V23.4522C26.461 23.8375 28.8692 25.8159 28.8692 28.1944V28.2018Z" fill="#221F20"/>
<path d="M15.5315 28.1572H13.3086C13.3086 31.2768 15.613 33.9517 18.8659 35.0632V32.6846C16.8727 31.7806 15.5315 30.0912 15.5315 28.1646V28.1572Z" fill="#221F20"/>
</g>
<defs>
<clipPath id="clip0_459_49320">
<rect width="45" height="45" fill="white"/>
</clipPath>
</defs>
</svg>
