<svg width="54" height="54" viewBox="0 0 54 54" fill="none" xmlns="http://www.w3.org/2000/svg">
<g clip-path="url(#clip0_459_49318)">
<path d="M26.9688 0.5C12.3584 0.5 0.46875 12.3897 0.46875 27C0.46875 41.6103 12.3584 53.5 26.9688 53.5C41.5791 53.5 53.4688 41.6103 53.4688 27C53.4688 12.3897 41.5791 0.5 26.9688 0.5ZM26.9688 50.85C13.8159 50.85 3.11875 40.1528 3.11875 27C3.11875 13.8472 13.8159 3.15 26.9688 3.15C40.1216 3.15 50.8187 13.8472 50.8187 27C50.8187 40.1528 40.1216 50.85 26.9688 50.85Z" fill="#221F20"/>
<path d="M34.4988 19.7518H37.1169C37.1169 15.3098 33.1112 11.6356 27.9535 11.1033V8.35425H25.3353V11.1033V13.7389V25.3459C21.6263 24.8921 18.79 22.562 18.79 19.7606C18.79 17.509 20.3696 15.5367 22.7172 14.4807V11.6793C18.886 12.9796 16.1719 16.1126 16.1719 19.7606C16.1719 23.9758 20.1776 27.4666 25.3353 27.9815V45.0168H27.9535V42.3725C33.1112 41.8314 37.1169 38.166 37.1257 33.7239C37.1257 29.5 33.1199 26.0179 27.9622 25.503V13.7389C31.6712 14.2276 34.5075 16.7323 34.5075 19.7518H34.4988ZM34.4988 33.7152C34.4988 36.7348 31.6625 39.2482 27.9535 39.7282V28.1211C31.6625 28.575 34.4988 30.9051 34.4988 33.7065V33.7152Z" fill="#221F20"/>
<path d="M18.79 33.6631H16.1719C16.1719 37.3372 18.886 40.4877 22.7172 41.7967V38.9953C20.3696 37.9306 18.79 35.9409 18.79 33.6718V33.6631Z" fill="#221F20"/>
</g>
<defs>
<clipPath id="clip0_459_49318">
<rect width="53" height="53" fill="white" transform="translate(0.5 0.5)"/>
</clipPath>
</defs>
</svg>
