<svg width="53" height="45" viewBox="0 0 53 45" fill="none" xmlns="http://www.w3.org/2000/svg">
<path d="M20.5236 9.6962L20.743 9.7747L20.9745 9.7481C21.5119 9.68637 21.9068 9.6323 22.2025 9.56796C22.5095 9.50118 22.7886 9.4077 23.0472 9.22453C23.2116 9.10809 23.3819 8.9297 23.4534 8.85483C23.4663 8.84127 23.476 8.83111 23.4818 8.82532C23.5677 8.74021 23.6993 8.61962 23.9561 8.44606C24.9107 7.80105 25.3284 6.62888 25.5241 5.79368C25.728 4.92379 25.7691 4.06563 25.7302 3.7033C25.6847 3.28037 25.4279 3.0132 25.2839 2.88961C25.1255 2.75367 24.9494 2.65854 24.8066 2.59235C24.5153 2.45734 24.1693 2.35553 23.854 2.28085C23.5294 2.20399 23.1913 2.14517 22.8937 2.10847C22.6193 2.07464 22.3046 2.04979 22.0588 2.07288C22.0443 2.07425 22.0297 2.07578 22.0152 2.07745C22.0343 2.03327 22.055 1.99058 22.0772 1.95021C22.1195 1.87353 22.1566 1.82498 22.182 1.79667C22.7089 1.81676 23.0999 1.72299 23.4909 1.53058C23.6325 1.46089 23.7775 1.37605 23.8997 1.3045C23.9207 1.29222 23.941 1.28032 23.9605 1.26896C24.103 1.18605 24.2553 1.09965 24.4454 1.00608C24.4451 1.00627 24.445 1.00641 24.445 1.00651C24.4457 1.00887 24.5414 0.984013 24.798 1.01865C25.077 1.05631 25.4236 1.14661 25.8104 1.27407C26.2952 1.4338 26.7431 1.61479 27.142 1.77904C27.1412 1.78083 27.1404 1.78263 27.1396 1.78443C27.0993 1.87511 27.032 2.05421 27.0406 2.28456C27.0508 2.55539 27.1648 2.82749 27.3863 3.02929C27.5238 3.1545 27.6697 3.22256 27.7844 3.26069C27.7981 3.2898 27.8127 3.3227 27.8282 3.35961C27.962 3.67856 28.1026 4.15596 28.2362 4.72046C28.5008 5.83793 28.6978 7.12023 28.7657 7.72844L29.7596 7.61748L28.7657 7.72844C28.8248 8.25713 29.0372 8.71831 29.4089 9.06691C29.7613 9.39748 30.1841 9.55819 30.5524 9.64278C31.121 9.77334 31.8043 9.76406 32.3045 9.75727C32.4054 9.7559 32.4988 9.75463 32.5824 9.75463C33.4022 9.75463 33.8987 9.20615 34.1485 8.70968C34.387 8.23563 34.4946 7.65715 34.5466 7.12041C34.6527 6.024 34.5589 4.70366 34.4363 3.69012C34.3535 3.0057 34.559 2.72167 34.8038 2.5461C35.1386 2.30603 35.7478 2.14007 36.6491 2.14007H51.8212C51.733 2.2992 51.6277 2.4684 51.5084 2.65871L51.4898 2.68827C51.3776 2.86724 51.2503 3.07015 51.1434 3.26348C51.0365 3.45656 50.9064 3.71536 50.8414 3.9907C50.8009 4.16219 50.7639 4.4414 50.8494 4.73643C50.7979 4.79478 50.7345 4.86293 50.6557 4.94769C50.6045 5.00279 50.5468 5.0649 50.4815 5.13591C50.2608 5.37601 49.9301 5.745 49.7386 6.17639C49.6047 6.47798 49.5287 6.83903 49.5888 7.21383C49.5094 7.23549 49.4252 7.25771 49.3338 7.28181C49.275 7.29733 49.2133 7.31362 49.1479 7.33106C48.6887 7.45354 48.0829 7.62288 47.55 7.90464C47.0128 8.18865 46.4114 8.65978 46.1703 9.45267C46.1447 9.53694 46.1312 9.55133 46.0409 9.58319C45.8762 9.64128 45.6276 9.66136 45.2174 9.66457C45.1806 9.66486 45.1404 9.6649 45.0975 9.66494C44.7745 9.66525 44.2948 9.66572 43.9018 9.77365C43.6506 9.84264 43.3337 9.97799 43.0773 10.2645C42.8416 10.5277 42.7262 10.8407 42.6925 11.1546C42.5829 11.1908 42.4051 11.2261 42.1252 11.2604C42.0732 11.2668 42.014 11.2734 41.9497 11.2805C41.6734 11.3113 41.3032 11.3525 41.0117 11.4316C40.8212 11.4833 40.5512 11.5773 40.3115 11.7744C40.067 11.9755 39.8823 12.2627 39.8276 12.6155C39.7973 12.6303 39.7555 12.6491 39.6986 12.6719C39.6764 12.6808 39.6368 12.6956 39.5873 12.714C39.4527 12.7643 39.2445 12.8421 39.1126 12.9032C38.9864 12.9618 38.7712 13.0694 38.575 13.26C38.5327 13.2531 38.4847 13.2457 38.4399 13.2401C38.3614 13.2303 38.2128 13.2144 38.0472 13.2336C37.8864 13.2522 37.5567 13.3218 37.3001 13.6241C37.257 13.6748 37.2206 13.7266 37.1898 13.7787C37.1831 13.7805 37.1761 13.7823 37.169 13.7841C37.1064 13.8004 37.0299 13.8202 36.9341 13.8459C36.6945 13.9103 36.3576 14.0078 36.0413 14.1753C35.7369 14.3365 35.3777 14.6012 35.1537 15.0385C35.1506 15.0388 35.1474 15.0391 35.1441 15.0394C35.1396 15.0398 35.128 15.0407 35.1121 15.0419C35.0635 15.0457 34.9747 15.0526 34.9267 15.0576C34.8418 15.0666 34.6939 15.0852 34.5353 15.1403C34.3657 15.1991 34.1447 15.313 33.9644 15.5368C33.9496 15.5552 33.9355 15.5737 33.9222 15.5924C33.8728 15.5931 33.8187 15.5946 33.7647 15.5978C33.6612 15.604 33.507 15.6188 33.3429 15.6683C33.1778 15.718 32.9356 15.8228 32.736 16.0555C32.6988 16.0988 32.6658 16.1435 32.6365 16.1891C32.6339 16.1894 32.6312 16.1897 32.6285 16.19C32.5779 16.1955 32.5183 16.2021 32.4467 16.2106C32.356 16.2214 32.2052 16.2403 32.0612 16.2803C31.9892 16.3004 31.8688 16.3388 31.7418 16.4142C31.6196 16.4867 31.3971 16.6497 31.279 16.9566C31.1491 17.2942 31.2206 17.6042 31.3155 17.8027C31.4005 17.9805 31.5168 18.1028 31.5883 18.1704C31.7183 18.2936 31.8768 18.3991 32.0271 18.4885C32.0301 18.4931 32.0334 18.4986 32.0372 18.5049C32.075 18.5691 32.1257 18.6822 32.1788 18.8584C32.2854 19.212 32.3657 19.6973 32.4178 20.2654C32.5213 21.3942 32.4993 22.6845 32.4456 23.5245L32.3707 24.6972L33.5402 24.5836L40.6208 23.896H41.912H42.2329L42.4939 23.7093L42.6607 23.59L44.5619 24.3925L44.0981 24.5123L44.7107 25.203L42.6322 25.9103L42.3983 25.7801L42.0706 25.5977L41.7039 25.6758L40.8652 25.8542L40.8618 25.8468L40.6105 25.2903L40.0007 25.2596C39.0122 25.2098 37.4967 25.1498 36.1611 25.1323C35.4949 25.1236 34.8609 25.1252 34.3551 25.1451C34.1035 25.1549 33.8687 25.1699 33.6708 25.1927C33.5267 25.2094 33.2665 25.2424 33.0406 25.343C33.0295 25.3439 33.0091 25.3446 32.9771 25.343C32.8761 25.3379 32.753 25.3163 32.5542 25.2772C32.5427 25.2749 32.5307 25.2725 32.5182 25.27C32.3523 25.2372 32.1112 25.1894 31.8776 25.1764C31.6405 25.1632 31.2756 25.1749 30.9199 25.3728C30.9166 25.372 30.9131 25.371 30.9095 25.3701C30.904 25.3686 30.8978 25.367 30.8911 25.3652C30.8532 25.355 30.7986 25.3404 30.7436 25.3273C30.65 25.305 30.5347 25.2816 30.4007 25.2686C30.4005 25.2683 30.4003 25.2681 30.4 25.2678C30.3591 25.2208 30.315 25.1608 30.2731 25.095C30.2314 25.0296 30.1997 24.9709 30.1813 24.9328L29.7663 24.0751L28.8895 24.4482C28.7326 24.5149 28.4907 24.626 28.2554 24.7512C28.12 24.8232 27.9163 24.9355 27.7308 25.0746C27.6476 25.088 27.5321 25.1025 27.3833 25.117C27.0075 25.1536 26.5052 25.1821 25.9698 25.2035C24.9031 25.2461 23.7683 25.2583 23.3963 25.2583C23.1968 25.2583 23.0462 25.2355 22.8473 25.2054C22.7434 25.1896 22.6264 25.1719 22.4823 25.1544C22.1824 25.1179 21.6397 25.0663 21.1257 25.3624C21.0997 25.3545 21.0696 25.3454 21.0467 25.3389C20.9405 25.3084 20.7517 25.2583 20.5256 25.2583C20.5187 25.2583 20.5116 25.2583 20.5041 25.2583C20.3423 25.2581 20.0538 25.2578 19.7373 25.3396C19.4494 25.4139 19.1649 25.5469 18.8892 25.7587C18.8875 25.7585 18.8857 25.7584 18.8838 25.7582C18.7172 25.7435 18.4791 25.6927 18.2088 25.6106C17.9445 25.5302 17.6886 25.4318 17.4953 25.3426C17.4053 25.3011 17.3406 25.2669 17.3002 25.2432C16.994 24.9297 16.6053 24.8595 16.3807 24.8436C16.1164 24.8249 15.8527 24.8636 15.6371 24.9089C15.2195 24.9967 14.7609 25.1592 14.3825 25.3046C14.3502 25.29 14.2948 25.2632 14.2074 25.2151C14.1962 25.209 14.1828 25.2013 14.1673 25.1924C13.9359 25.0601 13.2407 24.6624 12.4601 25.048C12.4018 25.0378 12.3058 25.0097 12.1595 24.9479C12.0242 24.8907 11.8903 24.8245 11.7318 24.7461C11.699 24.7299 11.6651 24.7131 11.6299 24.6958C11.4498 24.6072 11.2097 24.4907 10.9727 24.4153C10.6646 24.3174 10.4107 24.2386 10.1259 24.1829C9.84386 24.1278 9.557 24.0999 9.17202 24.0748C9.16141 24.0711 9.12214 24.0565 9.05144 24.0107C8.94046 23.9388 8.80623 23.8252 8.65531 23.6718C8.38874 23.4009 8.15201 23.0929 7.957 22.8391C7.92774 22.8011 7.89943 22.7642 7.8721 22.7289C7.83302 22.6784 7.80346 22.6362 7.7811 22.6013C7.82583 22.5975 7.87648 22.593 7.9344 22.5875C8.33565 22.5498 9.17934 22.4652 9.76031 21.7884C9.89552 21.8218 10.0835 21.8888 10.3371 21.9951C10.4068 22.0243 10.4858 22.0585 10.57 22.095C10.8137 22.2005 11.1016 22.3251 11.3382 22.4039C11.5033 22.4589 11.7293 22.523 11.9699 22.5334C12.1335 22.5404 12.3874 22.5248 12.6404 22.3981C12.7323 22.4293 12.8556 22.4786 13.0267 22.5507C13.0463 22.5589 13.0668 22.5676 13.0879 22.5765C13.3004 22.6664 13.585 22.7868 13.8544 22.8627C14.0857 22.9279 14.5617 23.0414 15.037 22.8467C15.0739 22.8477 15.1307 22.852 15.2105 22.8636C15.426 22.8948 15.7008 22.962 16.0073 23.0487C16.1976 23.1024 16.3596 23.1516 16.5193 23.2C16.6346 23.235 16.7488 23.2696 16.8714 23.3053C16.9987 23.3424 17.1329 23.3797 17.253 23.4062C17.3129 23.4194 17.3858 23.4337 17.4624 23.4428C17.5123 23.4488 17.62 23.4602 17.7502 23.4467C17.7563 23.4469 17.7637 23.4471 17.7723 23.4475C17.7821 23.4479 17.7948 23.4484 17.8096 23.4491C17.8646 23.4515 17.9496 23.4553 18.0319 23.4564C18.2478 23.4592 18.5834 23.449 18.9361 23.333C19.3093 23.2103 19.7025 22.968 19.987 22.53C20.2621 22.1066 20.3772 21.5903 20.3772 21.0171C20.3772 20.3534 20.664 19.577 20.9656 18.8457C20.983 18.8035 21.0012 18.7597 21.0198 18.7149C21.1361 18.4353 21.27 18.1136 21.3337 17.8704C21.3548 17.7895 21.3788 17.6806 21.3874 17.5591C21.3951 17.4508 21.3984 17.2399 21.3007 17.0094C21.1822 16.7299 20.9452 16.4974 20.6241 16.3991C20.5383 16.3728 20.456 16.3591 20.3799 16.3535C20.3527 16.3094 20.326 16.2635 20.2929 16.2066L20.2798 16.1842C20.2423 16.1198 20.1909 16.0317 20.1356 15.9487C20.0848 15.8724 19.9961 15.7465 19.8705 15.6319C19.7668 15.5372 19.5513 15.3712 19.2378 15.3295C19.2252 15.3242 19.2101 15.3176 19.1921 15.3095C19.1405 15.2862 19.0814 15.2578 19.0045 15.2208L18.9972 15.2173C18.9257 15.1828 18.8416 15.1423 18.7541 15.1021C18.5767 15.0206 18.35 14.9237 18.1079 14.8561C17.9373 14.8084 17.7176 14.7631 17.4748 14.7657C17.4678 14.7582 17.4603 14.7502 17.4521 14.7415C17.441 14.7296 17.4286 14.7164 17.4147 14.7017L17.4079 14.6944C17.3111 14.5913 17.1185 14.3863 16.8607 14.2366C16.638 14.1073 16.3712 14.0201 16.0725 14.019C15.986 13.8985 15.8282 13.7033 15.6042 13.5623C15.4295 13.4522 15.2184 13.3737 14.9774 13.3567C14.81 13.3448 14.6522 13.3643 14.5077 13.4015C14.4686 13.3764 14.4134 13.3375 14.3358 13.2778C14.3145 13.2613 14.2884 13.2408 14.2588 13.2174C14.1431 13.1263 13.9736 12.9928 13.8205 12.895C13.7104 12.8247 13.532 12.7198 13.3052 12.6555C13.285 12.612 13.2588 12.5568 13.2232 12.4845C13.1414 12.3185 12.9567 11.9507 12.6026 11.7031C12.4011 11.5622 12.1509 11.4628 11.8622 11.4489C11.6657 11.4394 11.4816 11.471 11.3146 11.5251C11.3139 11.5247 11.3132 11.5243 11.3125 11.5239C11.1426 11.4236 10.936 11.2503 10.6421 10.996C10.6288 10.9846 10.6153 10.9729 10.6016 10.9609C10.3542 10.7467 10.0263 10.4627 9.69993 10.269C9.43269 10.1103 8.86483 9.83094 8.25133 10.0533C8.09128 9.98768 7.85933 9.85216 7.57321 9.64634C7.01047 9.24151 6.40542 8.68714 6.02282 8.29949L5.86557 8.14016L5.65539 8.06308C5.20896 7.89937 4.1898 7.51583 3.39255 7.18704C3.43819 7.10679 3.49171 7.03308 3.53672 6.98022L4.29857 6.08551L3.2935 5.47662C3.14093 5.38419 2.85896 5.17367 2.60315 4.88984C2.34158 4.59962 2.17807 4.3114 2.13042 4.06521C2.0603 3.70287 1.97053 3.40383 1.84801 3.14441C1.71963 2.8726 1.57427 2.68487 1.44485 2.53777C1.40461 2.49204 1.36911 2.45323 1.33704 2.41818C1.25803 2.33184 1.19985 2.26824 1.14296 2.17977C1.15049 2.17862 1.15818 2.17749 1.16602 2.17637C1.3417 2.15124 1.54844 2.14007 1.7705 2.14007H7.89458C8.36747 2.14007 9.26839 2.13303 10.3482 2.12459C11.2946 2.11719 12.3785 2.10872 13.432 2.10297C14.5645 2.0968 15.665 2.09373 16.5349 2.09834C17.1584 2.10164 17.6256 2.1091 17.9039 2.11893C17.9437 2.24305 17.9835 2.42312 18.0151 2.6619C18.0923 3.24589 18.0912 3.91927 18.0903 4.41014C18.0902 4.45928 18.0902 4.50658 18.0902 4.55179C18.0902 5.51954 18.1382 6.55689 18.4081 7.61693C18.5799 8.29126 19.0334 8.77096 19.4143 9.07259C19.8037 9.38097 20.225 9.58939 20.5236 9.6962ZM21.8607 2.78262C21.8606 2.78264 21.8606 2.78173 21.8605 2.77982L21.8607 2.78262ZM52.002 1.73173C52.0022 1.73167 52.0019 1.73376 52.001 1.73818C52.0015 1.734 52.0019 1.73179 52.002 1.73173ZM50.9965 4.54595C50.9966 4.54588 50.9955 4.5481 50.9928 4.55272C50.995 4.5483 50.9963 4.54601 50.9965 4.54595ZM50.0874 7.04998C50.0873 7.05002 50.0872 7.05007 50.0871 7.05011L50.1017 7.04151C50.1021 7.04162 50.0978 7.04454 50.0874 7.04998ZM37.4385 13.7046C37.4383 13.7048 37.4355 13.7061 37.4296 13.7085C37.4355 13.7056 37.4387 13.7044 37.4385 13.7046ZM32.898 16.1489C32.898 16.149 32.8953 16.15 32.8895 16.1515C32.8949 16.1496 32.8979 16.1488 32.898 16.1489ZM17.263 25.2193C17.2633 25.2193 17.2673 25.2219 17.2741 25.2271C17.2661 25.2219 17.2627 25.2193 17.263 25.2193ZM7.41286 22.6446C7.41268 22.6445 7.4155 22.6436 7.42182 22.642C7.41619 22.6439 7.41303 22.6447 7.41286 22.6446ZM12.4828 22.3572C12.4824 22.3567 12.489 22.3572 12.5039 22.3599C12.4907 22.3591 12.4832 22.3577 12.4828 22.3572ZM14.9925 22.8477C14.9925 22.8476 14.9949 22.8473 15.0001 22.847C14.9952 22.8476 14.9926 22.8478 14.9925 22.8477ZM17.7253 23.4464C17.7254 23.4464 17.7265 23.4464 17.7287 23.4464C17.7265 23.4464 17.7253 23.4464 17.7253 23.4464ZM13.4092 12.8666C13.4092 12.8667 13.408 12.8651 13.4057 12.8615C13.408 12.8647 13.4092 12.8665 13.4092 12.8666ZM11.4077 11.5713C11.4079 11.5718 11.4032 11.5705 11.3931 11.5662C11.4025 11.5687 11.4075 11.5709 11.4077 11.5713ZM8.35911 10.0882C8.35959 10.089 8.35142 10.0881 8.33321 10.0828C8.34953 10.0847 8.35864 10.0873 8.35911 10.0882ZM17.8383 1.96221C17.8383 1.96207 17.8396 1.96387 17.842 1.968C17.8395 1.96442 17.8383 1.96235 17.8383 1.96221Z" stroke="#F1E4C7" stroke-width="2"/>
</svg>
