<svg width="33" height="45" viewBox="0 0 33 45" fill="none" xmlns="http://www.w3.org/2000/svg">
<path d="M10.9189 8.8247L11.8749 9.15967L12.1975 8.19933C12.5621 7.11385 13.2356 5.3576 14.0631 3.81138C14.4775 3.03702 14.9141 2.34639 15.3503 1.82511C15.5803 1.55025 15.7874 1.3501 15.9675 1.20999C17.0663 2.31422 18.7873 4.64501 19.2629 7.64355L19.4813 9.0207L20.7157 8.37214C21.4127 8.0059 22.6471 7.45962 24.0255 7.04579C25.1811 6.69884 26.3658 6.46724 27.3911 6.47376C27.6549 7.3727 27.8843 8.63241 27.8566 9.97838C27.8221 11.6575 27.3913 13.374 26.2407 14.7174L25.2894 15.8281L26.6697 16.3116C27.5282 16.6123 28.8541 17.2364 29.9819 18.1019C31.0299 18.9061 31.7534 19.7987 31.9587 20.7078C31.2849 21.8135 29.1537 23.9523 25.0598 24.2212L23.7273 24.3087L24.1863 25.5627C24.4737 26.348 24.8241 27.6564 24.9251 28.9702C25.0125 30.106 24.8997 31.0694 24.5677 31.7273C24.2748 31.7466 23.9597 31.7766 23.6465 31.8064C23.5928 31.8116 23.5392 31.8167 23.4857 31.8217C22.8824 31.8787 22.2464 31.9345 21.6134 31.9442C20.2882 31.9643 19.2562 31.7703 18.6595 31.2477L17.0006 29.7951V32V34.7019C16.6658 34.7797 16.2647 34.8601 15.8799 34.9191C15.8371 34.9256 15.7953 34.9318 15.7546 34.9376C15.7576 34.9223 15.7608 34.9069 15.7639 34.8914C15.8253 34.5897 15.8975 34.2716 15.9737 33.9358C16.0114 33.77 16.05 33.5998 16.0888 33.4251C16.2019 32.9156 16.3139 32.3781 16.3765 31.8982C16.433 31.4654 16.4775 30.9016 16.329 30.4333L16.0024 29.4039L15.0011 29.8085C12.5564 30.7963 11.0695 31.3377 9.9108 31.6031C9.05254 31.7997 8.37032 31.8458 7.59254 31.7891C7.47737 31.042 7.38905 30.0192 7.4218 28.9944C7.44394 28.3019 7.52053 27.6421 7.66587 27.0843C7.81422 26.5149 8.01384 26.1308 8.22552 25.9084L9.6695 24.391L7.58165 24.2223C6.82541 24.1612 5.39405 23.9548 3.98572 23.5405C2.80827 23.1942 1.80413 22.7464 1.17439 22.2293C1.42749 21.7362 1.87511 21.0595 2.50461 20.3423C3.37371 19.3522 4.48612 18.4044 5.67294 17.8501L6.72696 17.3578L6.08203 16.3896C5.32449 15.2524 3.78488 12.065 3.63645 8.4417C4.0562 8.25292 4.73844 8.05609 5.69246 7.9921C7.01582 7.90334 8.78668 8.07765 10.9189 8.8247Z" stroke="#F1E4C7" stroke-width="2"/>
</svg>
