<svg width="104" height="45" viewBox="0 0 104 45" fill="none" xmlns="http://www.w3.org/2000/svg">
<path d="M13 3.23607L14.9676 9.2918L15.1921 9.98278H15.9187H22.2861L17.1347 13.7254L16.547 14.1525L16.7715 14.8435L18.7391 20.8992L13.5878 17.1565L13 16.7295L12.4122 17.1565L7.2609 20.8992L9.22853 14.8435L9.45304 14.1525L8.86526 13.7254L3.71395 9.98278H10.0813H10.8079L11.0324 9.2918L13 3.23607Z" stroke="#F1E4C7" stroke-width="2"/>
<path d="M39 3.23607L40.9676 9.2918L41.1921 9.98278H41.9187H48.2861L43.1347 13.7254L42.547 14.1525L42.7715 14.8435L44.7391 20.8992L39.5878 17.1565L39 16.7295L38.4122 17.1565L33.2609 20.8992L35.2285 14.8435L35.453 14.1525L34.8653 13.7254L29.7139 9.98278H36.0813H36.8079L37.0324 9.2918L39 3.23607Z" stroke="#F1E4C7" stroke-width="2"/>
<path d="M65 3.23607L66.9676 9.2918L67.1921 9.98278H67.9187H74.2861L69.1347 13.7254L68.547 14.1525L68.7715 14.8435L70.7391 20.8992L65.5878 17.1565L65 16.7295L64.4122 17.1565L59.2609 20.8992L61.2285 14.8435L61.453 14.1525L60.8653 13.7254L55.7139 9.98278H62.0813H62.8079L63.0324 9.2918L65 3.23607Z" stroke="#F1E4C7" stroke-width="2"/>
<path d="M91 3.23607L92.9676 9.2918L93.1921 9.98278H93.9187H100.286L95.1347 13.7254L94.547 14.1525L94.7715 14.8435L96.7391 20.8992L91.5878 17.1565L91 16.7295L90.4122 17.1565L85.2609 20.8992L87.2285 14.8435L87.453 14.1525L86.8653 13.7254L81.7139 9.98278H88.0813H88.8079L89.0324 9.2918L91 3.23607Z" stroke="#F1E4C7" stroke-width="2"/>
</svg>
