<svg width="54" height="54" viewBox="0 0 54 54" fill="none" xmlns="http://www.w3.org/2000/svg">
<mask id="path-1-inside-1_459_49202" fill="white">
<path d="M0 0H54V54H0V0Z"/>
</mask>
<path d="M0 0H54V54H0V0Z" fill="#F1E4C7"/>
<path d="M28.4814 33.925L25.2078 36.8089L25.7744 33.1886L24.6412 32.0228L23.634 38.7111L22.6267 38.527L23.7599 31.1024L22.6897 29.9365L21.3047 38.9566L21.8083 39.6929L24.0747 39.9997L24.8301 39.5088L24.8931 38.7111L30.6848 33.6182L28.4814 33.925Z" fill="#221F20"/>
<path d="M39.6852 28.3429L39.0557 27.9134C39.2446 25.0908 38.9298 20.7342 37.7337 18.7706C36.5375 16.7457 33.6416 14.5367 29.9903 14.1686C22.5617 13.3709 17.9031 15.3958 15.7627 20.4274C15.322 21.4091 15.0702 22.6364 14.9443 23.3727H14.8184L14.1259 23.9249L14 26.1339L14.5666 26.8089L22.0581 27.4839L26.9056 32.6382L27.4722 32.8222L39.4334 31.2882L40 30.6133L39.6852 28.3429ZM16.8959 20.9182C18.092 18.0957 20.799 14.414 29.8644 15.3958C33.0751 15.7639 35.5932 17.7275 36.6634 19.4456C37.7337 21.2251 38.0484 25.4589 37.7966 28.0361L28.6053 29.202L24.1985 24.4772L23.8208 24.2317L16.2034 23.4954C16.3293 22.7591 16.5811 21.7159 16.8959 20.9182ZM27.5981 31.5337L22.8136 26.4407L22.4358 26.2566L15.322 25.643V24.6613L23.4431 25.4589L27.9128 30.2451L28.4794 30.4292L38.4891 29.1406L38.615 30.1224L27.5981 31.5337Z" fill="#221F20"/>
<path d="M0 0V-1H-1V0H0ZM54 0H55V-1H54V0ZM54 54V55H55V54H54ZM0 54H-1V55H0V54ZM0 1H54V-1H0V1ZM53 0V54H55V0H53ZM54 53H0V55H54V53ZM1 54V0H-1V54H1Z" fill="#221F20" mask="url(#path-1-inside-1_459_49202)"/>
</svg>
