<svg width="54" height="54" viewBox="0 0 54 54" fill="none" xmlns="http://www.w3.org/2000/svg">
<path d="M27.5 29.1487L41 23.0743L27.5 17L14 23.0743L19.8184 25.6917L18.072 26.446V36.5923C18.072 36.9649 18.3728 37.2657 18.7454 37.2657C19.1181 37.2657 19.4189 36.9649 19.4189 36.5923V27.3349L21.484 26.4415L27.5 29.1487ZM17.2818 23.0743L27.5 18.4771L37.7182 23.0743L27.5 27.6716L23.1586 25.7187L27.8457 23.6939C28.1869 23.5457 28.344 23.1506 28.1959 22.8094C28.0477 22.4682 27.6526 22.3111 27.3114 22.4593L21.4975 24.9734L17.2818 23.0743Z" fill="#FFCC01"/>
<path d="M32.8873 31.7796C29.4843 33.4048 25.5155 33.4048 22.1125 31.7796V28.17L20.7656 27.5774V32.6057L21.1293 32.7942C23.1226 33.8268 25.3135 34.3476 27.4999 34.3476C29.6863 34.3476 31.8772 33.8313 33.8705 32.7942L34.2342 32.6057V27.5774L32.8873 28.17V31.7796Z" fill="#FFCC01"/>
<path d="M0 0V-1H-1V0H0ZM54 0H55V-1H54V0ZM54 54V55H55V54H54ZM0 54H-1V55H0V54ZM0 1H54V-1H0V1ZM53 0V54H55V0H53ZM54 53H0V55H54V53ZM1 54V0H-1V54H1Z" fill="#D6C59F" mask="url(#path-1-inside-1_459_49198)"/>
</svg>
