<svg width="54" height="54" viewBox="0 0 54 54" fill="none" xmlns="http://www.w3.org/2000/svg">
<path d="M53.6414 1.7955C53.3849 1.512 53.0205 1.35 52.6425 1.35H48.5931C48.5931 0.6075 47.9857 0 47.2433 0C46.5009 0 45.8935 0.6075 45.8935 1.35V4.05C45.8935 4.7925 46.5009 5.4 47.2433 5.4C47.9857 5.4 48.5931 4.7925 48.5931 4.05H51.1308L49.295 20.655C49.295 20.655 49.2815 20.682 49.2815 20.709C48.2962 26.649 43.8148 27.0675 37.6192 27.0135H36.4448H35.2705C29.0614 27.081 24.5935 26.649 23.6082 20.709C23.6082 20.6955 23.5947 20.682 23.5947 20.655L21.7589 4.05H24.2966C24.2966 4.7925 24.904 5.4 25.6464 5.4C26.3888 5.4 26.9962 4.7925 26.9962 4.05V1.35C26.9962 0.6075 26.3888 0 25.6464 0C24.904 0 24.2966 0.6075 24.2966 1.35H20.2471C19.8692 1.35 19.4912 1.512 19.2483 1.7955C18.9918 2.079 18.8703 2.457 18.9108 2.8485L21.165 23.274C22.5958 34.506 29.3313 35.073 35.1085 35.1V48.0195C35.1085 49.329 34.5416 50.382 33.5428 50.9355C32.4629 51.5295 31.0996 51.408 29.8848 50.652L11.5274 37.0575C11.9188 36.261 12.1483 35.37 12.1483 34.425C12.1483 31.077 9.42167 28.35 6.07414 28.35C2.72661 28.35 0 31.077 0 34.425C0 37.773 2.72661 40.5 6.07414 40.5C7.50494 40.5 8.78726 39.987 9.82661 39.1635L28.3595 52.8795C29.5473 53.622 30.8296 54 32.0715 54C33.0433 54 33.9882 53.7705 34.8386 53.298C36.6878 52.272 37.7946 50.301 37.7946 48.0195V35.1C43.5583 35.073 50.3074 34.506 51.7382 23.2605L53.9924 2.862C54.0328 2.484 53.9114 2.106 53.6549 1.809L53.6414 1.7955ZM6.07414 37.8C4.2114 37.8 2.69962 36.288 2.69962 34.425C2.69962 32.562 4.2114 31.05 6.07414 31.05C7.93688 31.05 9.44866 32.562 9.44866 34.425C9.44866 36.288 7.93688 37.8 6.07414 37.8ZM36.8903 32.4C36.7283 32.4 36.5798 32.4405 36.4448 32.4945C36.2964 32.4405 36.1479 32.4 35.9994 32.4C31.4235 32.4 27.3336 32.373 25.1874 27.918C28.2245 29.7405 32.2199 29.727 35.2975 29.7H36.4448H37.5922C37.9701 29.7 38.3616 29.7 38.7665 29.7C41.6281 29.7 45.0296 29.5245 47.6887 27.945C45.5291 32.373 41.4526 32.3865 36.8903 32.3865V32.4Z" fill="#221F20"/>
</svg>
