<svg width="45" height="45" viewBox="0 0 45 45" fill="none" xmlns="http://www.w3.org/2000/svg">
<path d="M44.7012 1.49625C44.4875 1.26 44.1837 1.125 43.8688 1.125H40.4943C40.4943 0.50625 39.9881 0 39.3694 0C38.7508 0 38.2446 0.50625 38.2446 1.125V3.375C38.2446 3.99375 38.7508 4.5 39.3694 4.5C39.9881 4.5 40.4943 3.99375 40.4943 3.375H42.609L41.0792 17.2125C41.0792 17.2125 41.0679 17.235 41.0679 17.2575C40.2468 22.2075 36.5123 22.5562 31.3493 22.5112H30.3707H29.3921C24.2178 22.5675 20.4946 22.2075 19.6735 17.2575C19.6735 17.2463 19.6622 17.235 19.6622 17.2125L18.1324 3.375H20.2471C20.2471 3.99375 20.7533 4.5 21.372 4.5C21.9906 4.5 22.4968 3.99375 22.4968 3.375V1.125C22.4968 0.50625 21.9906 0 21.372 0C20.7533 0 20.2471 0.50625 20.2471 1.125H16.8726C16.5577 1.125 16.2427 1.26 16.0402 1.49625C15.8265 1.7325 15.7253 2.0475 15.759 2.37375L17.6375 19.395C18.8298 28.755 24.4428 29.2275 29.2571 29.25V40.0163C29.2571 41.1075 28.7847 41.985 27.9523 42.4463C27.0524 42.9412 25.9163 42.84 24.904 42.21L9.60614 30.8813C9.93234 30.2175 10.1236 29.475 10.1236 28.6875C10.1236 25.8975 7.85139 23.625 5.06178 23.625C2.27218 23.625 0 25.8975 0 28.6875C0 31.4775 2.27218 33.75 5.06178 33.75C6.25411 33.75 7.32271 33.3225 8.18884 32.6362L23.6329 44.0662C24.6228 44.685 25.6914 45 26.7262 45C27.5361 45 28.3235 44.8088 29.0321 44.415C30.5732 43.56 31.4955 41.9175 31.4955 40.0163V29.25C36.2986 29.2275 41.9228 28.755 43.1151 19.3837L44.9936 2.385C45.0274 2.07 44.9261 1.755 44.7124 1.5075L44.7012 1.49625ZM5.06178 31.5C3.5095 31.5 2.24968 30.24 2.24968 28.6875C2.24968 27.135 3.5095 25.875 5.06178 25.875C6.61406 25.875 7.87389 27.135 7.87389 28.6875C7.87389 30.24 6.61406 31.5 5.06178 31.5ZM30.7419 27C30.6069 27 30.4832 27.0338 30.3707 27.0788C30.247 27.0338 30.1232 27 29.9995 27C26.1863 27 22.778 26.9775 20.9895 23.265C23.5204 24.7838 26.8499 24.7725 29.4146 24.75H30.3707H31.3268C31.6418 24.75 31.968 24.75 32.3054 24.75C34.6901 24.75 37.5247 24.6038 39.7406 23.2875C37.9409 26.9775 34.5439 26.9888 30.7419 26.9888V27Z" fill="#F1E4C7"/>
</svg>
