<svg width="45" height="45" viewBox="0 0 45 45" fill="none" xmlns="http://www.w3.org/2000/svg">
<path d="M45 22.4718C44.9993 20.9089 44.4246 19.4005 43.3847 18.232C42.3448 17.0635 40.9118 16.316 39.357 16.1309C38.4492 13.7192 37.0388 11.5273 35.2189 9.70026C33.399 7.87321 31.2113 6.45261 28.8003 5.53242C28.5965 4.00993 27.8489 2.612 26.695 1.59563C25.5411 0.579257 24.0584 0.0127377 22.5194 0.000212216C20.9804 -0.0123132 19.4887 0.529997 18.3183 1.52745C17.1479 2.52491 16.3776 3.91048 16.149 5.42945C13.6629 6.32612 11.403 7.75365 9.52697 9.61237C7.65096 11.4711 6.20415 13.7161 5.28758 16.1908C3.80805 16.4492 2.46706 17.2197 1.5001 18.3668C0.533129 19.514 0.0020103 20.9644 5.69524e-06 22.4635C-0.00199891 23.9626 0.525239 25.4145 1.48913 26.5642C2.45303 27.714 3.79195 28.488 5.27078 28.7504C6.18181 31.234 7.62703 33.4882 9.50477 35.3544C11.3825 37.2207 13.6472 38.6536 16.1394 39.5524C16.3647 41.0755 17.1343 42.4659 18.3062 43.4671C19.4781 44.4682 20.9732 45.0126 22.5158 44.9998C24.0583 44.9869 25.5442 44.4178 26.6992 43.3972C27.8542 42.3767 28.6005 40.9737 28.8003 39.447C31.2194 38.5254 33.4138 37.0992 35.2367 35.2637C37.0597 33.4282 38.4692 31.2256 39.3714 28.8031C40.9224 28.6159 42.3512 27.8686 43.3881 26.7023C44.425 25.5359 44.9984 24.0311 45 22.4718ZM22.4638 2.40508C23.2534 2.40508 24.0253 2.63878 24.6819 3.07661C25.3384 3.51444 25.8501 4.13675 26.1523 4.86485C26.4545 5.59294 26.5335 6.39411 26.3795 7.16704C26.2254 7.93998 25.8452 8.64997 25.2868 9.20723C24.7285 9.76448 24.0171 10.144 23.2427 10.2977C22.4683 10.4515 21.6655 10.3726 20.936 10.071C20.2065 9.76939 19.583 9.25868 19.1443 8.60341C18.7056 7.94815 18.4715 7.17777 18.4715 6.38969C18.4734 5.33349 18.8946 4.32109 19.6429 3.57424C20.3912 2.8274 21.4056 2.40698 22.4638 2.40508ZM2.40128 22.4718C2.40128 21.6836 2.63549 20.9131 3.07428 20.2578C3.51307 19.6025 4.13673 19.0918 4.86638 18.7903C5.59603 18.4887 6.39888 18.41 7.17339 18.5639C7.94789 18.7178 8.65926 19.0976 9.2175 19.6551C9.77575 20.2126 10.1558 20.9228 10.3096 21.6959C10.4633 22.469 10.3839 23.2702 10.0814 23.9983C9.77886 24.7263 9.26678 25.3485 8.60992 25.786C7.95307 26.2236 7.18095 26.4569 6.39123 26.4564C5.3332 26.4545 4.31908 26.034 3.57117 25.2871C2.82325 24.5402 2.40255 23.5278 2.40128 22.4718ZM22.4638 42.6103C21.6742 42.6103 20.9023 42.3766 20.2458 41.9388C19.5893 41.5009 19.0775 40.8786 18.7754 40.1505C18.4732 39.4224 18.3941 38.6213 18.5482 37.8483C18.7022 37.0754 19.0825 36.3654 19.6408 35.8082C20.1991 35.2509 20.9105 34.8714 21.685 34.7177C22.4594 34.5639 23.2621 34.6428 23.9916 34.9444C24.7211 35.246 25.3447 35.7567 25.7833 36.412C26.222 37.0672 26.4562 37.8376 26.4562 38.6257C26.4549 39.6821 26.0339 40.6949 25.2854 41.4418C24.537 42.1888 23.5223 42.609 22.4638 42.6103ZM28.6251 36.9327C28.2509 35.5776 27.4388 34.3837 26.3149 33.5367C25.1909 32.6896 23.8181 32.2368 22.4098 32.2485C21.0015 32.2602 19.6364 32.7359 18.5268 33.6016C17.4172 34.4673 16.6252 35.6745 16.2738 37.0357C12.4732 35.4617 9.44094 32.4654 7.82599 28.6881C9.23295 28.3642 10.4886 27.5743 11.3883 26.4471C12.288 25.3199 12.7788 23.9219 12.7807 22.4808C12.7827 21.0397 12.2957 19.6404 11.399 18.5108C10.5023 17.3812 9.24887 16.588 7.84278 16.2602C9.46302 12.5046 12.4855 9.52667 16.269 7.95814C16.6158 9.32487 17.4066 10.5384 18.5178 11.4088C19.629 12.2793 20.998 12.7577 22.4105 12.7692C23.8231 12.7807 25.1997 12.3246 26.325 11.4724C27.4503 10.6201 28.2608 9.41962 28.6299 8.05872C32.3278 9.67228 35.2688 12.6342 36.8521 16.3392C35.5162 16.7212 34.3413 17.5273 33.5056 18.6355C32.6698 19.7436 32.2187 21.0935 32.2206 22.4805C32.2225 23.8675 32.6773 25.2161 33.5161 26.322C34.3549 27.4279 35.5319 28.2308 36.8689 28.6091C35.2916 32.3357 32.3405 35.3154 28.6251 36.9327ZM38.6084 26.4564C37.8188 26.4564 37.0469 26.2227 36.3904 25.7848C35.7338 25.347 35.2221 24.7247 34.9199 23.9966C34.6178 23.2685 34.5387 22.4674 34.6927 21.6944C34.8468 20.9215 35.227 20.2115 35.7854 19.6542C36.3437 19.097 37.0551 18.7175 37.8295 18.5637C38.604 18.41 39.4067 18.4889 40.1362 18.7905C40.8657 19.0921 41.4892 19.6028 41.9279 20.258C42.3666 20.9133 42.6007 21.6837 42.6007 22.4718C42.6001 23.5284 42.1793 24.5415 41.4307 25.2886C40.6821 26.0357 39.667 26.4557 38.6084 26.4564Z" fill="#FFCC01"/>
</svg>
