<svg width="54" height="54" viewBox="0 0 54 54" fill="none" xmlns="http://www.w3.org/2000/svg">
<path d="M52 26.9686C51.9992 25.2321 51.3607 23.5561 50.2052 22.2578C49.0498 20.9595 47.4576 20.1289 45.7299 19.9232C44.7213 17.2435 43.1542 14.8081 41.1321 12.7781C39.11 10.748 36.6792 9.16956 34.0003 8.14714C33.7738 6.45547 32.9432 4.90223 31.6611 3.77292C30.379 2.64362 28.7315 2.01415 27.0216 2.00024C25.3116 1.98632 23.6541 2.58889 22.3537 3.69717C21.0533 4.80546 20.1974 6.34498 19.9433 8.03273C17.181 9.02902 14.67 10.6152 12.5855 12.6804C10.5011 14.7456 8.8935 17.2402 7.87509 19.9897C6.23117 20.2769 4.74118 21.133 3.66677 22.4076C2.59237 23.6822 2.00223 25.2938 2.00001 26.9595C1.99778 28.6252 2.5836 30.2384 3.65459 31.5158C4.72559 32.7933 6.21328 33.6533 7.85643 33.9449C8.86868 36.7044 10.4745 39.2091 12.5609 41.2827C14.6472 43.3563 17.1635 44.9484 19.9327 45.9471C20.183 47.6394 21.0381 49.1843 22.3402 50.2967C23.6423 51.4091 25.3036 52.014 27.0175 51.9998C28.7315 51.9855 30.3824 51.3531 31.6658 50.2191C32.9491 49.0852 33.7783 47.5263 34.0003 45.83C36.6883 44.806 39.1264 43.2213 41.1519 41.1819C43.1774 39.1424 44.7436 36.6951 45.7459 34.0034C47.4693 33.7955 49.0569 32.9652 50.209 31.6692C51.3612 30.3732 51.9982 28.7012 52 26.9686ZM26.9598 4.67232C27.8372 4.67232 28.6948 4.93197 29.4243 5.41846C30.1538 5.90494 30.7223 6.59639 31.0581 7.40538C31.3938 8.21437 31.4817 9.10456 31.3105 9.96338C31.1394 10.8222 30.7169 11.6111 30.0965 12.2303C29.4761 12.8494 28.6857 13.2711 27.8252 13.4419C26.9647 13.6127 26.0728 13.5251 25.2622 13.19C24.4517 12.8549 23.7589 12.2874 23.2714 11.5593C22.784 10.8313 22.5239 9.9753 22.5239 9.09965C22.526 7.9261 22.994 6.80121 23.8254 5.97138C24.6569 5.14155 25.784 4.67443 26.9598 4.67232ZM4.66809 26.9686C4.66809 26.0929 4.92832 25.2368 5.41586 24.5087C5.90341 23.7805 6.59637 23.2131 7.40709 22.8781C8.21781 22.543 9.10987 22.4555 9.97043 22.6266C10.831 22.7976 11.6214 23.2195 12.2417 23.839C12.8619 24.4584 13.2842 25.2475 13.4551 26.1065C13.6259 26.9655 13.5377 27.8558 13.2016 28.6647C12.8654 29.4737 12.2964 30.165 11.5666 30.6511C10.8367 31.1373 9.97883 31.3965 9.10137 31.396C7.92578 31.3939 6.79898 30.9266 5.96796 30.0967C5.13694 29.2668 4.6695 28.1419 4.66809 26.9686ZM26.9598 49.3448C26.0825 49.3448 25.2248 49.0851 24.4953 48.5986C23.7658 48.1122 23.1973 47.4207 22.8615 46.6117C22.5258 45.8027 22.4379 44.9125 22.6091 44.0537C22.7803 43.1949 23.2027 42.406 23.8231 41.7868C24.4435 41.1677 25.2339 40.746 26.0944 40.5752C26.9549 40.4044 27.8468 40.492 28.6574 40.8271C29.4679 41.1622 30.1607 41.7297 30.6482 42.4577C31.1356 43.1858 31.3958 44.0418 31.3958 44.9174C31.3943 46.0912 30.9265 47.2165 30.0949 48.0465C29.2633 48.8765 28.1359 49.3434 26.9598 49.3448ZM33.8057 43.0364C33.3899 41.5306 32.4875 40.2041 31.2387 39.263C29.9899 38.3218 28.4646 37.8186 26.8998 37.8317C25.335 37.8447 23.8183 38.3732 22.5854 39.3351C21.3525 40.297 20.4724 41.6383 20.0819 43.1508C15.8591 41.4019 12.4899 38.0727 10.6955 33.8757C12.2588 33.5157 13.654 32.6381 14.6536 31.3857C15.6533 30.1333 16.1987 28.5799 16.2008 26.9787C16.203 25.3775 15.6618 23.8227 14.6655 22.5676C13.6693 21.3125 12.2765 20.4311 10.7142 20.0669C12.5145 15.894 15.8727 12.5852 20.0766 10.8424C20.462 12.361 21.3407 13.7093 22.5754 14.6765C23.81 15.6437 25.3311 16.1752 26.9006 16.188C28.4701 16.2008 29.9996 15.6941 31.25 14.7471C32.5003 13.8001 33.4009 12.4662 33.811 10.9541C37.9197 12.747 41.1876 16.0379 42.9468 20.1547C41.4624 20.5791 40.157 21.4748 39.2284 22.7061C38.2998 23.9374 37.7986 25.4372 37.8007 26.9783C37.8028 28.5195 38.3081 30.0179 39.2401 31.2467C40.1721 32.4754 41.4799 33.3676 42.9655 33.7879C41.2129 37.9286 37.9339 41.2393 33.8057 43.0364ZM44.8982 31.396C44.0209 31.396 43.1632 31.1363 42.4337 30.6498C41.7042 30.1633 41.1357 29.4719 40.7999 28.6629C40.4642 27.8539 40.3763 26.9637 40.5475 26.1049C40.7187 25.2461 41.1411 24.4572 41.7615 23.838C42.3819 23.2189 43.1723 22.7972 44.0328 22.6264C44.8933 22.4555 45.7852 22.5432 46.5958 22.8783C47.4063 23.2134 48.0991 23.7809 48.5866 24.5089C49.074 25.237 49.3342 26.093 49.3342 26.9686C49.3335 28.1426 48.8659 29.2683 48.0341 30.0985C47.2024 30.9286 46.0745 31.3953 44.8982 31.396Z" fill="#FFCC01"/>
</svg>
