<svg width="54" height="55" viewBox="0 0 54 55" fill="none" xmlns="http://www.w3.org/2000/svg">
<path d="M30.0716 41.3853L23.2726 47.375L24.4493 39.856L22.0958 37.4346L20.0038 51.3257L17.9118 50.9434L20.2653 35.523L18.0425 33.1016L15.166 51.8355L16.212 53.3648L20.919 54.002L22.488 52.9825L22.6188 51.3257L34.6479 40.7481L30.0716 41.3853Z" fill="#FFCC01"></path>
<path d="M53.3462 29.7891L52.0387 28.897C52.431 23.0347 51.7772 13.9863 49.293 9.90821C46.8087 5.70264 40.7942 1.11474 33.2107 0.350086C17.7821 -1.30666 8.10654 2.89892 3.66102 13.3491C2.74576 15.3882 2.22276 17.937 1.96126 19.4663H1.69976L0.261501 20.6133L0 25.2012L1.17676 26.6031L16.7361 28.0049L26.8039 38.71L27.9806 39.0924L52.8232 35.9063L54 34.5045L53.3462 29.7891ZM6.01453 14.3687C8.49879 8.50635 14.1211 0.859852 32.9492 2.89892C39.6174 3.66357 44.8475 7.7417 47.0702 11.3101C49.293 15.0059 49.9467 23.7994 49.4237 29.1519L30.3341 31.5733L21.1816 21.7603L20.3971 21.2505L4.57627 19.7212C4.83777 18.1919 5.36077 16.0254 6.01453 14.3687ZM28.2421 36.4161L18.3051 25.8384L17.5206 25.4561L2.74576 24.1817V22.1426L19.6126 23.7994L28.8959 33.7398L30.0726 34.1221L50.862 31.4459L51.1235 33.4849L28.2421 36.4161Z" fill="#FFCC01"></path>
</svg>
